%TF.GenerationSoftware,KiCad,Pcbnew,10.0.5*%
%TF.CreationDate,2026-07-31T11:03:17-06:00*%
%TF.ProjectId,esp32_cam_led_head_v0_7,65737033-325f-4636-916d-5f6c65645f68,rev?*%
%TF.SameCoordinates,Original*%
%TF.FileFunction,Soldermask,Bot*%
%TF.FilePolarity,Negative*%
%FSLAX46Y46*%
G04 Gerber Fmt 4.6, Leading zero omitted, Abs format (unit mm)*
G04 Created by KiCad (PCBNEW 10.0.5) date 2026-07-31 11:03:17*
%MOMM*%
%LPD*%
G01*
G04 APERTURE LIST*
G04 APERTURE END LIST*
G36*
X12030000Y-26900000D02*
G01*
X10230000Y-26900000D01*
X10230000Y-25100000D01*
X12030000Y-25100000D01*
X12030000Y-26900000D01*
G37*
G36*
X21230000Y-26900000D02*
G01*
X19430000Y-26900000D01*
X19430000Y-25100000D01*
X21230000Y-25100000D01*
X21230000Y-26900000D01*
G37*
G36*
X13931256Y-25138754D02*
G01*
X14094257Y-25206271D01*
X14240954Y-25304291D01*
X14365709Y-25429046D01*
X14463729Y-25575743D01*
X14531246Y-25738744D01*
X14565666Y-25911785D01*
X14565666Y-26088215D01*
X14531246Y-26261256D01*
X14463729Y-26424257D01*
X14365709Y-26570954D01*
X14240954Y-26695709D01*
X14094257Y-26793729D01*
X13931256Y-26861246D01*
X13758215Y-26895666D01*
X13581785Y-26895666D01*
X13408744Y-26861246D01*
X13245743Y-26793729D01*
X13099046Y-26695709D01*
X12974291Y-26570954D01*
X12876271Y-26424257D01*
X12808754Y-26261256D01*
X12774334Y-26088215D01*
X12774334Y-25911785D01*
X12808754Y-25738744D01*
X12876271Y-25575743D01*
X12974291Y-25429046D01*
X13099046Y-25304291D01*
X13245743Y-25206271D01*
X13408744Y-25138754D01*
X13581785Y-25104334D01*
X13758215Y-25104334D01*
X13931256Y-25138754D01*
G37*
G36*
X23131256Y-25138754D02*
G01*
X23294257Y-25206271D01*
X23440954Y-25304291D01*
X23565709Y-25429046D01*
X23663729Y-25575743D01*
X23731246Y-25738744D01*
X23765666Y-25911785D01*
X23765666Y-26088215D01*
X23731246Y-26261256D01*
X23663729Y-26424257D01*
X23565709Y-26570954D01*
X23440954Y-26695709D01*
X23294257Y-26793729D01*
X23131256Y-26861246D01*
X22958215Y-26895666D01*
X22781785Y-26895666D01*
X22608744Y-26861246D01*
X22445743Y-26793729D01*
X22299046Y-26695709D01*
X22174291Y-26570954D01*
X22076271Y-26424257D01*
X22008754Y-26261256D01*
X21974334Y-26088215D01*
X21974334Y-25911785D01*
X22008754Y-25738744D01*
X22076271Y-25575743D01*
X22174291Y-25429046D01*
X22299046Y-25304291D01*
X22445743Y-25206271D01*
X22608744Y-25138754D01*
X22781785Y-25104334D01*
X22958215Y-25104334D01*
X23131256Y-25138754D01*
G37*
G36*
X4761499Y-16300000D02*
G01*
X2961499Y-16300000D01*
X2961499Y-14500000D01*
X4761499Y-14500000D01*
X4761499Y-16300000D01*
G37*
G36*
X24561499Y-16300000D02*
G01*
X22761499Y-16300000D01*
X22761499Y-14500000D01*
X24561499Y-14500000D01*
X24561499Y-16300000D01*
G37*
G36*
X6281755Y-14538754D02*
G01*
X6444756Y-14606271D01*
X6591453Y-14704291D01*
X6716208Y-14829046D01*
X6814228Y-14975743D01*
X6881745Y-15138744D01*
X6916165Y-15311785D01*
X6916165Y-15488215D01*
X6881745Y-15661256D01*
X6814228Y-15824257D01*
X6716208Y-15970954D01*
X6591453Y-16095709D01*
X6444756Y-16193729D01*
X6281755Y-16261246D01*
X6108714Y-16295666D01*
X5932284Y-16295666D01*
X5759243Y-16261246D01*
X5596242Y-16193729D01*
X5449545Y-16095709D01*
X5324790Y-15970954D01*
X5226770Y-15824257D01*
X5159253Y-15661256D01*
X5124833Y-15488215D01*
X5124833Y-15311785D01*
X5159253Y-15138744D01*
X5226770Y-14975743D01*
X5324790Y-14829046D01*
X5449545Y-14704291D01*
X5596242Y-14606271D01*
X5759243Y-14538754D01*
X5932284Y-14504334D01*
X6108714Y-14504334D01*
X6281755Y-14538754D01*
G37*
G36*
X8440755Y-14538754D02*
G01*
X8603756Y-14606271D01*
X8750453Y-14704291D01*
X8875208Y-14829046D01*
X8973228Y-14975743D01*
X9040745Y-15138744D01*
X9075165Y-15311785D01*
X9075165Y-15488215D01*
X9040745Y-15661256D01*
X8973228Y-15824257D01*
X8875208Y-15970954D01*
X8750453Y-16095709D01*
X8603756Y-16193729D01*
X8440755Y-16261246D01*
X8267714Y-16295666D01*
X8091284Y-16295666D01*
X7918243Y-16261246D01*
X7755242Y-16193729D01*
X7608545Y-16095709D01*
X7483790Y-15970954D01*
X7385770Y-15824257D01*
X7318253Y-15661256D01*
X7283833Y-15488215D01*
X7283833Y-15311785D01*
X7318253Y-15138744D01*
X7385770Y-14975743D01*
X7483790Y-14829046D01*
X7608545Y-14704291D01*
X7755242Y-14606271D01*
X7918243Y-14538754D01*
X8091284Y-14504334D01*
X8267714Y-14504334D01*
X8440755Y-14538754D01*
G37*
G36*
X10599755Y-14538754D02*
G01*
X10762756Y-14606271D01*
X10909453Y-14704291D01*
X11034208Y-14829046D01*
X11132228Y-14975743D01*
X11199745Y-15138744D01*
X11234165Y-15311785D01*
X11234165Y-15488215D01*
X11199745Y-15661256D01*
X11132228Y-15824257D01*
X11034208Y-15970954D01*
X10909453Y-16095709D01*
X10762756Y-16193729D01*
X10599755Y-16261246D01*
X10426714Y-16295666D01*
X10250284Y-16295666D01*
X10077243Y-16261246D01*
X9914242Y-16193729D01*
X9767545Y-16095709D01*
X9642790Y-15970954D01*
X9544770Y-15824257D01*
X9477253Y-15661256D01*
X9442833Y-15488215D01*
X9442833Y-15311785D01*
X9477253Y-15138744D01*
X9544770Y-14975743D01*
X9642790Y-14829046D01*
X9767545Y-14704291D01*
X9914242Y-14606271D01*
X10077243Y-14538754D01*
X10250284Y-14504334D01*
X10426714Y-14504334D01*
X10599755Y-14538754D01*
G37*
G36*
X26081755Y-14538754D02*
G01*
X26244756Y-14606271D01*
X26391453Y-14704291D01*
X26516208Y-14829046D01*
X26614228Y-14975743D01*
X26681745Y-15138744D01*
X26716165Y-15311785D01*
X26716165Y-15488215D01*
X26681745Y-15661256D01*
X26614228Y-15824257D01*
X26516208Y-15970954D01*
X26391453Y-16095709D01*
X26244756Y-16193729D01*
X26081755Y-16261246D01*
X25908714Y-16295666D01*
X25732284Y-16295666D01*
X25559243Y-16261246D01*
X25396242Y-16193729D01*
X25249545Y-16095709D01*
X25124790Y-15970954D01*
X25026770Y-15824257D01*
X24959253Y-15661256D01*
X24924833Y-15488215D01*
X24924833Y-15311785D01*
X24959253Y-15138744D01*
X25026770Y-14975743D01*
X25124790Y-14829046D01*
X25249545Y-14704291D01*
X25396242Y-14606271D01*
X25559243Y-14538754D01*
X25732284Y-14504334D01*
X25908714Y-14504334D01*
X26081755Y-14538754D01*
G37*
G36*
X28240755Y-14538754D02*
G01*
X28403756Y-14606271D01*
X28550453Y-14704291D01*
X28675208Y-14829046D01*
X28773228Y-14975743D01*
X28840745Y-15138744D01*
X28875165Y-15311785D01*
X28875165Y-15488215D01*
X28840745Y-15661256D01*
X28773228Y-15824257D01*
X28675208Y-15970954D01*
X28550453Y-16095709D01*
X28403756Y-16193729D01*
X28240755Y-16261246D01*
X28067714Y-16295666D01*
X27891284Y-16295666D01*
X27718243Y-16261246D01*
X27555242Y-16193729D01*
X27408545Y-16095709D01*
X27283790Y-15970954D01*
X27185770Y-15824257D01*
X27118253Y-15661256D01*
X27083833Y-15488215D01*
X27083833Y-15311785D01*
X27118253Y-15138744D01*
X27185770Y-14975743D01*
X27283790Y-14829046D01*
X27408545Y-14704291D01*
X27555242Y-14606271D01*
X27718243Y-14538754D01*
X27891284Y-14504334D01*
X28067714Y-14504334D01*
X28240755Y-14538754D01*
G37*
G36*
X30399755Y-14538754D02*
G01*
X30562756Y-14606271D01*
X30709453Y-14704291D01*
X30834208Y-14829046D01*
X30932228Y-14975743D01*
X30999745Y-15138744D01*
X31034165Y-15311785D01*
X31034165Y-15488215D01*
X30999745Y-15661256D01*
X30932228Y-15824257D01*
X30834208Y-15970954D01*
X30709453Y-16095709D01*
X30562756Y-16193729D01*
X30399755Y-16261246D01*
X30226714Y-16295666D01*
X30050284Y-16295666D01*
X29877243Y-16261246D01*
X29714242Y-16193729D01*
X29567545Y-16095709D01*
X29442790Y-15970954D01*
X29344770Y-15824257D01*
X29277253Y-15661256D01*
X29242833Y-15488215D01*
X29242833Y-15311785D01*
X29277253Y-15138744D01*
X29344770Y-14975743D01*
X29442790Y-14829046D01*
X29567545Y-14704291D01*
X29714242Y-14606271D01*
X29877243Y-14538754D01*
X30050284Y-14504334D01*
X30226714Y-14504334D01*
X30399755Y-14538754D01*
G37*
M02*
