%TF.GenerationSoftware,KiCad,Pcbnew,10.0.5*%
%TF.CreationDate,2026-07-31T11:03:17-06:00*%
%TF.ProjectId,esp32_cam_led_head_v0_7,65737033-325f-4636-916d-5f6c65645f68,rev?*%
%TF.SameCoordinates,Original*%
%TF.FileFunction,Soldermask,Top*%
%TF.FilePolarity,Negative*%
%FSLAX46Y46*%
G04 Gerber Fmt 4.6, Leading zero omitted, Abs format (unit mm)*
G04 Created by KiCad (PCBNEW 10.0.5) date 2026-07-31 11:03:17*
%MOMM*%
%LPD*%
G01*
G04 APERTURE LIST*
G04 APERTURE END LIST*
G36*
X7370671Y-46519030D02*
G01*
X7451777Y-46573223D01*
X7505970Y-46654329D01*
X7525000Y-46750000D01*
X7525000Y-48950000D01*
X7505970Y-49045671D01*
X7451777Y-49126777D01*
X7370671Y-49180970D01*
X7275000Y-49200000D01*
X6775000Y-49200000D01*
X6679329Y-49180970D01*
X6598223Y-49126777D01*
X6544030Y-49045671D01*
X6525000Y-48950000D01*
X6525000Y-46750000D01*
X6544030Y-46654329D01*
X6598223Y-46573223D01*
X6679329Y-46519030D01*
X6775000Y-46500000D01*
X7275000Y-46500000D01*
X7370671Y-46519030D01*
G37*
G36*
X27320671Y-46519030D02*
G01*
X27401777Y-46573223D01*
X27455970Y-46654329D01*
X27475000Y-46750000D01*
X27475000Y-48950000D01*
X27455970Y-49045671D01*
X27401777Y-49126777D01*
X27320671Y-49180970D01*
X27225000Y-49200000D01*
X26725000Y-49200000D01*
X26629329Y-49180970D01*
X26548223Y-49126777D01*
X26494030Y-49045671D01*
X26475000Y-48950000D01*
X26475000Y-46750000D01*
X26494030Y-46654329D01*
X26548223Y-46573223D01*
X26629329Y-46519030D01*
X26725000Y-46500000D01*
X27225000Y-46500000D01*
X27320671Y-46519030D01*
G37*
G36*
X9082403Y-43811418D02*
G01*
X9131066Y-43843934D01*
X9163582Y-43892597D01*
X9175000Y-43950000D01*
X9175000Y-45350000D01*
X9163582Y-45407403D01*
X9131066Y-45456066D01*
X9082403Y-45488582D01*
X9025000Y-45500000D01*
X8725000Y-45500000D01*
X8667597Y-45488582D01*
X8618934Y-45456066D01*
X8586418Y-45407403D01*
X8575000Y-45350000D01*
X8575000Y-43950000D01*
X8586418Y-43892597D01*
X8618934Y-43843934D01*
X8667597Y-43811418D01*
X8725000Y-43800000D01*
X9025000Y-43800000D01*
X9082403Y-43811418D01*
G37*
G36*
X10332403Y-43811418D02*
G01*
X10381066Y-43843934D01*
X10413582Y-43892597D01*
X10425000Y-43950000D01*
X10425000Y-45350000D01*
X10413582Y-45407403D01*
X10381066Y-45456066D01*
X10332403Y-45488582D01*
X10275000Y-45500000D01*
X9975000Y-45500000D01*
X9917597Y-45488582D01*
X9868934Y-45456066D01*
X9836418Y-45407403D01*
X9825000Y-45350000D01*
X9825000Y-43950000D01*
X9836418Y-43892597D01*
X9868934Y-43843934D01*
X9917597Y-43811418D01*
X9975000Y-43800000D01*
X10275000Y-43800000D01*
X10332403Y-43811418D01*
G37*
G36*
X11582403Y-43811418D02*
G01*
X11631066Y-43843934D01*
X11663582Y-43892597D01*
X11675000Y-43950000D01*
X11675000Y-45350000D01*
X11663582Y-45407403D01*
X11631066Y-45456066D01*
X11582403Y-45488582D01*
X11525000Y-45500000D01*
X11225000Y-45500000D01*
X11167597Y-45488582D01*
X11118934Y-45456066D01*
X11086418Y-45407403D01*
X11075000Y-45350000D01*
X11075000Y-43950000D01*
X11086418Y-43892597D01*
X11118934Y-43843934D01*
X11167597Y-43811418D01*
X11225000Y-43800000D01*
X11525000Y-43800000D01*
X11582403Y-43811418D01*
G37*
G36*
X12832403Y-43811418D02*
G01*
X12881066Y-43843934D01*
X12913582Y-43892597D01*
X12925000Y-43950000D01*
X12925000Y-45350000D01*
X12913582Y-45407403D01*
X12881066Y-45456066D01*
X12832403Y-45488582D01*
X12775000Y-45500000D01*
X12475000Y-45500000D01*
X12417597Y-45488582D01*
X12368934Y-45456066D01*
X12336418Y-45407403D01*
X12325000Y-45350000D01*
X12325000Y-43950000D01*
X12336418Y-43892597D01*
X12368934Y-43843934D01*
X12417597Y-43811418D01*
X12475000Y-43800000D01*
X12775000Y-43800000D01*
X12832403Y-43811418D01*
G37*
G36*
X14082403Y-43811418D02*
G01*
X14131066Y-43843934D01*
X14163582Y-43892597D01*
X14175000Y-43950000D01*
X14175000Y-45350000D01*
X14163582Y-45407403D01*
X14131066Y-45456066D01*
X14082403Y-45488582D01*
X14025000Y-45500000D01*
X13725000Y-45500000D01*
X13667597Y-45488582D01*
X13618934Y-45456066D01*
X13586418Y-45407403D01*
X13575000Y-45350000D01*
X13575000Y-43950000D01*
X13586418Y-43892597D01*
X13618934Y-43843934D01*
X13667597Y-43811418D01*
X13725000Y-43800000D01*
X14025000Y-43800000D01*
X14082403Y-43811418D01*
G37*
G36*
X15332403Y-43811418D02*
G01*
X15381066Y-43843934D01*
X15413582Y-43892597D01*
X15425000Y-43950000D01*
X15425000Y-45350000D01*
X15413582Y-45407403D01*
X15381066Y-45456066D01*
X15332403Y-45488582D01*
X15275000Y-45500000D01*
X14975000Y-45500000D01*
X14917597Y-45488582D01*
X14868934Y-45456066D01*
X14836418Y-45407403D01*
X14825000Y-45350000D01*
X14825000Y-43950000D01*
X14836418Y-43892597D01*
X14868934Y-43843934D01*
X14917597Y-43811418D01*
X14975000Y-43800000D01*
X15275000Y-43800000D01*
X15332403Y-43811418D01*
G37*
G36*
X16582403Y-43811418D02*
G01*
X16631066Y-43843934D01*
X16663582Y-43892597D01*
X16675000Y-43950000D01*
X16675000Y-45350000D01*
X16663582Y-45407403D01*
X16631066Y-45456066D01*
X16582403Y-45488582D01*
X16525000Y-45500000D01*
X16225000Y-45500000D01*
X16167597Y-45488582D01*
X16118934Y-45456066D01*
X16086418Y-45407403D01*
X16075000Y-45350000D01*
X16075000Y-43950000D01*
X16086418Y-43892597D01*
X16118934Y-43843934D01*
X16167597Y-43811418D01*
X16225000Y-43800000D01*
X16525000Y-43800000D01*
X16582403Y-43811418D01*
G37*
G36*
X17832403Y-43811418D02*
G01*
X17881066Y-43843934D01*
X17913582Y-43892597D01*
X17925000Y-43950000D01*
X17925000Y-45350000D01*
X17913582Y-45407403D01*
X17881066Y-45456066D01*
X17832403Y-45488582D01*
X17775000Y-45500000D01*
X17475000Y-45500000D01*
X17417597Y-45488582D01*
X17368934Y-45456066D01*
X17336418Y-45407403D01*
X17325000Y-45350000D01*
X17325000Y-43950000D01*
X17336418Y-43892597D01*
X17368934Y-43843934D01*
X17417597Y-43811418D01*
X17475000Y-43800000D01*
X17775000Y-43800000D01*
X17832403Y-43811418D01*
G37*
G36*
X19082403Y-43811418D02*
G01*
X19131066Y-43843934D01*
X19163582Y-43892597D01*
X19175000Y-43950000D01*
X19175000Y-45350000D01*
X19163582Y-45407403D01*
X19131066Y-45456066D01*
X19082403Y-45488582D01*
X19025000Y-45500000D01*
X18725000Y-45500000D01*
X18667597Y-45488582D01*
X18618934Y-45456066D01*
X18586418Y-45407403D01*
X18575000Y-45350000D01*
X18575000Y-43950000D01*
X18586418Y-43892597D01*
X18618934Y-43843934D01*
X18667597Y-43811418D01*
X18725000Y-43800000D01*
X19025000Y-43800000D01*
X19082403Y-43811418D01*
G37*
G36*
X20332403Y-43811418D02*
G01*
X20381066Y-43843934D01*
X20413582Y-43892597D01*
X20425000Y-43950000D01*
X20425000Y-45350000D01*
X20413582Y-45407403D01*
X20381066Y-45456066D01*
X20332403Y-45488582D01*
X20275000Y-45500000D01*
X19975000Y-45500000D01*
X19917597Y-45488582D01*
X19868934Y-45456066D01*
X19836418Y-45407403D01*
X19825000Y-45350000D01*
X19825000Y-43950000D01*
X19836418Y-43892597D01*
X19868934Y-43843934D01*
X19917597Y-43811418D01*
X19975000Y-43800000D01*
X20275000Y-43800000D01*
X20332403Y-43811418D01*
G37*
G36*
X21582403Y-43811418D02*
G01*
X21631066Y-43843934D01*
X21663582Y-43892597D01*
X21675000Y-43950000D01*
X21675000Y-45350000D01*
X21663582Y-45407403D01*
X21631066Y-45456066D01*
X21582403Y-45488582D01*
X21525000Y-45500000D01*
X21225000Y-45500000D01*
X21167597Y-45488582D01*
X21118934Y-45456066D01*
X21086418Y-45407403D01*
X21075000Y-45350000D01*
X21075000Y-43950000D01*
X21086418Y-43892597D01*
X21118934Y-43843934D01*
X21167597Y-43811418D01*
X21225000Y-43800000D01*
X21525000Y-43800000D01*
X21582403Y-43811418D01*
G37*
G36*
X22832403Y-43811418D02*
G01*
X22881066Y-43843934D01*
X22913582Y-43892597D01*
X22925000Y-43950000D01*
X22925000Y-45350000D01*
X22913582Y-45407403D01*
X22881066Y-45456066D01*
X22832403Y-45488582D01*
X22775000Y-45500000D01*
X22475000Y-45500000D01*
X22417597Y-45488582D01*
X22368934Y-45456066D01*
X22336418Y-45407403D01*
X22325000Y-45350000D01*
X22325000Y-43950000D01*
X22336418Y-43892597D01*
X22368934Y-43843934D01*
X22417597Y-43811418D01*
X22475000Y-43800000D01*
X22775000Y-43800000D01*
X22832403Y-43811418D01*
G37*
G36*
X24082403Y-43811418D02*
G01*
X24131066Y-43843934D01*
X24163582Y-43892597D01*
X24175000Y-43950000D01*
X24175000Y-45350000D01*
X24163582Y-45407403D01*
X24131066Y-45456066D01*
X24082403Y-45488582D01*
X24025000Y-45500000D01*
X23725000Y-45500000D01*
X23667597Y-45488582D01*
X23618934Y-45456066D01*
X23586418Y-45407403D01*
X23575000Y-45350000D01*
X23575000Y-43950000D01*
X23586418Y-43892597D01*
X23618934Y-43843934D01*
X23667597Y-43811418D01*
X23725000Y-43800000D01*
X24025000Y-43800000D01*
X24082403Y-43811418D01*
G37*
G36*
X25332403Y-43811418D02*
G01*
X25381066Y-43843934D01*
X25413582Y-43892597D01*
X25425000Y-43950000D01*
X25425000Y-45350000D01*
X25413582Y-45407403D01*
X25381066Y-45456066D01*
X25332403Y-45488582D01*
X25275000Y-45500000D01*
X24975000Y-45500000D01*
X24917597Y-45488582D01*
X24868934Y-45456066D01*
X24836418Y-45407403D01*
X24825000Y-45350000D01*
X24825000Y-43950000D01*
X24836418Y-43892597D01*
X24868934Y-43843934D01*
X24917597Y-43811418D01*
X24975000Y-43800000D01*
X25275000Y-43800000D01*
X25332403Y-43811418D01*
G37*
G36*
X16395671Y-39094030D02*
G01*
X16476777Y-39148223D01*
X16530970Y-39229329D01*
X16550000Y-39325000D01*
X16550000Y-40275000D01*
X16530970Y-40370671D01*
X16476777Y-40451777D01*
X16395671Y-40505970D01*
X16300000Y-40525000D01*
X15800000Y-40525000D01*
X15704329Y-40505970D01*
X15623223Y-40451777D01*
X15569030Y-40370671D01*
X15550000Y-40275000D01*
X15550000Y-39325000D01*
X15569030Y-39229329D01*
X15623223Y-39148223D01*
X15704329Y-39094030D01*
X15800000Y-39075000D01*
X16300000Y-39075000D01*
X16395671Y-39094030D01*
G37*
G36*
X18295671Y-39094030D02*
G01*
X18376777Y-39148223D01*
X18430970Y-39229329D01*
X18450000Y-39325000D01*
X18450000Y-40275000D01*
X18430970Y-40370671D01*
X18376777Y-40451777D01*
X18295671Y-40505970D01*
X18200000Y-40525000D01*
X17700000Y-40525000D01*
X17604329Y-40505970D01*
X17523223Y-40451777D01*
X17469030Y-40370671D01*
X17450000Y-40275000D01*
X17450000Y-39325000D01*
X17469030Y-39229329D01*
X17523223Y-39148223D01*
X17604329Y-39094030D01*
X17700000Y-39075000D01*
X18200000Y-39075000D01*
X18295671Y-39094030D01*
G37*
G36*
X15945671Y-35119030D02*
G01*
X16026777Y-35173223D01*
X16080970Y-35254329D01*
X16100000Y-35350000D01*
X16100000Y-36650000D01*
X16080970Y-36745671D01*
X16026777Y-36826777D01*
X15945671Y-36880970D01*
X15850000Y-36900000D01*
X15200000Y-36900000D01*
X15104329Y-36880970D01*
X15023223Y-36826777D01*
X14969030Y-36745671D01*
X14950000Y-36650000D01*
X14950000Y-35350000D01*
X14969030Y-35254329D01*
X15023223Y-35173223D01*
X15104329Y-35119030D01*
X15200000Y-35100000D01*
X15850000Y-35100000D01*
X15945671Y-35119030D01*
G37*
G36*
X18895671Y-35119030D02*
G01*
X18976777Y-35173223D01*
X19030970Y-35254329D01*
X19050000Y-35350000D01*
X19050000Y-36650000D01*
X19030970Y-36745671D01*
X18976777Y-36826777D01*
X18895671Y-36880970D01*
X18800000Y-36900000D01*
X18150000Y-36900000D01*
X18054329Y-36880970D01*
X17973223Y-36826777D01*
X17919030Y-36745671D01*
X17900000Y-36650000D01*
X17900000Y-35350000D01*
X17919030Y-35254329D01*
X17973223Y-35173223D01*
X18054329Y-35119030D01*
X18150000Y-35100000D01*
X18800000Y-35100000D01*
X18895671Y-35119030D01*
G37*
G36*
X12030000Y-26900000D02*
G01*
X10230000Y-26900000D01*
X10230000Y-25100000D01*
X12030000Y-25100000D01*
X12030000Y-26900000D01*
G37*
G36*
X21230000Y-26900000D02*
G01*
X19430000Y-26900000D01*
X19430000Y-25100000D01*
X21230000Y-25100000D01*
X21230000Y-26900000D01*
G37*
G36*
X13931256Y-25138754D02*
G01*
X14094257Y-25206271D01*
X14240954Y-25304291D01*
X14365709Y-25429046D01*
X14463729Y-25575743D01*
X14531246Y-25738744D01*
X14565666Y-25911785D01*
X14565666Y-26088215D01*
X14531246Y-26261256D01*
X14463729Y-26424257D01*
X14365709Y-26570954D01*
X14240954Y-26695709D01*
X14094257Y-26793729D01*
X13931256Y-26861246D01*
X13758215Y-26895666D01*
X13581785Y-26895666D01*
X13408744Y-26861246D01*
X13245743Y-26793729D01*
X13099046Y-26695709D01*
X12974291Y-26570954D01*
X12876271Y-26424257D01*
X12808754Y-26261256D01*
X12774334Y-26088215D01*
X12774334Y-25911785D01*
X12808754Y-25738744D01*
X12876271Y-25575743D01*
X12974291Y-25429046D01*
X13099046Y-25304291D01*
X13245743Y-25206271D01*
X13408744Y-25138754D01*
X13581785Y-25104334D01*
X13758215Y-25104334D01*
X13931256Y-25138754D01*
G37*
G36*
X23131256Y-25138754D02*
G01*
X23294257Y-25206271D01*
X23440954Y-25304291D01*
X23565709Y-25429046D01*
X23663729Y-25575743D01*
X23731246Y-25738744D01*
X23765666Y-25911785D01*
X23765666Y-26088215D01*
X23731246Y-26261256D01*
X23663729Y-26424257D01*
X23565709Y-26570954D01*
X23440954Y-26695709D01*
X23294257Y-26793729D01*
X23131256Y-26861246D01*
X22958215Y-26895666D01*
X22781785Y-26895666D01*
X22608744Y-26861246D01*
X22445743Y-26793729D01*
X22299046Y-26695709D01*
X22174291Y-26570954D01*
X22076271Y-26424257D01*
X22008754Y-26261256D01*
X21974334Y-26088215D01*
X21974334Y-25911785D01*
X22008754Y-25738744D01*
X22076271Y-25575743D01*
X22174291Y-25429046D01*
X22299046Y-25304291D01*
X22445743Y-25206271D01*
X22608744Y-25138754D01*
X22781785Y-25104334D01*
X22958215Y-25104334D01*
X23131256Y-25138754D01*
G37*
G36*
X4761499Y-16300000D02*
G01*
X2961499Y-16300000D01*
X2961499Y-14500000D01*
X4761499Y-14500000D01*
X4761499Y-16300000D01*
G37*
G36*
X24561499Y-16300000D02*
G01*
X22761499Y-16300000D01*
X22761499Y-14500000D01*
X24561499Y-14500000D01*
X24561499Y-16300000D01*
G37*
G36*
X6281755Y-14538754D02*
G01*
X6444756Y-14606271D01*
X6591453Y-14704291D01*
X6716208Y-14829046D01*
X6814228Y-14975743D01*
X6881745Y-15138744D01*
X6916165Y-15311785D01*
X6916165Y-15488215D01*
X6881745Y-15661256D01*
X6814228Y-15824257D01*
X6716208Y-15970954D01*
X6591453Y-16095709D01*
X6444756Y-16193729D01*
X6281755Y-16261246D01*
X6108714Y-16295666D01*
X5932284Y-16295666D01*
X5759243Y-16261246D01*
X5596242Y-16193729D01*
X5449545Y-16095709D01*
X5324790Y-15970954D01*
X5226770Y-15824257D01*
X5159253Y-15661256D01*
X5124833Y-15488215D01*
X5124833Y-15311785D01*
X5159253Y-15138744D01*
X5226770Y-14975743D01*
X5324790Y-14829046D01*
X5449545Y-14704291D01*
X5596242Y-14606271D01*
X5759243Y-14538754D01*
X5932284Y-14504334D01*
X6108714Y-14504334D01*
X6281755Y-14538754D01*
G37*
G36*
X8440755Y-14538754D02*
G01*
X8603756Y-14606271D01*
X8750453Y-14704291D01*
X8875208Y-14829046D01*
X8973228Y-14975743D01*
X9040745Y-15138744D01*
X9075165Y-15311785D01*
X9075165Y-15488215D01*
X9040745Y-15661256D01*
X8973228Y-15824257D01*
X8875208Y-15970954D01*
X8750453Y-16095709D01*
X8603756Y-16193729D01*
X8440755Y-16261246D01*
X8267714Y-16295666D01*
X8091284Y-16295666D01*
X7918243Y-16261246D01*
X7755242Y-16193729D01*
X7608545Y-16095709D01*
X7483790Y-15970954D01*
X7385770Y-15824257D01*
X7318253Y-15661256D01*
X7283833Y-15488215D01*
X7283833Y-15311785D01*
X7318253Y-15138744D01*
X7385770Y-14975743D01*
X7483790Y-14829046D01*
X7608545Y-14704291D01*
X7755242Y-14606271D01*
X7918243Y-14538754D01*
X8091284Y-14504334D01*
X8267714Y-14504334D01*
X8440755Y-14538754D01*
G37*
G36*
X10599755Y-14538754D02*
G01*
X10762756Y-14606271D01*
X10909453Y-14704291D01*
X11034208Y-14829046D01*
X11132228Y-14975743D01*
X11199745Y-15138744D01*
X11234165Y-15311785D01*
X11234165Y-15488215D01*
X11199745Y-15661256D01*
X11132228Y-15824257D01*
X11034208Y-15970954D01*
X10909453Y-16095709D01*
X10762756Y-16193729D01*
X10599755Y-16261246D01*
X10426714Y-16295666D01*
X10250284Y-16295666D01*
X10077243Y-16261246D01*
X9914242Y-16193729D01*
X9767545Y-16095709D01*
X9642790Y-15970954D01*
X9544770Y-15824257D01*
X9477253Y-15661256D01*
X9442833Y-15488215D01*
X9442833Y-15311785D01*
X9477253Y-15138744D01*
X9544770Y-14975743D01*
X9642790Y-14829046D01*
X9767545Y-14704291D01*
X9914242Y-14606271D01*
X10077243Y-14538754D01*
X10250284Y-14504334D01*
X10426714Y-14504334D01*
X10599755Y-14538754D01*
G37*
G36*
X26081755Y-14538754D02*
G01*
X26244756Y-14606271D01*
X26391453Y-14704291D01*
X26516208Y-14829046D01*
X26614228Y-14975743D01*
X26681745Y-15138744D01*
X26716165Y-15311785D01*
X26716165Y-15488215D01*
X26681745Y-15661256D01*
X26614228Y-15824257D01*
X26516208Y-15970954D01*
X26391453Y-16095709D01*
X26244756Y-16193729D01*
X26081755Y-16261246D01*
X25908714Y-16295666D01*
X25732284Y-16295666D01*
X25559243Y-16261246D01*
X25396242Y-16193729D01*
X25249545Y-16095709D01*
X25124790Y-15970954D01*
X25026770Y-15824257D01*
X24959253Y-15661256D01*
X24924833Y-15488215D01*
X24924833Y-15311785D01*
X24959253Y-15138744D01*
X25026770Y-14975743D01*
X25124790Y-14829046D01*
X25249545Y-14704291D01*
X25396242Y-14606271D01*
X25559243Y-14538754D01*
X25732284Y-14504334D01*
X25908714Y-14504334D01*
X26081755Y-14538754D01*
G37*
G36*
X28240755Y-14538754D02*
G01*
X28403756Y-14606271D01*
X28550453Y-14704291D01*
X28675208Y-14829046D01*
X28773228Y-14975743D01*
X28840745Y-15138744D01*
X28875165Y-15311785D01*
X28875165Y-15488215D01*
X28840745Y-15661256D01*
X28773228Y-15824257D01*
X28675208Y-15970954D01*
X28550453Y-16095709D01*
X28403756Y-16193729D01*
X28240755Y-16261246D01*
X28067714Y-16295666D01*
X27891284Y-16295666D01*
X27718243Y-16261246D01*
X27555242Y-16193729D01*
X27408545Y-16095709D01*
X27283790Y-15970954D01*
X27185770Y-15824257D01*
X27118253Y-15661256D01*
X27083833Y-15488215D01*
X27083833Y-15311785D01*
X27118253Y-15138744D01*
X27185770Y-14975743D01*
X27283790Y-14829046D01*
X27408545Y-14704291D01*
X27555242Y-14606271D01*
X27718243Y-14538754D01*
X27891284Y-14504334D01*
X28067714Y-14504334D01*
X28240755Y-14538754D01*
G37*
G36*
X30399755Y-14538754D02*
G01*
X30562756Y-14606271D01*
X30709453Y-14704291D01*
X30834208Y-14829046D01*
X30932228Y-14975743D01*
X30999745Y-15138744D01*
X31034165Y-15311785D01*
X31034165Y-15488215D01*
X30999745Y-15661256D01*
X30932228Y-15824257D01*
X30834208Y-15970954D01*
X30709453Y-16095709D01*
X30562756Y-16193729D01*
X30399755Y-16261246D01*
X30226714Y-16295666D01*
X30050284Y-16295666D01*
X29877243Y-16261246D01*
X29714242Y-16193729D01*
X29567545Y-16095709D01*
X29442790Y-15970954D01*
X29344770Y-15824257D01*
X29277253Y-15661256D01*
X29242833Y-15488215D01*
X29242833Y-15311785D01*
X29277253Y-15138744D01*
X29344770Y-14975743D01*
X29442790Y-14829046D01*
X29567545Y-14704291D01*
X29714242Y-14606271D01*
X29877243Y-14538754D01*
X30050284Y-14504334D01*
X30226714Y-14504334D01*
X30399755Y-14538754D01*
G37*
M02*
