solid 06_clear_acrylic_lens_panel_template
  facet normal 0.000000 0.000000 -1.000000
    outer loop
      vertex 0.000000 0.000000 0.000000
      vertex 49.000000 35.000000 0.000000
      vertex 49.000000 0.000000 0.000000
    endloop
  endfacet
  facet normal 0.000000 0.000000 -1.000000
    outer loop
      vertex 0.000000 0.000000 0.000000
      vertex 0.000000 35.000000 0.000000
      vertex 49.000000 35.000000 0.000000
    endloop
  endfacet
  facet normal 0.000000 0.000000 1.000000
    outer loop
      vertex 0.000000 0.000000 1.000000
      vertex 49.000000 0.000000 1.000000
      vertex 49.000000 35.000000 1.000000
    endloop
  endfacet
  facet normal 0.000000 0.000000 1.000000
    outer loop
      vertex 0.000000 0.000000 1.000000
      vertex 49.000000 35.000000 1.000000
      vertex 0.000000 35.000000 1.000000
    endloop
  endfacet
  facet normal 0.000000 -1.000000 0.000000
    outer loop
      vertex 0.000000 0.000000 0.000000
      vertex 49.000000 0.000000 0.000000
      vertex 49.000000 0.000000 1.000000
    endloop
  endfacet
  facet normal 0.000000 -1.000000 0.000000
    outer loop
      vertex 0.000000 0.000000 0.000000
      vertex 49.000000 0.000000 1.000000
      vertex 0.000000 0.000000 1.000000
    endloop
  endfacet
  facet normal 1.000000 0.000000 0.000000
    outer loop
      vertex 49.000000 0.000000 0.000000
      vertex 49.000000 35.000000 0.000000
      vertex 49.000000 35.000000 1.000000
    endloop
  endfacet
  facet normal 1.000000 0.000000 0.000000
    outer loop
      vertex 49.000000 0.000000 0.000000
      vertex 49.000000 35.000000 1.000000
      vertex 49.000000 0.000000 1.000000
    endloop
  endfacet
  facet normal 0.000000 1.000000 0.000000
    outer loop
      vertex 49.000000 35.000000 0.000000
      vertex 0.000000 35.000000 0.000000
      vertex 0.000000 35.000000 1.000000
    endloop
  endfacet
  facet normal 0.000000 1.000000 -0.000000
    outer loop
      vertex 49.000000 35.000000 0.000000
      vertex 0.000000 35.000000 1.000000
      vertex 49.000000 35.000000 1.000000
    endloop
  endfacet
  facet normal -1.000000 0.000000 0.000000
    outer loop
      vertex 0.000000 35.000000 0.000000
      vertex 0.000000 0.000000 0.000000
      vertex 0.000000 0.000000 1.000000
    endloop
  endfacet
  facet normal -1.000000 0.000000 0.000000
    outer loop
      vertex 0.000000 35.000000 0.000000
      vertex 0.000000 0.000000 1.000000
      vertex 0.000000 35.000000 1.000000
    endloop
  endfacet
endsolid 06_clear_acrylic_lens_panel_template
