solid 07_left_reflective_insert
  facet normal 0.000000 0.000000 -1.000000
    outer loop
      vertex 0.000000 0.000000 0.000000
      vertex 1.000000 37.500000 0.000000
      vertex 1.000000 0.000000 0.000000
    endloop
  endfacet
  facet normal 0.000000 0.000000 -1.000000
    outer loop
      vertex 0.000000 0.000000 0.000000
      vertex 0.000000 37.500000 0.000000
      vertex 1.000000 37.500000 0.000000
    endloop
  endfacet
  facet normal 0.000000 0.000000 1.000000
    outer loop
      vertex 0.000000 0.000000 10.800000
      vertex 1.000000 0.000000 10.800000
      vertex 1.000000 37.500000 10.800000
    endloop
  endfacet
  facet normal 0.000000 0.000000 1.000000
    outer loop
      vertex 0.000000 0.000000 10.800000
      vertex 1.000000 37.500000 10.800000
      vertex 0.000000 37.500000 10.800000
    endloop
  endfacet
  facet normal 0.000000 -1.000000 0.000000
    outer loop
      vertex 0.000000 0.000000 0.000000
      vertex 1.000000 0.000000 0.000000
      vertex 1.000000 0.000000 10.800000
    endloop
  endfacet
  facet normal 0.000000 -1.000000 0.000000
    outer loop
      vertex 0.000000 0.000000 0.000000
      vertex 1.000000 0.000000 10.800000
      vertex 0.000000 0.000000 10.800000
    endloop
  endfacet
  facet normal 1.000000 0.000000 0.000000
    outer loop
      vertex 1.000000 0.000000 0.000000
      vertex 1.000000 37.500000 0.000000
      vertex 1.000000 37.500000 10.800000
    endloop
  endfacet
  facet normal 1.000000 0.000000 0.000000
    outer loop
      vertex 1.000000 0.000000 0.000000
      vertex 1.000000 37.500000 10.800000
      vertex 1.000000 0.000000 10.800000
    endloop
  endfacet
  facet normal 0.000000 1.000000 0.000000
    outer loop
      vertex 1.000000 37.500000 0.000000
      vertex 0.000000 37.500000 0.000000
      vertex 0.000000 37.500000 10.800000
    endloop
  endfacet
  facet normal 0.000000 1.000000 -0.000000
    outer loop
      vertex 1.000000 37.500000 0.000000
      vertex 0.000000 37.500000 10.800000
      vertex 1.000000 37.500000 10.800000
    endloop
  endfacet
  facet normal -1.000000 0.000000 0.000000
    outer loop
      vertex 0.000000 37.500000 0.000000
      vertex 0.000000 0.000000 0.000000
      vertex 0.000000 0.000000 10.800000
    endloop
  endfacet
  facet normal -1.000000 0.000000 0.000000
    outer loop
      vertex 0.000000 37.500000 0.000000
      vertex 0.000000 0.000000 10.800000
      vertex 0.000000 37.500000 10.800000
    endloop
  endfacet
endsolid 07_left_reflective_insert
