solid 08_acrylic_square_1_template
  facet normal 0.000000 0.000000 -1.000000
    outer loop
      vertex 0.000000 0.000000 0.000000
      vertex 18.000000 18.000000 0.000000
      vertex 18.000000 0.000000 0.000000
    endloop
  endfacet
  facet normal 0.000000 0.000000 -1.000000
    outer loop
      vertex 0.000000 0.000000 0.000000
      vertex 0.000000 18.000000 0.000000
      vertex 18.000000 18.000000 0.000000
    endloop
  endfacet
  facet normal 0.000000 0.000000 1.000000
    outer loop
      vertex 0.000000 0.000000 1.000000
      vertex 18.000000 0.000000 1.000000
      vertex 18.000000 18.000000 1.000000
    endloop
  endfacet
  facet normal 0.000000 0.000000 1.000000
    outer loop
      vertex 0.000000 0.000000 1.000000
      vertex 18.000000 18.000000 1.000000
      vertex 0.000000 18.000000 1.000000
    endloop
  endfacet
  facet normal 0.000000 -1.000000 0.000000
    outer loop
      vertex 0.000000 0.000000 0.000000
      vertex 18.000000 0.000000 0.000000
      vertex 18.000000 0.000000 1.000000
    endloop
  endfacet
  facet normal 0.000000 -1.000000 0.000000
    outer loop
      vertex 0.000000 0.000000 0.000000
      vertex 18.000000 0.000000 1.000000
      vertex 0.000000 0.000000 1.000000
    endloop
  endfacet
  facet normal 1.000000 0.000000 0.000000
    outer loop
      vertex 18.000000 0.000000 0.000000
      vertex 18.000000 18.000000 0.000000
      vertex 18.000000 18.000000 1.000000
    endloop
  endfacet
  facet normal 1.000000 0.000000 0.000000
    outer loop
      vertex 18.000000 0.000000 0.000000
      vertex 18.000000 18.000000 1.000000
      vertex 18.000000 0.000000 1.000000
    endloop
  endfacet
  facet normal 0.000000 1.000000 0.000000
    outer loop
      vertex 18.000000 18.000000 0.000000
      vertex 0.000000 18.000000 0.000000
      vertex 0.000000 18.000000 1.000000
    endloop
  endfacet
  facet normal 0.000000 1.000000 -0.000000
    outer loop
      vertex 18.000000 18.000000 0.000000
      vertex 0.000000 18.000000 1.000000
      vertex 18.000000 18.000000 1.000000
    endloop
  endfacet
  facet normal -1.000000 0.000000 0.000000
    outer loop
      vertex 0.000000 18.000000 0.000000
      vertex 0.000000 0.000000 0.000000
      vertex 0.000000 0.000000 1.000000
    endloop
  endfacet
  facet normal -1.000000 0.000000 0.000000
    outer loop
      vertex 0.000000 18.000000 0.000000
      vertex 0.000000 0.000000 1.000000
      vertex 0.000000 18.000000 1.000000
    endloop
  endfacet
endsolid 08_acrylic_square_1_template
