%TF.GenerationSoftware,KiCad,Pcbnew,10.0.5*%
%TF.CreationDate,2026-07-31T11:03:18-06:00*%
%TF.ProjectId,iphone16e_2s_sk6812_main_v0_7,6970686f-6e65-4313-9665-5f32735f736b,rev?*%
%TF.SameCoordinates,Original*%
%TF.FileFunction,Other,User*%
%FSLAX46Y46*%
G04 Gerber Fmt 4.6, Leading zero omitted, Abs format (unit mm)*
G04 Created by KiCad (PCBNEW 10.0.5) date 2026-07-31 11:03:18*
%MOMM*%
%LPD*%
G01*
G04 APERTURE LIST*
%ADD10C,0.050000*%
G04 APERTURE END LIST*
%TO.C,Q1*%
D10*
X61070000Y-90450000D02*
X62100000Y-90450000D01*
X61070000Y-91550000D02*
X61070000Y-90450000D01*
X62100000Y-89300000D02*
X63900000Y-89300000D01*
X62100000Y-90450000D02*
X62100000Y-89300000D01*
X62100000Y-91550000D02*
X61070000Y-91550000D01*
X62100000Y-92700000D02*
X62100000Y-91550000D01*
X63900000Y-89300000D02*
X63900000Y-89500000D01*
X63900000Y-89500000D02*
X64930000Y-89500000D01*
X63900000Y-90610000D02*
X63900000Y-91390000D01*
X63900000Y-91390000D02*
X64930000Y-91390000D01*
X63900000Y-92500000D02*
X63900000Y-92700000D01*
X63900000Y-92700000D02*
X62100000Y-92700000D01*
X64930000Y-89500000D02*
X64930000Y-90610000D01*
X64930000Y-90610000D02*
X63900000Y-90610000D01*
X64930000Y-91390000D02*
X64930000Y-92500000D01*
X64930000Y-92500000D02*
X63900000Y-92500000D01*
%TO.C,P2*%
X5500000Y-125500000D02*
X5500000Y-130500000D01*
X5500000Y-125500000D02*
X10500000Y-125500000D01*
X10500000Y-130500000D02*
X5500000Y-130500000D01*
X10500000Y-130500000D02*
X10500000Y-125500000D01*
%TO.C,P1*%
X5500000Y-116500000D02*
X5500000Y-121500000D01*
X5500000Y-116500000D02*
X10500000Y-116500000D01*
X10500000Y-121500000D02*
X5500000Y-121500000D01*
X10500000Y-121500000D02*
X10500000Y-116500000D01*
%TO.C,P5*%
X34000000Y-117000000D02*
X34000000Y-121000000D01*
X34000000Y-117000000D02*
X38000000Y-117000000D01*
X38000000Y-121000000D02*
X34000000Y-121000000D01*
X38000000Y-121000000D02*
X38000000Y-117000000D01*
%TO.C,H2*%
X8450000Y-48000000D02*
G75*
G02*
X1550000Y-48000000I-3450000J0D01*
G01*
X1550000Y-48000000D02*
G75*
G02*
X8450000Y-48000000I3450000J0D01*
G01*
%TO.C,P6*%
X34000000Y-126000000D02*
X34000000Y-130000000D01*
X34000000Y-126000000D02*
X38000000Y-126000000D01*
X38000000Y-130000000D02*
X34000000Y-130000000D01*
X38000000Y-130000000D02*
X38000000Y-126000000D01*
%TO.C,P7*%
X48000000Y-117000000D02*
X48000000Y-121000000D01*
X48000000Y-117000000D02*
X52000000Y-117000000D01*
X52000000Y-121000000D02*
X48000000Y-121000000D01*
X52000000Y-121000000D02*
X52000000Y-117000000D01*
%TO.C,J8*%
X44020000Y-95500000D02*
X44120000Y-95500000D01*
X44020000Y-99200000D02*
X44020000Y-95500000D01*
X44120000Y-93900000D02*
X46070000Y-93900000D01*
X44120000Y-95500000D02*
X44120000Y-93900000D01*
X46030000Y-98950000D02*
X46030000Y-99200000D01*
X46030000Y-99200000D02*
X44020000Y-99200000D01*
X46070000Y-92800000D02*
X63930000Y-92800000D01*
X46070000Y-93900000D02*
X46070000Y-92800000D01*
X63930000Y-92800000D02*
X63930000Y-93900000D01*
X63930000Y-93900000D02*
X65880000Y-93900000D01*
X63970000Y-98950000D02*
X46030000Y-98950000D01*
X63970000Y-99200000D02*
X63970000Y-98950000D01*
X65880000Y-93900000D02*
X65880000Y-95500000D01*
X65880000Y-95500000D02*
X65980000Y-95500000D01*
X65980000Y-95500000D02*
X65980000Y-99200000D01*
X65980000Y-99200000D02*
X63970000Y-99200000D01*
%TO.C,R9*%
X53320000Y-49050000D02*
X56680000Y-49050000D01*
X56680000Y-50950000D01*
X53320000Y-50950000D01*
X53320000Y-49050000D01*
%TO.C,JP1*%
X59230000Y-37230000D02*
X65320000Y-37230000D01*
X65320000Y-40770000D01*
X59230000Y-40770000D01*
X59230000Y-37230000D01*
%TO.C,R8*%
X44320000Y-49050000D02*
X47680000Y-49050000D01*
X47680000Y-50950000D01*
X44320000Y-50950000D01*
X44320000Y-49050000D01*
%TO.C,R5*%
X36320000Y-81050000D02*
X39680000Y-81050000D01*
X39680000Y-82950000D01*
X36320000Y-82950000D01*
X36320000Y-81050000D01*
%TO.C,P3*%
X20000000Y-117000000D02*
X20000000Y-121000000D01*
X20000000Y-117000000D02*
X24000000Y-117000000D01*
X24000000Y-121000000D02*
X20000000Y-121000000D01*
X24000000Y-121000000D02*
X24000000Y-117000000D01*
%TO.C,R6*%
X36320000Y-84050000D02*
X39680000Y-84050000D01*
X39680000Y-85950000D01*
X36320000Y-85950000D01*
X36320000Y-84050000D01*
%TO.C,J5*%
X5220000Y-73470000D02*
X44340000Y-73470000D01*
X44340000Y-77010000D01*
X5220000Y-77010000D01*
X5220000Y-73470000D01*
%TO.C,R4*%
X49050000Y-84820000D02*
X50950000Y-84820000D01*
X50950000Y-88180000D01*
X49050000Y-88180000D01*
X49050000Y-84820000D01*
%TO.C,R1*%
X57050000Y-84820000D02*
X58950000Y-84820000D01*
X58950000Y-88180000D01*
X57050000Y-88180000D01*
X57050000Y-84820000D01*
%TO.C,J4*%
X5220000Y-58230000D02*
X44340000Y-58230000D01*
X44340000Y-61770000D01*
X5220000Y-61770000D01*
X5220000Y-58230000D01*
%TO.C,Q2*%
X44070000Y-89500000D02*
X45100000Y-89500000D01*
X44070000Y-90610000D02*
X44070000Y-89500000D01*
X44070000Y-91390000D02*
X45100000Y-91390000D01*
X44070000Y-92500000D02*
X44070000Y-91390000D01*
X45100000Y-89300000D02*
X46900000Y-89300000D01*
X45100000Y-89500000D02*
X45100000Y-89300000D01*
X45100000Y-90610000D02*
X44070000Y-90610000D01*
X45100000Y-91390000D02*
X45100000Y-90610000D01*
X45100000Y-92500000D02*
X44070000Y-92500000D01*
X45100000Y-92700000D02*
X45100000Y-92500000D01*
X46900000Y-89300000D02*
X46900000Y-90450000D01*
X46900000Y-90450000D02*
X47930000Y-90450000D01*
X46900000Y-91550000D02*
X46900000Y-92700000D01*
X46900000Y-92700000D02*
X45100000Y-92700000D01*
X47930000Y-90450000D02*
X47930000Y-91550000D01*
X47930000Y-91550000D02*
X46900000Y-91550000D01*
%TO.C,H3*%
X69450000Y-132000000D02*
G75*
G02*
X62550000Y-132000000I-3450000J0D01*
G01*
X62550000Y-132000000D02*
G75*
G02*
X69450000Y-132000000I3450000J0D01*
G01*
%TO.C,R2*%
X60320000Y-81050000D02*
X63680000Y-81050000D01*
X63680000Y-82950000D01*
X60320000Y-82950000D01*
X60320000Y-81050000D01*
%TO.C,R7*%
X48320000Y-79050000D02*
X51680000Y-79050000D01*
X51680000Y-80950000D01*
X48320000Y-80950000D01*
X48320000Y-79050000D01*
%TO.C,R10*%
X44320000Y-44050000D02*
X47680000Y-44050000D01*
X47680000Y-45950000D01*
X44320000Y-45950000D01*
X44320000Y-44050000D01*
%TO.C,H1*%
X8450000Y-108000000D02*
G75*
G02*
X1550000Y-108000000I-3450000J0D01*
G01*
X1550000Y-108000000D02*
G75*
G02*
X8450000Y-108000000I3450000J0D01*
G01*
%TO.C,P4*%
X20000000Y-126000000D02*
X20000000Y-130000000D01*
X20000000Y-126000000D02*
X24000000Y-126000000D01*
X24000000Y-130000000D02*
X20000000Y-130000000D01*
X24000000Y-130000000D02*
X24000000Y-126000000D01*
%TO.C,J3*%
X39230000Y-32230000D02*
X50390000Y-32230000D01*
X50390000Y-35770000D01*
X39230000Y-35770000D01*
X39230000Y-32230000D01*
%TO.C,R3*%
X60320000Y-84050000D02*
X63680000Y-84050000D01*
X63680000Y-85950000D01*
X60320000Y-85950000D01*
X60320000Y-84050000D01*
%TO.C,P8*%
X48000000Y-126000000D02*
X48000000Y-130000000D01*
X48000000Y-126000000D02*
X52000000Y-126000000D01*
X52000000Y-130000000D02*
X48000000Y-130000000D01*
X52000000Y-130000000D02*
X52000000Y-126000000D01*
%TO.C,J1*%
X40230000Y-6230000D02*
X43770000Y-6230000D01*
X43770000Y-27550000D01*
X40230000Y-27550000D01*
X40230000Y-6230000D01*
%TO.C,J2*%
X63090000Y-6230000D02*
X66630000Y-6230000D01*
X66630000Y-27550000D01*
X63090000Y-27550000D01*
X63090000Y-6230000D01*
%TD*%
M02*
