%TF.GenerationSoftware,KiCad,Pcbnew,10.0.5*%
%TF.CreationDate,2026-07-31T11:03:18-06:00*%
%TF.ProjectId,iphone16e_2s_sk6812_main_v0_7,6970686f-6e65-4313-9665-5f32735f736b,rev?*%
%TF.SameCoordinates,Original*%
%TF.FileFunction,AssemblyDrawing,Top*%
%FSLAX46Y46*%
G04 Gerber Fmt 4.6, Leading zero omitted, Abs format (unit mm)*
G04 Created by KiCad (PCBNEW 10.0.5) date 2026-07-31 11:03:18*
%MOMM*%
%LPD*%
G01*
G04 APERTURE LIST*
%ADD10C,0.120000*%
%ADD11C,0.126000*%
%ADD12C,0.110000*%
%ADD13C,0.150000*%
%ADD14C,0.080000*%
%ADD15C,0.100000*%
G04 APERTURE END LIST*
D10*
X-7676193Y-112640045D02*
X-7638097Y-112601950D01*
X-7638097Y-112601950D02*
X-7561907Y-112563855D01*
X-7561907Y-112563855D02*
X-7371431Y-112563855D01*
X-7371431Y-112563855D02*
X-7295240Y-112601950D01*
X-7295240Y-112601950D02*
X-7257145Y-112640045D01*
X-7257145Y-112640045D02*
X-7219050Y-112716236D01*
X-7219050Y-112716236D02*
X-7219050Y-112792426D01*
X-7219050Y-112792426D02*
X-7257145Y-112906712D01*
X-7257145Y-112906712D02*
X-7714288Y-113363855D01*
X-7714288Y-113363855D02*
X-7219050Y-113363855D01*
X-6914288Y-113325760D02*
X-6800002Y-113363855D01*
X-6800002Y-113363855D02*
X-6609526Y-113363855D01*
X-6609526Y-113363855D02*
X-6533335Y-113325760D01*
X-6533335Y-113325760D02*
X-6495240Y-113287664D01*
X-6495240Y-113287664D02*
X-6457145Y-113211474D01*
X-6457145Y-113211474D02*
X-6457145Y-113135283D01*
X-6457145Y-113135283D02*
X-6495240Y-113059093D01*
X-6495240Y-113059093D02*
X-6533335Y-113020998D01*
X-6533335Y-113020998D02*
X-6609526Y-112982902D01*
X-6609526Y-112982902D02*
X-6761907Y-112944807D01*
X-6761907Y-112944807D02*
X-6838097Y-112906712D01*
X-6838097Y-112906712D02*
X-6876192Y-112868617D01*
X-6876192Y-112868617D02*
X-6914288Y-112792426D01*
X-6914288Y-112792426D02*
X-6914288Y-112716236D01*
X-6914288Y-112716236D02*
X-6876192Y-112640045D01*
X-6876192Y-112640045D02*
X-6838097Y-112601950D01*
X-6838097Y-112601950D02*
X-6761907Y-112563855D01*
X-6761907Y-112563855D02*
X-6571430Y-112563855D01*
X-6571430Y-112563855D02*
X-6457145Y-112601950D01*
X-5504763Y-112830521D02*
X-5504763Y-113630521D01*
X-5504763Y-112868617D02*
X-5428573Y-112830521D01*
X-5428573Y-112830521D02*
X-5276192Y-112830521D01*
X-5276192Y-112830521D02*
X-5200001Y-112868617D01*
X-5200001Y-112868617D02*
X-5161906Y-112906712D01*
X-5161906Y-112906712D02*
X-5123811Y-112982902D01*
X-5123811Y-112982902D02*
X-5123811Y-113211474D01*
X-5123811Y-113211474D02*
X-5161906Y-113287664D01*
X-5161906Y-113287664D02*
X-5200001Y-113325760D01*
X-5200001Y-113325760D02*
X-5276192Y-113363855D01*
X-5276192Y-113363855D02*
X-5428573Y-113363855D01*
X-5428573Y-113363855D02*
X-5504763Y-113325760D01*
X-4438096Y-113363855D02*
X-4438096Y-112944807D01*
X-4438096Y-112944807D02*
X-4476191Y-112868617D01*
X-4476191Y-112868617D02*
X-4552382Y-112830521D01*
X-4552382Y-112830521D02*
X-4704763Y-112830521D01*
X-4704763Y-112830521D02*
X-4780953Y-112868617D01*
X-4438096Y-113325760D02*
X-4514287Y-113363855D01*
X-4514287Y-113363855D02*
X-4704763Y-113363855D01*
X-4704763Y-113363855D02*
X-4780953Y-113325760D01*
X-4780953Y-113325760D02*
X-4819049Y-113249569D01*
X-4819049Y-113249569D02*
X-4819049Y-113173379D01*
X-4819049Y-113173379D02*
X-4780953Y-113097188D01*
X-4780953Y-113097188D02*
X-4704763Y-113059093D01*
X-4704763Y-113059093D02*
X-4514287Y-113059093D01*
X-4514287Y-113059093D02*
X-4438096Y-113020998D01*
X-3714286Y-113325760D02*
X-3790477Y-113363855D01*
X-3790477Y-113363855D02*
X-3942858Y-113363855D01*
X-3942858Y-113363855D02*
X-4019048Y-113325760D01*
X-4019048Y-113325760D02*
X-4057143Y-113287664D01*
X-4057143Y-113287664D02*
X-4095239Y-113211474D01*
X-4095239Y-113211474D02*
X-4095239Y-112982902D01*
X-4095239Y-112982902D02*
X-4057143Y-112906712D01*
X-4057143Y-112906712D02*
X-4019048Y-112868617D01*
X-4019048Y-112868617D02*
X-3942858Y-112830521D01*
X-3942858Y-112830521D02*
X-3790477Y-112830521D01*
X-3790477Y-112830521D02*
X-3714286Y-112868617D01*
X-3371429Y-113363855D02*
X-3371429Y-112563855D01*
X-3295239Y-113059093D02*
X-3066667Y-113363855D01*
X-3066667Y-112830521D02*
X-3371429Y-113135283D01*
X-2114286Y-112830521D02*
X-2114286Y-113630521D01*
X-2114286Y-112868617D02*
X-2038096Y-112830521D01*
X-2038096Y-112830521D02*
X-1885715Y-112830521D01*
X-1885715Y-112830521D02*
X-1809524Y-112868617D01*
X-1809524Y-112868617D02*
X-1771429Y-112906712D01*
X-1771429Y-112906712D02*
X-1733334Y-112982902D01*
X-1733334Y-112982902D02*
X-1733334Y-113211474D01*
X-1733334Y-113211474D02*
X-1771429Y-113287664D01*
X-1771429Y-113287664D02*
X-1809524Y-113325760D01*
X-1809524Y-113325760D02*
X-1885715Y-113363855D01*
X-1885715Y-113363855D02*
X-2038096Y-113363855D01*
X-2038096Y-113363855D02*
X-2114286Y-113325760D01*
X-1276191Y-113363855D02*
X-1352381Y-113325760D01*
X-1352381Y-113325760D02*
X-1390476Y-113287664D01*
X-1390476Y-113287664D02*
X-1428572Y-113211474D01*
X-1428572Y-113211474D02*
X-1428572Y-112982902D01*
X-1428572Y-112982902D02*
X-1390476Y-112906712D01*
X-1390476Y-112906712D02*
X-1352381Y-112868617D01*
X-1352381Y-112868617D02*
X-1276191Y-112830521D01*
X-1276191Y-112830521D02*
X-1161905Y-112830521D01*
X-1161905Y-112830521D02*
X-1085714Y-112868617D01*
X-1085714Y-112868617D02*
X-1047619Y-112906712D01*
X-1047619Y-112906712D02*
X-1009524Y-112982902D01*
X-1009524Y-112982902D02*
X-1009524Y-113211474D01*
X-1009524Y-113211474D02*
X-1047619Y-113287664D01*
X-1047619Y-113287664D02*
X-1085714Y-113325760D01*
X-1085714Y-113325760D02*
X-1161905Y-113363855D01*
X-1161905Y-113363855D02*
X-1276191Y-113363855D01*
X-323809Y-113325760D02*
X-400000Y-113363855D01*
X-400000Y-113363855D02*
X-552381Y-113363855D01*
X-552381Y-113363855D02*
X-628571Y-113325760D01*
X-628571Y-113325760D02*
X-666666Y-113287664D01*
X-666666Y-113287664D02*
X-704762Y-113211474D01*
X-704762Y-113211474D02*
X-704762Y-112982902D01*
X-704762Y-112982902D02*
X-666666Y-112906712D01*
X-666666Y-112906712D02*
X-628571Y-112868617D01*
X-628571Y-112868617D02*
X-552381Y-112830521D01*
X-552381Y-112830521D02*
X-400000Y-112830521D01*
X-400000Y-112830521D02*
X-323809Y-112868617D01*
X19047Y-113363855D02*
X19047Y-112563855D01*
X95237Y-113059093D02*
X323809Y-113363855D01*
X323809Y-112830521D02*
X19047Y-113135283D01*
X971428Y-113325760D02*
X895237Y-113363855D01*
X895237Y-113363855D02*
X742856Y-113363855D01*
X742856Y-113363855D02*
X666666Y-113325760D01*
X666666Y-113325760D02*
X628570Y-113249569D01*
X628570Y-113249569D02*
X628570Y-112944807D01*
X628570Y-112944807D02*
X666666Y-112868617D01*
X666666Y-112868617D02*
X742856Y-112830521D01*
X742856Y-112830521D02*
X895237Y-112830521D01*
X895237Y-112830521D02*
X971428Y-112868617D01*
X971428Y-112868617D02*
X1009523Y-112944807D01*
X1009523Y-112944807D02*
X1009523Y-113020998D01*
X1009523Y-113020998D02*
X628570Y-113097188D01*
X1238094Y-112830521D02*
X1542856Y-112830521D01*
X1352380Y-112563855D02*
X1352380Y-113249569D01*
X1352380Y-113249569D02*
X1390475Y-113325760D01*
X1390475Y-113325760D02*
X1466665Y-113363855D01*
X1466665Y-113363855D02*
X1542856Y-113363855D01*
X1809523Y-113287664D02*
X1847618Y-113325760D01*
X1847618Y-113325760D02*
X1809523Y-113363855D01*
X1809523Y-113363855D02*
X1771427Y-113325760D01*
X1771427Y-113325760D02*
X1809523Y-113287664D01*
X1809523Y-113287664D02*
X1809523Y-113363855D01*
X1809523Y-112868617D02*
X1847618Y-112906712D01*
X1847618Y-112906712D02*
X1809523Y-112944807D01*
X1809523Y-112944807D02*
X1771427Y-112906712D01*
X1771427Y-112906712D02*
X1809523Y-112868617D01*
X1809523Y-112868617D02*
X1809523Y-112944807D01*
X3142856Y-112563855D02*
X2990475Y-112563855D01*
X2990475Y-112563855D02*
X2914284Y-112601950D01*
X2914284Y-112601950D02*
X2876189Y-112640045D01*
X2876189Y-112640045D02*
X2799999Y-112754331D01*
X2799999Y-112754331D02*
X2761903Y-112906712D01*
X2761903Y-112906712D02*
X2761903Y-113211474D01*
X2761903Y-113211474D02*
X2799999Y-113287664D01*
X2799999Y-113287664D02*
X2838094Y-113325760D01*
X2838094Y-113325760D02*
X2914284Y-113363855D01*
X2914284Y-113363855D02*
X3066665Y-113363855D01*
X3066665Y-113363855D02*
X3142856Y-113325760D01*
X3142856Y-113325760D02*
X3180951Y-113287664D01*
X3180951Y-113287664D02*
X3219046Y-113211474D01*
X3219046Y-113211474D02*
X3219046Y-113020998D01*
X3219046Y-113020998D02*
X3180951Y-112944807D01*
X3180951Y-112944807D02*
X3142856Y-112906712D01*
X3142856Y-112906712D02*
X3066665Y-112868617D01*
X3066665Y-112868617D02*
X2914284Y-112868617D01*
X2914284Y-112868617D02*
X2838094Y-112906712D01*
X2838094Y-112906712D02*
X2799999Y-112944807D01*
X2799999Y-112944807D02*
X2761903Y-113020998D01*
X3904761Y-112830521D02*
X3904761Y-113363855D01*
X3714285Y-112525760D02*
X3523808Y-113097188D01*
X3523808Y-113097188D02*
X4019047Y-113097188D01*
X4857142Y-113363855D02*
X5276190Y-112830521D01*
X4857142Y-112830521D02*
X5276190Y-113363855D01*
X6609523Y-113363855D02*
X6152380Y-113363855D01*
X6380952Y-113363855D02*
X6380952Y-112563855D01*
X6380952Y-112563855D02*
X6304761Y-112678140D01*
X6304761Y-112678140D02*
X6228571Y-112754331D01*
X6228571Y-112754331D02*
X6152380Y-112792426D01*
X7066666Y-112906712D02*
X6990476Y-112868617D01*
X6990476Y-112868617D02*
X6952381Y-112830521D01*
X6952381Y-112830521D02*
X6914285Y-112754331D01*
X6914285Y-112754331D02*
X6914285Y-112716236D01*
X6914285Y-112716236D02*
X6952381Y-112640045D01*
X6952381Y-112640045D02*
X6990476Y-112601950D01*
X6990476Y-112601950D02*
X7066666Y-112563855D01*
X7066666Y-112563855D02*
X7219047Y-112563855D01*
X7219047Y-112563855D02*
X7295238Y-112601950D01*
X7295238Y-112601950D02*
X7333333Y-112640045D01*
X7333333Y-112640045D02*
X7371428Y-112716236D01*
X7371428Y-112716236D02*
X7371428Y-112754331D01*
X7371428Y-112754331D02*
X7333333Y-112830521D01*
X7333333Y-112830521D02*
X7295238Y-112868617D01*
X7295238Y-112868617D02*
X7219047Y-112906712D01*
X7219047Y-112906712D02*
X7066666Y-112906712D01*
X7066666Y-112906712D02*
X6990476Y-112944807D01*
X6990476Y-112944807D02*
X6952381Y-112982902D01*
X6952381Y-112982902D02*
X6914285Y-113059093D01*
X6914285Y-113059093D02*
X6914285Y-113211474D01*
X6914285Y-113211474D02*
X6952381Y-113287664D01*
X6952381Y-113287664D02*
X6990476Y-113325760D01*
X6990476Y-113325760D02*
X7066666Y-113363855D01*
X7066666Y-113363855D02*
X7219047Y-113363855D01*
X7219047Y-113363855D02*
X7295238Y-113325760D01*
X7295238Y-113325760D02*
X7333333Y-113287664D01*
X7333333Y-113287664D02*
X7371428Y-113211474D01*
X7371428Y-113211474D02*
X7371428Y-113059093D01*
X7371428Y-113059093D02*
X7333333Y-112982902D01*
X7333333Y-112982902D02*
X7295238Y-112944807D01*
X7295238Y-112944807D02*
X7219047Y-112906712D01*
X8247619Y-113363855D02*
X8666667Y-112830521D01*
X8247619Y-112830521D02*
X8666667Y-113363855D01*
X10000000Y-113363855D02*
X9542857Y-113363855D01*
X9771429Y-113363855D02*
X9771429Y-112563855D01*
X9771429Y-112563855D02*
X9695238Y-112678140D01*
X9695238Y-112678140D02*
X9619048Y-112754331D01*
X9619048Y-112754331D02*
X9542857Y-112792426D01*
X10723810Y-112563855D02*
X10342858Y-112563855D01*
X10342858Y-112563855D02*
X10304762Y-112944807D01*
X10304762Y-112944807D02*
X10342858Y-112906712D01*
X10342858Y-112906712D02*
X10419048Y-112868617D01*
X10419048Y-112868617D02*
X10609524Y-112868617D01*
X10609524Y-112868617D02*
X10685715Y-112906712D01*
X10685715Y-112906712D02*
X10723810Y-112944807D01*
X10723810Y-112944807D02*
X10761905Y-113020998D01*
X10761905Y-113020998D02*
X10761905Y-113211474D01*
X10761905Y-113211474D02*
X10723810Y-113287664D01*
X10723810Y-113287664D02*
X10685715Y-113325760D01*
X10685715Y-113325760D02*
X10609524Y-113363855D01*
X10609524Y-113363855D02*
X10419048Y-113363855D01*
X10419048Y-113363855D02*
X10342858Y-113325760D01*
X10342858Y-113325760D02*
X10304762Y-113287664D01*
X11104763Y-113363855D02*
X11104763Y-112830521D01*
X11104763Y-112906712D02*
X11142858Y-112868617D01*
X11142858Y-112868617D02*
X11219048Y-112830521D01*
X11219048Y-112830521D02*
X11333334Y-112830521D01*
X11333334Y-112830521D02*
X11409525Y-112868617D01*
X11409525Y-112868617D02*
X11447620Y-112944807D01*
X11447620Y-112944807D02*
X11447620Y-113363855D01*
X11447620Y-112944807D02*
X11485715Y-112868617D01*
X11485715Y-112868617D02*
X11561906Y-112830521D01*
X11561906Y-112830521D02*
X11676191Y-112830521D01*
X11676191Y-112830521D02*
X11752382Y-112868617D01*
X11752382Y-112868617D02*
X11790477Y-112944807D01*
X11790477Y-112944807D02*
X11790477Y-113363855D01*
X12171430Y-113363855D02*
X12171430Y-112830521D01*
X12171430Y-112906712D02*
X12209525Y-112868617D01*
X12209525Y-112868617D02*
X12285715Y-112830521D01*
X12285715Y-112830521D02*
X12400001Y-112830521D01*
X12400001Y-112830521D02*
X12476192Y-112868617D01*
X12476192Y-112868617D02*
X12514287Y-112944807D01*
X12514287Y-112944807D02*
X12514287Y-113363855D01*
X12514287Y-112944807D02*
X12552382Y-112868617D01*
X12552382Y-112868617D02*
X12628573Y-112830521D01*
X12628573Y-112830521D02*
X12742858Y-112830521D01*
X12742858Y-112830521D02*
X12819049Y-112868617D01*
X12819049Y-112868617D02*
X12857144Y-112944807D01*
X12857144Y-112944807D02*
X12857144Y-113363855D01*
X13847621Y-113363855D02*
X13847621Y-112830521D01*
X13847621Y-112906712D02*
X13885716Y-112868617D01*
X13885716Y-112868617D02*
X13961906Y-112830521D01*
X13961906Y-112830521D02*
X14076192Y-112830521D01*
X14076192Y-112830521D02*
X14152383Y-112868617D01*
X14152383Y-112868617D02*
X14190478Y-112944807D01*
X14190478Y-112944807D02*
X14190478Y-113363855D01*
X14190478Y-112944807D02*
X14228573Y-112868617D01*
X14228573Y-112868617D02*
X14304764Y-112830521D01*
X14304764Y-112830521D02*
X14419049Y-112830521D01*
X14419049Y-112830521D02*
X14495240Y-112868617D01*
X14495240Y-112868617D02*
X14533335Y-112944807D01*
X14533335Y-112944807D02*
X14533335Y-113363855D01*
X14914288Y-113363855D02*
X14914288Y-112830521D01*
X14914288Y-112563855D02*
X14876192Y-112601950D01*
X14876192Y-112601950D02*
X14914288Y-112640045D01*
X14914288Y-112640045D02*
X14952383Y-112601950D01*
X14952383Y-112601950D02*
X14914288Y-112563855D01*
X14914288Y-112563855D02*
X14914288Y-112640045D01*
X15295240Y-112830521D02*
X15295240Y-113363855D01*
X15295240Y-112906712D02*
X15333335Y-112868617D01*
X15333335Y-112868617D02*
X15409525Y-112830521D01*
X15409525Y-112830521D02*
X15523811Y-112830521D01*
X15523811Y-112830521D02*
X15600002Y-112868617D01*
X15600002Y-112868617D02*
X15638097Y-112944807D01*
X15638097Y-112944807D02*
X15638097Y-113363855D01*
X17095235Y-89363855D02*
X16714283Y-89363855D01*
X16714283Y-89363855D02*
X16714283Y-88563855D01*
X17361902Y-88944807D02*
X17628568Y-88944807D01*
X17742854Y-89363855D02*
X17361902Y-89363855D01*
X17361902Y-89363855D02*
X17361902Y-88563855D01*
X17361902Y-88563855D02*
X17742854Y-88563855D01*
X18085712Y-89363855D02*
X18085712Y-88563855D01*
X18085712Y-88563855D02*
X18276188Y-88563855D01*
X18276188Y-88563855D02*
X18390474Y-88601950D01*
X18390474Y-88601950D02*
X18466664Y-88678140D01*
X18466664Y-88678140D02*
X18504759Y-88754331D01*
X18504759Y-88754331D02*
X18542855Y-88906712D01*
X18542855Y-88906712D02*
X18542855Y-89020998D01*
X18542855Y-89020998D02*
X18504759Y-89173379D01*
X18504759Y-89173379D02*
X18466664Y-89249569D01*
X18466664Y-89249569D02*
X18390474Y-89325760D01*
X18390474Y-89325760D02*
X18276188Y-89363855D01*
X18276188Y-89363855D02*
X18085712Y-89363855D01*
X19495236Y-89363855D02*
X19495236Y-88563855D01*
X19838093Y-89363855D02*
X19838093Y-88944807D01*
X19838093Y-88944807D02*
X19799998Y-88868617D01*
X19799998Y-88868617D02*
X19723807Y-88830521D01*
X19723807Y-88830521D02*
X19609521Y-88830521D01*
X19609521Y-88830521D02*
X19533331Y-88868617D01*
X19533331Y-88868617D02*
X19495236Y-88906712D01*
X20523808Y-89325760D02*
X20447617Y-89363855D01*
X20447617Y-89363855D02*
X20295236Y-89363855D01*
X20295236Y-89363855D02*
X20219046Y-89325760D01*
X20219046Y-89325760D02*
X20180950Y-89249569D01*
X20180950Y-89249569D02*
X20180950Y-88944807D01*
X20180950Y-88944807D02*
X20219046Y-88868617D01*
X20219046Y-88868617D02*
X20295236Y-88830521D01*
X20295236Y-88830521D02*
X20447617Y-88830521D01*
X20447617Y-88830521D02*
X20523808Y-88868617D01*
X20523808Y-88868617D02*
X20561903Y-88944807D01*
X20561903Y-88944807D02*
X20561903Y-89020998D01*
X20561903Y-89020998D02*
X20180950Y-89097188D01*
X21247617Y-89363855D02*
X21247617Y-88944807D01*
X21247617Y-88944807D02*
X21209522Y-88868617D01*
X21209522Y-88868617D02*
X21133331Y-88830521D01*
X21133331Y-88830521D02*
X20980950Y-88830521D01*
X20980950Y-88830521D02*
X20904760Y-88868617D01*
X21247617Y-89325760D02*
X21171426Y-89363855D01*
X21171426Y-89363855D02*
X20980950Y-89363855D01*
X20980950Y-89363855D02*
X20904760Y-89325760D01*
X20904760Y-89325760D02*
X20866664Y-89249569D01*
X20866664Y-89249569D02*
X20866664Y-89173379D01*
X20866664Y-89173379D02*
X20904760Y-89097188D01*
X20904760Y-89097188D02*
X20980950Y-89059093D01*
X20980950Y-89059093D02*
X21171426Y-89059093D01*
X21171426Y-89059093D02*
X21247617Y-89020998D01*
X21971427Y-89363855D02*
X21971427Y-88563855D01*
X21971427Y-89325760D02*
X21895236Y-89363855D01*
X21895236Y-89363855D02*
X21742855Y-89363855D01*
X21742855Y-89363855D02*
X21666665Y-89325760D01*
X21666665Y-89325760D02*
X21628570Y-89287664D01*
X21628570Y-89287664D02*
X21590474Y-89211474D01*
X21590474Y-89211474D02*
X21590474Y-88982902D01*
X21590474Y-88982902D02*
X21628570Y-88906712D01*
X21628570Y-88906712D02*
X21666665Y-88868617D01*
X21666665Y-88868617D02*
X21742855Y-88830521D01*
X21742855Y-88830521D02*
X21895236Y-88830521D01*
X21895236Y-88830521D02*
X21971427Y-88868617D01*
X23304761Y-89325760D02*
X23228570Y-89363855D01*
X23228570Y-89363855D02*
X23076189Y-89363855D01*
X23076189Y-89363855D02*
X22999999Y-89325760D01*
X22999999Y-89325760D02*
X22961904Y-89287664D01*
X22961904Y-89287664D02*
X22923808Y-89211474D01*
X22923808Y-89211474D02*
X22923808Y-88982902D01*
X22923808Y-88982902D02*
X22961904Y-88906712D01*
X22961904Y-88906712D02*
X22999999Y-88868617D01*
X22999999Y-88868617D02*
X23076189Y-88830521D01*
X23076189Y-88830521D02*
X23228570Y-88830521D01*
X23228570Y-88830521D02*
X23304761Y-88868617D01*
X23761903Y-89363855D02*
X23685713Y-89325760D01*
X23685713Y-89325760D02*
X23647618Y-89287664D01*
X23647618Y-89287664D02*
X23609522Y-89211474D01*
X23609522Y-89211474D02*
X23609522Y-88982902D01*
X23609522Y-88982902D02*
X23647618Y-88906712D01*
X23647618Y-88906712D02*
X23685713Y-88868617D01*
X23685713Y-88868617D02*
X23761903Y-88830521D01*
X23761903Y-88830521D02*
X23876189Y-88830521D01*
X23876189Y-88830521D02*
X23952380Y-88868617D01*
X23952380Y-88868617D02*
X23990475Y-88906712D01*
X23990475Y-88906712D02*
X24028570Y-88982902D01*
X24028570Y-88982902D02*
X24028570Y-89211474D01*
X24028570Y-89211474D02*
X23990475Y-89287664D01*
X23990475Y-89287664D02*
X23952380Y-89325760D01*
X23952380Y-89325760D02*
X23876189Y-89363855D01*
X23876189Y-89363855D02*
X23761903Y-89363855D01*
X24371428Y-88830521D02*
X24371428Y-89363855D01*
X24371428Y-88906712D02*
X24409523Y-88868617D01*
X24409523Y-88868617D02*
X24485713Y-88830521D01*
X24485713Y-88830521D02*
X24599999Y-88830521D01*
X24599999Y-88830521D02*
X24676190Y-88868617D01*
X24676190Y-88868617D02*
X24714285Y-88944807D01*
X24714285Y-88944807D02*
X24714285Y-89363855D01*
X25095238Y-88830521D02*
X25095238Y-89363855D01*
X25095238Y-88906712D02*
X25133333Y-88868617D01*
X25133333Y-88868617D02*
X25209523Y-88830521D01*
X25209523Y-88830521D02*
X25323809Y-88830521D01*
X25323809Y-88830521D02*
X25400000Y-88868617D01*
X25400000Y-88868617D02*
X25438095Y-88944807D01*
X25438095Y-88944807D02*
X25438095Y-89363855D01*
X26123810Y-89325760D02*
X26047619Y-89363855D01*
X26047619Y-89363855D02*
X25895238Y-89363855D01*
X25895238Y-89363855D02*
X25819048Y-89325760D01*
X25819048Y-89325760D02*
X25780952Y-89249569D01*
X25780952Y-89249569D02*
X25780952Y-88944807D01*
X25780952Y-88944807D02*
X25819048Y-88868617D01*
X25819048Y-88868617D02*
X25895238Y-88830521D01*
X25895238Y-88830521D02*
X26047619Y-88830521D01*
X26047619Y-88830521D02*
X26123810Y-88868617D01*
X26123810Y-88868617D02*
X26161905Y-88944807D01*
X26161905Y-88944807D02*
X26161905Y-89020998D01*
X26161905Y-89020998D02*
X25780952Y-89097188D01*
X26847619Y-89325760D02*
X26771428Y-89363855D01*
X26771428Y-89363855D02*
X26619047Y-89363855D01*
X26619047Y-89363855D02*
X26542857Y-89325760D01*
X26542857Y-89325760D02*
X26504762Y-89287664D01*
X26504762Y-89287664D02*
X26466666Y-89211474D01*
X26466666Y-89211474D02*
X26466666Y-88982902D01*
X26466666Y-88982902D02*
X26504762Y-88906712D01*
X26504762Y-88906712D02*
X26542857Y-88868617D01*
X26542857Y-88868617D02*
X26619047Y-88830521D01*
X26619047Y-88830521D02*
X26771428Y-88830521D01*
X26771428Y-88830521D02*
X26847619Y-88868617D01*
X27076190Y-88830521D02*
X27380952Y-88830521D01*
X27190476Y-88563855D02*
X27190476Y-89249569D01*
X27190476Y-89249569D02*
X27228571Y-89325760D01*
X27228571Y-89325760D02*
X27304761Y-89363855D01*
X27304761Y-89363855D02*
X27380952Y-89363855D01*
X27609523Y-89325760D02*
X27685714Y-89363855D01*
X27685714Y-89363855D02*
X27838095Y-89363855D01*
X27838095Y-89363855D02*
X27914285Y-89325760D01*
X27914285Y-89325760D02*
X27952381Y-89249569D01*
X27952381Y-89249569D02*
X27952381Y-89211474D01*
X27952381Y-89211474D02*
X27914285Y-89135283D01*
X27914285Y-89135283D02*
X27838095Y-89097188D01*
X27838095Y-89097188D02*
X27723809Y-89097188D01*
X27723809Y-89097188D02*
X27647619Y-89059093D01*
X27647619Y-89059093D02*
X27609523Y-88982902D01*
X27609523Y-88982902D02*
X27609523Y-88944807D01*
X27609523Y-88944807D02*
X27647619Y-88868617D01*
X27647619Y-88868617D02*
X27723809Y-88830521D01*
X27723809Y-88830521D02*
X27838095Y-88830521D01*
X27838095Y-88830521D02*
X27914285Y-88868617D01*
X28904762Y-89363855D02*
X28904762Y-88563855D01*
X28904762Y-88868617D02*
X28980952Y-88830521D01*
X28980952Y-88830521D02*
X29133333Y-88830521D01*
X29133333Y-88830521D02*
X29209524Y-88868617D01*
X29209524Y-88868617D02*
X29247619Y-88906712D01*
X29247619Y-88906712D02*
X29285714Y-88982902D01*
X29285714Y-88982902D02*
X29285714Y-89211474D01*
X29285714Y-89211474D02*
X29247619Y-89287664D01*
X29247619Y-89287664D02*
X29209524Y-89325760D01*
X29209524Y-89325760D02*
X29133333Y-89363855D01*
X29133333Y-89363855D02*
X28980952Y-89363855D01*
X28980952Y-89363855D02*
X28904762Y-89325760D01*
X29552381Y-88830521D02*
X29742857Y-89363855D01*
X29933334Y-88830521D02*
X29742857Y-89363855D01*
X29742857Y-89363855D02*
X29666667Y-89554331D01*
X29666667Y-89554331D02*
X29628572Y-89592426D01*
X29628572Y-89592426D02*
X29552381Y-89630521D01*
X31266667Y-89363855D02*
X30809524Y-89363855D01*
X31038096Y-89363855D02*
X31038096Y-88563855D01*
X31038096Y-88563855D02*
X30961905Y-88678140D01*
X30961905Y-88678140D02*
X30885715Y-88754331D01*
X30885715Y-88754331D02*
X30809524Y-88792426D01*
X31952382Y-88830521D02*
X31952382Y-89363855D01*
X31761906Y-88525760D02*
X31571429Y-89097188D01*
X31571429Y-89097188D02*
X32066668Y-89097188D01*
X32371430Y-89059093D02*
X32980954Y-89059093D01*
X33361906Y-88830521D02*
X33361906Y-89630521D01*
X33361906Y-88868617D02*
X33438096Y-88830521D01*
X33438096Y-88830521D02*
X33590477Y-88830521D01*
X33590477Y-88830521D02*
X33666668Y-88868617D01*
X33666668Y-88868617D02*
X33704763Y-88906712D01*
X33704763Y-88906712D02*
X33742858Y-88982902D01*
X33742858Y-88982902D02*
X33742858Y-89211474D01*
X33742858Y-89211474D02*
X33704763Y-89287664D01*
X33704763Y-89287664D02*
X33666668Y-89325760D01*
X33666668Y-89325760D02*
X33590477Y-89363855D01*
X33590477Y-89363855D02*
X33438096Y-89363855D01*
X33438096Y-89363855D02*
X33361906Y-89325760D01*
X34085716Y-89363855D02*
X34085716Y-88830521D01*
X34085716Y-88563855D02*
X34047620Y-88601950D01*
X34047620Y-88601950D02*
X34085716Y-88640045D01*
X34085716Y-88640045D02*
X34123811Y-88601950D01*
X34123811Y-88601950D02*
X34085716Y-88563855D01*
X34085716Y-88563855D02*
X34085716Y-88640045D01*
X34466668Y-88830521D02*
X34466668Y-89363855D01*
X34466668Y-88906712D02*
X34504763Y-88868617D01*
X34504763Y-88868617D02*
X34580953Y-88830521D01*
X34580953Y-88830521D02*
X34695239Y-88830521D01*
X34695239Y-88830521D02*
X34771430Y-88868617D01*
X34771430Y-88868617D02*
X34809525Y-88944807D01*
X34809525Y-88944807D02*
X34809525Y-89363855D01*
X36028573Y-88563855D02*
X36028573Y-89135283D01*
X36028573Y-89135283D02*
X35990478Y-89249569D01*
X35990478Y-89249569D02*
X35914287Y-89325760D01*
X35914287Y-89325760D02*
X35800002Y-89363855D01*
X35800002Y-89363855D02*
X35723811Y-89363855D01*
X36371430Y-89325760D02*
X36485716Y-89363855D01*
X36485716Y-89363855D02*
X36676192Y-89363855D01*
X36676192Y-89363855D02*
X36752383Y-89325760D01*
X36752383Y-89325760D02*
X36790478Y-89287664D01*
X36790478Y-89287664D02*
X36828573Y-89211474D01*
X36828573Y-89211474D02*
X36828573Y-89135283D01*
X36828573Y-89135283D02*
X36790478Y-89059093D01*
X36790478Y-89059093D02*
X36752383Y-89020998D01*
X36752383Y-89020998D02*
X36676192Y-88982902D01*
X36676192Y-88982902D02*
X36523811Y-88944807D01*
X36523811Y-88944807D02*
X36447621Y-88906712D01*
X36447621Y-88906712D02*
X36409526Y-88868617D01*
X36409526Y-88868617D02*
X36371430Y-88792426D01*
X36371430Y-88792426D02*
X36371430Y-88716236D01*
X36371430Y-88716236D02*
X36409526Y-88640045D01*
X36409526Y-88640045D02*
X36447621Y-88601950D01*
X36447621Y-88601950D02*
X36523811Y-88563855D01*
X36523811Y-88563855D02*
X36714288Y-88563855D01*
X36714288Y-88563855D02*
X36828573Y-88601950D01*
X37057145Y-88563855D02*
X37514288Y-88563855D01*
X37285716Y-89363855D02*
X37285716Y-88563855D01*
X37780955Y-89059093D02*
X38390479Y-89059093D01*
X39190478Y-88601950D02*
X39114288Y-88563855D01*
X39114288Y-88563855D02*
X39000002Y-88563855D01*
X39000002Y-88563855D02*
X38885716Y-88601950D01*
X38885716Y-88601950D02*
X38809526Y-88678140D01*
X38809526Y-88678140D02*
X38771431Y-88754331D01*
X38771431Y-88754331D02*
X38733335Y-88906712D01*
X38733335Y-88906712D02*
X38733335Y-89020998D01*
X38733335Y-89020998D02*
X38771431Y-89173379D01*
X38771431Y-89173379D02*
X38809526Y-89249569D01*
X38809526Y-89249569D02*
X38885716Y-89325760D01*
X38885716Y-89325760D02*
X39000002Y-89363855D01*
X39000002Y-89363855D02*
X39076193Y-89363855D01*
X39076193Y-89363855D02*
X39190478Y-89325760D01*
X39190478Y-89325760D02*
X39228574Y-89287664D01*
X39228574Y-89287664D02*
X39228574Y-89020998D01*
X39228574Y-89020998D02*
X39076193Y-89020998D01*
X39571431Y-89363855D02*
X39571431Y-88563855D01*
X39571431Y-88944807D02*
X40028574Y-88944807D01*
X40028574Y-89363855D02*
X40028574Y-88563855D01*
X41019050Y-89363855D02*
X41019050Y-88563855D01*
X41361907Y-89363855D02*
X41361907Y-88944807D01*
X41361907Y-88944807D02*
X41323812Y-88868617D01*
X41323812Y-88868617D02*
X41247621Y-88830521D01*
X41247621Y-88830521D02*
X41133335Y-88830521D01*
X41133335Y-88830521D02*
X41057145Y-88868617D01*
X41057145Y-88868617D02*
X41019050Y-88906712D01*
X42085717Y-89363855D02*
X42085717Y-88944807D01*
X42085717Y-88944807D02*
X42047622Y-88868617D01*
X42047622Y-88868617D02*
X41971431Y-88830521D01*
X41971431Y-88830521D02*
X41819050Y-88830521D01*
X41819050Y-88830521D02*
X41742860Y-88868617D01*
X42085717Y-89325760D02*
X42009526Y-89363855D01*
X42009526Y-89363855D02*
X41819050Y-89363855D01*
X41819050Y-89363855D02*
X41742860Y-89325760D01*
X41742860Y-89325760D02*
X41704764Y-89249569D01*
X41704764Y-89249569D02*
X41704764Y-89173379D01*
X41704764Y-89173379D02*
X41742860Y-89097188D01*
X41742860Y-89097188D02*
X41819050Y-89059093D01*
X41819050Y-89059093D02*
X42009526Y-89059093D01*
X42009526Y-89059093D02*
X42085717Y-89020998D01*
X42466670Y-89363855D02*
X42466670Y-88830521D01*
X42466670Y-88982902D02*
X42504765Y-88906712D01*
X42504765Y-88906712D02*
X42542860Y-88868617D01*
X42542860Y-88868617D02*
X42619051Y-88830521D01*
X42619051Y-88830521D02*
X42695241Y-88830521D01*
X42961908Y-88830521D02*
X42961908Y-89363855D01*
X42961908Y-88906712D02*
X43000003Y-88868617D01*
X43000003Y-88868617D02*
X43076193Y-88830521D01*
X43076193Y-88830521D02*
X43190479Y-88830521D01*
X43190479Y-88830521D02*
X43266670Y-88868617D01*
X43266670Y-88868617D02*
X43304765Y-88944807D01*
X43304765Y-88944807D02*
X43304765Y-89363855D01*
X43990480Y-89325760D02*
X43914289Y-89363855D01*
X43914289Y-89363855D02*
X43761908Y-89363855D01*
X43761908Y-89363855D02*
X43685718Y-89325760D01*
X43685718Y-89325760D02*
X43647622Y-89249569D01*
X43647622Y-89249569D02*
X43647622Y-88944807D01*
X43647622Y-88944807D02*
X43685718Y-88868617D01*
X43685718Y-88868617D02*
X43761908Y-88830521D01*
X43761908Y-88830521D02*
X43914289Y-88830521D01*
X43914289Y-88830521D02*
X43990480Y-88868617D01*
X43990480Y-88868617D02*
X44028575Y-88944807D01*
X44028575Y-88944807D02*
X44028575Y-89020998D01*
X44028575Y-89020998D02*
X43647622Y-89097188D01*
X44333336Y-89325760D02*
X44409527Y-89363855D01*
X44409527Y-89363855D02*
X44561908Y-89363855D01*
X44561908Y-89363855D02*
X44638098Y-89325760D01*
X44638098Y-89325760D02*
X44676194Y-89249569D01*
X44676194Y-89249569D02*
X44676194Y-89211474D01*
X44676194Y-89211474D02*
X44638098Y-89135283D01*
X44638098Y-89135283D02*
X44561908Y-89097188D01*
X44561908Y-89097188D02*
X44447622Y-89097188D01*
X44447622Y-89097188D02*
X44371432Y-89059093D01*
X44371432Y-89059093D02*
X44333336Y-88982902D01*
X44333336Y-88982902D02*
X44333336Y-88944807D01*
X44333336Y-88944807D02*
X44371432Y-88868617D01*
X44371432Y-88868617D02*
X44447622Y-88830521D01*
X44447622Y-88830521D02*
X44561908Y-88830521D01*
X44561908Y-88830521D02*
X44638098Y-88868617D01*
X44980955Y-89325760D02*
X45057146Y-89363855D01*
X45057146Y-89363855D02*
X45209527Y-89363855D01*
X45209527Y-89363855D02*
X45285717Y-89325760D01*
X45285717Y-89325760D02*
X45323813Y-89249569D01*
X45323813Y-89249569D02*
X45323813Y-89211474D01*
X45323813Y-89211474D02*
X45285717Y-89135283D01*
X45285717Y-89135283D02*
X45209527Y-89097188D01*
X45209527Y-89097188D02*
X45095241Y-89097188D01*
X45095241Y-89097188D02*
X45019051Y-89059093D01*
X45019051Y-89059093D02*
X44980955Y-88982902D01*
X44980955Y-88982902D02*
X44980955Y-88944807D01*
X44980955Y-88944807D02*
X45019051Y-88868617D01*
X45019051Y-88868617D02*
X45095241Y-88830521D01*
X45095241Y-88830521D02*
X45209527Y-88830521D01*
X45209527Y-88830521D02*
X45285717Y-88868617D01*
X29295237Y-115363855D02*
X29295237Y-114563855D01*
X29295237Y-114563855D02*
X29485713Y-114563855D01*
X29485713Y-114563855D02*
X29599999Y-114601950D01*
X29599999Y-114601950D02*
X29676189Y-114678140D01*
X29676189Y-114678140D02*
X29714284Y-114754331D01*
X29714284Y-114754331D02*
X29752380Y-114906712D01*
X29752380Y-114906712D02*
X29752380Y-115020998D01*
X29752380Y-115020998D02*
X29714284Y-115173379D01*
X29714284Y-115173379D02*
X29676189Y-115249569D01*
X29676189Y-115249569D02*
X29599999Y-115325760D01*
X29599999Y-115325760D02*
X29485713Y-115363855D01*
X29485713Y-115363855D02*
X29295237Y-115363855D01*
X30209522Y-114906712D02*
X30133332Y-114868617D01*
X30133332Y-114868617D02*
X30095237Y-114830521D01*
X30095237Y-114830521D02*
X30057141Y-114754331D01*
X30057141Y-114754331D02*
X30057141Y-114716236D01*
X30057141Y-114716236D02*
X30095237Y-114640045D01*
X30095237Y-114640045D02*
X30133332Y-114601950D01*
X30133332Y-114601950D02*
X30209522Y-114563855D01*
X30209522Y-114563855D02*
X30361903Y-114563855D01*
X30361903Y-114563855D02*
X30438094Y-114601950D01*
X30438094Y-114601950D02*
X30476189Y-114640045D01*
X30476189Y-114640045D02*
X30514284Y-114716236D01*
X30514284Y-114716236D02*
X30514284Y-114754331D01*
X30514284Y-114754331D02*
X30476189Y-114830521D01*
X30476189Y-114830521D02*
X30438094Y-114868617D01*
X30438094Y-114868617D02*
X30361903Y-114906712D01*
X30361903Y-114906712D02*
X30209522Y-114906712D01*
X30209522Y-114906712D02*
X30133332Y-114944807D01*
X30133332Y-114944807D02*
X30095237Y-114982902D01*
X30095237Y-114982902D02*
X30057141Y-115059093D01*
X30057141Y-115059093D02*
X30057141Y-115211474D01*
X30057141Y-115211474D02*
X30095237Y-115287664D01*
X30095237Y-115287664D02*
X30133332Y-115325760D01*
X30133332Y-115325760D02*
X30209522Y-115363855D01*
X30209522Y-115363855D02*
X30361903Y-115363855D01*
X30361903Y-115363855D02*
X30438094Y-115325760D01*
X30438094Y-115325760D02*
X30476189Y-115287664D01*
X30476189Y-115287664D02*
X30514284Y-115211474D01*
X30514284Y-115211474D02*
X30514284Y-115059093D01*
X30514284Y-115059093D02*
X30476189Y-114982902D01*
X30476189Y-114982902D02*
X30438094Y-114944807D01*
X30438094Y-114944807D02*
X30361903Y-114906712D01*
X31580951Y-115363855D02*
X31504761Y-115325760D01*
X31504761Y-115325760D02*
X31466666Y-115249569D01*
X31466666Y-115249569D02*
X31466666Y-114563855D01*
X31999999Y-115363855D02*
X31923809Y-115325760D01*
X31923809Y-115325760D02*
X31885714Y-115287664D01*
X31885714Y-115287664D02*
X31847618Y-115211474D01*
X31847618Y-115211474D02*
X31847618Y-114982902D01*
X31847618Y-114982902D02*
X31885714Y-114906712D01*
X31885714Y-114906712D02*
X31923809Y-114868617D01*
X31923809Y-114868617D02*
X31999999Y-114830521D01*
X31999999Y-114830521D02*
X32114285Y-114830521D01*
X32114285Y-114830521D02*
X32190476Y-114868617D01*
X32190476Y-114868617D02*
X32228571Y-114906712D01*
X32228571Y-114906712D02*
X32266666Y-114982902D01*
X32266666Y-114982902D02*
X32266666Y-115211474D01*
X32266666Y-115211474D02*
X32228571Y-115287664D01*
X32228571Y-115287664D02*
X32190476Y-115325760D01*
X32190476Y-115325760D02*
X32114285Y-115363855D01*
X32114285Y-115363855D02*
X31999999Y-115363855D01*
X32952381Y-114830521D02*
X32952381Y-115478140D01*
X32952381Y-115478140D02*
X32914286Y-115554331D01*
X32914286Y-115554331D02*
X32876190Y-115592426D01*
X32876190Y-115592426D02*
X32800000Y-115630521D01*
X32800000Y-115630521D02*
X32685714Y-115630521D01*
X32685714Y-115630521D02*
X32609524Y-115592426D01*
X32952381Y-115325760D02*
X32876190Y-115363855D01*
X32876190Y-115363855D02*
X32723809Y-115363855D01*
X32723809Y-115363855D02*
X32647619Y-115325760D01*
X32647619Y-115325760D02*
X32609524Y-115287664D01*
X32609524Y-115287664D02*
X32571428Y-115211474D01*
X32571428Y-115211474D02*
X32571428Y-114982902D01*
X32571428Y-114982902D02*
X32609524Y-114906712D01*
X32609524Y-114906712D02*
X32647619Y-114868617D01*
X32647619Y-114868617D02*
X32723809Y-114830521D01*
X32723809Y-114830521D02*
X32876190Y-114830521D01*
X32876190Y-114830521D02*
X32952381Y-114868617D01*
X33333334Y-115363855D02*
X33333334Y-114830521D01*
X33333334Y-114563855D02*
X33295238Y-114601950D01*
X33295238Y-114601950D02*
X33333334Y-114640045D01*
X33333334Y-114640045D02*
X33371429Y-114601950D01*
X33371429Y-114601950D02*
X33333334Y-114563855D01*
X33333334Y-114563855D02*
X33333334Y-114640045D01*
X34057143Y-115325760D02*
X33980952Y-115363855D01*
X33980952Y-115363855D02*
X33828571Y-115363855D01*
X33828571Y-115363855D02*
X33752381Y-115325760D01*
X33752381Y-115325760D02*
X33714286Y-115287664D01*
X33714286Y-115287664D02*
X33676190Y-115211474D01*
X33676190Y-115211474D02*
X33676190Y-114982902D01*
X33676190Y-114982902D02*
X33714286Y-114906712D01*
X33714286Y-114906712D02*
X33752381Y-114868617D01*
X33752381Y-114868617D02*
X33828571Y-114830521D01*
X33828571Y-114830521D02*
X33980952Y-114830521D01*
X33980952Y-114830521D02*
X34057143Y-114868617D01*
X34742857Y-115363855D02*
X34742857Y-114944807D01*
X34742857Y-114944807D02*
X34704762Y-114868617D01*
X34704762Y-114868617D02*
X34628571Y-114830521D01*
X34628571Y-114830521D02*
X34476190Y-114830521D01*
X34476190Y-114830521D02*
X34400000Y-114868617D01*
X34742857Y-115325760D02*
X34666666Y-115363855D01*
X34666666Y-115363855D02*
X34476190Y-115363855D01*
X34476190Y-115363855D02*
X34400000Y-115325760D01*
X34400000Y-115325760D02*
X34361904Y-115249569D01*
X34361904Y-115249569D02*
X34361904Y-115173379D01*
X34361904Y-115173379D02*
X34400000Y-115097188D01*
X34400000Y-115097188D02*
X34476190Y-115059093D01*
X34476190Y-115059093D02*
X34666666Y-115059093D01*
X34666666Y-115059093D02*
X34742857Y-115020998D01*
X35238095Y-115363855D02*
X35161905Y-115325760D01*
X35161905Y-115325760D02*
X35123810Y-115249569D01*
X35123810Y-115249569D02*
X35123810Y-114563855D01*
X36152382Y-114830521D02*
X36152382Y-115630521D01*
X36152382Y-114868617D02*
X36228572Y-114830521D01*
X36228572Y-114830521D02*
X36380953Y-114830521D01*
X36380953Y-114830521D02*
X36457144Y-114868617D01*
X36457144Y-114868617D02*
X36495239Y-114906712D01*
X36495239Y-114906712D02*
X36533334Y-114982902D01*
X36533334Y-114982902D02*
X36533334Y-115211474D01*
X36533334Y-115211474D02*
X36495239Y-115287664D01*
X36495239Y-115287664D02*
X36457144Y-115325760D01*
X36457144Y-115325760D02*
X36380953Y-115363855D01*
X36380953Y-115363855D02*
X36228572Y-115363855D01*
X36228572Y-115363855D02*
X36152382Y-115325760D01*
X36990477Y-115363855D02*
X36914287Y-115325760D01*
X36914287Y-115325760D02*
X36876192Y-115287664D01*
X36876192Y-115287664D02*
X36838096Y-115211474D01*
X36838096Y-115211474D02*
X36838096Y-114982902D01*
X36838096Y-114982902D02*
X36876192Y-114906712D01*
X36876192Y-114906712D02*
X36914287Y-114868617D01*
X36914287Y-114868617D02*
X36990477Y-114830521D01*
X36990477Y-114830521D02*
X37104763Y-114830521D01*
X37104763Y-114830521D02*
X37180954Y-114868617D01*
X37180954Y-114868617D02*
X37219049Y-114906712D01*
X37219049Y-114906712D02*
X37257144Y-114982902D01*
X37257144Y-114982902D02*
X37257144Y-115211474D01*
X37257144Y-115211474D02*
X37219049Y-115287664D01*
X37219049Y-115287664D02*
X37180954Y-115325760D01*
X37180954Y-115325760D02*
X37104763Y-115363855D01*
X37104763Y-115363855D02*
X36990477Y-115363855D01*
X37523811Y-114830521D02*
X37676192Y-115363855D01*
X37676192Y-115363855D02*
X37828573Y-114982902D01*
X37828573Y-114982902D02*
X37980954Y-115363855D01*
X37980954Y-115363855D02*
X38133335Y-114830521D01*
X38742859Y-115325760D02*
X38666668Y-115363855D01*
X38666668Y-115363855D02*
X38514287Y-115363855D01*
X38514287Y-115363855D02*
X38438097Y-115325760D01*
X38438097Y-115325760D02*
X38400001Y-115249569D01*
X38400001Y-115249569D02*
X38400001Y-114944807D01*
X38400001Y-114944807D02*
X38438097Y-114868617D01*
X38438097Y-114868617D02*
X38514287Y-114830521D01*
X38514287Y-114830521D02*
X38666668Y-114830521D01*
X38666668Y-114830521D02*
X38742859Y-114868617D01*
X38742859Y-114868617D02*
X38780954Y-114944807D01*
X38780954Y-114944807D02*
X38780954Y-115020998D01*
X38780954Y-115020998D02*
X38400001Y-115097188D01*
X39123811Y-115363855D02*
X39123811Y-114830521D01*
X39123811Y-114982902D02*
X39161906Y-114906712D01*
X39161906Y-114906712D02*
X39200001Y-114868617D01*
X39200001Y-114868617D02*
X39276192Y-114830521D01*
X39276192Y-114830521D02*
X39352382Y-114830521D01*
X40228573Y-115363855D02*
X40228573Y-114830521D01*
X40228573Y-114563855D02*
X40190477Y-114601950D01*
X40190477Y-114601950D02*
X40228573Y-114640045D01*
X40228573Y-114640045D02*
X40266668Y-114601950D01*
X40266668Y-114601950D02*
X40228573Y-114563855D01*
X40228573Y-114563855D02*
X40228573Y-114640045D01*
X40609525Y-114830521D02*
X40609525Y-115363855D01*
X40609525Y-114906712D02*
X40647620Y-114868617D01*
X40647620Y-114868617D02*
X40723810Y-114830521D01*
X40723810Y-114830521D02*
X40838096Y-114830521D01*
X40838096Y-114830521D02*
X40914287Y-114868617D01*
X40914287Y-114868617D02*
X40952382Y-114944807D01*
X40952382Y-114944807D02*
X40952382Y-115363855D01*
X41828573Y-114830521D02*
X42133335Y-114830521D01*
X41942859Y-115363855D02*
X41942859Y-114678140D01*
X41942859Y-114678140D02*
X41980954Y-114601950D01*
X41980954Y-114601950D02*
X42057144Y-114563855D01*
X42057144Y-114563855D02*
X42133335Y-114563855D01*
X42400002Y-115363855D02*
X42400002Y-114830521D01*
X42400002Y-114563855D02*
X42361906Y-114601950D01*
X42361906Y-114601950D02*
X42400002Y-114640045D01*
X42400002Y-114640045D02*
X42438097Y-114601950D01*
X42438097Y-114601950D02*
X42400002Y-114563855D01*
X42400002Y-114563855D02*
X42400002Y-114640045D01*
X42780954Y-115363855D02*
X42780954Y-114830521D01*
X42780954Y-114982902D02*
X42819049Y-114906712D01*
X42819049Y-114906712D02*
X42857144Y-114868617D01*
X42857144Y-114868617D02*
X42933335Y-114830521D01*
X42933335Y-114830521D02*
X43009525Y-114830521D01*
X43276192Y-115363855D02*
X43276192Y-114830521D01*
X43276192Y-114906712D02*
X43314287Y-114868617D01*
X43314287Y-114868617D02*
X43390477Y-114830521D01*
X43390477Y-114830521D02*
X43504763Y-114830521D01*
X43504763Y-114830521D02*
X43580954Y-114868617D01*
X43580954Y-114868617D02*
X43619049Y-114944807D01*
X43619049Y-114944807D02*
X43619049Y-115363855D01*
X43619049Y-114944807D02*
X43657144Y-114868617D01*
X43657144Y-114868617D02*
X43733335Y-114830521D01*
X43733335Y-114830521D02*
X43847620Y-114830521D01*
X43847620Y-114830521D02*
X43923811Y-114868617D01*
X43923811Y-114868617D02*
X43961906Y-114944807D01*
X43961906Y-114944807D02*
X43961906Y-115363855D01*
X44266668Y-114830521D02*
X44419049Y-115363855D01*
X44419049Y-115363855D02*
X44571430Y-114982902D01*
X44571430Y-114982902D02*
X44723811Y-115363855D01*
X44723811Y-115363855D02*
X44876192Y-114830521D01*
X45523811Y-115363855D02*
X45523811Y-114944807D01*
X45523811Y-114944807D02*
X45485716Y-114868617D01*
X45485716Y-114868617D02*
X45409525Y-114830521D01*
X45409525Y-114830521D02*
X45257144Y-114830521D01*
X45257144Y-114830521D02*
X45180954Y-114868617D01*
X45523811Y-115325760D02*
X45447620Y-115363855D01*
X45447620Y-115363855D02*
X45257144Y-115363855D01*
X45257144Y-115363855D02*
X45180954Y-115325760D01*
X45180954Y-115325760D02*
X45142858Y-115249569D01*
X45142858Y-115249569D02*
X45142858Y-115173379D01*
X45142858Y-115173379D02*
X45180954Y-115097188D01*
X45180954Y-115097188D02*
X45257144Y-115059093D01*
X45257144Y-115059093D02*
X45447620Y-115059093D01*
X45447620Y-115059093D02*
X45523811Y-115020998D01*
X45904764Y-115363855D02*
X45904764Y-114830521D01*
X45904764Y-114982902D02*
X45942859Y-114906712D01*
X45942859Y-114906712D02*
X45980954Y-114868617D01*
X45980954Y-114868617D02*
X46057145Y-114830521D01*
X46057145Y-114830521D02*
X46133335Y-114830521D01*
X46704764Y-115325760D02*
X46628573Y-115363855D01*
X46628573Y-115363855D02*
X46476192Y-115363855D01*
X46476192Y-115363855D02*
X46400002Y-115325760D01*
X46400002Y-115325760D02*
X46361906Y-115249569D01*
X46361906Y-115249569D02*
X46361906Y-114944807D01*
X46361906Y-114944807D02*
X46400002Y-114868617D01*
X46400002Y-114868617D02*
X46476192Y-114830521D01*
X46476192Y-114830521D02*
X46628573Y-114830521D01*
X46628573Y-114830521D02*
X46704764Y-114868617D01*
X46704764Y-114868617D02*
X46742859Y-114944807D01*
X46742859Y-114944807D02*
X46742859Y-115020998D01*
X46742859Y-115020998D02*
X46361906Y-115097188D01*
X34104761Y-39163855D02*
X34104761Y-39735283D01*
X34104761Y-39735283D02*
X34066666Y-39849569D01*
X34066666Y-39849569D02*
X33990475Y-39925760D01*
X33990475Y-39925760D02*
X33876190Y-39963855D01*
X33876190Y-39963855D02*
X33799999Y-39963855D01*
X34409523Y-39163855D02*
X34904761Y-39163855D01*
X34904761Y-39163855D02*
X34638095Y-39468617D01*
X34638095Y-39468617D02*
X34752380Y-39468617D01*
X34752380Y-39468617D02*
X34828571Y-39506712D01*
X34828571Y-39506712D02*
X34866666Y-39544807D01*
X34866666Y-39544807D02*
X34904761Y-39620998D01*
X34904761Y-39620998D02*
X34904761Y-39811474D01*
X34904761Y-39811474D02*
X34866666Y-39887664D01*
X34866666Y-39887664D02*
X34828571Y-39925760D01*
X34828571Y-39925760D02*
X34752380Y-39963855D01*
X34752380Y-39963855D02*
X34523809Y-39963855D01*
X34523809Y-39963855D02*
X34447618Y-39925760D01*
X34447618Y-39925760D02*
X34409523Y-39887664D01*
X36276190Y-39201950D02*
X36200000Y-39163855D01*
X36200000Y-39163855D02*
X36085714Y-39163855D01*
X36085714Y-39163855D02*
X35971428Y-39201950D01*
X35971428Y-39201950D02*
X35895238Y-39278140D01*
X35895238Y-39278140D02*
X35857143Y-39354331D01*
X35857143Y-39354331D02*
X35819047Y-39506712D01*
X35819047Y-39506712D02*
X35819047Y-39620998D01*
X35819047Y-39620998D02*
X35857143Y-39773379D01*
X35857143Y-39773379D02*
X35895238Y-39849569D01*
X35895238Y-39849569D02*
X35971428Y-39925760D01*
X35971428Y-39925760D02*
X36085714Y-39963855D01*
X36085714Y-39963855D02*
X36161905Y-39963855D01*
X36161905Y-39963855D02*
X36276190Y-39925760D01*
X36276190Y-39925760D02*
X36314286Y-39887664D01*
X36314286Y-39887664D02*
X36314286Y-39620998D01*
X36314286Y-39620998D02*
X36161905Y-39620998D01*
X36657143Y-39963855D02*
X36657143Y-39163855D01*
X36657143Y-39163855D02*
X37114286Y-39963855D01*
X37114286Y-39963855D02*
X37114286Y-39163855D01*
X37495238Y-39963855D02*
X37495238Y-39163855D01*
X37495238Y-39163855D02*
X37685714Y-39163855D01*
X37685714Y-39163855D02*
X37800000Y-39201950D01*
X37800000Y-39201950D02*
X37876190Y-39278140D01*
X37876190Y-39278140D02*
X37914285Y-39354331D01*
X37914285Y-39354331D02*
X37952381Y-39506712D01*
X37952381Y-39506712D02*
X37952381Y-39620998D01*
X37952381Y-39620998D02*
X37914285Y-39773379D01*
X37914285Y-39773379D02*
X37876190Y-39849569D01*
X37876190Y-39849569D02*
X37800000Y-39925760D01*
X37800000Y-39925760D02*
X37685714Y-39963855D01*
X37685714Y-39963855D02*
X37495238Y-39963855D01*
X39285714Y-39163855D02*
X38904762Y-39163855D01*
X38904762Y-39163855D02*
X38866666Y-39544807D01*
X38866666Y-39544807D02*
X38904762Y-39506712D01*
X38904762Y-39506712D02*
X38980952Y-39468617D01*
X38980952Y-39468617D02*
X39171428Y-39468617D01*
X39171428Y-39468617D02*
X39247619Y-39506712D01*
X39247619Y-39506712D02*
X39285714Y-39544807D01*
X39285714Y-39544807D02*
X39323809Y-39620998D01*
X39323809Y-39620998D02*
X39323809Y-39811474D01*
X39323809Y-39811474D02*
X39285714Y-39887664D01*
X39285714Y-39887664D02*
X39247619Y-39925760D01*
X39247619Y-39925760D02*
X39171428Y-39963855D01*
X39171428Y-39963855D02*
X38980952Y-39963855D01*
X38980952Y-39963855D02*
X38904762Y-39925760D01*
X38904762Y-39925760D02*
X38866666Y-39887664D01*
X39552381Y-39163855D02*
X39819048Y-39963855D01*
X39819048Y-39963855D02*
X40085714Y-39163855D01*
X40847619Y-39163855D02*
X41304762Y-39163855D01*
X41076190Y-39963855D02*
X41076190Y-39163855D01*
X41495238Y-39163855D02*
X42028572Y-39963855D01*
X42028572Y-39163855D02*
X41495238Y-39963855D01*
X43400001Y-39963855D02*
X43133334Y-39582902D01*
X42942858Y-39963855D02*
X42942858Y-39163855D01*
X42942858Y-39163855D02*
X43247620Y-39163855D01*
X43247620Y-39163855D02*
X43323810Y-39201950D01*
X43323810Y-39201950D02*
X43361905Y-39240045D01*
X43361905Y-39240045D02*
X43400001Y-39316236D01*
X43400001Y-39316236D02*
X43400001Y-39430521D01*
X43400001Y-39430521D02*
X43361905Y-39506712D01*
X43361905Y-39506712D02*
X43323810Y-39544807D01*
X43323810Y-39544807D02*
X43247620Y-39582902D01*
X43247620Y-39582902D02*
X42942858Y-39582902D01*
X43666667Y-39163855D02*
X44200001Y-39963855D01*
X44200001Y-39163855D02*
X43666667Y-39963855D01*
X33561903Y-112640045D02*
X33599999Y-112601950D01*
X33599999Y-112601950D02*
X33676189Y-112563855D01*
X33676189Y-112563855D02*
X33866665Y-112563855D01*
X33866665Y-112563855D02*
X33942856Y-112601950D01*
X33942856Y-112601950D02*
X33980951Y-112640045D01*
X33980951Y-112640045D02*
X34019046Y-112716236D01*
X34019046Y-112716236D02*
X34019046Y-112792426D01*
X34019046Y-112792426D02*
X33980951Y-112906712D01*
X33980951Y-112906712D02*
X33523808Y-113363855D01*
X33523808Y-113363855D02*
X34019046Y-113363855D01*
X34323808Y-113325760D02*
X34438094Y-113363855D01*
X34438094Y-113363855D02*
X34628570Y-113363855D01*
X34628570Y-113363855D02*
X34704761Y-113325760D01*
X34704761Y-113325760D02*
X34742856Y-113287664D01*
X34742856Y-113287664D02*
X34780951Y-113211474D01*
X34780951Y-113211474D02*
X34780951Y-113135283D01*
X34780951Y-113135283D02*
X34742856Y-113059093D01*
X34742856Y-113059093D02*
X34704761Y-113020998D01*
X34704761Y-113020998D02*
X34628570Y-112982902D01*
X34628570Y-112982902D02*
X34476189Y-112944807D01*
X34476189Y-112944807D02*
X34399999Y-112906712D01*
X34399999Y-112906712D02*
X34361904Y-112868617D01*
X34361904Y-112868617D02*
X34323808Y-112792426D01*
X34323808Y-112792426D02*
X34323808Y-112716236D01*
X34323808Y-112716236D02*
X34361904Y-112640045D01*
X34361904Y-112640045D02*
X34399999Y-112601950D01*
X34399999Y-112601950D02*
X34476189Y-112563855D01*
X34476189Y-112563855D02*
X34666666Y-112563855D01*
X34666666Y-112563855D02*
X34780951Y-112601950D01*
X35695237Y-112525760D02*
X35009523Y-113554331D01*
X36076189Y-112906712D02*
X35999999Y-112868617D01*
X35999999Y-112868617D02*
X35961904Y-112830521D01*
X35961904Y-112830521D02*
X35923808Y-112754331D01*
X35923808Y-112754331D02*
X35923808Y-112716236D01*
X35923808Y-112716236D02*
X35961904Y-112640045D01*
X35961904Y-112640045D02*
X35999999Y-112601950D01*
X35999999Y-112601950D02*
X36076189Y-112563855D01*
X36076189Y-112563855D02*
X36228570Y-112563855D01*
X36228570Y-112563855D02*
X36304761Y-112601950D01*
X36304761Y-112601950D02*
X36342856Y-112640045D01*
X36342856Y-112640045D02*
X36380951Y-112716236D01*
X36380951Y-112716236D02*
X36380951Y-112754331D01*
X36380951Y-112754331D02*
X36342856Y-112830521D01*
X36342856Y-112830521D02*
X36304761Y-112868617D01*
X36304761Y-112868617D02*
X36228570Y-112906712D01*
X36228570Y-112906712D02*
X36076189Y-112906712D01*
X36076189Y-112906712D02*
X35999999Y-112944807D01*
X35999999Y-112944807D02*
X35961904Y-112982902D01*
X35961904Y-112982902D02*
X35923808Y-113059093D01*
X35923808Y-113059093D02*
X35923808Y-113211474D01*
X35923808Y-113211474D02*
X35961904Y-113287664D01*
X35961904Y-113287664D02*
X35999999Y-113325760D01*
X35999999Y-113325760D02*
X36076189Y-113363855D01*
X36076189Y-113363855D02*
X36228570Y-113363855D01*
X36228570Y-113363855D02*
X36304761Y-113325760D01*
X36304761Y-113325760D02*
X36342856Y-113287664D01*
X36342856Y-113287664D02*
X36380951Y-113211474D01*
X36380951Y-113211474D02*
X36380951Y-113059093D01*
X36380951Y-113059093D02*
X36342856Y-112982902D01*
X36342856Y-112982902D02*
X36304761Y-112944807D01*
X36304761Y-112944807D02*
X36228570Y-112906712D01*
X36723809Y-113287664D02*
X36761904Y-113325760D01*
X36761904Y-113325760D02*
X36723809Y-113363855D01*
X36723809Y-113363855D02*
X36685713Y-113325760D01*
X36685713Y-113325760D02*
X36723809Y-113287664D01*
X36723809Y-113287664D02*
X36723809Y-113363855D01*
X37447618Y-112830521D02*
X37447618Y-113363855D01*
X37257142Y-112525760D02*
X37066665Y-113097188D01*
X37066665Y-113097188D02*
X37561904Y-113097188D01*
X37752380Y-112563855D02*
X38019047Y-113363855D01*
X38019047Y-113363855D02*
X38285713Y-112563855D01*
X39504761Y-113325760D02*
X39428570Y-113363855D01*
X39428570Y-113363855D02*
X39276189Y-113363855D01*
X39276189Y-113363855D02*
X39199999Y-113325760D01*
X39199999Y-113325760D02*
X39161904Y-113287664D01*
X39161904Y-113287664D02*
X39123808Y-113211474D01*
X39123808Y-113211474D02*
X39123808Y-112982902D01*
X39123808Y-112982902D02*
X39161904Y-112906712D01*
X39161904Y-112906712D02*
X39199999Y-112868617D01*
X39199999Y-112868617D02*
X39276189Y-112830521D01*
X39276189Y-112830521D02*
X39428570Y-112830521D01*
X39428570Y-112830521D02*
X39504761Y-112868617D01*
X39847618Y-113363855D02*
X39847618Y-112563855D01*
X40190475Y-113363855D02*
X40190475Y-112944807D01*
X40190475Y-112944807D02*
X40152380Y-112868617D01*
X40152380Y-112868617D02*
X40076189Y-112830521D01*
X40076189Y-112830521D02*
X39961903Y-112830521D01*
X39961903Y-112830521D02*
X39885713Y-112868617D01*
X39885713Y-112868617D02*
X39847618Y-112906712D01*
X40914285Y-113363855D02*
X40914285Y-112944807D01*
X40914285Y-112944807D02*
X40876190Y-112868617D01*
X40876190Y-112868617D02*
X40799999Y-112830521D01*
X40799999Y-112830521D02*
X40647618Y-112830521D01*
X40647618Y-112830521D02*
X40571428Y-112868617D01*
X40914285Y-113325760D02*
X40838094Y-113363855D01*
X40838094Y-113363855D02*
X40647618Y-113363855D01*
X40647618Y-113363855D02*
X40571428Y-113325760D01*
X40571428Y-113325760D02*
X40533332Y-113249569D01*
X40533332Y-113249569D02*
X40533332Y-113173379D01*
X40533332Y-113173379D02*
X40571428Y-113097188D01*
X40571428Y-113097188D02*
X40647618Y-113059093D01*
X40647618Y-113059093D02*
X40838094Y-113059093D01*
X40838094Y-113059093D02*
X40914285Y-113020998D01*
X41295238Y-113363855D02*
X41295238Y-112830521D01*
X41295238Y-112982902D02*
X41333333Y-112906712D01*
X41333333Y-112906712D02*
X41371428Y-112868617D01*
X41371428Y-112868617D02*
X41447619Y-112830521D01*
X41447619Y-112830521D02*
X41523809Y-112830521D01*
X42133333Y-112830521D02*
X42133333Y-113478140D01*
X42133333Y-113478140D02*
X42095238Y-113554331D01*
X42095238Y-113554331D02*
X42057142Y-113592426D01*
X42057142Y-113592426D02*
X41980952Y-113630521D01*
X41980952Y-113630521D02*
X41866666Y-113630521D01*
X41866666Y-113630521D02*
X41790476Y-113592426D01*
X42133333Y-113325760D02*
X42057142Y-113363855D01*
X42057142Y-113363855D02*
X41904761Y-113363855D01*
X41904761Y-113363855D02*
X41828571Y-113325760D01*
X41828571Y-113325760D02*
X41790476Y-113287664D01*
X41790476Y-113287664D02*
X41752380Y-113211474D01*
X41752380Y-113211474D02*
X41752380Y-112982902D01*
X41752380Y-112982902D02*
X41790476Y-112906712D01*
X41790476Y-112906712D02*
X41828571Y-112868617D01*
X41828571Y-112868617D02*
X41904761Y-112830521D01*
X41904761Y-112830521D02*
X42057142Y-112830521D01*
X42057142Y-112830521D02*
X42133333Y-112868617D01*
X42819048Y-113325760D02*
X42742857Y-113363855D01*
X42742857Y-113363855D02*
X42590476Y-113363855D01*
X42590476Y-113363855D02*
X42514286Y-113325760D01*
X42514286Y-113325760D02*
X42476190Y-113249569D01*
X42476190Y-113249569D02*
X42476190Y-112944807D01*
X42476190Y-112944807D02*
X42514286Y-112868617D01*
X42514286Y-112868617D02*
X42590476Y-112830521D01*
X42590476Y-112830521D02*
X42742857Y-112830521D01*
X42742857Y-112830521D02*
X42819048Y-112868617D01*
X42819048Y-112868617D02*
X42857143Y-112944807D01*
X42857143Y-112944807D02*
X42857143Y-113020998D01*
X42857143Y-113020998D02*
X42476190Y-113097188D01*
X43200000Y-113363855D02*
X43200000Y-112830521D01*
X43200000Y-112982902D02*
X43238095Y-112906712D01*
X43238095Y-112906712D02*
X43276190Y-112868617D01*
X43276190Y-112868617D02*
X43352381Y-112830521D01*
X43352381Y-112830521D02*
X43428571Y-112830521D01*
X44419047Y-113363855D02*
X44342857Y-113325760D01*
X44342857Y-113325760D02*
X44304762Y-113287664D01*
X44304762Y-113287664D02*
X44266666Y-113211474D01*
X44266666Y-113211474D02*
X44266666Y-112982902D01*
X44266666Y-112982902D02*
X44304762Y-112906712D01*
X44304762Y-112906712D02*
X44342857Y-112868617D01*
X44342857Y-112868617D02*
X44419047Y-112830521D01*
X44419047Y-112830521D02*
X44533333Y-112830521D01*
X44533333Y-112830521D02*
X44609524Y-112868617D01*
X44609524Y-112868617D02*
X44647619Y-112906712D01*
X44647619Y-112906712D02*
X44685714Y-112982902D01*
X44685714Y-112982902D02*
X44685714Y-113211474D01*
X44685714Y-113211474D02*
X44647619Y-113287664D01*
X44647619Y-113287664D02*
X44609524Y-113325760D01*
X44609524Y-113325760D02*
X44533333Y-113363855D01*
X44533333Y-113363855D02*
X44419047Y-113363855D01*
X45028572Y-112830521D02*
X45028572Y-113363855D01*
X45028572Y-112906712D02*
X45066667Y-112868617D01*
X45066667Y-112868617D02*
X45142857Y-112830521D01*
X45142857Y-112830521D02*
X45257143Y-112830521D01*
X45257143Y-112830521D02*
X45333334Y-112868617D01*
X45333334Y-112868617D02*
X45371429Y-112944807D01*
X45371429Y-112944807D02*
X45371429Y-113363855D01*
X45866667Y-113363855D02*
X45790477Y-113325760D01*
X45790477Y-113325760D02*
X45752382Y-113249569D01*
X45752382Y-113249569D02*
X45752382Y-112563855D01*
X46095239Y-112830521D02*
X46285715Y-113363855D01*
X46476192Y-112830521D02*
X46285715Y-113363855D01*
X46285715Y-113363855D02*
X46209525Y-113554331D01*
X46209525Y-113554331D02*
X46171430Y-113592426D01*
X46171430Y-113592426D02*
X46095239Y-113630521D01*
X40147619Y-91363855D02*
X40147619Y-90563855D01*
X40147619Y-90563855D02*
X40452381Y-90563855D01*
X40452381Y-90563855D02*
X40528571Y-90601950D01*
X40528571Y-90601950D02*
X40566666Y-90640045D01*
X40566666Y-90640045D02*
X40604762Y-90716236D01*
X40604762Y-90716236D02*
X40604762Y-90830521D01*
X40604762Y-90830521D02*
X40566666Y-90906712D01*
X40566666Y-90906712D02*
X40528571Y-90944807D01*
X40528571Y-90944807D02*
X40452381Y-90982902D01*
X40452381Y-90982902D02*
X40147619Y-90982902D01*
X40947619Y-91363855D02*
X40947619Y-90830521D01*
X40947619Y-90563855D02*
X40909523Y-90601950D01*
X40909523Y-90601950D02*
X40947619Y-90640045D01*
X40947619Y-90640045D02*
X40985714Y-90601950D01*
X40985714Y-90601950D02*
X40947619Y-90563855D01*
X40947619Y-90563855D02*
X40947619Y-90640045D01*
X41328571Y-90830521D02*
X41328571Y-91363855D01*
X41328571Y-90906712D02*
X41366666Y-90868617D01*
X41366666Y-90868617D02*
X41442856Y-90830521D01*
X41442856Y-90830521D02*
X41557142Y-90830521D01*
X41557142Y-90830521D02*
X41633333Y-90868617D01*
X41633333Y-90868617D02*
X41671428Y-90944807D01*
X41671428Y-90944807D02*
X41671428Y-91363855D01*
X43080952Y-91363855D02*
X42623809Y-91363855D01*
X42852381Y-91363855D02*
X42852381Y-90563855D01*
X42852381Y-90563855D02*
X42776190Y-90678140D01*
X42776190Y-90678140D02*
X42700000Y-90754331D01*
X42700000Y-90754331D02*
X42623809Y-90792426D01*
X44033334Y-90563855D02*
X44033334Y-91211474D01*
X44033334Y-91211474D02*
X44071429Y-91287664D01*
X44071429Y-91287664D02*
X44109524Y-91325760D01*
X44109524Y-91325760D02*
X44185715Y-91363855D01*
X44185715Y-91363855D02*
X44338096Y-91363855D01*
X44338096Y-91363855D02*
X44414286Y-91325760D01*
X44414286Y-91325760D02*
X44452381Y-91287664D01*
X44452381Y-91287664D02*
X44490477Y-91211474D01*
X44490477Y-91211474D02*
X44490477Y-90563855D01*
X44757143Y-90563855D02*
X45023810Y-91363855D01*
X45023810Y-91363855D02*
X45290476Y-90563855D01*
X45519047Y-91135283D02*
X45900000Y-91135283D01*
X45442857Y-91363855D02*
X45709524Y-90563855D01*
X45709524Y-90563855D02*
X45976190Y-91363855D01*
X46242857Y-91059093D02*
X46852381Y-91059093D01*
X-10802380Y-38686987D02*
X-10802380Y-37836987D01*
X-10802380Y-37836987D02*
X-10478570Y-37836987D01*
X-10478570Y-37836987D02*
X-10397618Y-37877463D01*
X-10397618Y-37877463D02*
X-10357141Y-37917939D01*
X-10357141Y-37917939D02*
X-10316665Y-37998891D01*
X-10316665Y-37998891D02*
X-10316665Y-38120320D01*
X-10316665Y-38120320D02*
X-10357141Y-38201272D01*
X-10357141Y-38201272D02*
X-10397618Y-38241749D01*
X-10397618Y-38241749D02*
X-10478570Y-38282225D01*
X-10478570Y-38282225D02*
X-10802380Y-38282225D01*
X-9952380Y-38686987D02*
X-9952380Y-37836987D01*
X-9952380Y-38241749D02*
X-9466665Y-38241749D01*
X-9466665Y-38686987D02*
X-9466665Y-37836987D01*
X-8899999Y-37836987D02*
X-8738094Y-37836987D01*
X-8738094Y-37836987D02*
X-8657142Y-37877463D01*
X-8657142Y-37877463D02*
X-8576189Y-37958415D01*
X-8576189Y-37958415D02*
X-8535713Y-38120320D01*
X-8535713Y-38120320D02*
X-8535713Y-38403653D01*
X-8535713Y-38403653D02*
X-8576189Y-38565558D01*
X-8576189Y-38565558D02*
X-8657142Y-38646511D01*
X-8657142Y-38646511D02*
X-8738094Y-38686987D01*
X-8738094Y-38686987D02*
X-8899999Y-38686987D01*
X-8899999Y-38686987D02*
X-8980951Y-38646511D01*
X-8980951Y-38646511D02*
X-9061904Y-38565558D01*
X-9061904Y-38565558D02*
X-9102380Y-38403653D01*
X-9102380Y-38403653D02*
X-9102380Y-38120320D01*
X-9102380Y-38120320D02*
X-9061904Y-37958415D01*
X-9061904Y-37958415D02*
X-8980951Y-37877463D01*
X-8980951Y-37877463D02*
X-8899999Y-37836987D01*
X-8171428Y-38686987D02*
X-8171428Y-37836987D01*
X-8171428Y-37836987D02*
X-7685713Y-38686987D01*
X-7685713Y-38686987D02*
X-7685713Y-37836987D01*
X-7280952Y-38241749D02*
X-6997618Y-38241749D01*
X-6876190Y-38686987D02*
X-7280952Y-38686987D01*
X-7280952Y-38686987D02*
X-7280952Y-37836987D01*
X-7280952Y-37836987D02*
X-6876190Y-37836987D01*
X-5378570Y-38606034D02*
X-5419046Y-38646511D01*
X-5419046Y-38646511D02*
X-5540475Y-38686987D01*
X-5540475Y-38686987D02*
X-5621427Y-38686987D01*
X-5621427Y-38686987D02*
X-5742856Y-38646511D01*
X-5742856Y-38646511D02*
X-5823808Y-38565558D01*
X-5823808Y-38565558D02*
X-5864285Y-38484606D01*
X-5864285Y-38484606D02*
X-5904761Y-38322701D01*
X-5904761Y-38322701D02*
X-5904761Y-38201272D01*
X-5904761Y-38201272D02*
X-5864285Y-38039368D01*
X-5864285Y-38039368D02*
X-5823808Y-37958415D01*
X-5823808Y-37958415D02*
X-5742856Y-37877463D01*
X-5742856Y-37877463D02*
X-5621427Y-37836987D01*
X-5621427Y-37836987D02*
X-5540475Y-37836987D01*
X-5540475Y-37836987D02*
X-5419046Y-37877463D01*
X-5419046Y-37877463D02*
X-5378570Y-37917939D01*
X-5054761Y-38444130D02*
X-4649999Y-38444130D01*
X-5135713Y-38686987D02*
X-4852380Y-37836987D01*
X-4852380Y-37836987D02*
X-4569046Y-38686987D01*
X-4285714Y-38686987D02*
X-4285714Y-37836987D01*
X-4285714Y-37836987D02*
X-4002380Y-38444130D01*
X-4002380Y-38444130D02*
X-3719047Y-37836987D01*
X-3719047Y-37836987D02*
X-3719047Y-38686987D01*
X-3314285Y-38241749D02*
X-3030951Y-38241749D01*
X-2909523Y-38686987D02*
X-3314285Y-38686987D01*
X-3314285Y-38686987D02*
X-3314285Y-37836987D01*
X-3314285Y-37836987D02*
X-2909523Y-37836987D01*
X-2059522Y-38686987D02*
X-2342856Y-38282225D01*
X-2545237Y-38686987D02*
X-2545237Y-37836987D01*
X-2545237Y-37836987D02*
X-2221427Y-37836987D01*
X-2221427Y-37836987D02*
X-2140475Y-37877463D01*
X-2140475Y-37877463D02*
X-2099998Y-37917939D01*
X-2099998Y-37917939D02*
X-2059522Y-37998891D01*
X-2059522Y-37998891D02*
X-2059522Y-38120320D01*
X-2059522Y-38120320D02*
X-2099998Y-38201272D01*
X-2099998Y-38201272D02*
X-2140475Y-38241749D01*
X-2140475Y-38241749D02*
X-2221427Y-38282225D01*
X-2221427Y-38282225D02*
X-2545237Y-38282225D01*
X-1735713Y-38444130D02*
X-1330951Y-38444130D01*
X-1816665Y-38686987D02*
X-1533332Y-37836987D01*
X-1533332Y-37836987D02*
X-1249998Y-38686987D01*
X166667Y-38606034D02*
X126191Y-38646511D01*
X126191Y-38646511D02*
X4762Y-38686987D01*
X4762Y-38686987D02*
X-76189Y-38686987D01*
X-76189Y-38686987D02*
X-197618Y-38646511D01*
X-197618Y-38646511D02*
X-278570Y-38565558D01*
X-278570Y-38565558D02*
X-319047Y-38484606D01*
X-319047Y-38484606D02*
X-359523Y-38322701D01*
X-359523Y-38322701D02*
X-359523Y-38201272D01*
X-359523Y-38201272D02*
X-319047Y-38039368D01*
X-319047Y-38039368D02*
X-278570Y-37958415D01*
X-278570Y-37958415D02*
X-197618Y-37877463D01*
X-197618Y-37877463D02*
X-76189Y-37836987D01*
X-76189Y-37836987D02*
X4762Y-37836987D01*
X4762Y-37836987D02*
X126191Y-37877463D01*
X126191Y-37877463D02*
X166667Y-37917939D01*
X530952Y-37836987D02*
X530952Y-38525082D01*
X530952Y-38525082D02*
X571429Y-38606034D01*
X571429Y-38606034D02*
X611905Y-38646511D01*
X611905Y-38646511D02*
X692857Y-38686987D01*
X692857Y-38686987D02*
X854762Y-38686987D01*
X854762Y-38686987D02*
X935714Y-38646511D01*
X935714Y-38646511D02*
X976191Y-38606034D01*
X976191Y-38606034D02*
X1016667Y-38525082D01*
X1016667Y-38525082D02*
X1016667Y-37836987D01*
X1300000Y-37836987D02*
X1785714Y-37836987D01*
X1542857Y-38686987D02*
X1542857Y-37836987D01*
X2230952Y-37836987D02*
X2392857Y-37836987D01*
X2392857Y-37836987D02*
X2473809Y-37877463D01*
X2473809Y-37877463D02*
X2554762Y-37958415D01*
X2554762Y-37958415D02*
X2595238Y-38120320D01*
X2595238Y-38120320D02*
X2595238Y-38403653D01*
X2595238Y-38403653D02*
X2554762Y-38565558D01*
X2554762Y-38565558D02*
X2473809Y-38646511D01*
X2473809Y-38646511D02*
X2392857Y-38686987D01*
X2392857Y-38686987D02*
X2230952Y-38686987D01*
X2230952Y-38686987D02*
X2150000Y-38646511D01*
X2150000Y-38646511D02*
X2069047Y-38565558D01*
X2069047Y-38565558D02*
X2028571Y-38403653D01*
X2028571Y-38403653D02*
X2028571Y-38120320D01*
X2028571Y-38120320D02*
X2069047Y-37958415D01*
X2069047Y-37958415D02*
X2150000Y-37877463D01*
X2150000Y-37877463D02*
X2230952Y-37836987D01*
X2959523Y-37836987D02*
X2959523Y-38525082D01*
X2959523Y-38525082D02*
X3000000Y-38606034D01*
X3000000Y-38606034D02*
X3040476Y-38646511D01*
X3040476Y-38646511D02*
X3121428Y-38686987D01*
X3121428Y-38686987D02*
X3283333Y-38686987D01*
X3283333Y-38686987D02*
X3364285Y-38646511D01*
X3364285Y-38646511D02*
X3404762Y-38606034D01*
X3404762Y-38606034D02*
X3445238Y-38525082D01*
X3445238Y-38525082D02*
X3445238Y-37836987D01*
X3728571Y-37836987D02*
X4214285Y-37836987D01*
X3971428Y-38686987D02*
X3971428Y-37836987D01*
X5752380Y-37796511D02*
X5023809Y-38889368D01*
X7169047Y-38606034D02*
X7128571Y-38646511D01*
X7128571Y-38646511D02*
X7007142Y-38686987D01*
X7007142Y-38686987D02*
X6926190Y-38686987D01*
X6926190Y-38686987D02*
X6804761Y-38646511D01*
X6804761Y-38646511D02*
X6723809Y-38565558D01*
X6723809Y-38565558D02*
X6683332Y-38484606D01*
X6683332Y-38484606D02*
X6642856Y-38322701D01*
X6642856Y-38322701D02*
X6642856Y-38201272D01*
X6642856Y-38201272D02*
X6683332Y-38039368D01*
X6683332Y-38039368D02*
X6723809Y-37958415D01*
X6723809Y-37958415D02*
X6804761Y-37877463D01*
X6804761Y-37877463D02*
X6926190Y-37836987D01*
X6926190Y-37836987D02*
X7007142Y-37836987D01*
X7007142Y-37836987D02*
X7128571Y-37877463D01*
X7128571Y-37877463D02*
X7169047Y-37917939D01*
X7492856Y-38444130D02*
X7897618Y-38444130D01*
X7411904Y-38686987D02*
X7695237Y-37836987D01*
X7695237Y-37836987D02*
X7978571Y-38686987D01*
X8221427Y-38646511D02*
X8342856Y-38686987D01*
X8342856Y-38686987D02*
X8545237Y-38686987D01*
X8545237Y-38686987D02*
X8626189Y-38646511D01*
X8626189Y-38646511D02*
X8666665Y-38606034D01*
X8666665Y-38606034D02*
X8707142Y-38525082D01*
X8707142Y-38525082D02*
X8707142Y-38444130D01*
X8707142Y-38444130D02*
X8666665Y-38363177D01*
X8666665Y-38363177D02*
X8626189Y-38322701D01*
X8626189Y-38322701D02*
X8545237Y-38282225D01*
X8545237Y-38282225D02*
X8383332Y-38241749D01*
X8383332Y-38241749D02*
X8302380Y-38201272D01*
X8302380Y-38201272D02*
X8261903Y-38160796D01*
X8261903Y-38160796D02*
X8221427Y-38079844D01*
X8221427Y-38079844D02*
X8221427Y-37998891D01*
X8221427Y-37998891D02*
X8261903Y-37917939D01*
X8261903Y-37917939D02*
X8302380Y-37877463D01*
X8302380Y-37877463D02*
X8383332Y-37836987D01*
X8383332Y-37836987D02*
X8585713Y-37836987D01*
X8585713Y-37836987D02*
X8707142Y-37877463D01*
X9071427Y-38241749D02*
X9354761Y-38241749D01*
X9476189Y-38686987D02*
X9071427Y-38686987D01*
X9071427Y-38686987D02*
X9071427Y-37836987D01*
X9071427Y-37836987D02*
X9476189Y-37836987D01*
X10488094Y-38686987D02*
X10488094Y-37836987D01*
X10973809Y-38686987D02*
X10609523Y-38201272D01*
X10973809Y-37836987D02*
X10488094Y-38322701D01*
X11338094Y-38241749D02*
X11621428Y-38241749D01*
X11742856Y-38686987D02*
X11338094Y-38686987D01*
X11338094Y-38686987D02*
X11338094Y-37836987D01*
X11338094Y-37836987D02*
X11742856Y-37836987D01*
X12107142Y-38241749D02*
X12390476Y-38241749D01*
X12511904Y-38686987D02*
X12107142Y-38686987D01*
X12107142Y-38686987D02*
X12107142Y-37836987D01*
X12107142Y-37836987D02*
X12511904Y-37836987D01*
X12876190Y-38686987D02*
X12876190Y-37836987D01*
X12876190Y-37836987D02*
X13200000Y-37836987D01*
X13200000Y-37836987D02*
X13280952Y-37877463D01*
X13280952Y-37877463D02*
X13321429Y-37917939D01*
X13321429Y-37917939D02*
X13361905Y-37998891D01*
X13361905Y-37998891D02*
X13361905Y-38120320D01*
X13361905Y-38120320D02*
X13321429Y-38201272D01*
X13321429Y-38201272D02*
X13280952Y-38241749D01*
X13280952Y-38241749D02*
X13200000Y-38282225D01*
X13200000Y-38282225D02*
X12876190Y-38282225D01*
X13726190Y-38363177D02*
X14373810Y-38363177D01*
X14940476Y-37836987D02*
X15102381Y-37836987D01*
X15102381Y-37836987D02*
X15183333Y-37877463D01*
X15183333Y-37877463D02*
X15264286Y-37958415D01*
X15264286Y-37958415D02*
X15304762Y-38120320D01*
X15304762Y-38120320D02*
X15304762Y-38403653D01*
X15304762Y-38403653D02*
X15264286Y-38565558D01*
X15264286Y-38565558D02*
X15183333Y-38646511D01*
X15183333Y-38646511D02*
X15102381Y-38686987D01*
X15102381Y-38686987D02*
X14940476Y-38686987D01*
X14940476Y-38686987D02*
X14859524Y-38646511D01*
X14859524Y-38646511D02*
X14778571Y-38565558D01*
X14778571Y-38565558D02*
X14738095Y-38403653D01*
X14738095Y-38403653D02*
X14738095Y-38120320D01*
X14738095Y-38120320D02*
X14778571Y-37958415D01*
X14778571Y-37958415D02*
X14859524Y-37877463D01*
X14859524Y-37877463D02*
X14940476Y-37836987D01*
X15669047Y-37836987D02*
X15669047Y-38525082D01*
X15669047Y-38525082D02*
X15709524Y-38606034D01*
X15709524Y-38606034D02*
X15750000Y-38646511D01*
X15750000Y-38646511D02*
X15830952Y-38686987D01*
X15830952Y-38686987D02*
X15992857Y-38686987D01*
X15992857Y-38686987D02*
X16073809Y-38646511D01*
X16073809Y-38646511D02*
X16114286Y-38606034D01*
X16114286Y-38606034D02*
X16154762Y-38525082D01*
X16154762Y-38525082D02*
X16154762Y-37836987D01*
X16438095Y-37836987D02*
X16923809Y-37836987D01*
X16680952Y-38686987D02*
X16680952Y-37836987D01*
X2280951Y-56144130D02*
X2685713Y-56144130D01*
X2199999Y-56386987D02*
X2483332Y-55536987D01*
X2483332Y-55536987D02*
X2766666Y-56386987D01*
X3049998Y-56386987D02*
X3049998Y-55820320D01*
X3049998Y-55982225D02*
X3090475Y-55901272D01*
X3090475Y-55901272D02*
X3130951Y-55860796D01*
X3130951Y-55860796D02*
X3211903Y-55820320D01*
X3211903Y-55820320D02*
X3292856Y-55820320D01*
X3940474Y-56386987D02*
X3940474Y-55536987D01*
X3940474Y-56346511D02*
X3859522Y-56386987D01*
X3859522Y-56386987D02*
X3697617Y-56386987D01*
X3697617Y-56386987D02*
X3616665Y-56346511D01*
X3616665Y-56346511D02*
X3576188Y-56306034D01*
X3576188Y-56306034D02*
X3535712Y-56225082D01*
X3535712Y-56225082D02*
X3535712Y-55982225D01*
X3535712Y-55982225D02*
X3576188Y-55901272D01*
X3576188Y-55901272D02*
X3616665Y-55860796D01*
X3616665Y-55860796D02*
X3697617Y-55820320D01*
X3697617Y-55820320D02*
X3859522Y-55820320D01*
X3859522Y-55820320D02*
X3940474Y-55860796D01*
X4709522Y-55820320D02*
X4709522Y-56386987D01*
X4345236Y-55820320D02*
X4345236Y-56265558D01*
X4345236Y-56265558D02*
X4385713Y-56346511D01*
X4385713Y-56346511D02*
X4466665Y-56386987D01*
X4466665Y-56386987D02*
X4588094Y-56386987D01*
X4588094Y-56386987D02*
X4669046Y-56346511D01*
X4669046Y-56346511D02*
X4709522Y-56306034D01*
X5114284Y-56386987D02*
X5114284Y-55820320D01*
X5114284Y-55536987D02*
X5073808Y-55577463D01*
X5073808Y-55577463D02*
X5114284Y-55617939D01*
X5114284Y-55617939D02*
X5154761Y-55577463D01*
X5154761Y-55577463D02*
X5114284Y-55536987D01*
X5114284Y-55536987D02*
X5114284Y-55617939D01*
X5519046Y-55820320D02*
X5519046Y-56386987D01*
X5519046Y-55901272D02*
X5559523Y-55860796D01*
X5559523Y-55860796D02*
X5640475Y-55820320D01*
X5640475Y-55820320D02*
X5761904Y-55820320D01*
X5761904Y-55820320D02*
X5842856Y-55860796D01*
X5842856Y-55860796D02*
X5883332Y-55941749D01*
X5883332Y-55941749D02*
X5883332Y-56386987D01*
X6409523Y-56386987D02*
X6328571Y-56346511D01*
X6328571Y-56346511D02*
X6288094Y-56306034D01*
X6288094Y-56306034D02*
X6247618Y-56225082D01*
X6247618Y-56225082D02*
X6247618Y-55982225D01*
X6247618Y-55982225D02*
X6288094Y-55901272D01*
X6288094Y-55901272D02*
X6328571Y-55860796D01*
X6328571Y-55860796D02*
X6409523Y-55820320D01*
X6409523Y-55820320D02*
X6530952Y-55820320D01*
X6530952Y-55820320D02*
X6611904Y-55860796D01*
X6611904Y-55860796D02*
X6652380Y-55901272D01*
X6652380Y-55901272D02*
X6692856Y-55982225D01*
X6692856Y-55982225D02*
X6692856Y-56225082D01*
X6692856Y-56225082D02*
X6652380Y-56306034D01*
X6652380Y-56306034D02*
X6611904Y-56346511D01*
X6611904Y-56346511D02*
X6530952Y-56386987D01*
X6530952Y-56386987D02*
X6409523Y-56386987D01*
X7704761Y-56386987D02*
X7704761Y-55536987D01*
X7704761Y-55536987D02*
X8190476Y-56386987D01*
X8190476Y-56386987D02*
X8190476Y-55536987D01*
X8959523Y-56386987D02*
X8959523Y-55941749D01*
X8959523Y-55941749D02*
X8919047Y-55860796D01*
X8919047Y-55860796D02*
X8838095Y-55820320D01*
X8838095Y-55820320D02*
X8676190Y-55820320D01*
X8676190Y-55820320D02*
X8595237Y-55860796D01*
X8959523Y-56346511D02*
X8878571Y-56386987D01*
X8878571Y-56386987D02*
X8676190Y-56386987D01*
X8676190Y-56386987D02*
X8595237Y-56346511D01*
X8595237Y-56346511D02*
X8554761Y-56265558D01*
X8554761Y-56265558D02*
X8554761Y-56184606D01*
X8554761Y-56184606D02*
X8595237Y-56103653D01*
X8595237Y-56103653D02*
X8676190Y-56063177D01*
X8676190Y-56063177D02*
X8878571Y-56063177D01*
X8878571Y-56063177D02*
X8959523Y-56022701D01*
X9364285Y-55820320D02*
X9364285Y-56386987D01*
X9364285Y-55901272D02*
X9404762Y-55860796D01*
X9404762Y-55860796D02*
X9485714Y-55820320D01*
X9485714Y-55820320D02*
X9607143Y-55820320D01*
X9607143Y-55820320D02*
X9688095Y-55860796D01*
X9688095Y-55860796D02*
X9728571Y-55941749D01*
X9728571Y-55941749D02*
X9728571Y-56386987D01*
X10254762Y-56386987D02*
X10173810Y-56346511D01*
X10173810Y-56346511D02*
X10133333Y-56306034D01*
X10133333Y-56306034D02*
X10092857Y-56225082D01*
X10092857Y-56225082D02*
X10092857Y-55982225D01*
X10092857Y-55982225D02*
X10133333Y-55901272D01*
X10133333Y-55901272D02*
X10173810Y-55860796D01*
X10173810Y-55860796D02*
X10254762Y-55820320D01*
X10254762Y-55820320D02*
X10376191Y-55820320D01*
X10376191Y-55820320D02*
X10457143Y-55860796D01*
X10457143Y-55860796D02*
X10497619Y-55901272D01*
X10497619Y-55901272D02*
X10538095Y-55982225D01*
X10538095Y-55982225D02*
X10538095Y-56225082D01*
X10538095Y-56225082D02*
X10497619Y-56306034D01*
X10497619Y-56306034D02*
X10457143Y-56346511D01*
X10457143Y-56346511D02*
X10376191Y-56386987D01*
X10376191Y-56386987D02*
X10254762Y-56386987D01*
X11550000Y-56386987D02*
X11550000Y-55820320D01*
X11550000Y-55982225D02*
X11590477Y-55901272D01*
X11590477Y-55901272D02*
X11630953Y-55860796D01*
X11630953Y-55860796D02*
X11711905Y-55820320D01*
X11711905Y-55820320D02*
X11792858Y-55820320D01*
X12197619Y-56386987D02*
X12116667Y-56346511D01*
X12116667Y-56346511D02*
X12076190Y-56306034D01*
X12076190Y-56306034D02*
X12035714Y-56225082D01*
X12035714Y-56225082D02*
X12035714Y-55982225D01*
X12035714Y-55982225D02*
X12076190Y-55901272D01*
X12076190Y-55901272D02*
X12116667Y-55860796D01*
X12116667Y-55860796D02*
X12197619Y-55820320D01*
X12197619Y-55820320D02*
X12319048Y-55820320D01*
X12319048Y-55820320D02*
X12400000Y-55860796D01*
X12400000Y-55860796D02*
X12440476Y-55901272D01*
X12440476Y-55901272D02*
X12480952Y-55982225D01*
X12480952Y-55982225D02*
X12480952Y-56225082D01*
X12480952Y-56225082D02*
X12440476Y-56306034D01*
X12440476Y-56306034D02*
X12400000Y-56346511D01*
X12400000Y-56346511D02*
X12319048Y-56386987D01*
X12319048Y-56386987D02*
X12197619Y-56386987D01*
X12723810Y-55820320D02*
X13047619Y-55820320D01*
X12845238Y-55536987D02*
X12845238Y-56265558D01*
X12845238Y-56265558D02*
X12885715Y-56346511D01*
X12885715Y-56346511D02*
X12966667Y-56386987D01*
X12966667Y-56386987D02*
X13047619Y-56386987D01*
X13695238Y-56386987D02*
X13695238Y-55941749D01*
X13695238Y-55941749D02*
X13654762Y-55860796D01*
X13654762Y-55860796D02*
X13573810Y-55820320D01*
X13573810Y-55820320D02*
X13411905Y-55820320D01*
X13411905Y-55820320D02*
X13330952Y-55860796D01*
X13695238Y-56346511D02*
X13614286Y-56386987D01*
X13614286Y-56386987D02*
X13411905Y-56386987D01*
X13411905Y-56386987D02*
X13330952Y-56346511D01*
X13330952Y-56346511D02*
X13290476Y-56265558D01*
X13290476Y-56265558D02*
X13290476Y-56184606D01*
X13290476Y-56184606D02*
X13330952Y-56103653D01*
X13330952Y-56103653D02*
X13411905Y-56063177D01*
X13411905Y-56063177D02*
X13614286Y-56063177D01*
X13614286Y-56063177D02*
X13695238Y-56022701D01*
X13978572Y-55820320D02*
X14302381Y-55820320D01*
X14100000Y-55536987D02*
X14100000Y-56265558D01*
X14100000Y-56265558D02*
X14140477Y-56346511D01*
X14140477Y-56346511D02*
X14221429Y-56386987D01*
X14221429Y-56386987D02*
X14302381Y-56386987D01*
X14909524Y-56346511D02*
X14828572Y-56386987D01*
X14828572Y-56386987D02*
X14666667Y-56386987D01*
X14666667Y-56386987D02*
X14585714Y-56346511D01*
X14585714Y-56346511D02*
X14545238Y-56265558D01*
X14545238Y-56265558D02*
X14545238Y-55941749D01*
X14545238Y-55941749D02*
X14585714Y-55860796D01*
X14585714Y-55860796D02*
X14666667Y-55820320D01*
X14666667Y-55820320D02*
X14828572Y-55820320D01*
X14828572Y-55820320D02*
X14909524Y-55860796D01*
X14909524Y-55860796D02*
X14950000Y-55941749D01*
X14950000Y-55941749D02*
X14950000Y-56022701D01*
X14950000Y-56022701D02*
X14545238Y-56103653D01*
X15678571Y-56386987D02*
X15678571Y-55536987D01*
X15678571Y-56346511D02*
X15597619Y-56386987D01*
X15597619Y-56386987D02*
X15435714Y-56386987D01*
X15435714Y-56386987D02*
X15354762Y-56346511D01*
X15354762Y-56346511D02*
X15314285Y-56306034D01*
X15314285Y-56306034D02*
X15273809Y-56225082D01*
X15273809Y-56225082D02*
X15273809Y-55982225D01*
X15273809Y-55982225D02*
X15314285Y-55901272D01*
X15314285Y-55901272D02*
X15354762Y-55860796D01*
X15354762Y-55860796D02*
X15435714Y-55820320D01*
X15435714Y-55820320D02*
X15597619Y-55820320D01*
X15597619Y-55820320D02*
X15678571Y-55860796D01*
D11*
X28157144Y-3709805D02*
X28671430Y-3709805D01*
X28414287Y-4609805D02*
X28414287Y-3709805D01*
X28885715Y-3709805D02*
X29100001Y-4609805D01*
X29100001Y-4609805D02*
X29271429Y-3966948D01*
X29271429Y-3966948D02*
X29442858Y-4609805D01*
X29442858Y-4609805D02*
X29657144Y-3709805D01*
X30171429Y-3709805D02*
X30342857Y-3709805D01*
X30342857Y-3709805D02*
X30428572Y-3752662D01*
X30428572Y-3752662D02*
X30514286Y-3838376D01*
X30514286Y-3838376D02*
X30557143Y-4009805D01*
X30557143Y-4009805D02*
X30557143Y-4309805D01*
X30557143Y-4309805D02*
X30514286Y-4481233D01*
X30514286Y-4481233D02*
X30428572Y-4566948D01*
X30428572Y-4566948D02*
X30342857Y-4609805D01*
X30342857Y-4609805D02*
X30171429Y-4609805D01*
X30171429Y-4609805D02*
X30085715Y-4566948D01*
X30085715Y-4566948D02*
X30000000Y-4481233D01*
X30000000Y-4481233D02*
X29957143Y-4309805D01*
X29957143Y-4309805D02*
X29957143Y-4009805D01*
X29957143Y-4009805D02*
X30000000Y-3838376D01*
X30000000Y-3838376D02*
X30085715Y-3752662D01*
X30085715Y-3752662D02*
X30171429Y-3709805D01*
X30942857Y-4266948D02*
X31628572Y-4266948D01*
X32357143Y-4138376D02*
X32485715Y-4181233D01*
X32485715Y-4181233D02*
X32528572Y-4224090D01*
X32528572Y-4224090D02*
X32571429Y-4309805D01*
X32571429Y-4309805D02*
X32571429Y-4438376D01*
X32571429Y-4438376D02*
X32528572Y-4524090D01*
X32528572Y-4524090D02*
X32485715Y-4566948D01*
X32485715Y-4566948D02*
X32400000Y-4609805D01*
X32400000Y-4609805D02*
X32057143Y-4609805D01*
X32057143Y-4609805D02*
X32057143Y-3709805D01*
X32057143Y-3709805D02*
X32357143Y-3709805D01*
X32357143Y-3709805D02*
X32442858Y-3752662D01*
X32442858Y-3752662D02*
X32485715Y-3795519D01*
X32485715Y-3795519D02*
X32528572Y-3881233D01*
X32528572Y-3881233D02*
X32528572Y-3966948D01*
X32528572Y-3966948D02*
X32485715Y-4052662D01*
X32485715Y-4052662D02*
X32442858Y-4095519D01*
X32442858Y-4095519D02*
X32357143Y-4138376D01*
X32357143Y-4138376D02*
X32057143Y-4138376D01*
X33128572Y-3709805D02*
X33300000Y-3709805D01*
X33300000Y-3709805D02*
X33385715Y-3752662D01*
X33385715Y-3752662D02*
X33471429Y-3838376D01*
X33471429Y-3838376D02*
X33514286Y-4009805D01*
X33514286Y-4009805D02*
X33514286Y-4309805D01*
X33514286Y-4309805D02*
X33471429Y-4481233D01*
X33471429Y-4481233D02*
X33385715Y-4566948D01*
X33385715Y-4566948D02*
X33300000Y-4609805D01*
X33300000Y-4609805D02*
X33128572Y-4609805D01*
X33128572Y-4609805D02*
X33042858Y-4566948D01*
X33042858Y-4566948D02*
X32957143Y-4481233D01*
X32957143Y-4481233D02*
X32914286Y-4309805D01*
X32914286Y-4309805D02*
X32914286Y-4009805D01*
X32914286Y-4009805D02*
X32957143Y-3838376D01*
X32957143Y-3838376D02*
X33042858Y-3752662D01*
X33042858Y-3752662D02*
X33128572Y-3709805D01*
X33857143Y-4352662D02*
X34285715Y-4352662D01*
X33771429Y-4609805D02*
X34071429Y-3709805D01*
X34071429Y-3709805D02*
X34371429Y-4609805D01*
X35185715Y-4609805D02*
X34885715Y-4181233D01*
X34671429Y-4609805D02*
X34671429Y-3709805D01*
X34671429Y-3709805D02*
X35014286Y-3709805D01*
X35014286Y-3709805D02*
X35100001Y-3752662D01*
X35100001Y-3752662D02*
X35142858Y-3795519D01*
X35142858Y-3795519D02*
X35185715Y-3881233D01*
X35185715Y-3881233D02*
X35185715Y-4009805D01*
X35185715Y-4009805D02*
X35142858Y-4095519D01*
X35142858Y-4095519D02*
X35100001Y-4138376D01*
X35100001Y-4138376D02*
X35014286Y-4181233D01*
X35014286Y-4181233D02*
X34671429Y-4181233D01*
X35571429Y-4609805D02*
X35571429Y-3709805D01*
X35571429Y-3709805D02*
X35785715Y-3709805D01*
X35785715Y-3709805D02*
X35914286Y-3752662D01*
X35914286Y-3752662D02*
X36000001Y-3838376D01*
X36000001Y-3838376D02*
X36042858Y-3924090D01*
X36042858Y-3924090D02*
X36085715Y-4095519D01*
X36085715Y-4095519D02*
X36085715Y-4224090D01*
X36085715Y-4224090D02*
X36042858Y-4395519D01*
X36042858Y-4395519D02*
X36000001Y-4481233D01*
X36000001Y-4481233D02*
X35914286Y-4566948D01*
X35914286Y-4566948D02*
X35785715Y-4609805D01*
X35785715Y-4609805D02*
X35571429Y-4609805D01*
X37157143Y-4609805D02*
X37157143Y-3709805D01*
X37157143Y-3709805D02*
X37457143Y-4352662D01*
X37457143Y-4352662D02*
X37757143Y-3709805D01*
X37757143Y-3709805D02*
X37757143Y-4609805D01*
X38142857Y-4352662D02*
X38571429Y-4352662D01*
X38057143Y-4609805D02*
X38357143Y-3709805D01*
X38357143Y-3709805D02*
X38657143Y-4609805D01*
X38957143Y-4609805D02*
X38957143Y-3709805D01*
X39385714Y-4609805D02*
X39385714Y-3709805D01*
X39385714Y-3709805D02*
X39900000Y-4609805D01*
X39900000Y-4609805D02*
X39900000Y-3709805D01*
X41528571Y-4524090D02*
X41485714Y-4566948D01*
X41485714Y-4566948D02*
X41357142Y-4609805D01*
X41357142Y-4609805D02*
X41271428Y-4609805D01*
X41271428Y-4609805D02*
X41142857Y-4566948D01*
X41142857Y-4566948D02*
X41057142Y-4481233D01*
X41057142Y-4481233D02*
X41014285Y-4395519D01*
X41014285Y-4395519D02*
X40971428Y-4224090D01*
X40971428Y-4224090D02*
X40971428Y-4095519D01*
X40971428Y-4095519D02*
X41014285Y-3924090D01*
X41014285Y-3924090D02*
X41057142Y-3838376D01*
X41057142Y-3838376D02*
X41142857Y-3752662D01*
X41142857Y-3752662D02*
X41271428Y-3709805D01*
X41271428Y-3709805D02*
X41357142Y-3709805D01*
X41357142Y-3709805D02*
X41485714Y-3752662D01*
X41485714Y-3752662D02*
X41528571Y-3795519D01*
X41871428Y-4352662D02*
X42300000Y-4352662D01*
X41785714Y-4609805D02*
X42085714Y-3709805D01*
X42085714Y-3709805D02*
X42385714Y-4609805D01*
X43200000Y-4609805D02*
X42900000Y-4181233D01*
X42685714Y-4609805D02*
X42685714Y-3709805D01*
X42685714Y-3709805D02*
X43028571Y-3709805D01*
X43028571Y-3709805D02*
X43114286Y-3752662D01*
X43114286Y-3752662D02*
X43157143Y-3795519D01*
X43157143Y-3795519D02*
X43200000Y-3881233D01*
X43200000Y-3881233D02*
X43200000Y-4009805D01*
X43200000Y-4009805D02*
X43157143Y-4095519D01*
X43157143Y-4095519D02*
X43114286Y-4138376D01*
X43114286Y-4138376D02*
X43028571Y-4181233D01*
X43028571Y-4181233D02*
X42685714Y-4181233D01*
X44100000Y-4609805D02*
X43800000Y-4181233D01*
X43585714Y-4609805D02*
X43585714Y-3709805D01*
X43585714Y-3709805D02*
X43928571Y-3709805D01*
X43928571Y-3709805D02*
X44014286Y-3752662D01*
X44014286Y-3752662D02*
X44057143Y-3795519D01*
X44057143Y-3795519D02*
X44100000Y-3881233D01*
X44100000Y-3881233D02*
X44100000Y-4009805D01*
X44100000Y-4009805D02*
X44057143Y-4095519D01*
X44057143Y-4095519D02*
X44014286Y-4138376D01*
X44014286Y-4138376D02*
X43928571Y-4181233D01*
X43928571Y-4181233D02*
X43585714Y-4181233D01*
X44485714Y-4609805D02*
X44485714Y-3709805D01*
X44914285Y-4138376D02*
X45214285Y-4138376D01*
X45342857Y-4609805D02*
X44914285Y-4609805D01*
X44914285Y-4609805D02*
X44914285Y-3709805D01*
X44914285Y-3709805D02*
X45342857Y-3709805D01*
X46242857Y-4609805D02*
X45942857Y-4181233D01*
X45728571Y-4609805D02*
X45728571Y-3709805D01*
X45728571Y-3709805D02*
X46071428Y-3709805D01*
X46071428Y-3709805D02*
X46157143Y-3752662D01*
X46157143Y-3752662D02*
X46200000Y-3795519D01*
X46200000Y-3795519D02*
X46242857Y-3881233D01*
X46242857Y-3881233D02*
X46242857Y-4009805D01*
X46242857Y-4009805D02*
X46200000Y-4095519D01*
X46200000Y-4095519D02*
X46157143Y-4138376D01*
X46157143Y-4138376D02*
X46071428Y-4181233D01*
X46071428Y-4181233D02*
X45728571Y-4181233D01*
X47228571Y-4009805D02*
X47442857Y-4609805D01*
X47442857Y-4609805D02*
X47657142Y-4009805D01*
X48171428Y-3709805D02*
X48257142Y-3709805D01*
X48257142Y-3709805D02*
X48342856Y-3752662D01*
X48342856Y-3752662D02*
X48385714Y-3795519D01*
X48385714Y-3795519D02*
X48428571Y-3881233D01*
X48428571Y-3881233D02*
X48471428Y-4052662D01*
X48471428Y-4052662D02*
X48471428Y-4266948D01*
X48471428Y-4266948D02*
X48428571Y-4438376D01*
X48428571Y-4438376D02*
X48385714Y-4524090D01*
X48385714Y-4524090D02*
X48342856Y-4566948D01*
X48342856Y-4566948D02*
X48257142Y-4609805D01*
X48257142Y-4609805D02*
X48171428Y-4609805D01*
X48171428Y-4609805D02*
X48085714Y-4566948D01*
X48085714Y-4566948D02*
X48042856Y-4524090D01*
X48042856Y-4524090D02*
X47999999Y-4438376D01*
X47999999Y-4438376D02*
X47957142Y-4266948D01*
X47957142Y-4266948D02*
X47957142Y-4052662D01*
X47957142Y-4052662D02*
X47999999Y-3881233D01*
X47999999Y-3881233D02*
X48042856Y-3795519D01*
X48042856Y-3795519D02*
X48085714Y-3752662D01*
X48085714Y-3752662D02*
X48171428Y-3709805D01*
X48857142Y-4524090D02*
X48899999Y-4566948D01*
X48899999Y-4566948D02*
X48857142Y-4609805D01*
X48857142Y-4609805D02*
X48814285Y-4566948D01*
X48814285Y-4566948D02*
X48857142Y-4524090D01*
X48857142Y-4524090D02*
X48857142Y-4609805D01*
X49199999Y-3709805D02*
X49799999Y-3709805D01*
X49799999Y-3709805D02*
X49414285Y-4609805D01*
D12*
X63395937Y-91068571D02*
X63361651Y-91137142D01*
X63361651Y-91137142D02*
X63293080Y-91205714D01*
X63293080Y-91205714D02*
X63190222Y-91308571D01*
X63190222Y-91308571D02*
X63155937Y-91377142D01*
X63155937Y-91377142D02*
X63155937Y-91445714D01*
X63327365Y-91411428D02*
X63293080Y-91480000D01*
X63293080Y-91480000D02*
X63224508Y-91548571D01*
X63224508Y-91548571D02*
X63087365Y-91582857D01*
X63087365Y-91582857D02*
X62847365Y-91582857D01*
X62847365Y-91582857D02*
X62710222Y-91548571D01*
X62710222Y-91548571D02*
X62641651Y-91480000D01*
X62641651Y-91480000D02*
X62607365Y-91411428D01*
X62607365Y-91411428D02*
X62607365Y-91274285D01*
X62607365Y-91274285D02*
X62641651Y-91205714D01*
X62641651Y-91205714D02*
X62710222Y-91137142D01*
X62710222Y-91137142D02*
X62847365Y-91102857D01*
X62847365Y-91102857D02*
X63087365Y-91102857D01*
X63087365Y-91102857D02*
X63224508Y-91137142D01*
X63224508Y-91137142D02*
X63293080Y-91205714D01*
X63293080Y-91205714D02*
X63327365Y-91274285D01*
X63327365Y-91274285D02*
X63327365Y-91411428D01*
X63327365Y-90417142D02*
X63327365Y-90828571D01*
X63327365Y-90622856D02*
X62607365Y-90622856D01*
X62607365Y-90622856D02*
X62710222Y-90691428D01*
X62710222Y-90691428D02*
X62778794Y-90759999D01*
X62778794Y-90759999D02*
X62813080Y-90828571D01*
D13*
X7261905Y-125554819D02*
X7261905Y-124554819D01*
X7261905Y-124554819D02*
X7642857Y-124554819D01*
X7642857Y-124554819D02*
X7738095Y-124602438D01*
X7738095Y-124602438D02*
X7785714Y-124650057D01*
X7785714Y-124650057D02*
X7833333Y-124745295D01*
X7833333Y-124745295D02*
X7833333Y-124888152D01*
X7833333Y-124888152D02*
X7785714Y-124983390D01*
X7785714Y-124983390D02*
X7738095Y-125031009D01*
X7738095Y-125031009D02*
X7642857Y-125078628D01*
X7642857Y-125078628D02*
X7261905Y-125078628D01*
X8214286Y-124650057D02*
X8261905Y-124602438D01*
X8261905Y-124602438D02*
X8357143Y-124554819D01*
X8357143Y-124554819D02*
X8595238Y-124554819D01*
X8595238Y-124554819D02*
X8690476Y-124602438D01*
X8690476Y-124602438D02*
X8738095Y-124650057D01*
X8738095Y-124650057D02*
X8785714Y-124745295D01*
X8785714Y-124745295D02*
X8785714Y-124840533D01*
X8785714Y-124840533D02*
X8738095Y-124983390D01*
X8738095Y-124983390D02*
X8166667Y-125554819D01*
X8166667Y-125554819D02*
X8785714Y-125554819D01*
X7261905Y-116554819D02*
X7261905Y-115554819D01*
X7261905Y-115554819D02*
X7642857Y-115554819D01*
X7642857Y-115554819D02*
X7738095Y-115602438D01*
X7738095Y-115602438D02*
X7785714Y-115650057D01*
X7785714Y-115650057D02*
X7833333Y-115745295D01*
X7833333Y-115745295D02*
X7833333Y-115888152D01*
X7833333Y-115888152D02*
X7785714Y-115983390D01*
X7785714Y-115983390D02*
X7738095Y-116031009D01*
X7738095Y-116031009D02*
X7642857Y-116078628D01*
X7642857Y-116078628D02*
X7261905Y-116078628D01*
X8785714Y-116554819D02*
X8214286Y-116554819D01*
X8500000Y-116554819D02*
X8500000Y-115554819D01*
X8500000Y-115554819D02*
X8404762Y-115697676D01*
X8404762Y-115697676D02*
X8309524Y-115792914D01*
X8309524Y-115792914D02*
X8214286Y-115840533D01*
X35261905Y-117054819D02*
X35261905Y-116054819D01*
X35261905Y-116054819D02*
X35642857Y-116054819D01*
X35642857Y-116054819D02*
X35738095Y-116102438D01*
X35738095Y-116102438D02*
X35785714Y-116150057D01*
X35785714Y-116150057D02*
X35833333Y-116245295D01*
X35833333Y-116245295D02*
X35833333Y-116388152D01*
X35833333Y-116388152D02*
X35785714Y-116483390D01*
X35785714Y-116483390D02*
X35738095Y-116531009D01*
X35738095Y-116531009D02*
X35642857Y-116578628D01*
X35642857Y-116578628D02*
X35261905Y-116578628D01*
X36738095Y-116054819D02*
X36261905Y-116054819D01*
X36261905Y-116054819D02*
X36214286Y-116531009D01*
X36214286Y-116531009D02*
X36261905Y-116483390D01*
X36261905Y-116483390D02*
X36357143Y-116435771D01*
X36357143Y-116435771D02*
X36595238Y-116435771D01*
X36595238Y-116435771D02*
X36690476Y-116483390D01*
X36690476Y-116483390D02*
X36738095Y-116531009D01*
X36738095Y-116531009D02*
X36785714Y-116626247D01*
X36785714Y-116626247D02*
X36785714Y-116864342D01*
X36785714Y-116864342D02*
X36738095Y-116959580D01*
X36738095Y-116959580D02*
X36690476Y-117007200D01*
X36690476Y-117007200D02*
X36595238Y-117054819D01*
X36595238Y-117054819D02*
X36357143Y-117054819D01*
X36357143Y-117054819D02*
X36261905Y-117007200D01*
X36261905Y-117007200D02*
X36214286Y-116959580D01*
X4238095Y-48454819D02*
X4238095Y-47454819D01*
X4238095Y-47931009D02*
X4809523Y-47931009D01*
X4809523Y-48454819D02*
X4809523Y-47454819D01*
X5238095Y-47550057D02*
X5285714Y-47502438D01*
X5285714Y-47502438D02*
X5380952Y-47454819D01*
X5380952Y-47454819D02*
X5619047Y-47454819D01*
X5619047Y-47454819D02*
X5714285Y-47502438D01*
X5714285Y-47502438D02*
X5761904Y-47550057D01*
X5761904Y-47550057D02*
X5809523Y-47645295D01*
X5809523Y-47645295D02*
X5809523Y-47740533D01*
X5809523Y-47740533D02*
X5761904Y-47883390D01*
X5761904Y-47883390D02*
X5190476Y-48454819D01*
X5190476Y-48454819D02*
X5809523Y-48454819D01*
X35261905Y-126054819D02*
X35261905Y-125054819D01*
X35261905Y-125054819D02*
X35642857Y-125054819D01*
X35642857Y-125054819D02*
X35738095Y-125102438D01*
X35738095Y-125102438D02*
X35785714Y-125150057D01*
X35785714Y-125150057D02*
X35833333Y-125245295D01*
X35833333Y-125245295D02*
X35833333Y-125388152D01*
X35833333Y-125388152D02*
X35785714Y-125483390D01*
X35785714Y-125483390D02*
X35738095Y-125531009D01*
X35738095Y-125531009D02*
X35642857Y-125578628D01*
X35642857Y-125578628D02*
X35261905Y-125578628D01*
X36690476Y-125054819D02*
X36500000Y-125054819D01*
X36500000Y-125054819D02*
X36404762Y-125102438D01*
X36404762Y-125102438D02*
X36357143Y-125150057D01*
X36357143Y-125150057D02*
X36261905Y-125292914D01*
X36261905Y-125292914D02*
X36214286Y-125483390D01*
X36214286Y-125483390D02*
X36214286Y-125864342D01*
X36214286Y-125864342D02*
X36261905Y-125959580D01*
X36261905Y-125959580D02*
X36309524Y-126007200D01*
X36309524Y-126007200D02*
X36404762Y-126054819D01*
X36404762Y-126054819D02*
X36595238Y-126054819D01*
X36595238Y-126054819D02*
X36690476Y-126007200D01*
X36690476Y-126007200D02*
X36738095Y-125959580D01*
X36738095Y-125959580D02*
X36785714Y-125864342D01*
X36785714Y-125864342D02*
X36785714Y-125626247D01*
X36785714Y-125626247D02*
X36738095Y-125531009D01*
X36738095Y-125531009D02*
X36690476Y-125483390D01*
X36690476Y-125483390D02*
X36595238Y-125435771D01*
X36595238Y-125435771D02*
X36404762Y-125435771D01*
X36404762Y-125435771D02*
X36309524Y-125483390D01*
X36309524Y-125483390D02*
X36261905Y-125531009D01*
X36261905Y-125531009D02*
X36214286Y-125626247D01*
X49261905Y-117054819D02*
X49261905Y-116054819D01*
X49261905Y-116054819D02*
X49642857Y-116054819D01*
X49642857Y-116054819D02*
X49738095Y-116102438D01*
X49738095Y-116102438D02*
X49785714Y-116150057D01*
X49785714Y-116150057D02*
X49833333Y-116245295D01*
X49833333Y-116245295D02*
X49833333Y-116388152D01*
X49833333Y-116388152D02*
X49785714Y-116483390D01*
X49785714Y-116483390D02*
X49738095Y-116531009D01*
X49738095Y-116531009D02*
X49642857Y-116578628D01*
X49642857Y-116578628D02*
X49261905Y-116578628D01*
X50166667Y-116054819D02*
X50833333Y-116054819D01*
X50833333Y-116054819D02*
X50404762Y-117054819D01*
X54666666Y-95454819D02*
X54666666Y-96169104D01*
X54666666Y-96169104D02*
X54619047Y-96311961D01*
X54619047Y-96311961D02*
X54523809Y-96407200D01*
X54523809Y-96407200D02*
X54380952Y-96454819D01*
X54380952Y-96454819D02*
X54285714Y-96454819D01*
X55285714Y-95883390D02*
X55190476Y-95835771D01*
X55190476Y-95835771D02*
X55142857Y-95788152D01*
X55142857Y-95788152D02*
X55095238Y-95692914D01*
X55095238Y-95692914D02*
X55095238Y-95645295D01*
X55095238Y-95645295D02*
X55142857Y-95550057D01*
X55142857Y-95550057D02*
X55190476Y-95502438D01*
X55190476Y-95502438D02*
X55285714Y-95454819D01*
X55285714Y-95454819D02*
X55476190Y-95454819D01*
X55476190Y-95454819D02*
X55571428Y-95502438D01*
X55571428Y-95502438D02*
X55619047Y-95550057D01*
X55619047Y-95550057D02*
X55666666Y-95645295D01*
X55666666Y-95645295D02*
X55666666Y-95692914D01*
X55666666Y-95692914D02*
X55619047Y-95788152D01*
X55619047Y-95788152D02*
X55571428Y-95835771D01*
X55571428Y-95835771D02*
X55476190Y-95883390D01*
X55476190Y-95883390D02*
X55285714Y-95883390D01*
X55285714Y-95883390D02*
X55190476Y-95931009D01*
X55190476Y-95931009D02*
X55142857Y-95978628D01*
X55142857Y-95978628D02*
X55095238Y-96073866D01*
X55095238Y-96073866D02*
X55095238Y-96264342D01*
X55095238Y-96264342D02*
X55142857Y-96359580D01*
X55142857Y-96359580D02*
X55190476Y-96407200D01*
X55190476Y-96407200D02*
X55285714Y-96454819D01*
X55285714Y-96454819D02*
X55476190Y-96454819D01*
X55476190Y-96454819D02*
X55571428Y-96407200D01*
X55571428Y-96407200D02*
X55619047Y-96359580D01*
X55619047Y-96359580D02*
X55666666Y-96264342D01*
X55666666Y-96264342D02*
X55666666Y-96073866D01*
X55666666Y-96073866D02*
X55619047Y-95978628D01*
X55619047Y-95978628D02*
X55571428Y-95931009D01*
X55571428Y-95931009D02*
X55476190Y-95883390D01*
D14*
X54916666Y-50227149D02*
X54750000Y-49989054D01*
X54630952Y-50227149D02*
X54630952Y-49727149D01*
X54630952Y-49727149D02*
X54821428Y-49727149D01*
X54821428Y-49727149D02*
X54869047Y-49750959D01*
X54869047Y-49750959D02*
X54892857Y-49774768D01*
X54892857Y-49774768D02*
X54916666Y-49822387D01*
X54916666Y-49822387D02*
X54916666Y-49893816D01*
X54916666Y-49893816D02*
X54892857Y-49941435D01*
X54892857Y-49941435D02*
X54869047Y-49965244D01*
X54869047Y-49965244D02*
X54821428Y-49989054D01*
X54821428Y-49989054D02*
X54630952Y-49989054D01*
X55154762Y-50227149D02*
X55250000Y-50227149D01*
X55250000Y-50227149D02*
X55297619Y-50203340D01*
X55297619Y-50203340D02*
X55321428Y-50179530D01*
X55321428Y-50179530D02*
X55369047Y-50108101D01*
X55369047Y-50108101D02*
X55392857Y-50012863D01*
X55392857Y-50012863D02*
X55392857Y-49822387D01*
X55392857Y-49822387D02*
X55369047Y-49774768D01*
X55369047Y-49774768D02*
X55345238Y-49750959D01*
X55345238Y-49750959D02*
X55297619Y-49727149D01*
X55297619Y-49727149D02*
X55202381Y-49727149D01*
X55202381Y-49727149D02*
X55154762Y-49750959D01*
X55154762Y-49750959D02*
X55130952Y-49774768D01*
X55130952Y-49774768D02*
X55107143Y-49822387D01*
X55107143Y-49822387D02*
X55107143Y-49941435D01*
X55107143Y-49941435D02*
X55130952Y-49989054D01*
X55130952Y-49989054D02*
X55154762Y-50012863D01*
X55154762Y-50012863D02*
X55202381Y-50036673D01*
X55202381Y-50036673D02*
X55297619Y-50036673D01*
X55297619Y-50036673D02*
X55345238Y-50012863D01*
X55345238Y-50012863D02*
X55369047Y-49989054D01*
X55369047Y-49989054D02*
X55392857Y-49941435D01*
D13*
X61436666Y-38454819D02*
X61436666Y-39169104D01*
X61436666Y-39169104D02*
X61389047Y-39311961D01*
X61389047Y-39311961D02*
X61293809Y-39407200D01*
X61293809Y-39407200D02*
X61150952Y-39454819D01*
X61150952Y-39454819D02*
X61055714Y-39454819D01*
X61912857Y-39454819D02*
X61912857Y-38454819D01*
X61912857Y-38454819D02*
X62293809Y-38454819D01*
X62293809Y-38454819D02*
X62389047Y-38502438D01*
X62389047Y-38502438D02*
X62436666Y-38550057D01*
X62436666Y-38550057D02*
X62484285Y-38645295D01*
X62484285Y-38645295D02*
X62484285Y-38788152D01*
X62484285Y-38788152D02*
X62436666Y-38883390D01*
X62436666Y-38883390D02*
X62389047Y-38931009D01*
X62389047Y-38931009D02*
X62293809Y-38978628D01*
X62293809Y-38978628D02*
X61912857Y-38978628D01*
X63436666Y-39454819D02*
X62865238Y-39454819D01*
X63150952Y-39454819D02*
X63150952Y-38454819D01*
X63150952Y-38454819D02*
X63055714Y-38597676D01*
X63055714Y-38597676D02*
X62960476Y-38692914D01*
X62960476Y-38692914D02*
X62865238Y-38740533D01*
D14*
X45916666Y-50227149D02*
X45750000Y-49989054D01*
X45630952Y-50227149D02*
X45630952Y-49727149D01*
X45630952Y-49727149D02*
X45821428Y-49727149D01*
X45821428Y-49727149D02*
X45869047Y-49750959D01*
X45869047Y-49750959D02*
X45892857Y-49774768D01*
X45892857Y-49774768D02*
X45916666Y-49822387D01*
X45916666Y-49822387D02*
X45916666Y-49893816D01*
X45916666Y-49893816D02*
X45892857Y-49941435D01*
X45892857Y-49941435D02*
X45869047Y-49965244D01*
X45869047Y-49965244D02*
X45821428Y-49989054D01*
X45821428Y-49989054D02*
X45630952Y-49989054D01*
X46202381Y-49941435D02*
X46154762Y-49917625D01*
X46154762Y-49917625D02*
X46130952Y-49893816D01*
X46130952Y-49893816D02*
X46107143Y-49846197D01*
X46107143Y-49846197D02*
X46107143Y-49822387D01*
X46107143Y-49822387D02*
X46130952Y-49774768D01*
X46130952Y-49774768D02*
X46154762Y-49750959D01*
X46154762Y-49750959D02*
X46202381Y-49727149D01*
X46202381Y-49727149D02*
X46297619Y-49727149D01*
X46297619Y-49727149D02*
X46345238Y-49750959D01*
X46345238Y-49750959D02*
X46369047Y-49774768D01*
X46369047Y-49774768D02*
X46392857Y-49822387D01*
X46392857Y-49822387D02*
X46392857Y-49846197D01*
X46392857Y-49846197D02*
X46369047Y-49893816D01*
X46369047Y-49893816D02*
X46345238Y-49917625D01*
X46345238Y-49917625D02*
X46297619Y-49941435D01*
X46297619Y-49941435D02*
X46202381Y-49941435D01*
X46202381Y-49941435D02*
X46154762Y-49965244D01*
X46154762Y-49965244D02*
X46130952Y-49989054D01*
X46130952Y-49989054D02*
X46107143Y-50036673D01*
X46107143Y-50036673D02*
X46107143Y-50131911D01*
X46107143Y-50131911D02*
X46130952Y-50179530D01*
X46130952Y-50179530D02*
X46154762Y-50203340D01*
X46154762Y-50203340D02*
X46202381Y-50227149D01*
X46202381Y-50227149D02*
X46297619Y-50227149D01*
X46297619Y-50227149D02*
X46345238Y-50203340D01*
X46345238Y-50203340D02*
X46369047Y-50179530D01*
X46369047Y-50179530D02*
X46392857Y-50131911D01*
X46392857Y-50131911D02*
X46392857Y-50036673D01*
X46392857Y-50036673D02*
X46369047Y-49989054D01*
X46369047Y-49989054D02*
X46345238Y-49965244D01*
X46345238Y-49965244D02*
X46297619Y-49941435D01*
X37916666Y-82227149D02*
X37750000Y-81989054D01*
X37630952Y-82227149D02*
X37630952Y-81727149D01*
X37630952Y-81727149D02*
X37821428Y-81727149D01*
X37821428Y-81727149D02*
X37869047Y-81750959D01*
X37869047Y-81750959D02*
X37892857Y-81774768D01*
X37892857Y-81774768D02*
X37916666Y-81822387D01*
X37916666Y-81822387D02*
X37916666Y-81893816D01*
X37916666Y-81893816D02*
X37892857Y-81941435D01*
X37892857Y-81941435D02*
X37869047Y-81965244D01*
X37869047Y-81965244D02*
X37821428Y-81989054D01*
X37821428Y-81989054D02*
X37630952Y-81989054D01*
X38369047Y-81727149D02*
X38130952Y-81727149D01*
X38130952Y-81727149D02*
X38107143Y-81965244D01*
X38107143Y-81965244D02*
X38130952Y-81941435D01*
X38130952Y-81941435D02*
X38178571Y-81917625D01*
X38178571Y-81917625D02*
X38297619Y-81917625D01*
X38297619Y-81917625D02*
X38345238Y-81941435D01*
X38345238Y-81941435D02*
X38369047Y-81965244D01*
X38369047Y-81965244D02*
X38392857Y-82012863D01*
X38392857Y-82012863D02*
X38392857Y-82131911D01*
X38392857Y-82131911D02*
X38369047Y-82179530D01*
X38369047Y-82179530D02*
X38345238Y-82203340D01*
X38345238Y-82203340D02*
X38297619Y-82227149D01*
X38297619Y-82227149D02*
X38178571Y-82227149D01*
X38178571Y-82227149D02*
X38130952Y-82203340D01*
X38130952Y-82203340D02*
X38107143Y-82179530D01*
D13*
X21261905Y-117054819D02*
X21261905Y-116054819D01*
X21261905Y-116054819D02*
X21642857Y-116054819D01*
X21642857Y-116054819D02*
X21738095Y-116102438D01*
X21738095Y-116102438D02*
X21785714Y-116150057D01*
X21785714Y-116150057D02*
X21833333Y-116245295D01*
X21833333Y-116245295D02*
X21833333Y-116388152D01*
X21833333Y-116388152D02*
X21785714Y-116483390D01*
X21785714Y-116483390D02*
X21738095Y-116531009D01*
X21738095Y-116531009D02*
X21642857Y-116578628D01*
X21642857Y-116578628D02*
X21261905Y-116578628D01*
X22166667Y-116054819D02*
X22785714Y-116054819D01*
X22785714Y-116054819D02*
X22452381Y-116435771D01*
X22452381Y-116435771D02*
X22595238Y-116435771D01*
X22595238Y-116435771D02*
X22690476Y-116483390D01*
X22690476Y-116483390D02*
X22738095Y-116531009D01*
X22738095Y-116531009D02*
X22785714Y-116626247D01*
X22785714Y-116626247D02*
X22785714Y-116864342D01*
X22785714Y-116864342D02*
X22738095Y-116959580D01*
X22738095Y-116959580D02*
X22690476Y-117007200D01*
X22690476Y-117007200D02*
X22595238Y-117054819D01*
X22595238Y-117054819D02*
X22309524Y-117054819D01*
X22309524Y-117054819D02*
X22214286Y-117007200D01*
X22214286Y-117007200D02*
X22166667Y-116959580D01*
D14*
X37916666Y-85227149D02*
X37750000Y-84989054D01*
X37630952Y-85227149D02*
X37630952Y-84727149D01*
X37630952Y-84727149D02*
X37821428Y-84727149D01*
X37821428Y-84727149D02*
X37869047Y-84750959D01*
X37869047Y-84750959D02*
X37892857Y-84774768D01*
X37892857Y-84774768D02*
X37916666Y-84822387D01*
X37916666Y-84822387D02*
X37916666Y-84893816D01*
X37916666Y-84893816D02*
X37892857Y-84941435D01*
X37892857Y-84941435D02*
X37869047Y-84965244D01*
X37869047Y-84965244D02*
X37821428Y-84989054D01*
X37821428Y-84989054D02*
X37630952Y-84989054D01*
X38345238Y-84727149D02*
X38250000Y-84727149D01*
X38250000Y-84727149D02*
X38202381Y-84750959D01*
X38202381Y-84750959D02*
X38178571Y-84774768D01*
X38178571Y-84774768D02*
X38130952Y-84846197D01*
X38130952Y-84846197D02*
X38107143Y-84941435D01*
X38107143Y-84941435D02*
X38107143Y-85131911D01*
X38107143Y-85131911D02*
X38130952Y-85179530D01*
X38130952Y-85179530D02*
X38154762Y-85203340D01*
X38154762Y-85203340D02*
X38202381Y-85227149D01*
X38202381Y-85227149D02*
X38297619Y-85227149D01*
X38297619Y-85227149D02*
X38345238Y-85203340D01*
X38345238Y-85203340D02*
X38369047Y-85179530D01*
X38369047Y-85179530D02*
X38392857Y-85131911D01*
X38392857Y-85131911D02*
X38392857Y-85012863D01*
X38392857Y-85012863D02*
X38369047Y-84965244D01*
X38369047Y-84965244D02*
X38345238Y-84941435D01*
X38345238Y-84941435D02*
X38297619Y-84917625D01*
X38297619Y-84917625D02*
X38202381Y-84917625D01*
X38202381Y-84917625D02*
X38154762Y-84941435D01*
X38154762Y-84941435D02*
X38130952Y-84965244D01*
X38130952Y-84965244D02*
X38107143Y-85012863D01*
D13*
X24446666Y-74694819D02*
X24446666Y-75409104D01*
X24446666Y-75409104D02*
X24399047Y-75551961D01*
X24399047Y-75551961D02*
X24303809Y-75647200D01*
X24303809Y-75647200D02*
X24160952Y-75694819D01*
X24160952Y-75694819D02*
X24065714Y-75694819D01*
X25399047Y-74694819D02*
X24922857Y-74694819D01*
X24922857Y-74694819D02*
X24875238Y-75171009D01*
X24875238Y-75171009D02*
X24922857Y-75123390D01*
X24922857Y-75123390D02*
X25018095Y-75075771D01*
X25018095Y-75075771D02*
X25256190Y-75075771D01*
X25256190Y-75075771D02*
X25351428Y-75123390D01*
X25351428Y-75123390D02*
X25399047Y-75171009D01*
X25399047Y-75171009D02*
X25446666Y-75266247D01*
X25446666Y-75266247D02*
X25446666Y-75504342D01*
X25446666Y-75504342D02*
X25399047Y-75599580D01*
X25399047Y-75599580D02*
X25351428Y-75647200D01*
X25351428Y-75647200D02*
X25256190Y-75694819D01*
X25256190Y-75694819D02*
X25018095Y-75694819D01*
X25018095Y-75694819D02*
X24922857Y-75647200D01*
X24922857Y-75647200D02*
X24875238Y-75599580D01*
D14*
X50227149Y-86583333D02*
X49989054Y-86749999D01*
X50227149Y-86869047D02*
X49727149Y-86869047D01*
X49727149Y-86869047D02*
X49727149Y-86678571D01*
X49727149Y-86678571D02*
X49750959Y-86630952D01*
X49750959Y-86630952D02*
X49774768Y-86607142D01*
X49774768Y-86607142D02*
X49822387Y-86583333D01*
X49822387Y-86583333D02*
X49893816Y-86583333D01*
X49893816Y-86583333D02*
X49941435Y-86607142D01*
X49941435Y-86607142D02*
X49965244Y-86630952D01*
X49965244Y-86630952D02*
X49989054Y-86678571D01*
X49989054Y-86678571D02*
X49989054Y-86869047D01*
X49893816Y-86154761D02*
X50227149Y-86154761D01*
X49703340Y-86273809D02*
X50060482Y-86392856D01*
X50060482Y-86392856D02*
X50060482Y-86083333D01*
X58227149Y-86583333D02*
X57989054Y-86749999D01*
X58227149Y-86869047D02*
X57727149Y-86869047D01*
X57727149Y-86869047D02*
X57727149Y-86678571D01*
X57727149Y-86678571D02*
X57750959Y-86630952D01*
X57750959Y-86630952D02*
X57774768Y-86607142D01*
X57774768Y-86607142D02*
X57822387Y-86583333D01*
X57822387Y-86583333D02*
X57893816Y-86583333D01*
X57893816Y-86583333D02*
X57941435Y-86607142D01*
X57941435Y-86607142D02*
X57965244Y-86630952D01*
X57965244Y-86630952D02*
X57989054Y-86678571D01*
X57989054Y-86678571D02*
X57989054Y-86869047D01*
X58227149Y-86107142D02*
X58227149Y-86392856D01*
X58227149Y-86249999D02*
X57727149Y-86249999D01*
X57727149Y-86249999D02*
X57798578Y-86297618D01*
X57798578Y-86297618D02*
X57846197Y-86345237D01*
X57846197Y-86345237D02*
X57870006Y-86392856D01*
D13*
X24446666Y-59454819D02*
X24446666Y-60169104D01*
X24446666Y-60169104D02*
X24399047Y-60311961D01*
X24399047Y-60311961D02*
X24303809Y-60407200D01*
X24303809Y-60407200D02*
X24160952Y-60454819D01*
X24160952Y-60454819D02*
X24065714Y-60454819D01*
X25351428Y-59788152D02*
X25351428Y-60454819D01*
X25113333Y-59407200D02*
X24875238Y-60121485D01*
X24875238Y-60121485D02*
X25494285Y-60121485D01*
D12*
X46395937Y-91068571D02*
X46361651Y-91137142D01*
X46361651Y-91137142D02*
X46293080Y-91205714D01*
X46293080Y-91205714D02*
X46190222Y-91308571D01*
X46190222Y-91308571D02*
X46155937Y-91377142D01*
X46155937Y-91377142D02*
X46155937Y-91445714D01*
X46327365Y-91411428D02*
X46293080Y-91480000D01*
X46293080Y-91480000D02*
X46224508Y-91548571D01*
X46224508Y-91548571D02*
X46087365Y-91582857D01*
X46087365Y-91582857D02*
X45847365Y-91582857D01*
X45847365Y-91582857D02*
X45710222Y-91548571D01*
X45710222Y-91548571D02*
X45641651Y-91480000D01*
X45641651Y-91480000D02*
X45607365Y-91411428D01*
X45607365Y-91411428D02*
X45607365Y-91274285D01*
X45607365Y-91274285D02*
X45641651Y-91205714D01*
X45641651Y-91205714D02*
X45710222Y-91137142D01*
X45710222Y-91137142D02*
X45847365Y-91102857D01*
X45847365Y-91102857D02*
X46087365Y-91102857D01*
X46087365Y-91102857D02*
X46224508Y-91137142D01*
X46224508Y-91137142D02*
X46293080Y-91205714D01*
X46293080Y-91205714D02*
X46327365Y-91274285D01*
X46327365Y-91274285D02*
X46327365Y-91411428D01*
X45675937Y-90828571D02*
X45641651Y-90794285D01*
X45641651Y-90794285D02*
X45607365Y-90725714D01*
X45607365Y-90725714D02*
X45607365Y-90554285D01*
X45607365Y-90554285D02*
X45641651Y-90485714D01*
X45641651Y-90485714D02*
X45675937Y-90451428D01*
X45675937Y-90451428D02*
X45744508Y-90417142D01*
X45744508Y-90417142D02*
X45813080Y-90417142D01*
X45813080Y-90417142D02*
X45915937Y-90451428D01*
X45915937Y-90451428D02*
X46327365Y-90862856D01*
X46327365Y-90862856D02*
X46327365Y-90417142D01*
D13*
X65238095Y-132454819D02*
X65238095Y-131454819D01*
X65238095Y-131931009D02*
X65809523Y-131931009D01*
X65809523Y-132454819D02*
X65809523Y-131454819D01*
X66190476Y-131454819D02*
X66809523Y-131454819D01*
X66809523Y-131454819D02*
X66476190Y-131835771D01*
X66476190Y-131835771D02*
X66619047Y-131835771D01*
X66619047Y-131835771D02*
X66714285Y-131883390D01*
X66714285Y-131883390D02*
X66761904Y-131931009D01*
X66761904Y-131931009D02*
X66809523Y-132026247D01*
X66809523Y-132026247D02*
X66809523Y-132264342D01*
X66809523Y-132264342D02*
X66761904Y-132359580D01*
X66761904Y-132359580D02*
X66714285Y-132407200D01*
X66714285Y-132407200D02*
X66619047Y-132454819D01*
X66619047Y-132454819D02*
X66333333Y-132454819D01*
X66333333Y-132454819D02*
X66238095Y-132407200D01*
X66238095Y-132407200D02*
X66190476Y-132359580D01*
D14*
X61916666Y-82227149D02*
X61750000Y-81989054D01*
X61630952Y-82227149D02*
X61630952Y-81727149D01*
X61630952Y-81727149D02*
X61821428Y-81727149D01*
X61821428Y-81727149D02*
X61869047Y-81750959D01*
X61869047Y-81750959D02*
X61892857Y-81774768D01*
X61892857Y-81774768D02*
X61916666Y-81822387D01*
X61916666Y-81822387D02*
X61916666Y-81893816D01*
X61916666Y-81893816D02*
X61892857Y-81941435D01*
X61892857Y-81941435D02*
X61869047Y-81965244D01*
X61869047Y-81965244D02*
X61821428Y-81989054D01*
X61821428Y-81989054D02*
X61630952Y-81989054D01*
X62107143Y-81774768D02*
X62130952Y-81750959D01*
X62130952Y-81750959D02*
X62178571Y-81727149D01*
X62178571Y-81727149D02*
X62297619Y-81727149D01*
X62297619Y-81727149D02*
X62345238Y-81750959D01*
X62345238Y-81750959D02*
X62369047Y-81774768D01*
X62369047Y-81774768D02*
X62392857Y-81822387D01*
X62392857Y-81822387D02*
X62392857Y-81870006D01*
X62392857Y-81870006D02*
X62369047Y-81941435D01*
X62369047Y-81941435D02*
X62083333Y-82227149D01*
X62083333Y-82227149D02*
X62392857Y-82227149D01*
X49916666Y-80227149D02*
X49750000Y-79989054D01*
X49630952Y-80227149D02*
X49630952Y-79727149D01*
X49630952Y-79727149D02*
X49821428Y-79727149D01*
X49821428Y-79727149D02*
X49869047Y-79750959D01*
X49869047Y-79750959D02*
X49892857Y-79774768D01*
X49892857Y-79774768D02*
X49916666Y-79822387D01*
X49916666Y-79822387D02*
X49916666Y-79893816D01*
X49916666Y-79893816D02*
X49892857Y-79941435D01*
X49892857Y-79941435D02*
X49869047Y-79965244D01*
X49869047Y-79965244D02*
X49821428Y-79989054D01*
X49821428Y-79989054D02*
X49630952Y-79989054D01*
X50083333Y-79727149D02*
X50416666Y-79727149D01*
X50416666Y-79727149D02*
X50202381Y-80227149D01*
X45678571Y-45227149D02*
X45511905Y-44989054D01*
X45392857Y-45227149D02*
X45392857Y-44727149D01*
X45392857Y-44727149D02*
X45583333Y-44727149D01*
X45583333Y-44727149D02*
X45630952Y-44750959D01*
X45630952Y-44750959D02*
X45654762Y-44774768D01*
X45654762Y-44774768D02*
X45678571Y-44822387D01*
X45678571Y-44822387D02*
X45678571Y-44893816D01*
X45678571Y-44893816D02*
X45654762Y-44941435D01*
X45654762Y-44941435D02*
X45630952Y-44965244D01*
X45630952Y-44965244D02*
X45583333Y-44989054D01*
X45583333Y-44989054D02*
X45392857Y-44989054D01*
X46154762Y-45227149D02*
X45869048Y-45227149D01*
X46011905Y-45227149D02*
X46011905Y-44727149D01*
X46011905Y-44727149D02*
X45964286Y-44798578D01*
X45964286Y-44798578D02*
X45916667Y-44846197D01*
X45916667Y-44846197D02*
X45869048Y-44870006D01*
X46464285Y-44727149D02*
X46511904Y-44727149D01*
X46511904Y-44727149D02*
X46559523Y-44750959D01*
X46559523Y-44750959D02*
X46583333Y-44774768D01*
X46583333Y-44774768D02*
X46607142Y-44822387D01*
X46607142Y-44822387D02*
X46630952Y-44917625D01*
X46630952Y-44917625D02*
X46630952Y-45036673D01*
X46630952Y-45036673D02*
X46607142Y-45131911D01*
X46607142Y-45131911D02*
X46583333Y-45179530D01*
X46583333Y-45179530D02*
X46559523Y-45203340D01*
X46559523Y-45203340D02*
X46511904Y-45227149D01*
X46511904Y-45227149D02*
X46464285Y-45227149D01*
X46464285Y-45227149D02*
X46416666Y-45203340D01*
X46416666Y-45203340D02*
X46392857Y-45179530D01*
X46392857Y-45179530D02*
X46369047Y-45131911D01*
X46369047Y-45131911D02*
X46345238Y-45036673D01*
X46345238Y-45036673D02*
X46345238Y-44917625D01*
X46345238Y-44917625D02*
X46369047Y-44822387D01*
X46369047Y-44822387D02*
X46392857Y-44774768D01*
X46392857Y-44774768D02*
X46416666Y-44750959D01*
X46416666Y-44750959D02*
X46464285Y-44727149D01*
D13*
X4238095Y-108454819D02*
X4238095Y-107454819D01*
X4238095Y-107931009D02*
X4809523Y-107931009D01*
X4809523Y-108454819D02*
X4809523Y-107454819D01*
X5809523Y-108454819D02*
X5238095Y-108454819D01*
X5523809Y-108454819D02*
X5523809Y-107454819D01*
X5523809Y-107454819D02*
X5428571Y-107597676D01*
X5428571Y-107597676D02*
X5333333Y-107692914D01*
X5333333Y-107692914D02*
X5238095Y-107740533D01*
X21261905Y-126054819D02*
X21261905Y-125054819D01*
X21261905Y-125054819D02*
X21642857Y-125054819D01*
X21642857Y-125054819D02*
X21738095Y-125102438D01*
X21738095Y-125102438D02*
X21785714Y-125150057D01*
X21785714Y-125150057D02*
X21833333Y-125245295D01*
X21833333Y-125245295D02*
X21833333Y-125388152D01*
X21833333Y-125388152D02*
X21785714Y-125483390D01*
X21785714Y-125483390D02*
X21738095Y-125531009D01*
X21738095Y-125531009D02*
X21642857Y-125578628D01*
X21642857Y-125578628D02*
X21261905Y-125578628D01*
X22690476Y-125388152D02*
X22690476Y-126054819D01*
X22452381Y-125007200D02*
X22214286Y-125721485D01*
X22214286Y-125721485D02*
X22833333Y-125721485D01*
X44476666Y-33454819D02*
X44476666Y-34169104D01*
X44476666Y-34169104D02*
X44429047Y-34311961D01*
X44429047Y-34311961D02*
X44333809Y-34407200D01*
X44333809Y-34407200D02*
X44190952Y-34454819D01*
X44190952Y-34454819D02*
X44095714Y-34454819D01*
X44857619Y-33454819D02*
X45476666Y-33454819D01*
X45476666Y-33454819D02*
X45143333Y-33835771D01*
X45143333Y-33835771D02*
X45286190Y-33835771D01*
X45286190Y-33835771D02*
X45381428Y-33883390D01*
X45381428Y-33883390D02*
X45429047Y-33931009D01*
X45429047Y-33931009D02*
X45476666Y-34026247D01*
X45476666Y-34026247D02*
X45476666Y-34264342D01*
X45476666Y-34264342D02*
X45429047Y-34359580D01*
X45429047Y-34359580D02*
X45381428Y-34407200D01*
X45381428Y-34407200D02*
X45286190Y-34454819D01*
X45286190Y-34454819D02*
X45000476Y-34454819D01*
X45000476Y-34454819D02*
X44905238Y-34407200D01*
X44905238Y-34407200D02*
X44857619Y-34359580D01*
D14*
X61916666Y-85227149D02*
X61750000Y-84989054D01*
X61630952Y-85227149D02*
X61630952Y-84727149D01*
X61630952Y-84727149D02*
X61821428Y-84727149D01*
X61821428Y-84727149D02*
X61869047Y-84750959D01*
X61869047Y-84750959D02*
X61892857Y-84774768D01*
X61892857Y-84774768D02*
X61916666Y-84822387D01*
X61916666Y-84822387D02*
X61916666Y-84893816D01*
X61916666Y-84893816D02*
X61892857Y-84941435D01*
X61892857Y-84941435D02*
X61869047Y-84965244D01*
X61869047Y-84965244D02*
X61821428Y-84989054D01*
X61821428Y-84989054D02*
X61630952Y-84989054D01*
X62083333Y-84727149D02*
X62392857Y-84727149D01*
X62392857Y-84727149D02*
X62226190Y-84917625D01*
X62226190Y-84917625D02*
X62297619Y-84917625D01*
X62297619Y-84917625D02*
X62345238Y-84941435D01*
X62345238Y-84941435D02*
X62369047Y-84965244D01*
X62369047Y-84965244D02*
X62392857Y-85012863D01*
X62392857Y-85012863D02*
X62392857Y-85131911D01*
X62392857Y-85131911D02*
X62369047Y-85179530D01*
X62369047Y-85179530D02*
X62345238Y-85203340D01*
X62345238Y-85203340D02*
X62297619Y-85227149D01*
X62297619Y-85227149D02*
X62154762Y-85227149D01*
X62154762Y-85227149D02*
X62107143Y-85203340D01*
X62107143Y-85203340D02*
X62083333Y-85179530D01*
D13*
X49261905Y-126054819D02*
X49261905Y-125054819D01*
X49261905Y-125054819D02*
X49642857Y-125054819D01*
X49642857Y-125054819D02*
X49738095Y-125102438D01*
X49738095Y-125102438D02*
X49785714Y-125150057D01*
X49785714Y-125150057D02*
X49833333Y-125245295D01*
X49833333Y-125245295D02*
X49833333Y-125388152D01*
X49833333Y-125388152D02*
X49785714Y-125483390D01*
X49785714Y-125483390D02*
X49738095Y-125531009D01*
X49738095Y-125531009D02*
X49642857Y-125578628D01*
X49642857Y-125578628D02*
X49261905Y-125578628D01*
X50404762Y-125483390D02*
X50309524Y-125435771D01*
X50309524Y-125435771D02*
X50261905Y-125388152D01*
X50261905Y-125388152D02*
X50214286Y-125292914D01*
X50214286Y-125292914D02*
X50214286Y-125245295D01*
X50214286Y-125245295D02*
X50261905Y-125150057D01*
X50261905Y-125150057D02*
X50309524Y-125102438D01*
X50309524Y-125102438D02*
X50404762Y-125054819D01*
X50404762Y-125054819D02*
X50595238Y-125054819D01*
X50595238Y-125054819D02*
X50690476Y-125102438D01*
X50690476Y-125102438D02*
X50738095Y-125150057D01*
X50738095Y-125150057D02*
X50785714Y-125245295D01*
X50785714Y-125245295D02*
X50785714Y-125292914D01*
X50785714Y-125292914D02*
X50738095Y-125388152D01*
X50738095Y-125388152D02*
X50690476Y-125435771D01*
X50690476Y-125435771D02*
X50595238Y-125483390D01*
X50595238Y-125483390D02*
X50404762Y-125483390D01*
X50404762Y-125483390D02*
X50309524Y-125531009D01*
X50309524Y-125531009D02*
X50261905Y-125578628D01*
X50261905Y-125578628D02*
X50214286Y-125673866D01*
X50214286Y-125673866D02*
X50214286Y-125864342D01*
X50214286Y-125864342D02*
X50261905Y-125959580D01*
X50261905Y-125959580D02*
X50309524Y-126007200D01*
X50309524Y-126007200D02*
X50404762Y-126054819D01*
X50404762Y-126054819D02*
X50595238Y-126054819D01*
X50595238Y-126054819D02*
X50690476Y-126007200D01*
X50690476Y-126007200D02*
X50738095Y-125959580D01*
X50738095Y-125959580D02*
X50785714Y-125864342D01*
X50785714Y-125864342D02*
X50785714Y-125673866D01*
X50785714Y-125673866D02*
X50738095Y-125578628D01*
X50738095Y-125578628D02*
X50690476Y-125531009D01*
X50690476Y-125531009D02*
X50595238Y-125483390D01*
X41454819Y-17223333D02*
X42169104Y-17223333D01*
X42169104Y-17223333D02*
X42311961Y-17270952D01*
X42311961Y-17270952D02*
X42407200Y-17366190D01*
X42407200Y-17366190D02*
X42454819Y-17509047D01*
X42454819Y-17509047D02*
X42454819Y-17604285D01*
X42454819Y-16223333D02*
X42454819Y-16794761D01*
X42454819Y-16509047D02*
X41454819Y-16509047D01*
X41454819Y-16509047D02*
X41597676Y-16604285D01*
X41597676Y-16604285D02*
X41692914Y-16699523D01*
X41692914Y-16699523D02*
X41740533Y-16794761D01*
X64314819Y-17223333D02*
X65029104Y-17223333D01*
X65029104Y-17223333D02*
X65171961Y-17270952D01*
X65171961Y-17270952D02*
X65267200Y-17366190D01*
X65267200Y-17366190D02*
X65314819Y-17509047D01*
X65314819Y-17509047D02*
X65314819Y-17604285D01*
X64410057Y-16794761D02*
X64362438Y-16747142D01*
X64362438Y-16747142D02*
X64314819Y-16651904D01*
X64314819Y-16651904D02*
X64314819Y-16413809D01*
X64314819Y-16413809D02*
X64362438Y-16318571D01*
X64362438Y-16318571D02*
X64410057Y-16270952D01*
X64410057Y-16270952D02*
X64505295Y-16223333D01*
X64505295Y-16223333D02*
X64600533Y-16223333D01*
X64600533Y-16223333D02*
X64743390Y-16270952D01*
X64743390Y-16270952D02*
X65314819Y-16842380D01*
X65314819Y-16842380D02*
X65314819Y-16223333D01*
D15*
%TO.C,Q1*%
X63325000Y-92450000D02*
X62350000Y-92450000D01*
X62350000Y-89550000D01*
X63650000Y-89550000D01*
X63650000Y-92125000D01*
X63325000Y-92450000D01*
%TO.C,J8*%
X44625000Y-94400000D02*
X44625000Y-98450000D01*
X44625000Y-94400000D02*
X65375000Y-94400000D01*
X44625000Y-98450000D02*
X65375000Y-98450000D01*
X46375000Y-94400000D02*
X46875000Y-95107107D01*
X46875000Y-95107107D02*
X47375000Y-94400000D01*
X65375000Y-94400000D02*
X65375000Y-98450000D01*
%TO.C,R9*%
X54000000Y-49375000D02*
X56000000Y-49375000D01*
X56000000Y-50625000D01*
X54000000Y-50625000D01*
X54000000Y-49375000D01*
%TO.C,JP1*%
X59730000Y-37730000D02*
X64810000Y-37730000D01*
X59730000Y-39635000D02*
X59730000Y-37730000D01*
X60365000Y-40270000D02*
X59730000Y-39635000D01*
X64810000Y-37730000D02*
X64810000Y-40270000D01*
X64810000Y-40270000D02*
X60365000Y-40270000D01*
%TO.C,R8*%
X45000000Y-49375000D02*
X47000000Y-49375000D01*
X47000000Y-50625000D01*
X45000000Y-50625000D01*
X45000000Y-49375000D01*
%TO.C,R5*%
X37000000Y-81375000D02*
X39000000Y-81375000D01*
X39000000Y-82625000D01*
X37000000Y-82625000D01*
X37000000Y-81375000D01*
%TO.C,R6*%
X37000000Y-84375000D02*
X39000000Y-84375000D01*
X39000000Y-85625000D01*
X37000000Y-85625000D01*
X37000000Y-84375000D01*
%TO.C,J5*%
X5730000Y-73970000D02*
X43830000Y-73970000D01*
X5730000Y-75875000D02*
X5730000Y-73970000D01*
X6365000Y-76510000D02*
X5730000Y-75875000D01*
X43830000Y-73970000D02*
X43830000Y-76510000D01*
X43830000Y-76510000D02*
X6365000Y-76510000D01*
%TO.C,R4*%
X49375000Y-85500000D02*
X50625000Y-85500000D01*
X50625000Y-87500000D01*
X49375000Y-87500000D01*
X49375000Y-85500000D01*
%TO.C,R1*%
X57375000Y-85500000D02*
X58625000Y-85500000D01*
X58625000Y-87500000D01*
X57375000Y-87500000D01*
X57375000Y-85500000D01*
%TO.C,J4*%
X5730000Y-58730000D02*
X43830000Y-58730000D01*
X5730000Y-60635000D02*
X5730000Y-58730000D01*
X6365000Y-61270000D02*
X5730000Y-60635000D01*
X43830000Y-58730000D02*
X43830000Y-61270000D01*
X43830000Y-61270000D02*
X6365000Y-61270000D01*
%TO.C,Q2*%
X45675000Y-89550000D02*
X46650000Y-89550000D01*
X46650000Y-92450000D01*
X45350000Y-92450000D01*
X45350000Y-89875000D01*
X45675000Y-89550000D01*
%TO.C,R2*%
X61000000Y-81375000D02*
X63000000Y-81375000D01*
X63000000Y-82625000D01*
X61000000Y-82625000D01*
X61000000Y-81375000D01*
%TO.C,R7*%
X49000000Y-79375000D02*
X51000000Y-79375000D01*
X51000000Y-80625000D01*
X49000000Y-80625000D01*
X49000000Y-79375000D01*
%TO.C,R10*%
X45000000Y-44375000D02*
X47000000Y-44375000D01*
X47000000Y-45625000D01*
X45000000Y-45625000D01*
X45000000Y-44375000D01*
%TO.C,J3*%
X39730000Y-32730000D02*
X49890000Y-32730000D01*
X39730000Y-34635000D02*
X39730000Y-32730000D01*
X40365000Y-35270000D02*
X39730000Y-34635000D01*
X49890000Y-32730000D02*
X49890000Y-35270000D01*
X49890000Y-35270000D02*
X40365000Y-35270000D01*
%TO.C,R3*%
X61000000Y-84375000D02*
X63000000Y-84375000D01*
X63000000Y-85625000D01*
X61000000Y-85625000D01*
X61000000Y-84375000D01*
%TO.C,J1*%
X40730000Y-7365000D02*
X41365000Y-6730000D01*
X40730000Y-27050000D02*
X40730000Y-7365000D01*
X41365000Y-6730000D02*
X43270000Y-6730000D01*
X43270000Y-6730000D02*
X43270000Y-27050000D01*
X43270000Y-27050000D02*
X40730000Y-27050000D01*
%TO.C,J2*%
X63590000Y-7365000D02*
X64225000Y-6730000D01*
X63590000Y-27050000D02*
X63590000Y-7365000D01*
X64225000Y-6730000D02*
X66130000Y-6730000D01*
X66130000Y-6730000D02*
X66130000Y-27050000D01*
X66130000Y-27050000D02*
X63590000Y-27050000D01*
%TD*%
M02*
