%TF.GenerationSoftware,KiCad,Pcbnew,10.0.5*%
%TF.CreationDate,2026-07-30T10:18:05-06:00*%
%TF.ProjectId,esp32_cam_led_head_v0_5,65737033-325f-4636-916d-5f6c65645f68,rev?*%
%TF.SameCoordinates,Original*%
%TF.FileFunction,Other,User*%
%FSLAX46Y46*%
G04 Gerber Fmt 4.6, Leading zero omitted, Abs format (unit mm)*
G04 Created by KiCad (PCBNEW 10.0.5) date 2026-07-30 10:18:05*
%MOMM*%
%LPD*%
G01*
G04 APERTURE LIST*
%ADD10C,0.050000*%
G04 APERTURE END LIST*
%TO.C,D3*%
D10*
X22581499Y-12150000D02*
X22581499Y-18650000D01*
X22581499Y-18650000D02*
X31221499Y-18650000D01*
X31221499Y-12150000D02*
X22581499Y-12150000D01*
X31221499Y-18650000D02*
X31221499Y-12150000D01*
%TO.C,D4*%
X2781499Y-12150000D02*
X2781499Y-18650000D01*
X2781499Y-18650000D02*
X11421499Y-18650000D01*
X11421499Y-12150000D02*
X2781499Y-12150000D01*
X11421499Y-18650000D02*
X11421499Y-12150000D01*
%TO.C,D2*%
X9190000Y-22790000D02*
X15620000Y-22790000D01*
X15620000Y-29210000D01*
X9190000Y-29210000D01*
X9190000Y-22790000D01*
%TO.C,J2*%
X14800000Y-57550000D02*
X20300000Y-57550000D01*
X20300000Y-68450000D01*
X14800000Y-68450000D01*
X14800000Y-57550000D01*
%TO.C,J1*%
X6200000Y-44590000D02*
X27800000Y-44590000D01*
X27800000Y-51190000D01*
X6200000Y-51190000D01*
X6200000Y-44590000D01*
%TO.C,D1*%
X18390000Y-22790000D02*
X24820000Y-22790000D01*
X24820000Y-29210000D01*
X18390000Y-29210000D01*
X18390000Y-22790000D01*
%TO.C,C2*%
X15300000Y-38820000D02*
X18700000Y-38820000D01*
X18700000Y-40780000D01*
X15300000Y-40780000D01*
X15300000Y-38820000D01*
%TO.C,C1*%
X14700000Y-34850000D02*
X19300000Y-34850000D01*
X19300000Y-37150000D01*
X14700000Y-37150000D01*
X14700000Y-34850000D01*
%TD*%
M02*
