%TF.GenerationSoftware,KiCad,Pcbnew,10.0.5*%
%TF.CreationDate,2026-07-30T11:09:03-06:00*%
%TF.ProjectId,iphone16e_2s_sk6812_main_v0_6,6970686f-6e65-4313-9665-5f32735f736b,rev?*%
%TF.SameCoordinates,Original*%
%TF.FileFunction,Drillmap*%
%TF.FilePolarity,Positive*%
%FSLAX45Y45*%
G04 Gerber Fmt 4.5, Leading zero omitted, Abs format (unit mm)*
G04 Created by KiCad (PCBNEW 10.0.5) date 2026-07-30 11:09:03*
%MOMM*%
%LPD*%
G01*
G04 APERTURE LIST*
%ADD10C,0.120000*%
%ADD11C,0.200000*%
%ADD12C,0.100000*%
%ADD13C,0.150000*%
%ADD14C,0.320000*%
G04 APERTURE END LIST*
D10*
X0Y-4200000D02*
X3600000Y-4200000D01*
X0Y-13600000D02*
X0Y-4200000D01*
X3600000Y0D02*
X7000000Y0D01*
X3600000Y-4200000D02*
X3600000Y0D01*
X7000000Y0D02*
X7000000Y-13600000D01*
X7000000Y-13600000D02*
X0Y-13600000D01*
D11*
D12*
X3320000Y-7180000D02*
X3360000Y-7220000D01*
X3360000Y-7180000D02*
X3320000Y-7220000D01*
X3580000Y-8380000D02*
X3620000Y-8420000D01*
X3620000Y-8380000D02*
X3580000Y-8420000D01*
X3855000Y-4980000D02*
X3895000Y-5020000D01*
X3895000Y-4980000D02*
X3855000Y-5020000D01*
X4110000Y-4480000D02*
X4150000Y-4520000D01*
X4150000Y-4480000D02*
X4110000Y-4520000D01*
X4110000Y-7180000D02*
X4150000Y-7220000D01*
X4150000Y-7180000D02*
X4110000Y-7220000D01*
X4280000Y-9340000D02*
X4320000Y-9380000D01*
X4320000Y-9340000D02*
X4280000Y-9380000D01*
X4780000Y-8580000D02*
X4820000Y-8620000D01*
X4820000Y-8580000D02*
X4780000Y-8620000D01*
X4980000Y-4280000D02*
X5020000Y-4320000D01*
X5020000Y-4280000D02*
X4980000Y-4320000D01*
X5180000Y-4980000D02*
X5220000Y-5020000D01*
X5220000Y-4980000D02*
X5180000Y-5020000D01*
X5180000Y-7980000D02*
X5220000Y-8020000D01*
X5220000Y-7980000D02*
X5180000Y-8020000D01*
X5230000Y-9340000D02*
X5270000Y-9380000D01*
X5270000Y-9340000D02*
X5230000Y-9380000D01*
X5330000Y-9340000D02*
X5370000Y-9380000D01*
X5370000Y-9340000D02*
X5330000Y-9380000D01*
X5430000Y-9340000D02*
X5470000Y-9380000D01*
X5470000Y-9340000D02*
X5430000Y-9380000D01*
X5480000Y-8180000D02*
X5520000Y-8220000D01*
X5520000Y-8180000D02*
X5480000Y-8220000D01*
X5530000Y-9420000D02*
X5570000Y-9460000D01*
X5570000Y-9420000D02*
X5530000Y-9460000D01*
X5780000Y-1796000D02*
X5820000Y-1836000D01*
X5820000Y-1796000D02*
X5780000Y-1836000D01*
X5780000Y-3580000D02*
X5820000Y-3620000D01*
X5820000Y-3580000D02*
X5780000Y-3620000D01*
X5780000Y-5680000D02*
X5820000Y-5720000D01*
X5820000Y-5680000D02*
X5780000Y-5720000D01*
X5780000Y-8430000D02*
X5820000Y-8470000D01*
X5820000Y-8430000D02*
X5780000Y-8470000D01*
X5980000Y-8680000D02*
X6020000Y-8720000D01*
X6020000Y-8680000D02*
X5980000Y-8720000D01*
X6080000Y-8980000D02*
X6120000Y-9020000D01*
X6120000Y-8980000D02*
X6080000Y-9020000D01*
X6680000Y-3680000D02*
X6720000Y-3720000D01*
X6720000Y-3680000D02*
X6680000Y-3720000D01*
X6680000Y-4980000D02*
X6720000Y-5020000D01*
X6720000Y-4980000D02*
X6680000Y-5020000D01*
X6680000Y-6280000D02*
X6720000Y-6320000D01*
X6720000Y-6280000D02*
X6680000Y-6320000D01*
X6680000Y-7780000D02*
X6720000Y-7820000D01*
X6720000Y-7780000D02*
X6680000Y-7820000D01*
X6860000Y-9285000D02*
X6900000Y-9325000D01*
X6900000Y-9285000D02*
X6860000Y-9325000D01*
X750000Y-6000000D02*
G75*
G02*
X650000Y-6000000I-50000J0D01*
G01*
X650000Y-6000000D02*
G75*
G02*
X750000Y-6000000I50000J0D01*
G01*
X750000Y-7524000D02*
G75*
G02*
X650000Y-7524000I-50000J0D01*
G01*
X650000Y-7524000D02*
G75*
G02*
X750000Y-7524000I50000J0D01*
G01*
X1004000Y-6000000D02*
G75*
G02*
X904000Y-6000000I-50000J0D01*
G01*
X904000Y-6000000D02*
G75*
G02*
X1004000Y-6000000I50000J0D01*
G01*
X1004000Y-7524000D02*
G75*
G02*
X904000Y-7524000I-50000J0D01*
G01*
X904000Y-7524000D02*
G75*
G02*
X1004000Y-7524000I50000J0D01*
G01*
X1258000Y-6000000D02*
G75*
G02*
X1158000Y-6000000I-50000J0D01*
G01*
X1158000Y-6000000D02*
G75*
G02*
X1258000Y-6000000I50000J0D01*
G01*
X1258000Y-7524000D02*
G75*
G02*
X1158000Y-7524000I-50000J0D01*
G01*
X1158000Y-7524000D02*
G75*
G02*
X1258000Y-7524000I50000J0D01*
G01*
X1512000Y-6000000D02*
G75*
G02*
X1412000Y-6000000I-50000J0D01*
G01*
X1412000Y-6000000D02*
G75*
G02*
X1512000Y-6000000I50000J0D01*
G01*
X1512000Y-7524000D02*
G75*
G02*
X1412000Y-7524000I-50000J0D01*
G01*
X1412000Y-7524000D02*
G75*
G02*
X1512000Y-7524000I50000J0D01*
G01*
X1766000Y-6000000D02*
G75*
G02*
X1666000Y-6000000I-50000J0D01*
G01*
X1666000Y-6000000D02*
G75*
G02*
X1766000Y-6000000I50000J0D01*
G01*
X1766000Y-7524000D02*
G75*
G02*
X1666000Y-7524000I-50000J0D01*
G01*
X1666000Y-7524000D02*
G75*
G02*
X1766000Y-7524000I50000J0D01*
G01*
X2020000Y-6000000D02*
G75*
G02*
X1920000Y-6000000I-50000J0D01*
G01*
X1920000Y-6000000D02*
G75*
G02*
X2020000Y-6000000I50000J0D01*
G01*
X2020000Y-7524000D02*
G75*
G02*
X1920000Y-7524000I-50000J0D01*
G01*
X1920000Y-7524000D02*
G75*
G02*
X2020000Y-7524000I50000J0D01*
G01*
X2274000Y-6000000D02*
G75*
G02*
X2174000Y-6000000I-50000J0D01*
G01*
X2174000Y-6000000D02*
G75*
G02*
X2274000Y-6000000I50000J0D01*
G01*
X2274000Y-7524000D02*
G75*
G02*
X2174000Y-7524000I-50000J0D01*
G01*
X2174000Y-7524000D02*
G75*
G02*
X2274000Y-7524000I50000J0D01*
G01*
X2528000Y-6000000D02*
G75*
G02*
X2428000Y-6000000I-50000J0D01*
G01*
X2428000Y-6000000D02*
G75*
G02*
X2528000Y-6000000I50000J0D01*
G01*
X2528000Y-7524000D02*
G75*
G02*
X2428000Y-7524000I-50000J0D01*
G01*
X2428000Y-7524000D02*
G75*
G02*
X2528000Y-7524000I50000J0D01*
G01*
X2782000Y-6000000D02*
G75*
G02*
X2682000Y-6000000I-50000J0D01*
G01*
X2682000Y-6000000D02*
G75*
G02*
X2782000Y-6000000I50000J0D01*
G01*
X2782000Y-7524000D02*
G75*
G02*
X2682000Y-7524000I-50000J0D01*
G01*
X2682000Y-7524000D02*
G75*
G02*
X2782000Y-7524000I50000J0D01*
G01*
X3036000Y-6000000D02*
G75*
G02*
X2936000Y-6000000I-50000J0D01*
G01*
X2936000Y-6000000D02*
G75*
G02*
X3036000Y-6000000I50000J0D01*
G01*
X3036000Y-7524000D02*
G75*
G02*
X2936000Y-7524000I-50000J0D01*
G01*
X2936000Y-7524000D02*
G75*
G02*
X3036000Y-7524000I50000J0D01*
G01*
X3290000Y-6000000D02*
G75*
G02*
X3190000Y-6000000I-50000J0D01*
G01*
X3190000Y-6000000D02*
G75*
G02*
X3290000Y-6000000I50000J0D01*
G01*
X3290000Y-7524000D02*
G75*
G02*
X3190000Y-7524000I-50000J0D01*
G01*
X3190000Y-7524000D02*
G75*
G02*
X3290000Y-7524000I50000J0D01*
G01*
X3544000Y-6000000D02*
G75*
G02*
X3444000Y-6000000I-50000J0D01*
G01*
X3444000Y-6000000D02*
G75*
G02*
X3544000Y-6000000I50000J0D01*
G01*
X3544000Y-7524000D02*
G75*
G02*
X3444000Y-7524000I-50000J0D01*
G01*
X3444000Y-7524000D02*
G75*
G02*
X3544000Y-7524000I50000J0D01*
G01*
X3798000Y-6000000D02*
G75*
G02*
X3698000Y-6000000I-50000J0D01*
G01*
X3698000Y-6000000D02*
G75*
G02*
X3798000Y-6000000I50000J0D01*
G01*
X3798000Y-7524000D02*
G75*
G02*
X3698000Y-7524000I-50000J0D01*
G01*
X3698000Y-7524000D02*
G75*
G02*
X3798000Y-7524000I50000J0D01*
G01*
X4052000Y-6000000D02*
G75*
G02*
X3952000Y-6000000I-50000J0D01*
G01*
X3952000Y-6000000D02*
G75*
G02*
X4052000Y-6000000I50000J0D01*
G01*
X4052000Y-7524000D02*
G75*
G02*
X3952000Y-7524000I-50000J0D01*
G01*
X3952000Y-7524000D02*
G75*
G02*
X4052000Y-7524000I50000J0D01*
G01*
X4150000Y-3400000D02*
G75*
G02*
X4050000Y-3400000I-50000J0D01*
G01*
X4050000Y-3400000D02*
G75*
G02*
X4150000Y-3400000I50000J0D01*
G01*
X4250000Y-800000D02*
G75*
G02*
X4150000Y-800000I-50000J0D01*
G01*
X4150000Y-800000D02*
G75*
G02*
X4250000Y-800000I50000J0D01*
G01*
X4250000Y-1054000D02*
G75*
G02*
X4150000Y-1054000I-50000J0D01*
G01*
X4150000Y-1054000D02*
G75*
G02*
X4250000Y-1054000I50000J0D01*
G01*
X4250000Y-1308000D02*
G75*
G02*
X4150000Y-1308000I-50000J0D01*
G01*
X4150000Y-1308000D02*
G75*
G02*
X4250000Y-1308000I50000J0D01*
G01*
X4250000Y-1562000D02*
G75*
G02*
X4150000Y-1562000I-50000J0D01*
G01*
X4150000Y-1562000D02*
G75*
G02*
X4250000Y-1562000I50000J0D01*
G01*
X4250000Y-1816000D02*
G75*
G02*
X4150000Y-1816000I-50000J0D01*
G01*
X4150000Y-1816000D02*
G75*
G02*
X4250000Y-1816000I50000J0D01*
G01*
X4250000Y-2070000D02*
G75*
G02*
X4150000Y-2070000I-50000J0D01*
G01*
X4150000Y-2070000D02*
G75*
G02*
X4250000Y-2070000I50000J0D01*
G01*
X4250000Y-2324000D02*
G75*
G02*
X4150000Y-2324000I-50000J0D01*
G01*
X4150000Y-2324000D02*
G75*
G02*
X4250000Y-2324000I50000J0D01*
G01*
X4250000Y-2578000D02*
G75*
G02*
X4150000Y-2578000I-50000J0D01*
G01*
X4150000Y-2578000D02*
G75*
G02*
X4250000Y-2578000I50000J0D01*
G01*
X4306000Y-6000000D02*
G75*
G02*
X4206000Y-6000000I-50000J0D01*
G01*
X4206000Y-6000000D02*
G75*
G02*
X4306000Y-6000000I50000J0D01*
G01*
X4306000Y-7524000D02*
G75*
G02*
X4206000Y-7524000I-50000J0D01*
G01*
X4206000Y-7524000D02*
G75*
G02*
X4306000Y-7524000I50000J0D01*
G01*
X4404000Y-3400000D02*
G75*
G02*
X4304000Y-3400000I-50000J0D01*
G01*
X4304000Y-3400000D02*
G75*
G02*
X4404000Y-3400000I50000J0D01*
G01*
X4658000Y-3400000D02*
G75*
G02*
X4558000Y-3400000I-50000J0D01*
G01*
X4558000Y-3400000D02*
G75*
G02*
X4658000Y-3400000I50000J0D01*
G01*
X4912000Y-3400000D02*
G75*
G02*
X4812000Y-3400000I-50000J0D01*
G01*
X4812000Y-3400000D02*
G75*
G02*
X4912000Y-3400000I50000J0D01*
G01*
X6150000Y-3900000D02*
G75*
G02*
X6050000Y-3900000I-50000J0D01*
G01*
X6050000Y-3900000D02*
G75*
G02*
X6150000Y-3900000I50000J0D01*
G01*
X6404000Y-3900000D02*
G75*
G02*
X6304000Y-3900000I-50000J0D01*
G01*
X6304000Y-3900000D02*
G75*
G02*
X6404000Y-3900000I50000J0D01*
G01*
X6536000Y-800000D02*
G75*
G02*
X6436000Y-800000I-50000J0D01*
G01*
X6436000Y-800000D02*
G75*
G02*
X6536000Y-800000I50000J0D01*
G01*
X6536000Y-1054000D02*
G75*
G02*
X6436000Y-1054000I-50000J0D01*
G01*
X6436000Y-1054000D02*
G75*
G02*
X6536000Y-1054000I50000J0D01*
G01*
X6536000Y-1308000D02*
G75*
G02*
X6436000Y-1308000I-50000J0D01*
G01*
X6436000Y-1308000D02*
G75*
G02*
X6536000Y-1308000I50000J0D01*
G01*
X6536000Y-1562000D02*
G75*
G02*
X6436000Y-1562000I-50000J0D01*
G01*
X6436000Y-1562000D02*
G75*
G02*
X6536000Y-1562000I50000J0D01*
G01*
X6536000Y-1816000D02*
G75*
G02*
X6436000Y-1816000I-50000J0D01*
G01*
X6436000Y-1816000D02*
G75*
G02*
X6536000Y-1816000I50000J0D01*
G01*
X6536000Y-2070000D02*
G75*
G02*
X6436000Y-2070000I-50000J0D01*
G01*
X6436000Y-2070000D02*
G75*
G02*
X6536000Y-2070000I50000J0D01*
G01*
X6536000Y-2324000D02*
G75*
G02*
X6436000Y-2324000I-50000J0D01*
G01*
X6436000Y-2324000D02*
G75*
G02*
X6536000Y-2324000I50000J0D01*
G01*
X6536000Y-2578000D02*
G75*
G02*
X6436000Y-2578000I-50000J0D01*
G01*
X6436000Y-2578000D02*
G75*
G02*
X6536000Y-2578000I50000J0D01*
G01*
D13*
X2200000Y-11825000D02*
X2200000Y-11975000D01*
X2125000Y-11900000D02*
X2275000Y-11900000D01*
X2200000Y-12725000D02*
X2200000Y-12875000D01*
X2125000Y-12800000D02*
X2275000Y-12800000D01*
X3600000Y-11825000D02*
X3600000Y-11975000D01*
X3525000Y-11900000D02*
X3675000Y-11900000D01*
X3600000Y-12725000D02*
X3600000Y-12875000D01*
X3525000Y-12800000D02*
X3675000Y-12800000D01*
X5000000Y-11825000D02*
X5000000Y-11975000D01*
X4925000Y-11900000D02*
X5075000Y-11900000D01*
X5000000Y-12725000D02*
X5000000Y-12875000D01*
X4925000Y-12800000D02*
X5075000Y-12800000D01*
D11*
X870711Y-11970711D02*
X870711Y-11829289D01*
X729289Y-11829289D01*
X729289Y-11970711D01*
X870711Y-11970711D01*
X870711Y-12870711D02*
X870711Y-12729289D01*
X729289Y-12729289D01*
X729289Y-12870711D01*
X870711Y-12870711D01*
D14*
X500000Y-4960000D02*
X660000Y-4800000D01*
X500000Y-4640000D01*
X340000Y-4800000D01*
X500000Y-4960000D01*
X500000Y-10960000D02*
X660000Y-10800000D01*
X500000Y-10640000D01*
X340000Y-10800000D01*
X500000Y-10960000D01*
X6600000Y-13360000D02*
X6760000Y-13200000D01*
X6600000Y-13040000D01*
X6440000Y-13200000D01*
X6600000Y-13360000D01*
D11*
X254777Y-13917484D02*
X254777Y-13717484D01*
X254777Y-13717484D02*
X302396Y-13717484D01*
X302396Y-13717484D02*
X330967Y-13727008D01*
X330967Y-13727008D02*
X350015Y-13746055D01*
X350015Y-13746055D02*
X359539Y-13765103D01*
X359539Y-13765103D02*
X369062Y-13803198D01*
X369062Y-13803198D02*
X369062Y-13831769D01*
X369062Y-13831769D02*
X359539Y-13869865D01*
X359539Y-13869865D02*
X350015Y-13888912D01*
X350015Y-13888912D02*
X330967Y-13907960D01*
X330967Y-13907960D02*
X302396Y-13917484D01*
X302396Y-13917484D02*
X254777Y-13917484D01*
X454777Y-13917484D02*
X454777Y-13784150D01*
X454777Y-13822246D02*
X464301Y-13803198D01*
X464301Y-13803198D02*
X473824Y-13793674D01*
X473824Y-13793674D02*
X492872Y-13784150D01*
X492872Y-13784150D02*
X511920Y-13784150D01*
X578586Y-13917484D02*
X578586Y-13784150D01*
X578586Y-13717484D02*
X569063Y-13727008D01*
X569063Y-13727008D02*
X578586Y-13736531D01*
X578586Y-13736531D02*
X588110Y-13727008D01*
X588110Y-13727008D02*
X578586Y-13717484D01*
X578586Y-13717484D02*
X578586Y-13736531D01*
X702396Y-13917484D02*
X683348Y-13907960D01*
X683348Y-13907960D02*
X673824Y-13888912D01*
X673824Y-13888912D02*
X673824Y-13717484D01*
X807158Y-13917484D02*
X788110Y-13907960D01*
X788110Y-13907960D02*
X778586Y-13888912D01*
X778586Y-13888912D02*
X778586Y-13717484D01*
X1035729Y-13917484D02*
X1035729Y-13717484D01*
X1035729Y-13717484D02*
X1102396Y-13860341D01*
X1102396Y-13860341D02*
X1169063Y-13717484D01*
X1169063Y-13717484D02*
X1169063Y-13917484D01*
X1350015Y-13917484D02*
X1350015Y-13812722D01*
X1350015Y-13812722D02*
X1340491Y-13793674D01*
X1340491Y-13793674D02*
X1321444Y-13784150D01*
X1321444Y-13784150D02*
X1283348Y-13784150D01*
X1283348Y-13784150D02*
X1264301Y-13793674D01*
X1350015Y-13907960D02*
X1330967Y-13917484D01*
X1330967Y-13917484D02*
X1283348Y-13917484D01*
X1283348Y-13917484D02*
X1264301Y-13907960D01*
X1264301Y-13907960D02*
X1254777Y-13888912D01*
X1254777Y-13888912D02*
X1254777Y-13869865D01*
X1254777Y-13869865D02*
X1264301Y-13850817D01*
X1264301Y-13850817D02*
X1283348Y-13841293D01*
X1283348Y-13841293D02*
X1330967Y-13841293D01*
X1330967Y-13841293D02*
X1350015Y-13831769D01*
X1445253Y-13784150D02*
X1445253Y-13984150D01*
X1445253Y-13793674D02*
X1464301Y-13784150D01*
X1464301Y-13784150D02*
X1502396Y-13784150D01*
X1502396Y-13784150D02*
X1521443Y-13793674D01*
X1521443Y-13793674D02*
X1530967Y-13803198D01*
X1530967Y-13803198D02*
X1540491Y-13822246D01*
X1540491Y-13822246D02*
X1540491Y-13879388D01*
X1540491Y-13879388D02*
X1530967Y-13898436D01*
X1530967Y-13898436D02*
X1521443Y-13907960D01*
X1521443Y-13907960D02*
X1502396Y-13917484D01*
X1502396Y-13917484D02*
X1464301Y-13917484D01*
X1464301Y-13917484D02*
X1445253Y-13907960D01*
X1626205Y-13898436D02*
X1635729Y-13907960D01*
X1635729Y-13907960D02*
X1626205Y-13917484D01*
X1626205Y-13917484D02*
X1616682Y-13907960D01*
X1616682Y-13907960D02*
X1626205Y-13898436D01*
X1626205Y-13898436D02*
X1626205Y-13917484D01*
X1626205Y-13793674D02*
X1635729Y-13803198D01*
X1635729Y-13803198D02*
X1626205Y-13812722D01*
X1626205Y-13812722D02*
X1616682Y-13803198D01*
X1616682Y-13803198D02*
X1626205Y-13793674D01*
X1626205Y-13793674D02*
X1626205Y-13812722D01*
D12*
X-46000Y-14226000D02*
X-6000Y-14266000D01*
X-6000Y-14226000D02*
X-46000Y-14266000D01*
D11*
X292872Y-14137484D02*
X311920Y-14137484D01*
X311920Y-14137484D02*
X330967Y-14147008D01*
X330967Y-14147008D02*
X340491Y-14156531D01*
X340491Y-14156531D02*
X350015Y-14175579D01*
X350015Y-14175579D02*
X359539Y-14213674D01*
X359539Y-14213674D02*
X359539Y-14261293D01*
X359539Y-14261293D02*
X350015Y-14299388D01*
X350015Y-14299388D02*
X340491Y-14318436D01*
X340491Y-14318436D02*
X330967Y-14327960D01*
X330967Y-14327960D02*
X311920Y-14337484D01*
X311920Y-14337484D02*
X292872Y-14337484D01*
X292872Y-14337484D02*
X273824Y-14327960D01*
X273824Y-14327960D02*
X264301Y-14318436D01*
X264301Y-14318436D02*
X254777Y-14299388D01*
X254777Y-14299388D02*
X245253Y-14261293D01*
X245253Y-14261293D02*
X245253Y-14213674D01*
X245253Y-14213674D02*
X254777Y-14175579D01*
X254777Y-14175579D02*
X264301Y-14156531D01*
X264301Y-14156531D02*
X273824Y-14147008D01*
X273824Y-14147008D02*
X292872Y-14137484D01*
X445253Y-14318436D02*
X454777Y-14327960D01*
X454777Y-14327960D02*
X445253Y-14337484D01*
X445253Y-14337484D02*
X435729Y-14327960D01*
X435729Y-14327960D02*
X445253Y-14318436D01*
X445253Y-14318436D02*
X445253Y-14337484D01*
X626205Y-14204150D02*
X626205Y-14337484D01*
X578586Y-14127960D02*
X530967Y-14270817D01*
X530967Y-14270817D02*
X654777Y-14270817D01*
X769062Y-14137484D02*
X788110Y-14137484D01*
X788110Y-14137484D02*
X807158Y-14147008D01*
X807158Y-14147008D02*
X816682Y-14156531D01*
X816682Y-14156531D02*
X826205Y-14175579D01*
X826205Y-14175579D02*
X835729Y-14213674D01*
X835729Y-14213674D02*
X835729Y-14261293D01*
X835729Y-14261293D02*
X826205Y-14299388D01*
X826205Y-14299388D02*
X816682Y-14318436D01*
X816682Y-14318436D02*
X807158Y-14327960D01*
X807158Y-14327960D02*
X788110Y-14337484D01*
X788110Y-14337484D02*
X769062Y-14337484D01*
X769062Y-14337484D02*
X750015Y-14327960D01*
X750015Y-14327960D02*
X740491Y-14318436D01*
X740491Y-14318436D02*
X730967Y-14299388D01*
X730967Y-14299388D02*
X721443Y-14261293D01*
X721443Y-14261293D02*
X721443Y-14213674D01*
X721443Y-14213674D02*
X730967Y-14175579D01*
X730967Y-14175579D02*
X740491Y-14156531D01*
X740491Y-14156531D02*
X750015Y-14147008D01*
X750015Y-14147008D02*
X769062Y-14137484D01*
X959539Y-14137484D02*
X978586Y-14137484D01*
X978586Y-14137484D02*
X997634Y-14147008D01*
X997634Y-14147008D02*
X1007158Y-14156531D01*
X1007158Y-14156531D02*
X1016682Y-14175579D01*
X1016682Y-14175579D02*
X1026205Y-14213674D01*
X1026205Y-14213674D02*
X1026205Y-14261293D01*
X1026205Y-14261293D02*
X1016682Y-14299388D01*
X1016682Y-14299388D02*
X1007158Y-14318436D01*
X1007158Y-14318436D02*
X997634Y-14327960D01*
X997634Y-14327960D02*
X978586Y-14337484D01*
X978586Y-14337484D02*
X959539Y-14337484D01*
X959539Y-14337484D02*
X940491Y-14327960D01*
X940491Y-14327960D02*
X930967Y-14318436D01*
X930967Y-14318436D02*
X921443Y-14299388D01*
X921443Y-14299388D02*
X911920Y-14261293D01*
X911920Y-14261293D02*
X911920Y-14213674D01*
X911920Y-14213674D02*
X921443Y-14175579D01*
X921443Y-14175579D02*
X930967Y-14156531D01*
X930967Y-14156531D02*
X940491Y-14147008D01*
X940491Y-14147008D02*
X959539Y-14137484D01*
X1111920Y-14337484D02*
X1111920Y-14204150D01*
X1111920Y-14223198D02*
X1121444Y-14213674D01*
X1121444Y-14213674D02*
X1140491Y-14204150D01*
X1140491Y-14204150D02*
X1169063Y-14204150D01*
X1169063Y-14204150D02*
X1188110Y-14213674D01*
X1188110Y-14213674D02*
X1197634Y-14232722D01*
X1197634Y-14232722D02*
X1197634Y-14337484D01*
X1197634Y-14232722D02*
X1207158Y-14213674D01*
X1207158Y-14213674D02*
X1226205Y-14204150D01*
X1226205Y-14204150D02*
X1254777Y-14204150D01*
X1254777Y-14204150D02*
X1273825Y-14213674D01*
X1273825Y-14213674D02*
X1283348Y-14232722D01*
X1283348Y-14232722D02*
X1283348Y-14337484D01*
X1378586Y-14337484D02*
X1378586Y-14204150D01*
X1378586Y-14223198D02*
X1388110Y-14213674D01*
X1388110Y-14213674D02*
X1407158Y-14204150D01*
X1407158Y-14204150D02*
X1435729Y-14204150D01*
X1435729Y-14204150D02*
X1454777Y-14213674D01*
X1454777Y-14213674D02*
X1464301Y-14232722D01*
X1464301Y-14232722D02*
X1464301Y-14337484D01*
X1464301Y-14232722D02*
X1473824Y-14213674D01*
X1473824Y-14213674D02*
X1492872Y-14204150D01*
X1492872Y-14204150D02*
X1521443Y-14204150D01*
X1521443Y-14204150D02*
X1540491Y-14213674D01*
X1540491Y-14213674D02*
X1550015Y-14232722D01*
X1550015Y-14232722D02*
X1550015Y-14337484D01*
X1940491Y-14127960D02*
X1769063Y-14385103D01*
X2197634Y-14137484D02*
X2216682Y-14137484D01*
X2216682Y-14137484D02*
X2235729Y-14147008D01*
X2235729Y-14147008D02*
X2245253Y-14156531D01*
X2245253Y-14156531D02*
X2254777Y-14175579D01*
X2254777Y-14175579D02*
X2264301Y-14213674D01*
X2264301Y-14213674D02*
X2264301Y-14261293D01*
X2264301Y-14261293D02*
X2254777Y-14299388D01*
X2254777Y-14299388D02*
X2245253Y-14318436D01*
X2245253Y-14318436D02*
X2235729Y-14327960D01*
X2235729Y-14327960D02*
X2216682Y-14337484D01*
X2216682Y-14337484D02*
X2197634Y-14337484D01*
X2197634Y-14337484D02*
X2178587Y-14327960D01*
X2178587Y-14327960D02*
X2169063Y-14318436D01*
X2169063Y-14318436D02*
X2159539Y-14299388D01*
X2159539Y-14299388D02*
X2150015Y-14261293D01*
X2150015Y-14261293D02*
X2150015Y-14213674D01*
X2150015Y-14213674D02*
X2159539Y-14175579D01*
X2159539Y-14175579D02*
X2169063Y-14156531D01*
X2169063Y-14156531D02*
X2178587Y-14147008D01*
X2178587Y-14147008D02*
X2197634Y-14137484D01*
X2350015Y-14318436D02*
X2359539Y-14327960D01*
X2359539Y-14327960D02*
X2350015Y-14337484D01*
X2350015Y-14337484D02*
X2340491Y-14327960D01*
X2340491Y-14327960D02*
X2350015Y-14318436D01*
X2350015Y-14318436D02*
X2350015Y-14337484D01*
X2483348Y-14137484D02*
X2502396Y-14137484D01*
X2502396Y-14137484D02*
X2521444Y-14147008D01*
X2521444Y-14147008D02*
X2530968Y-14156531D01*
X2530968Y-14156531D02*
X2540491Y-14175579D01*
X2540491Y-14175579D02*
X2550015Y-14213674D01*
X2550015Y-14213674D02*
X2550015Y-14261293D01*
X2550015Y-14261293D02*
X2540491Y-14299388D01*
X2540491Y-14299388D02*
X2530968Y-14318436D01*
X2530968Y-14318436D02*
X2521444Y-14327960D01*
X2521444Y-14327960D02*
X2502396Y-14337484D01*
X2502396Y-14337484D02*
X2483348Y-14337484D01*
X2483348Y-14337484D02*
X2464301Y-14327960D01*
X2464301Y-14327960D02*
X2454777Y-14318436D01*
X2454777Y-14318436D02*
X2445253Y-14299388D01*
X2445253Y-14299388D02*
X2435729Y-14261293D01*
X2435729Y-14261293D02*
X2435729Y-14213674D01*
X2435729Y-14213674D02*
X2445253Y-14175579D01*
X2445253Y-14175579D02*
X2454777Y-14156531D01*
X2454777Y-14156531D02*
X2464301Y-14147008D01*
X2464301Y-14147008D02*
X2483348Y-14137484D01*
X2740491Y-14337484D02*
X2626206Y-14337484D01*
X2683348Y-14337484D02*
X2683348Y-14137484D01*
X2683348Y-14137484D02*
X2664301Y-14166055D01*
X2664301Y-14166055D02*
X2645253Y-14185103D01*
X2645253Y-14185103D02*
X2626206Y-14194627D01*
X2921444Y-14137484D02*
X2826206Y-14137484D01*
X2826206Y-14137484D02*
X2816682Y-14232722D01*
X2816682Y-14232722D02*
X2826206Y-14223198D01*
X2826206Y-14223198D02*
X2845253Y-14213674D01*
X2845253Y-14213674D02*
X2892872Y-14213674D01*
X2892872Y-14213674D02*
X2911920Y-14223198D01*
X2911920Y-14223198D02*
X2921444Y-14232722D01*
X2921444Y-14232722D02*
X2930967Y-14251769D01*
X2930967Y-14251769D02*
X2930967Y-14299388D01*
X2930967Y-14299388D02*
X2921444Y-14318436D01*
X2921444Y-14318436D02*
X2911920Y-14327960D01*
X2911920Y-14327960D02*
X2892872Y-14337484D01*
X2892872Y-14337484D02*
X2845253Y-14337484D01*
X2845253Y-14337484D02*
X2826206Y-14327960D01*
X2826206Y-14327960D02*
X2816682Y-14318436D01*
X2997634Y-14137484D02*
X3130967Y-14137484D01*
X3130967Y-14137484D02*
X3045253Y-14337484D01*
X3197634Y-14137484D02*
X3197634Y-14175579D01*
X3273825Y-14137484D02*
X3273825Y-14175579D01*
X3569063Y-14413674D02*
X3559539Y-14404150D01*
X3559539Y-14404150D02*
X3540491Y-14375579D01*
X3540491Y-14375579D02*
X3530968Y-14356531D01*
X3530968Y-14356531D02*
X3521444Y-14327960D01*
X3521444Y-14327960D02*
X3511920Y-14280341D01*
X3511920Y-14280341D02*
X3511920Y-14242246D01*
X3511920Y-14242246D02*
X3521444Y-14194627D01*
X3521444Y-14194627D02*
X3530968Y-14166055D01*
X3530968Y-14166055D02*
X3540491Y-14147008D01*
X3540491Y-14147008D02*
X3559539Y-14118436D01*
X3559539Y-14118436D02*
X3569063Y-14108912D01*
X3635729Y-14156531D02*
X3645253Y-14147008D01*
X3645253Y-14147008D02*
X3664301Y-14137484D01*
X3664301Y-14137484D02*
X3711920Y-14137484D01*
X3711920Y-14137484D02*
X3730968Y-14147008D01*
X3730968Y-14147008D02*
X3740491Y-14156531D01*
X3740491Y-14156531D02*
X3750015Y-14175579D01*
X3750015Y-14175579D02*
X3750015Y-14194627D01*
X3750015Y-14194627D02*
X3740491Y-14223198D01*
X3740491Y-14223198D02*
X3626206Y-14337484D01*
X3626206Y-14337484D02*
X3750015Y-14337484D01*
X3921444Y-14137484D02*
X3883348Y-14137484D01*
X3883348Y-14137484D02*
X3864301Y-14147008D01*
X3864301Y-14147008D02*
X3854777Y-14156531D01*
X3854777Y-14156531D02*
X3835729Y-14185103D01*
X3835729Y-14185103D02*
X3826206Y-14223198D01*
X3826206Y-14223198D02*
X3826206Y-14299388D01*
X3826206Y-14299388D02*
X3835729Y-14318436D01*
X3835729Y-14318436D02*
X3845253Y-14327960D01*
X3845253Y-14327960D02*
X3864301Y-14337484D01*
X3864301Y-14337484D02*
X3902396Y-14337484D01*
X3902396Y-14337484D02*
X3921444Y-14327960D01*
X3921444Y-14327960D02*
X3930968Y-14318436D01*
X3930968Y-14318436D02*
X3940491Y-14299388D01*
X3940491Y-14299388D02*
X3940491Y-14251769D01*
X3940491Y-14251769D02*
X3930968Y-14232722D01*
X3930968Y-14232722D02*
X3921444Y-14223198D01*
X3921444Y-14223198D02*
X3902396Y-14213674D01*
X3902396Y-14213674D02*
X3864301Y-14213674D01*
X3864301Y-14213674D02*
X3845253Y-14223198D01*
X3845253Y-14223198D02*
X3835729Y-14232722D01*
X3835729Y-14232722D02*
X3826206Y-14251769D01*
X4178587Y-14337484D02*
X4178587Y-14137484D01*
X4264301Y-14337484D02*
X4264301Y-14232722D01*
X4264301Y-14232722D02*
X4254777Y-14213674D01*
X4254777Y-14213674D02*
X4235730Y-14204150D01*
X4235730Y-14204150D02*
X4207158Y-14204150D01*
X4207158Y-14204150D02*
X4188110Y-14213674D01*
X4188110Y-14213674D02*
X4178587Y-14223198D01*
X4388111Y-14337484D02*
X4369063Y-14327960D01*
X4369063Y-14327960D02*
X4359539Y-14318436D01*
X4359539Y-14318436D02*
X4350015Y-14299388D01*
X4350015Y-14299388D02*
X4350015Y-14242246D01*
X4350015Y-14242246D02*
X4359539Y-14223198D01*
X4359539Y-14223198D02*
X4369063Y-14213674D01*
X4369063Y-14213674D02*
X4388111Y-14204150D01*
X4388111Y-14204150D02*
X4416682Y-14204150D01*
X4416682Y-14204150D02*
X4435730Y-14213674D01*
X4435730Y-14213674D02*
X4445253Y-14223198D01*
X4445253Y-14223198D02*
X4454777Y-14242246D01*
X4454777Y-14242246D02*
X4454777Y-14299388D01*
X4454777Y-14299388D02*
X4445253Y-14318436D01*
X4445253Y-14318436D02*
X4435730Y-14327960D01*
X4435730Y-14327960D02*
X4416682Y-14337484D01*
X4416682Y-14337484D02*
X4388111Y-14337484D01*
X4569063Y-14337484D02*
X4550015Y-14327960D01*
X4550015Y-14327960D02*
X4540492Y-14308912D01*
X4540492Y-14308912D02*
X4540492Y-14137484D01*
X4721444Y-14327960D02*
X4702396Y-14337484D01*
X4702396Y-14337484D02*
X4664301Y-14337484D01*
X4664301Y-14337484D02*
X4645253Y-14327960D01*
X4645253Y-14327960D02*
X4635730Y-14308912D01*
X4635730Y-14308912D02*
X4635730Y-14232722D01*
X4635730Y-14232722D02*
X4645253Y-14213674D01*
X4645253Y-14213674D02*
X4664301Y-14204150D01*
X4664301Y-14204150D02*
X4702396Y-14204150D01*
X4702396Y-14204150D02*
X4721444Y-14213674D01*
X4721444Y-14213674D02*
X4730968Y-14232722D01*
X4730968Y-14232722D02*
X4730968Y-14251769D01*
X4730968Y-14251769D02*
X4635730Y-14270817D01*
X4807158Y-14327960D02*
X4826206Y-14337484D01*
X4826206Y-14337484D02*
X4864301Y-14337484D01*
X4864301Y-14337484D02*
X4883349Y-14327960D01*
X4883349Y-14327960D02*
X4892873Y-14308912D01*
X4892873Y-14308912D02*
X4892873Y-14299388D01*
X4892873Y-14299388D02*
X4883349Y-14280341D01*
X4883349Y-14280341D02*
X4864301Y-14270817D01*
X4864301Y-14270817D02*
X4835730Y-14270817D01*
X4835730Y-14270817D02*
X4816682Y-14261293D01*
X4816682Y-14261293D02*
X4807158Y-14242246D01*
X4807158Y-14242246D02*
X4807158Y-14232722D01*
X4807158Y-14232722D02*
X4816682Y-14213674D01*
X4816682Y-14213674D02*
X4835730Y-14204150D01*
X4835730Y-14204150D02*
X4864301Y-14204150D01*
X4864301Y-14204150D02*
X4883349Y-14213674D01*
X4959539Y-14413674D02*
X4969063Y-14404150D01*
X4969063Y-14404150D02*
X4988111Y-14375579D01*
X4988111Y-14375579D02*
X4997634Y-14356531D01*
X4997634Y-14356531D02*
X5007158Y-14327960D01*
X5007158Y-14327960D02*
X5016682Y-14280341D01*
X5016682Y-14280341D02*
X5016682Y-14242246D01*
X5016682Y-14242246D02*
X5007158Y-14194627D01*
X5007158Y-14194627D02*
X4997634Y-14166055D01*
X4997634Y-14166055D02*
X4988111Y-14147008D01*
X4988111Y-14147008D02*
X4969063Y-14118436D01*
X4969063Y-14118436D02*
X4959539Y-14108912D01*
D12*
X-6000Y-14510000D02*
G75*
G02*
X-106000Y-14510000I-50000J0D01*
G01*
X-106000Y-14510000D02*
G75*
G02*
X-6000Y-14510000I50000J0D01*
G01*
D11*
X359539Y-14601484D02*
X245253Y-14601484D01*
X302396Y-14601484D02*
X302396Y-14401484D01*
X302396Y-14401484D02*
X283348Y-14430055D01*
X283348Y-14430055D02*
X264301Y-14449103D01*
X264301Y-14449103D02*
X245253Y-14458627D01*
X445253Y-14582436D02*
X454777Y-14591960D01*
X454777Y-14591960D02*
X445253Y-14601484D01*
X445253Y-14601484D02*
X435729Y-14591960D01*
X435729Y-14591960D02*
X445253Y-14582436D01*
X445253Y-14582436D02*
X445253Y-14601484D01*
X578586Y-14401484D02*
X597634Y-14401484D01*
X597634Y-14401484D02*
X616682Y-14411008D01*
X616682Y-14411008D02*
X626205Y-14420531D01*
X626205Y-14420531D02*
X635729Y-14439579D01*
X635729Y-14439579D02*
X645253Y-14477674D01*
X645253Y-14477674D02*
X645253Y-14525293D01*
X645253Y-14525293D02*
X635729Y-14563388D01*
X635729Y-14563388D02*
X626205Y-14582436D01*
X626205Y-14582436D02*
X616682Y-14591960D01*
X616682Y-14591960D02*
X597634Y-14601484D01*
X597634Y-14601484D02*
X578586Y-14601484D01*
X578586Y-14601484D02*
X559539Y-14591960D01*
X559539Y-14591960D02*
X550015Y-14582436D01*
X550015Y-14582436D02*
X540491Y-14563388D01*
X540491Y-14563388D02*
X530967Y-14525293D01*
X530967Y-14525293D02*
X530967Y-14477674D01*
X530967Y-14477674D02*
X540491Y-14439579D01*
X540491Y-14439579D02*
X550015Y-14420531D01*
X550015Y-14420531D02*
X559539Y-14411008D01*
X559539Y-14411008D02*
X578586Y-14401484D01*
X769062Y-14401484D02*
X788110Y-14401484D01*
X788110Y-14401484D02*
X807158Y-14411008D01*
X807158Y-14411008D02*
X816682Y-14420531D01*
X816682Y-14420531D02*
X826205Y-14439579D01*
X826205Y-14439579D02*
X835729Y-14477674D01*
X835729Y-14477674D02*
X835729Y-14525293D01*
X835729Y-14525293D02*
X826205Y-14563388D01*
X826205Y-14563388D02*
X816682Y-14582436D01*
X816682Y-14582436D02*
X807158Y-14591960D01*
X807158Y-14591960D02*
X788110Y-14601484D01*
X788110Y-14601484D02*
X769062Y-14601484D01*
X769062Y-14601484D02*
X750015Y-14591960D01*
X750015Y-14591960D02*
X740491Y-14582436D01*
X740491Y-14582436D02*
X730967Y-14563388D01*
X730967Y-14563388D02*
X721443Y-14525293D01*
X721443Y-14525293D02*
X721443Y-14477674D01*
X721443Y-14477674D02*
X730967Y-14439579D01*
X730967Y-14439579D02*
X740491Y-14420531D01*
X740491Y-14420531D02*
X750015Y-14411008D01*
X750015Y-14411008D02*
X769062Y-14401484D01*
X959539Y-14401484D02*
X978586Y-14401484D01*
X978586Y-14401484D02*
X997634Y-14411008D01*
X997634Y-14411008D02*
X1007158Y-14420531D01*
X1007158Y-14420531D02*
X1016682Y-14439579D01*
X1016682Y-14439579D02*
X1026205Y-14477674D01*
X1026205Y-14477674D02*
X1026205Y-14525293D01*
X1026205Y-14525293D02*
X1016682Y-14563388D01*
X1016682Y-14563388D02*
X1007158Y-14582436D01*
X1007158Y-14582436D02*
X997634Y-14591960D01*
X997634Y-14591960D02*
X978586Y-14601484D01*
X978586Y-14601484D02*
X959539Y-14601484D01*
X959539Y-14601484D02*
X940491Y-14591960D01*
X940491Y-14591960D02*
X930967Y-14582436D01*
X930967Y-14582436D02*
X921443Y-14563388D01*
X921443Y-14563388D02*
X911920Y-14525293D01*
X911920Y-14525293D02*
X911920Y-14477674D01*
X911920Y-14477674D02*
X921443Y-14439579D01*
X921443Y-14439579D02*
X930967Y-14420531D01*
X930967Y-14420531D02*
X940491Y-14411008D01*
X940491Y-14411008D02*
X959539Y-14401484D01*
X1111920Y-14601484D02*
X1111920Y-14468150D01*
X1111920Y-14487198D02*
X1121444Y-14477674D01*
X1121444Y-14477674D02*
X1140491Y-14468150D01*
X1140491Y-14468150D02*
X1169063Y-14468150D01*
X1169063Y-14468150D02*
X1188110Y-14477674D01*
X1188110Y-14477674D02*
X1197634Y-14496722D01*
X1197634Y-14496722D02*
X1197634Y-14601484D01*
X1197634Y-14496722D02*
X1207158Y-14477674D01*
X1207158Y-14477674D02*
X1226205Y-14468150D01*
X1226205Y-14468150D02*
X1254777Y-14468150D01*
X1254777Y-14468150D02*
X1273825Y-14477674D01*
X1273825Y-14477674D02*
X1283348Y-14496722D01*
X1283348Y-14496722D02*
X1283348Y-14601484D01*
X1378586Y-14601484D02*
X1378586Y-14468150D01*
X1378586Y-14487198D02*
X1388110Y-14477674D01*
X1388110Y-14477674D02*
X1407158Y-14468150D01*
X1407158Y-14468150D02*
X1435729Y-14468150D01*
X1435729Y-14468150D02*
X1454777Y-14477674D01*
X1454777Y-14477674D02*
X1464301Y-14496722D01*
X1464301Y-14496722D02*
X1464301Y-14601484D01*
X1464301Y-14496722D02*
X1473824Y-14477674D01*
X1473824Y-14477674D02*
X1492872Y-14468150D01*
X1492872Y-14468150D02*
X1521443Y-14468150D01*
X1521443Y-14468150D02*
X1540491Y-14477674D01*
X1540491Y-14477674D02*
X1550015Y-14496722D01*
X1550015Y-14496722D02*
X1550015Y-14601484D01*
X1940491Y-14391960D02*
X1769063Y-14649103D01*
X2197634Y-14401484D02*
X2216682Y-14401484D01*
X2216682Y-14401484D02*
X2235729Y-14411008D01*
X2235729Y-14411008D02*
X2245253Y-14420531D01*
X2245253Y-14420531D02*
X2254777Y-14439579D01*
X2254777Y-14439579D02*
X2264301Y-14477674D01*
X2264301Y-14477674D02*
X2264301Y-14525293D01*
X2264301Y-14525293D02*
X2254777Y-14563388D01*
X2254777Y-14563388D02*
X2245253Y-14582436D01*
X2245253Y-14582436D02*
X2235729Y-14591960D01*
X2235729Y-14591960D02*
X2216682Y-14601484D01*
X2216682Y-14601484D02*
X2197634Y-14601484D01*
X2197634Y-14601484D02*
X2178587Y-14591960D01*
X2178587Y-14591960D02*
X2169063Y-14582436D01*
X2169063Y-14582436D02*
X2159539Y-14563388D01*
X2159539Y-14563388D02*
X2150015Y-14525293D01*
X2150015Y-14525293D02*
X2150015Y-14477674D01*
X2150015Y-14477674D02*
X2159539Y-14439579D01*
X2159539Y-14439579D02*
X2169063Y-14420531D01*
X2169063Y-14420531D02*
X2178587Y-14411008D01*
X2178587Y-14411008D02*
X2197634Y-14401484D01*
X2350015Y-14582436D02*
X2359539Y-14591960D01*
X2359539Y-14591960D02*
X2350015Y-14601484D01*
X2350015Y-14601484D02*
X2340491Y-14591960D01*
X2340491Y-14591960D02*
X2350015Y-14582436D01*
X2350015Y-14582436D02*
X2350015Y-14601484D01*
X2483348Y-14401484D02*
X2502396Y-14401484D01*
X2502396Y-14401484D02*
X2521444Y-14411008D01*
X2521444Y-14411008D02*
X2530968Y-14420531D01*
X2530968Y-14420531D02*
X2540491Y-14439579D01*
X2540491Y-14439579D02*
X2550015Y-14477674D01*
X2550015Y-14477674D02*
X2550015Y-14525293D01*
X2550015Y-14525293D02*
X2540491Y-14563388D01*
X2540491Y-14563388D02*
X2530968Y-14582436D01*
X2530968Y-14582436D02*
X2521444Y-14591960D01*
X2521444Y-14591960D02*
X2502396Y-14601484D01*
X2502396Y-14601484D02*
X2483348Y-14601484D01*
X2483348Y-14601484D02*
X2464301Y-14591960D01*
X2464301Y-14591960D02*
X2454777Y-14582436D01*
X2454777Y-14582436D02*
X2445253Y-14563388D01*
X2445253Y-14563388D02*
X2435729Y-14525293D01*
X2435729Y-14525293D02*
X2435729Y-14477674D01*
X2435729Y-14477674D02*
X2445253Y-14439579D01*
X2445253Y-14439579D02*
X2454777Y-14420531D01*
X2454777Y-14420531D02*
X2464301Y-14411008D01*
X2464301Y-14411008D02*
X2483348Y-14401484D01*
X2616682Y-14401484D02*
X2740491Y-14401484D01*
X2740491Y-14401484D02*
X2673825Y-14477674D01*
X2673825Y-14477674D02*
X2702396Y-14477674D01*
X2702396Y-14477674D02*
X2721444Y-14487198D01*
X2721444Y-14487198D02*
X2730968Y-14496722D01*
X2730968Y-14496722D02*
X2740491Y-14515769D01*
X2740491Y-14515769D02*
X2740491Y-14563388D01*
X2740491Y-14563388D02*
X2730968Y-14582436D01*
X2730968Y-14582436D02*
X2721444Y-14591960D01*
X2721444Y-14591960D02*
X2702396Y-14601484D01*
X2702396Y-14601484D02*
X2645253Y-14601484D01*
X2645253Y-14601484D02*
X2626206Y-14591960D01*
X2626206Y-14591960D02*
X2616682Y-14582436D01*
X2835729Y-14601484D02*
X2873825Y-14601484D01*
X2873825Y-14601484D02*
X2892872Y-14591960D01*
X2892872Y-14591960D02*
X2902396Y-14582436D01*
X2902396Y-14582436D02*
X2921444Y-14553865D01*
X2921444Y-14553865D02*
X2930967Y-14515769D01*
X2930967Y-14515769D02*
X2930967Y-14439579D01*
X2930967Y-14439579D02*
X2921444Y-14420531D01*
X2921444Y-14420531D02*
X2911920Y-14411008D01*
X2911920Y-14411008D02*
X2892872Y-14401484D01*
X2892872Y-14401484D02*
X2854777Y-14401484D01*
X2854777Y-14401484D02*
X2835729Y-14411008D01*
X2835729Y-14411008D02*
X2826206Y-14420531D01*
X2826206Y-14420531D02*
X2816682Y-14439579D01*
X2816682Y-14439579D02*
X2816682Y-14487198D01*
X2816682Y-14487198D02*
X2826206Y-14506246D01*
X2826206Y-14506246D02*
X2835729Y-14515769D01*
X2835729Y-14515769D02*
X2854777Y-14525293D01*
X2854777Y-14525293D02*
X2892872Y-14525293D01*
X2892872Y-14525293D02*
X2911920Y-14515769D01*
X2911920Y-14515769D02*
X2921444Y-14506246D01*
X2921444Y-14506246D02*
X2930967Y-14487198D01*
X3102396Y-14468150D02*
X3102396Y-14601484D01*
X3054777Y-14391960D02*
X3007158Y-14534817D01*
X3007158Y-14534817D02*
X3130967Y-14534817D01*
X3197634Y-14401484D02*
X3197634Y-14439579D01*
X3273825Y-14401484D02*
X3273825Y-14439579D01*
X3569063Y-14677674D02*
X3559539Y-14668150D01*
X3559539Y-14668150D02*
X3540491Y-14639579D01*
X3540491Y-14639579D02*
X3530968Y-14620531D01*
X3530968Y-14620531D02*
X3521444Y-14591960D01*
X3521444Y-14591960D02*
X3511920Y-14544341D01*
X3511920Y-14544341D02*
X3511920Y-14506246D01*
X3511920Y-14506246D02*
X3521444Y-14458627D01*
X3521444Y-14458627D02*
X3530968Y-14430055D01*
X3530968Y-14430055D02*
X3540491Y-14411008D01*
X3540491Y-14411008D02*
X3559539Y-14382436D01*
X3559539Y-14382436D02*
X3569063Y-14372912D01*
X3740491Y-14401484D02*
X3645253Y-14401484D01*
X3645253Y-14401484D02*
X3635729Y-14496722D01*
X3635729Y-14496722D02*
X3645253Y-14487198D01*
X3645253Y-14487198D02*
X3664301Y-14477674D01*
X3664301Y-14477674D02*
X3711920Y-14477674D01*
X3711920Y-14477674D02*
X3730968Y-14487198D01*
X3730968Y-14487198D02*
X3740491Y-14496722D01*
X3740491Y-14496722D02*
X3750015Y-14515769D01*
X3750015Y-14515769D02*
X3750015Y-14563388D01*
X3750015Y-14563388D02*
X3740491Y-14582436D01*
X3740491Y-14582436D02*
X3730968Y-14591960D01*
X3730968Y-14591960D02*
X3711920Y-14601484D01*
X3711920Y-14601484D02*
X3664301Y-14601484D01*
X3664301Y-14601484D02*
X3645253Y-14591960D01*
X3645253Y-14591960D02*
X3635729Y-14582436D01*
X3826206Y-14420531D02*
X3835729Y-14411008D01*
X3835729Y-14411008D02*
X3854777Y-14401484D01*
X3854777Y-14401484D02*
X3902396Y-14401484D01*
X3902396Y-14401484D02*
X3921444Y-14411008D01*
X3921444Y-14411008D02*
X3930968Y-14420531D01*
X3930968Y-14420531D02*
X3940491Y-14439579D01*
X3940491Y-14439579D02*
X3940491Y-14458627D01*
X3940491Y-14458627D02*
X3930968Y-14487198D01*
X3930968Y-14487198D02*
X3816682Y-14601484D01*
X3816682Y-14601484D02*
X3940491Y-14601484D01*
X4178587Y-14601484D02*
X4178587Y-14401484D01*
X4264301Y-14601484D02*
X4264301Y-14496722D01*
X4264301Y-14496722D02*
X4254777Y-14477674D01*
X4254777Y-14477674D02*
X4235730Y-14468150D01*
X4235730Y-14468150D02*
X4207158Y-14468150D01*
X4207158Y-14468150D02*
X4188110Y-14477674D01*
X4188110Y-14477674D02*
X4178587Y-14487198D01*
X4388111Y-14601484D02*
X4369063Y-14591960D01*
X4369063Y-14591960D02*
X4359539Y-14582436D01*
X4359539Y-14582436D02*
X4350015Y-14563388D01*
X4350015Y-14563388D02*
X4350015Y-14506246D01*
X4350015Y-14506246D02*
X4359539Y-14487198D01*
X4359539Y-14487198D02*
X4369063Y-14477674D01*
X4369063Y-14477674D02*
X4388111Y-14468150D01*
X4388111Y-14468150D02*
X4416682Y-14468150D01*
X4416682Y-14468150D02*
X4435730Y-14477674D01*
X4435730Y-14477674D02*
X4445253Y-14487198D01*
X4445253Y-14487198D02*
X4454777Y-14506246D01*
X4454777Y-14506246D02*
X4454777Y-14563388D01*
X4454777Y-14563388D02*
X4445253Y-14582436D01*
X4445253Y-14582436D02*
X4435730Y-14591960D01*
X4435730Y-14591960D02*
X4416682Y-14601484D01*
X4416682Y-14601484D02*
X4388111Y-14601484D01*
X4569063Y-14601484D02*
X4550015Y-14591960D01*
X4550015Y-14591960D02*
X4540492Y-14572912D01*
X4540492Y-14572912D02*
X4540492Y-14401484D01*
X4721444Y-14591960D02*
X4702396Y-14601484D01*
X4702396Y-14601484D02*
X4664301Y-14601484D01*
X4664301Y-14601484D02*
X4645253Y-14591960D01*
X4645253Y-14591960D02*
X4635730Y-14572912D01*
X4635730Y-14572912D02*
X4635730Y-14496722D01*
X4635730Y-14496722D02*
X4645253Y-14477674D01*
X4645253Y-14477674D02*
X4664301Y-14468150D01*
X4664301Y-14468150D02*
X4702396Y-14468150D01*
X4702396Y-14468150D02*
X4721444Y-14477674D01*
X4721444Y-14477674D02*
X4730968Y-14496722D01*
X4730968Y-14496722D02*
X4730968Y-14515769D01*
X4730968Y-14515769D02*
X4635730Y-14534817D01*
X4807158Y-14591960D02*
X4826206Y-14601484D01*
X4826206Y-14601484D02*
X4864301Y-14601484D01*
X4864301Y-14601484D02*
X4883349Y-14591960D01*
X4883349Y-14591960D02*
X4892873Y-14572912D01*
X4892873Y-14572912D02*
X4892873Y-14563388D01*
X4892873Y-14563388D02*
X4883349Y-14544341D01*
X4883349Y-14544341D02*
X4864301Y-14534817D01*
X4864301Y-14534817D02*
X4835730Y-14534817D01*
X4835730Y-14534817D02*
X4816682Y-14525293D01*
X4816682Y-14525293D02*
X4807158Y-14506246D01*
X4807158Y-14506246D02*
X4807158Y-14496722D01*
X4807158Y-14496722D02*
X4816682Y-14477674D01*
X4816682Y-14477674D02*
X4835730Y-14468150D01*
X4835730Y-14468150D02*
X4864301Y-14468150D01*
X4864301Y-14468150D02*
X4883349Y-14477674D01*
X4959539Y-14677674D02*
X4969063Y-14668150D01*
X4969063Y-14668150D02*
X4988111Y-14639579D01*
X4988111Y-14639579D02*
X4997634Y-14620531D01*
X4997634Y-14620531D02*
X5007158Y-14591960D01*
X5007158Y-14591960D02*
X5016682Y-14544341D01*
X5016682Y-14544341D02*
X5016682Y-14506246D01*
X5016682Y-14506246D02*
X5007158Y-14458627D01*
X5007158Y-14458627D02*
X4997634Y-14430055D01*
X4997634Y-14430055D02*
X4988111Y-14411008D01*
X4988111Y-14411008D02*
X4969063Y-14382436D01*
X4969063Y-14382436D02*
X4959539Y-14372912D01*
D13*
X-81000Y-14699000D02*
X-81000Y-14849000D01*
X-156000Y-14774000D02*
X-6000Y-14774000D01*
D11*
X359539Y-14865484D02*
X245253Y-14865484D01*
X302396Y-14865484D02*
X302396Y-14665484D01*
X302396Y-14665484D02*
X283348Y-14694055D01*
X283348Y-14694055D02*
X264301Y-14713103D01*
X264301Y-14713103D02*
X245253Y-14722627D01*
X445253Y-14846436D02*
X454777Y-14855960D01*
X454777Y-14855960D02*
X445253Y-14865484D01*
X445253Y-14865484D02*
X435729Y-14855960D01*
X435729Y-14855960D02*
X445253Y-14846436D01*
X445253Y-14846436D02*
X445253Y-14865484D01*
X635729Y-14665484D02*
X540491Y-14665484D01*
X540491Y-14665484D02*
X530967Y-14760722D01*
X530967Y-14760722D02*
X540491Y-14751198D01*
X540491Y-14751198D02*
X559539Y-14741674D01*
X559539Y-14741674D02*
X607158Y-14741674D01*
X607158Y-14741674D02*
X626205Y-14751198D01*
X626205Y-14751198D02*
X635729Y-14760722D01*
X635729Y-14760722D02*
X645253Y-14779769D01*
X645253Y-14779769D02*
X645253Y-14827388D01*
X645253Y-14827388D02*
X635729Y-14846436D01*
X635729Y-14846436D02*
X626205Y-14855960D01*
X626205Y-14855960D02*
X607158Y-14865484D01*
X607158Y-14865484D02*
X559539Y-14865484D01*
X559539Y-14865484D02*
X540491Y-14855960D01*
X540491Y-14855960D02*
X530967Y-14846436D01*
X769062Y-14665484D02*
X788110Y-14665484D01*
X788110Y-14665484D02*
X807158Y-14675008D01*
X807158Y-14675008D02*
X816682Y-14684531D01*
X816682Y-14684531D02*
X826205Y-14703579D01*
X826205Y-14703579D02*
X835729Y-14741674D01*
X835729Y-14741674D02*
X835729Y-14789293D01*
X835729Y-14789293D02*
X826205Y-14827388D01*
X826205Y-14827388D02*
X816682Y-14846436D01*
X816682Y-14846436D02*
X807158Y-14855960D01*
X807158Y-14855960D02*
X788110Y-14865484D01*
X788110Y-14865484D02*
X769062Y-14865484D01*
X769062Y-14865484D02*
X750015Y-14855960D01*
X750015Y-14855960D02*
X740491Y-14846436D01*
X740491Y-14846436D02*
X730967Y-14827388D01*
X730967Y-14827388D02*
X721443Y-14789293D01*
X721443Y-14789293D02*
X721443Y-14741674D01*
X721443Y-14741674D02*
X730967Y-14703579D01*
X730967Y-14703579D02*
X740491Y-14684531D01*
X740491Y-14684531D02*
X750015Y-14675008D01*
X750015Y-14675008D02*
X769062Y-14665484D01*
X959539Y-14665484D02*
X978586Y-14665484D01*
X978586Y-14665484D02*
X997634Y-14675008D01*
X997634Y-14675008D02*
X1007158Y-14684531D01*
X1007158Y-14684531D02*
X1016682Y-14703579D01*
X1016682Y-14703579D02*
X1026205Y-14741674D01*
X1026205Y-14741674D02*
X1026205Y-14789293D01*
X1026205Y-14789293D02*
X1016682Y-14827388D01*
X1016682Y-14827388D02*
X1007158Y-14846436D01*
X1007158Y-14846436D02*
X997634Y-14855960D01*
X997634Y-14855960D02*
X978586Y-14865484D01*
X978586Y-14865484D02*
X959539Y-14865484D01*
X959539Y-14865484D02*
X940491Y-14855960D01*
X940491Y-14855960D02*
X930967Y-14846436D01*
X930967Y-14846436D02*
X921443Y-14827388D01*
X921443Y-14827388D02*
X911920Y-14789293D01*
X911920Y-14789293D02*
X911920Y-14741674D01*
X911920Y-14741674D02*
X921443Y-14703579D01*
X921443Y-14703579D02*
X930967Y-14684531D01*
X930967Y-14684531D02*
X940491Y-14675008D01*
X940491Y-14675008D02*
X959539Y-14665484D01*
X1111920Y-14865484D02*
X1111920Y-14732150D01*
X1111920Y-14751198D02*
X1121444Y-14741674D01*
X1121444Y-14741674D02*
X1140491Y-14732150D01*
X1140491Y-14732150D02*
X1169063Y-14732150D01*
X1169063Y-14732150D02*
X1188110Y-14741674D01*
X1188110Y-14741674D02*
X1197634Y-14760722D01*
X1197634Y-14760722D02*
X1197634Y-14865484D01*
X1197634Y-14760722D02*
X1207158Y-14741674D01*
X1207158Y-14741674D02*
X1226205Y-14732150D01*
X1226205Y-14732150D02*
X1254777Y-14732150D01*
X1254777Y-14732150D02*
X1273825Y-14741674D01*
X1273825Y-14741674D02*
X1283348Y-14760722D01*
X1283348Y-14760722D02*
X1283348Y-14865484D01*
X1378586Y-14865484D02*
X1378586Y-14732150D01*
X1378586Y-14751198D02*
X1388110Y-14741674D01*
X1388110Y-14741674D02*
X1407158Y-14732150D01*
X1407158Y-14732150D02*
X1435729Y-14732150D01*
X1435729Y-14732150D02*
X1454777Y-14741674D01*
X1454777Y-14741674D02*
X1464301Y-14760722D01*
X1464301Y-14760722D02*
X1464301Y-14865484D01*
X1464301Y-14760722D02*
X1473824Y-14741674D01*
X1473824Y-14741674D02*
X1492872Y-14732150D01*
X1492872Y-14732150D02*
X1521443Y-14732150D01*
X1521443Y-14732150D02*
X1540491Y-14741674D01*
X1540491Y-14741674D02*
X1550015Y-14760722D01*
X1550015Y-14760722D02*
X1550015Y-14865484D01*
X1940491Y-14655960D02*
X1769063Y-14913103D01*
X2197634Y-14665484D02*
X2216682Y-14665484D01*
X2216682Y-14665484D02*
X2235729Y-14675008D01*
X2235729Y-14675008D02*
X2245253Y-14684531D01*
X2245253Y-14684531D02*
X2254777Y-14703579D01*
X2254777Y-14703579D02*
X2264301Y-14741674D01*
X2264301Y-14741674D02*
X2264301Y-14789293D01*
X2264301Y-14789293D02*
X2254777Y-14827388D01*
X2254777Y-14827388D02*
X2245253Y-14846436D01*
X2245253Y-14846436D02*
X2235729Y-14855960D01*
X2235729Y-14855960D02*
X2216682Y-14865484D01*
X2216682Y-14865484D02*
X2197634Y-14865484D01*
X2197634Y-14865484D02*
X2178587Y-14855960D01*
X2178587Y-14855960D02*
X2169063Y-14846436D01*
X2169063Y-14846436D02*
X2159539Y-14827388D01*
X2159539Y-14827388D02*
X2150015Y-14789293D01*
X2150015Y-14789293D02*
X2150015Y-14741674D01*
X2150015Y-14741674D02*
X2159539Y-14703579D01*
X2159539Y-14703579D02*
X2169063Y-14684531D01*
X2169063Y-14684531D02*
X2178587Y-14675008D01*
X2178587Y-14675008D02*
X2197634Y-14665484D01*
X2350015Y-14846436D02*
X2359539Y-14855960D01*
X2359539Y-14855960D02*
X2350015Y-14865484D01*
X2350015Y-14865484D02*
X2340491Y-14855960D01*
X2340491Y-14855960D02*
X2350015Y-14846436D01*
X2350015Y-14846436D02*
X2350015Y-14865484D01*
X2483348Y-14665484D02*
X2502396Y-14665484D01*
X2502396Y-14665484D02*
X2521444Y-14675008D01*
X2521444Y-14675008D02*
X2530968Y-14684531D01*
X2530968Y-14684531D02*
X2540491Y-14703579D01*
X2540491Y-14703579D02*
X2550015Y-14741674D01*
X2550015Y-14741674D02*
X2550015Y-14789293D01*
X2550015Y-14789293D02*
X2540491Y-14827388D01*
X2540491Y-14827388D02*
X2530968Y-14846436D01*
X2530968Y-14846436D02*
X2521444Y-14855960D01*
X2521444Y-14855960D02*
X2502396Y-14865484D01*
X2502396Y-14865484D02*
X2483348Y-14865484D01*
X2483348Y-14865484D02*
X2464301Y-14855960D01*
X2464301Y-14855960D02*
X2454777Y-14846436D01*
X2454777Y-14846436D02*
X2445253Y-14827388D01*
X2445253Y-14827388D02*
X2435729Y-14789293D01*
X2435729Y-14789293D02*
X2435729Y-14741674D01*
X2435729Y-14741674D02*
X2445253Y-14703579D01*
X2445253Y-14703579D02*
X2454777Y-14684531D01*
X2454777Y-14684531D02*
X2464301Y-14675008D01*
X2464301Y-14675008D02*
X2483348Y-14665484D01*
X2730968Y-14665484D02*
X2635729Y-14665484D01*
X2635729Y-14665484D02*
X2626206Y-14760722D01*
X2626206Y-14760722D02*
X2635729Y-14751198D01*
X2635729Y-14751198D02*
X2654777Y-14741674D01*
X2654777Y-14741674D02*
X2702396Y-14741674D01*
X2702396Y-14741674D02*
X2721444Y-14751198D01*
X2721444Y-14751198D02*
X2730968Y-14760722D01*
X2730968Y-14760722D02*
X2740491Y-14779769D01*
X2740491Y-14779769D02*
X2740491Y-14827388D01*
X2740491Y-14827388D02*
X2730968Y-14846436D01*
X2730968Y-14846436D02*
X2721444Y-14855960D01*
X2721444Y-14855960D02*
X2702396Y-14865484D01*
X2702396Y-14865484D02*
X2654777Y-14865484D01*
X2654777Y-14865484D02*
X2635729Y-14855960D01*
X2635729Y-14855960D02*
X2626206Y-14846436D01*
X2835729Y-14865484D02*
X2873825Y-14865484D01*
X2873825Y-14865484D02*
X2892872Y-14855960D01*
X2892872Y-14855960D02*
X2902396Y-14846436D01*
X2902396Y-14846436D02*
X2921444Y-14817865D01*
X2921444Y-14817865D02*
X2930967Y-14779769D01*
X2930967Y-14779769D02*
X2930967Y-14703579D01*
X2930967Y-14703579D02*
X2921444Y-14684531D01*
X2921444Y-14684531D02*
X2911920Y-14675008D01*
X2911920Y-14675008D02*
X2892872Y-14665484D01*
X2892872Y-14665484D02*
X2854777Y-14665484D01*
X2854777Y-14665484D02*
X2835729Y-14675008D01*
X2835729Y-14675008D02*
X2826206Y-14684531D01*
X2826206Y-14684531D02*
X2816682Y-14703579D01*
X2816682Y-14703579D02*
X2816682Y-14751198D01*
X2816682Y-14751198D02*
X2826206Y-14770246D01*
X2826206Y-14770246D02*
X2835729Y-14779769D01*
X2835729Y-14779769D02*
X2854777Y-14789293D01*
X2854777Y-14789293D02*
X2892872Y-14789293D01*
X2892872Y-14789293D02*
X2911920Y-14779769D01*
X2911920Y-14779769D02*
X2921444Y-14770246D01*
X2921444Y-14770246D02*
X2930967Y-14751198D01*
X3121444Y-14865484D02*
X3007158Y-14865484D01*
X3064301Y-14865484D02*
X3064301Y-14665484D01*
X3064301Y-14665484D02*
X3045253Y-14694055D01*
X3045253Y-14694055D02*
X3026206Y-14713103D01*
X3026206Y-14713103D02*
X3007158Y-14722627D01*
X3197634Y-14665484D02*
X3197634Y-14703579D01*
X3273825Y-14665484D02*
X3273825Y-14703579D01*
X3569063Y-14941674D02*
X3559539Y-14932150D01*
X3559539Y-14932150D02*
X3540491Y-14903579D01*
X3540491Y-14903579D02*
X3530968Y-14884531D01*
X3530968Y-14884531D02*
X3521444Y-14855960D01*
X3521444Y-14855960D02*
X3511920Y-14808341D01*
X3511920Y-14808341D02*
X3511920Y-14770246D01*
X3511920Y-14770246D02*
X3521444Y-14722627D01*
X3521444Y-14722627D02*
X3530968Y-14694055D01*
X3530968Y-14694055D02*
X3540491Y-14675008D01*
X3540491Y-14675008D02*
X3559539Y-14646436D01*
X3559539Y-14646436D02*
X3569063Y-14636912D01*
X3730968Y-14665484D02*
X3692872Y-14665484D01*
X3692872Y-14665484D02*
X3673825Y-14675008D01*
X3673825Y-14675008D02*
X3664301Y-14684531D01*
X3664301Y-14684531D02*
X3645253Y-14713103D01*
X3645253Y-14713103D02*
X3635729Y-14751198D01*
X3635729Y-14751198D02*
X3635729Y-14827388D01*
X3635729Y-14827388D02*
X3645253Y-14846436D01*
X3645253Y-14846436D02*
X3654777Y-14855960D01*
X3654777Y-14855960D02*
X3673825Y-14865484D01*
X3673825Y-14865484D02*
X3711920Y-14865484D01*
X3711920Y-14865484D02*
X3730968Y-14855960D01*
X3730968Y-14855960D02*
X3740491Y-14846436D01*
X3740491Y-14846436D02*
X3750015Y-14827388D01*
X3750015Y-14827388D02*
X3750015Y-14779769D01*
X3750015Y-14779769D02*
X3740491Y-14760722D01*
X3740491Y-14760722D02*
X3730968Y-14751198D01*
X3730968Y-14751198D02*
X3711920Y-14741674D01*
X3711920Y-14741674D02*
X3673825Y-14741674D01*
X3673825Y-14741674D02*
X3654777Y-14751198D01*
X3654777Y-14751198D02*
X3645253Y-14760722D01*
X3645253Y-14760722D02*
X3635729Y-14779769D01*
X3988110Y-14865484D02*
X3988110Y-14665484D01*
X4073825Y-14865484D02*
X4073825Y-14760722D01*
X4073825Y-14760722D02*
X4064301Y-14741674D01*
X4064301Y-14741674D02*
X4045253Y-14732150D01*
X4045253Y-14732150D02*
X4016682Y-14732150D01*
X4016682Y-14732150D02*
X3997634Y-14741674D01*
X3997634Y-14741674D02*
X3988110Y-14751198D01*
X4197634Y-14865484D02*
X4178587Y-14855960D01*
X4178587Y-14855960D02*
X4169063Y-14846436D01*
X4169063Y-14846436D02*
X4159539Y-14827388D01*
X4159539Y-14827388D02*
X4159539Y-14770246D01*
X4159539Y-14770246D02*
X4169063Y-14751198D01*
X4169063Y-14751198D02*
X4178587Y-14741674D01*
X4178587Y-14741674D02*
X4197634Y-14732150D01*
X4197634Y-14732150D02*
X4226206Y-14732150D01*
X4226206Y-14732150D02*
X4245253Y-14741674D01*
X4245253Y-14741674D02*
X4254777Y-14751198D01*
X4254777Y-14751198D02*
X4264301Y-14770246D01*
X4264301Y-14770246D02*
X4264301Y-14827388D01*
X4264301Y-14827388D02*
X4254777Y-14846436D01*
X4254777Y-14846436D02*
X4245253Y-14855960D01*
X4245253Y-14855960D02*
X4226206Y-14865484D01*
X4226206Y-14865484D02*
X4197634Y-14865484D01*
X4378587Y-14865484D02*
X4359539Y-14855960D01*
X4359539Y-14855960D02*
X4350015Y-14836912D01*
X4350015Y-14836912D02*
X4350015Y-14665484D01*
X4530968Y-14855960D02*
X4511920Y-14865484D01*
X4511920Y-14865484D02*
X4473825Y-14865484D01*
X4473825Y-14865484D02*
X4454777Y-14855960D01*
X4454777Y-14855960D02*
X4445253Y-14836912D01*
X4445253Y-14836912D02*
X4445253Y-14760722D01*
X4445253Y-14760722D02*
X4454777Y-14741674D01*
X4454777Y-14741674D02*
X4473825Y-14732150D01*
X4473825Y-14732150D02*
X4511920Y-14732150D01*
X4511920Y-14732150D02*
X4530968Y-14741674D01*
X4530968Y-14741674D02*
X4540492Y-14760722D01*
X4540492Y-14760722D02*
X4540492Y-14779769D01*
X4540492Y-14779769D02*
X4445253Y-14798817D01*
X4616682Y-14855960D02*
X4635730Y-14865484D01*
X4635730Y-14865484D02*
X4673825Y-14865484D01*
X4673825Y-14865484D02*
X4692873Y-14855960D01*
X4692873Y-14855960D02*
X4702396Y-14836912D01*
X4702396Y-14836912D02*
X4702396Y-14827388D01*
X4702396Y-14827388D02*
X4692873Y-14808341D01*
X4692873Y-14808341D02*
X4673825Y-14798817D01*
X4673825Y-14798817D02*
X4645253Y-14798817D01*
X4645253Y-14798817D02*
X4626206Y-14789293D01*
X4626206Y-14789293D02*
X4616682Y-14770246D01*
X4616682Y-14770246D02*
X4616682Y-14760722D01*
X4616682Y-14760722D02*
X4626206Y-14741674D01*
X4626206Y-14741674D02*
X4645253Y-14732150D01*
X4645253Y-14732150D02*
X4673825Y-14732150D01*
X4673825Y-14732150D02*
X4692873Y-14741674D01*
X4769063Y-14941674D02*
X4778587Y-14932150D01*
X4778587Y-14932150D02*
X4797634Y-14903579D01*
X4797634Y-14903579D02*
X4807158Y-14884531D01*
X4807158Y-14884531D02*
X4816682Y-14855960D01*
X4816682Y-14855960D02*
X4826206Y-14808341D01*
X4826206Y-14808341D02*
X4826206Y-14770246D01*
X4826206Y-14770246D02*
X4816682Y-14722627D01*
X4816682Y-14722627D02*
X4807158Y-14694055D01*
X4807158Y-14694055D02*
X4797634Y-14675008D01*
X4797634Y-14675008D02*
X4778587Y-14646436D01*
X4778587Y-14646436D02*
X4769063Y-14636912D01*
X-35289Y-15114711D02*
X-35289Y-14973289D01*
X-176711Y-14973289D01*
X-176711Y-15114711D01*
X-35289Y-15114711D01*
X245253Y-14954531D02*
X254777Y-14945008D01*
X254777Y-14945008D02*
X273824Y-14935484D01*
X273824Y-14935484D02*
X321444Y-14935484D01*
X321444Y-14935484D02*
X340491Y-14945008D01*
X340491Y-14945008D02*
X350015Y-14954531D01*
X350015Y-14954531D02*
X359539Y-14973579D01*
X359539Y-14973579D02*
X359539Y-14992627D01*
X359539Y-14992627D02*
X350015Y-15021198D01*
X350015Y-15021198D02*
X235729Y-15135484D01*
X235729Y-15135484D02*
X359539Y-15135484D01*
X445253Y-15116436D02*
X454777Y-15125960D01*
X454777Y-15125960D02*
X445253Y-15135484D01*
X445253Y-15135484D02*
X435729Y-15125960D01*
X435729Y-15125960D02*
X445253Y-15116436D01*
X445253Y-15116436D02*
X445253Y-15135484D01*
X578586Y-14935484D02*
X597634Y-14935484D01*
X597634Y-14935484D02*
X616682Y-14945008D01*
X616682Y-14945008D02*
X626205Y-14954531D01*
X626205Y-14954531D02*
X635729Y-14973579D01*
X635729Y-14973579D02*
X645253Y-15011674D01*
X645253Y-15011674D02*
X645253Y-15059293D01*
X645253Y-15059293D02*
X635729Y-15097388D01*
X635729Y-15097388D02*
X626205Y-15116436D01*
X626205Y-15116436D02*
X616682Y-15125960D01*
X616682Y-15125960D02*
X597634Y-15135484D01*
X597634Y-15135484D02*
X578586Y-15135484D01*
X578586Y-15135484D02*
X559539Y-15125960D01*
X559539Y-15125960D02*
X550015Y-15116436D01*
X550015Y-15116436D02*
X540491Y-15097388D01*
X540491Y-15097388D02*
X530967Y-15059293D01*
X530967Y-15059293D02*
X530967Y-15011674D01*
X530967Y-15011674D02*
X540491Y-14973579D01*
X540491Y-14973579D02*
X550015Y-14954531D01*
X550015Y-14954531D02*
X559539Y-14945008D01*
X559539Y-14945008D02*
X578586Y-14935484D01*
X769062Y-14935484D02*
X788110Y-14935484D01*
X788110Y-14935484D02*
X807158Y-14945008D01*
X807158Y-14945008D02*
X816682Y-14954531D01*
X816682Y-14954531D02*
X826205Y-14973579D01*
X826205Y-14973579D02*
X835729Y-15011674D01*
X835729Y-15011674D02*
X835729Y-15059293D01*
X835729Y-15059293D02*
X826205Y-15097388D01*
X826205Y-15097388D02*
X816682Y-15116436D01*
X816682Y-15116436D02*
X807158Y-15125960D01*
X807158Y-15125960D02*
X788110Y-15135484D01*
X788110Y-15135484D02*
X769062Y-15135484D01*
X769062Y-15135484D02*
X750015Y-15125960D01*
X750015Y-15125960D02*
X740491Y-15116436D01*
X740491Y-15116436D02*
X730967Y-15097388D01*
X730967Y-15097388D02*
X721443Y-15059293D01*
X721443Y-15059293D02*
X721443Y-15011674D01*
X721443Y-15011674D02*
X730967Y-14973579D01*
X730967Y-14973579D02*
X740491Y-14954531D01*
X740491Y-14954531D02*
X750015Y-14945008D01*
X750015Y-14945008D02*
X769062Y-14935484D01*
X959539Y-14935484D02*
X978586Y-14935484D01*
X978586Y-14935484D02*
X997634Y-14945008D01*
X997634Y-14945008D02*
X1007158Y-14954531D01*
X1007158Y-14954531D02*
X1016682Y-14973579D01*
X1016682Y-14973579D02*
X1026205Y-15011674D01*
X1026205Y-15011674D02*
X1026205Y-15059293D01*
X1026205Y-15059293D02*
X1016682Y-15097388D01*
X1016682Y-15097388D02*
X1007158Y-15116436D01*
X1007158Y-15116436D02*
X997634Y-15125960D01*
X997634Y-15125960D02*
X978586Y-15135484D01*
X978586Y-15135484D02*
X959539Y-15135484D01*
X959539Y-15135484D02*
X940491Y-15125960D01*
X940491Y-15125960D02*
X930967Y-15116436D01*
X930967Y-15116436D02*
X921443Y-15097388D01*
X921443Y-15097388D02*
X911920Y-15059293D01*
X911920Y-15059293D02*
X911920Y-15011674D01*
X911920Y-15011674D02*
X921443Y-14973579D01*
X921443Y-14973579D02*
X930967Y-14954531D01*
X930967Y-14954531D02*
X940491Y-14945008D01*
X940491Y-14945008D02*
X959539Y-14935484D01*
X1111920Y-15135484D02*
X1111920Y-15002150D01*
X1111920Y-15021198D02*
X1121444Y-15011674D01*
X1121444Y-15011674D02*
X1140491Y-15002150D01*
X1140491Y-15002150D02*
X1169063Y-15002150D01*
X1169063Y-15002150D02*
X1188110Y-15011674D01*
X1188110Y-15011674D02*
X1197634Y-15030722D01*
X1197634Y-15030722D02*
X1197634Y-15135484D01*
X1197634Y-15030722D02*
X1207158Y-15011674D01*
X1207158Y-15011674D02*
X1226205Y-15002150D01*
X1226205Y-15002150D02*
X1254777Y-15002150D01*
X1254777Y-15002150D02*
X1273825Y-15011674D01*
X1273825Y-15011674D02*
X1283348Y-15030722D01*
X1283348Y-15030722D02*
X1283348Y-15135484D01*
X1378586Y-15135484D02*
X1378586Y-15002150D01*
X1378586Y-15021198D02*
X1388110Y-15011674D01*
X1388110Y-15011674D02*
X1407158Y-15002150D01*
X1407158Y-15002150D02*
X1435729Y-15002150D01*
X1435729Y-15002150D02*
X1454777Y-15011674D01*
X1454777Y-15011674D02*
X1464301Y-15030722D01*
X1464301Y-15030722D02*
X1464301Y-15135484D01*
X1464301Y-15030722D02*
X1473824Y-15011674D01*
X1473824Y-15011674D02*
X1492872Y-15002150D01*
X1492872Y-15002150D02*
X1521443Y-15002150D01*
X1521443Y-15002150D02*
X1540491Y-15011674D01*
X1540491Y-15011674D02*
X1550015Y-15030722D01*
X1550015Y-15030722D02*
X1550015Y-15135484D01*
X1940491Y-14925960D02*
X1769063Y-15183103D01*
X2197634Y-14935484D02*
X2216682Y-14935484D01*
X2216682Y-14935484D02*
X2235729Y-14945008D01*
X2235729Y-14945008D02*
X2245253Y-14954531D01*
X2245253Y-14954531D02*
X2254777Y-14973579D01*
X2254777Y-14973579D02*
X2264301Y-15011674D01*
X2264301Y-15011674D02*
X2264301Y-15059293D01*
X2264301Y-15059293D02*
X2254777Y-15097388D01*
X2254777Y-15097388D02*
X2245253Y-15116436D01*
X2245253Y-15116436D02*
X2235729Y-15125960D01*
X2235729Y-15125960D02*
X2216682Y-15135484D01*
X2216682Y-15135484D02*
X2197634Y-15135484D01*
X2197634Y-15135484D02*
X2178587Y-15125960D01*
X2178587Y-15125960D02*
X2169063Y-15116436D01*
X2169063Y-15116436D02*
X2159539Y-15097388D01*
X2159539Y-15097388D02*
X2150015Y-15059293D01*
X2150015Y-15059293D02*
X2150015Y-15011674D01*
X2150015Y-15011674D02*
X2159539Y-14973579D01*
X2159539Y-14973579D02*
X2169063Y-14954531D01*
X2169063Y-14954531D02*
X2178587Y-14945008D01*
X2178587Y-14945008D02*
X2197634Y-14935484D01*
X2350015Y-15116436D02*
X2359539Y-15125960D01*
X2359539Y-15125960D02*
X2350015Y-15135484D01*
X2350015Y-15135484D02*
X2340491Y-15125960D01*
X2340491Y-15125960D02*
X2350015Y-15116436D01*
X2350015Y-15116436D02*
X2350015Y-15135484D01*
X2483348Y-14935484D02*
X2502396Y-14935484D01*
X2502396Y-14935484D02*
X2521444Y-14945008D01*
X2521444Y-14945008D02*
X2530968Y-14954531D01*
X2530968Y-14954531D02*
X2540491Y-14973579D01*
X2540491Y-14973579D02*
X2550015Y-15011674D01*
X2550015Y-15011674D02*
X2550015Y-15059293D01*
X2550015Y-15059293D02*
X2540491Y-15097388D01*
X2540491Y-15097388D02*
X2530968Y-15116436D01*
X2530968Y-15116436D02*
X2521444Y-15125960D01*
X2521444Y-15125960D02*
X2502396Y-15135484D01*
X2502396Y-15135484D02*
X2483348Y-15135484D01*
X2483348Y-15135484D02*
X2464301Y-15125960D01*
X2464301Y-15125960D02*
X2454777Y-15116436D01*
X2454777Y-15116436D02*
X2445253Y-15097388D01*
X2445253Y-15097388D02*
X2435729Y-15059293D01*
X2435729Y-15059293D02*
X2435729Y-15011674D01*
X2435729Y-15011674D02*
X2445253Y-14973579D01*
X2445253Y-14973579D02*
X2454777Y-14954531D01*
X2454777Y-14954531D02*
X2464301Y-14945008D01*
X2464301Y-14945008D02*
X2483348Y-14935484D01*
X2616682Y-14935484D02*
X2750015Y-14935484D01*
X2750015Y-14935484D02*
X2664301Y-15135484D01*
X2854777Y-15021198D02*
X2835729Y-15011674D01*
X2835729Y-15011674D02*
X2826206Y-15002150D01*
X2826206Y-15002150D02*
X2816682Y-14983103D01*
X2816682Y-14983103D02*
X2816682Y-14973579D01*
X2816682Y-14973579D02*
X2826206Y-14954531D01*
X2826206Y-14954531D02*
X2835729Y-14945008D01*
X2835729Y-14945008D02*
X2854777Y-14935484D01*
X2854777Y-14935484D02*
X2892872Y-14935484D01*
X2892872Y-14935484D02*
X2911920Y-14945008D01*
X2911920Y-14945008D02*
X2921444Y-14954531D01*
X2921444Y-14954531D02*
X2930967Y-14973579D01*
X2930967Y-14973579D02*
X2930967Y-14983103D01*
X2930967Y-14983103D02*
X2921444Y-15002150D01*
X2921444Y-15002150D02*
X2911920Y-15011674D01*
X2911920Y-15011674D02*
X2892872Y-15021198D01*
X2892872Y-15021198D02*
X2854777Y-15021198D01*
X2854777Y-15021198D02*
X2835729Y-15030722D01*
X2835729Y-15030722D02*
X2826206Y-15040246D01*
X2826206Y-15040246D02*
X2816682Y-15059293D01*
X2816682Y-15059293D02*
X2816682Y-15097388D01*
X2816682Y-15097388D02*
X2826206Y-15116436D01*
X2826206Y-15116436D02*
X2835729Y-15125960D01*
X2835729Y-15125960D02*
X2854777Y-15135484D01*
X2854777Y-15135484D02*
X2892872Y-15135484D01*
X2892872Y-15135484D02*
X2911920Y-15125960D01*
X2911920Y-15125960D02*
X2921444Y-15116436D01*
X2921444Y-15116436D02*
X2930967Y-15097388D01*
X2930967Y-15097388D02*
X2930967Y-15059293D01*
X2930967Y-15059293D02*
X2921444Y-15040246D01*
X2921444Y-15040246D02*
X2911920Y-15030722D01*
X2911920Y-15030722D02*
X2892872Y-15021198D01*
X2997634Y-14935484D02*
X3130967Y-14935484D01*
X3130967Y-14935484D02*
X3045253Y-15135484D01*
X3197634Y-14935484D02*
X3197634Y-14973579D01*
X3273825Y-14935484D02*
X3273825Y-14973579D01*
X3569063Y-15211674D02*
X3559539Y-15202150D01*
X3559539Y-15202150D02*
X3540491Y-15173579D01*
X3540491Y-15173579D02*
X3530968Y-15154531D01*
X3530968Y-15154531D02*
X3521444Y-15125960D01*
X3521444Y-15125960D02*
X3511920Y-15078341D01*
X3511920Y-15078341D02*
X3511920Y-15040246D01*
X3511920Y-15040246D02*
X3521444Y-14992627D01*
X3521444Y-14992627D02*
X3530968Y-14964055D01*
X3530968Y-14964055D02*
X3540491Y-14945008D01*
X3540491Y-14945008D02*
X3559539Y-14916436D01*
X3559539Y-14916436D02*
X3569063Y-14906912D01*
X3635729Y-14954531D02*
X3645253Y-14945008D01*
X3645253Y-14945008D02*
X3664301Y-14935484D01*
X3664301Y-14935484D02*
X3711920Y-14935484D01*
X3711920Y-14935484D02*
X3730968Y-14945008D01*
X3730968Y-14945008D02*
X3740491Y-14954531D01*
X3740491Y-14954531D02*
X3750015Y-14973579D01*
X3750015Y-14973579D02*
X3750015Y-14992627D01*
X3750015Y-14992627D02*
X3740491Y-15021198D01*
X3740491Y-15021198D02*
X3626206Y-15135484D01*
X3626206Y-15135484D02*
X3750015Y-15135484D01*
X3988110Y-15135484D02*
X3988110Y-14935484D01*
X4073825Y-15135484D02*
X4073825Y-15030722D01*
X4073825Y-15030722D02*
X4064301Y-15011674D01*
X4064301Y-15011674D02*
X4045253Y-15002150D01*
X4045253Y-15002150D02*
X4016682Y-15002150D01*
X4016682Y-15002150D02*
X3997634Y-15011674D01*
X3997634Y-15011674D02*
X3988110Y-15021198D01*
X4197634Y-15135484D02*
X4178587Y-15125960D01*
X4178587Y-15125960D02*
X4169063Y-15116436D01*
X4169063Y-15116436D02*
X4159539Y-15097388D01*
X4159539Y-15097388D02*
X4159539Y-15040246D01*
X4159539Y-15040246D02*
X4169063Y-15021198D01*
X4169063Y-15021198D02*
X4178587Y-15011674D01*
X4178587Y-15011674D02*
X4197634Y-15002150D01*
X4197634Y-15002150D02*
X4226206Y-15002150D01*
X4226206Y-15002150D02*
X4245253Y-15011674D01*
X4245253Y-15011674D02*
X4254777Y-15021198D01*
X4254777Y-15021198D02*
X4264301Y-15040246D01*
X4264301Y-15040246D02*
X4264301Y-15097388D01*
X4264301Y-15097388D02*
X4254777Y-15116436D01*
X4254777Y-15116436D02*
X4245253Y-15125960D01*
X4245253Y-15125960D02*
X4226206Y-15135484D01*
X4226206Y-15135484D02*
X4197634Y-15135484D01*
X4378587Y-15135484D02*
X4359539Y-15125960D01*
X4359539Y-15125960D02*
X4350015Y-15106912D01*
X4350015Y-15106912D02*
X4350015Y-14935484D01*
X4530968Y-15125960D02*
X4511920Y-15135484D01*
X4511920Y-15135484D02*
X4473825Y-15135484D01*
X4473825Y-15135484D02*
X4454777Y-15125960D01*
X4454777Y-15125960D02*
X4445253Y-15106912D01*
X4445253Y-15106912D02*
X4445253Y-15030722D01*
X4445253Y-15030722D02*
X4454777Y-15011674D01*
X4454777Y-15011674D02*
X4473825Y-15002150D01*
X4473825Y-15002150D02*
X4511920Y-15002150D01*
X4511920Y-15002150D02*
X4530968Y-15011674D01*
X4530968Y-15011674D02*
X4540492Y-15030722D01*
X4540492Y-15030722D02*
X4540492Y-15049769D01*
X4540492Y-15049769D02*
X4445253Y-15068817D01*
X4616682Y-15125960D02*
X4635730Y-15135484D01*
X4635730Y-15135484D02*
X4673825Y-15135484D01*
X4673825Y-15135484D02*
X4692873Y-15125960D01*
X4692873Y-15125960D02*
X4702396Y-15106912D01*
X4702396Y-15106912D02*
X4702396Y-15097388D01*
X4702396Y-15097388D02*
X4692873Y-15078341D01*
X4692873Y-15078341D02*
X4673825Y-15068817D01*
X4673825Y-15068817D02*
X4645253Y-15068817D01*
X4645253Y-15068817D02*
X4626206Y-15059293D01*
X4626206Y-15059293D02*
X4616682Y-15040246D01*
X4616682Y-15040246D02*
X4616682Y-15030722D01*
X4616682Y-15030722D02*
X4626206Y-15011674D01*
X4626206Y-15011674D02*
X4645253Y-15002150D01*
X4645253Y-15002150D02*
X4673825Y-15002150D01*
X4673825Y-15002150D02*
X4692873Y-15011674D01*
X4769063Y-15211674D02*
X4778587Y-15202150D01*
X4778587Y-15202150D02*
X4797634Y-15173579D01*
X4797634Y-15173579D02*
X4807158Y-15154531D01*
X4807158Y-15154531D02*
X4816682Y-15125960D01*
X4816682Y-15125960D02*
X4826206Y-15078341D01*
X4826206Y-15078341D02*
X4826206Y-15040246D01*
X4826206Y-15040246D02*
X4816682Y-14992627D01*
X4816682Y-14992627D02*
X4807158Y-14964055D01*
X4807158Y-14964055D02*
X4797634Y-14945008D01*
X4797634Y-14945008D02*
X4778587Y-14916436D01*
X4778587Y-14916436D02*
X4769063Y-14906912D01*
X-106000Y-15464000D02*
X-6000Y-15364000D01*
X-106000Y-15264000D01*
X-206000Y-15364000D01*
X-106000Y-15464000D01*
X235729Y-15255484D02*
X359539Y-15255484D01*
X359539Y-15255484D02*
X292872Y-15331674D01*
X292872Y-15331674D02*
X321444Y-15331674D01*
X321444Y-15331674D02*
X340491Y-15341198D01*
X340491Y-15341198D02*
X350015Y-15350722D01*
X350015Y-15350722D02*
X359539Y-15369769D01*
X359539Y-15369769D02*
X359539Y-15417388D01*
X359539Y-15417388D02*
X350015Y-15436436D01*
X350015Y-15436436D02*
X340491Y-15445960D01*
X340491Y-15445960D02*
X321444Y-15455484D01*
X321444Y-15455484D02*
X264301Y-15455484D01*
X264301Y-15455484D02*
X245253Y-15445960D01*
X245253Y-15445960D02*
X235729Y-15436436D01*
X445253Y-15436436D02*
X454777Y-15445960D01*
X454777Y-15445960D02*
X445253Y-15455484D01*
X445253Y-15455484D02*
X435729Y-15445960D01*
X435729Y-15445960D02*
X445253Y-15436436D01*
X445253Y-15436436D02*
X445253Y-15455484D01*
X530967Y-15274531D02*
X540491Y-15265008D01*
X540491Y-15265008D02*
X559539Y-15255484D01*
X559539Y-15255484D02*
X607158Y-15255484D01*
X607158Y-15255484D02*
X626205Y-15265008D01*
X626205Y-15265008D02*
X635729Y-15274531D01*
X635729Y-15274531D02*
X645253Y-15293579D01*
X645253Y-15293579D02*
X645253Y-15312627D01*
X645253Y-15312627D02*
X635729Y-15341198D01*
X635729Y-15341198D02*
X521443Y-15455484D01*
X521443Y-15455484D02*
X645253Y-15455484D01*
X769062Y-15255484D02*
X788110Y-15255484D01*
X788110Y-15255484D02*
X807158Y-15265008D01*
X807158Y-15265008D02*
X816682Y-15274531D01*
X816682Y-15274531D02*
X826205Y-15293579D01*
X826205Y-15293579D02*
X835729Y-15331674D01*
X835729Y-15331674D02*
X835729Y-15379293D01*
X835729Y-15379293D02*
X826205Y-15417388D01*
X826205Y-15417388D02*
X816682Y-15436436D01*
X816682Y-15436436D02*
X807158Y-15445960D01*
X807158Y-15445960D02*
X788110Y-15455484D01*
X788110Y-15455484D02*
X769062Y-15455484D01*
X769062Y-15455484D02*
X750015Y-15445960D01*
X750015Y-15445960D02*
X740491Y-15436436D01*
X740491Y-15436436D02*
X730967Y-15417388D01*
X730967Y-15417388D02*
X721443Y-15379293D01*
X721443Y-15379293D02*
X721443Y-15331674D01*
X721443Y-15331674D02*
X730967Y-15293579D01*
X730967Y-15293579D02*
X740491Y-15274531D01*
X740491Y-15274531D02*
X750015Y-15265008D01*
X750015Y-15265008D02*
X769062Y-15255484D01*
X959539Y-15255484D02*
X978586Y-15255484D01*
X978586Y-15255484D02*
X997634Y-15265008D01*
X997634Y-15265008D02*
X1007158Y-15274531D01*
X1007158Y-15274531D02*
X1016682Y-15293579D01*
X1016682Y-15293579D02*
X1026205Y-15331674D01*
X1026205Y-15331674D02*
X1026205Y-15379293D01*
X1026205Y-15379293D02*
X1016682Y-15417388D01*
X1016682Y-15417388D02*
X1007158Y-15436436D01*
X1007158Y-15436436D02*
X997634Y-15445960D01*
X997634Y-15445960D02*
X978586Y-15455484D01*
X978586Y-15455484D02*
X959539Y-15455484D01*
X959539Y-15455484D02*
X940491Y-15445960D01*
X940491Y-15445960D02*
X930967Y-15436436D01*
X930967Y-15436436D02*
X921443Y-15417388D01*
X921443Y-15417388D02*
X911920Y-15379293D01*
X911920Y-15379293D02*
X911920Y-15331674D01*
X911920Y-15331674D02*
X921443Y-15293579D01*
X921443Y-15293579D02*
X930967Y-15274531D01*
X930967Y-15274531D02*
X940491Y-15265008D01*
X940491Y-15265008D02*
X959539Y-15255484D01*
X1111920Y-15455484D02*
X1111920Y-15322150D01*
X1111920Y-15341198D02*
X1121444Y-15331674D01*
X1121444Y-15331674D02*
X1140491Y-15322150D01*
X1140491Y-15322150D02*
X1169063Y-15322150D01*
X1169063Y-15322150D02*
X1188110Y-15331674D01*
X1188110Y-15331674D02*
X1197634Y-15350722D01*
X1197634Y-15350722D02*
X1197634Y-15455484D01*
X1197634Y-15350722D02*
X1207158Y-15331674D01*
X1207158Y-15331674D02*
X1226205Y-15322150D01*
X1226205Y-15322150D02*
X1254777Y-15322150D01*
X1254777Y-15322150D02*
X1273825Y-15331674D01*
X1273825Y-15331674D02*
X1283348Y-15350722D01*
X1283348Y-15350722D02*
X1283348Y-15455484D01*
X1378586Y-15455484D02*
X1378586Y-15322150D01*
X1378586Y-15341198D02*
X1388110Y-15331674D01*
X1388110Y-15331674D02*
X1407158Y-15322150D01*
X1407158Y-15322150D02*
X1435729Y-15322150D01*
X1435729Y-15322150D02*
X1454777Y-15331674D01*
X1454777Y-15331674D02*
X1464301Y-15350722D01*
X1464301Y-15350722D02*
X1464301Y-15455484D01*
X1464301Y-15350722D02*
X1473824Y-15331674D01*
X1473824Y-15331674D02*
X1492872Y-15322150D01*
X1492872Y-15322150D02*
X1521443Y-15322150D01*
X1521443Y-15322150D02*
X1540491Y-15331674D01*
X1540491Y-15331674D02*
X1550015Y-15350722D01*
X1550015Y-15350722D02*
X1550015Y-15455484D01*
X1940491Y-15245960D02*
X1769063Y-15503103D01*
X2197634Y-15255484D02*
X2216682Y-15255484D01*
X2216682Y-15255484D02*
X2235729Y-15265008D01*
X2235729Y-15265008D02*
X2245253Y-15274531D01*
X2245253Y-15274531D02*
X2254777Y-15293579D01*
X2254777Y-15293579D02*
X2264301Y-15331674D01*
X2264301Y-15331674D02*
X2264301Y-15379293D01*
X2264301Y-15379293D02*
X2254777Y-15417388D01*
X2254777Y-15417388D02*
X2245253Y-15436436D01*
X2245253Y-15436436D02*
X2235729Y-15445960D01*
X2235729Y-15445960D02*
X2216682Y-15455484D01*
X2216682Y-15455484D02*
X2197634Y-15455484D01*
X2197634Y-15455484D02*
X2178587Y-15445960D01*
X2178587Y-15445960D02*
X2169063Y-15436436D01*
X2169063Y-15436436D02*
X2159539Y-15417388D01*
X2159539Y-15417388D02*
X2150015Y-15379293D01*
X2150015Y-15379293D02*
X2150015Y-15331674D01*
X2150015Y-15331674D02*
X2159539Y-15293579D01*
X2159539Y-15293579D02*
X2169063Y-15274531D01*
X2169063Y-15274531D02*
X2178587Y-15265008D01*
X2178587Y-15265008D02*
X2197634Y-15255484D01*
X2350015Y-15436436D02*
X2359539Y-15445960D01*
X2359539Y-15445960D02*
X2350015Y-15455484D01*
X2350015Y-15455484D02*
X2340491Y-15445960D01*
X2340491Y-15445960D02*
X2350015Y-15436436D01*
X2350015Y-15436436D02*
X2350015Y-15455484D01*
X2550015Y-15455484D02*
X2435729Y-15455484D01*
X2492872Y-15455484D02*
X2492872Y-15255484D01*
X2492872Y-15255484D02*
X2473825Y-15284055D01*
X2473825Y-15284055D02*
X2454777Y-15303103D01*
X2454777Y-15303103D02*
X2435729Y-15312627D01*
X2626206Y-15274531D02*
X2635729Y-15265008D01*
X2635729Y-15265008D02*
X2654777Y-15255484D01*
X2654777Y-15255484D02*
X2702396Y-15255484D01*
X2702396Y-15255484D02*
X2721444Y-15265008D01*
X2721444Y-15265008D02*
X2730968Y-15274531D01*
X2730968Y-15274531D02*
X2740491Y-15293579D01*
X2740491Y-15293579D02*
X2740491Y-15312627D01*
X2740491Y-15312627D02*
X2730968Y-15341198D01*
X2730968Y-15341198D02*
X2616682Y-15455484D01*
X2616682Y-15455484D02*
X2740491Y-15455484D01*
X2911920Y-15255484D02*
X2873825Y-15255484D01*
X2873825Y-15255484D02*
X2854777Y-15265008D01*
X2854777Y-15265008D02*
X2845253Y-15274531D01*
X2845253Y-15274531D02*
X2826206Y-15303103D01*
X2826206Y-15303103D02*
X2816682Y-15341198D01*
X2816682Y-15341198D02*
X2816682Y-15417388D01*
X2816682Y-15417388D02*
X2826206Y-15436436D01*
X2826206Y-15436436D02*
X2835729Y-15445960D01*
X2835729Y-15445960D02*
X2854777Y-15455484D01*
X2854777Y-15455484D02*
X2892872Y-15455484D01*
X2892872Y-15455484D02*
X2911920Y-15445960D01*
X2911920Y-15445960D02*
X2921444Y-15436436D01*
X2921444Y-15436436D02*
X2930967Y-15417388D01*
X2930967Y-15417388D02*
X2930967Y-15369769D01*
X2930967Y-15369769D02*
X2921444Y-15350722D01*
X2921444Y-15350722D02*
X2911920Y-15341198D01*
X2911920Y-15341198D02*
X2892872Y-15331674D01*
X2892872Y-15331674D02*
X2854777Y-15331674D01*
X2854777Y-15331674D02*
X2835729Y-15341198D01*
X2835729Y-15341198D02*
X2826206Y-15350722D01*
X2826206Y-15350722D02*
X2816682Y-15369769D01*
X3054777Y-15255484D02*
X3073825Y-15255484D01*
X3073825Y-15255484D02*
X3092872Y-15265008D01*
X3092872Y-15265008D02*
X3102396Y-15274531D01*
X3102396Y-15274531D02*
X3111920Y-15293579D01*
X3111920Y-15293579D02*
X3121444Y-15331674D01*
X3121444Y-15331674D02*
X3121444Y-15379293D01*
X3121444Y-15379293D02*
X3111920Y-15417388D01*
X3111920Y-15417388D02*
X3102396Y-15436436D01*
X3102396Y-15436436D02*
X3092872Y-15445960D01*
X3092872Y-15445960D02*
X3073825Y-15455484D01*
X3073825Y-15455484D02*
X3054777Y-15455484D01*
X3054777Y-15455484D02*
X3035729Y-15445960D01*
X3035729Y-15445960D02*
X3026206Y-15436436D01*
X3026206Y-15436436D02*
X3016682Y-15417388D01*
X3016682Y-15417388D02*
X3007158Y-15379293D01*
X3007158Y-15379293D02*
X3007158Y-15331674D01*
X3007158Y-15331674D02*
X3016682Y-15293579D01*
X3016682Y-15293579D02*
X3026206Y-15274531D01*
X3026206Y-15274531D02*
X3035729Y-15265008D01*
X3035729Y-15265008D02*
X3054777Y-15255484D01*
X3197634Y-15255484D02*
X3197634Y-15293579D01*
X3273825Y-15255484D02*
X3273825Y-15293579D01*
X3569063Y-15531674D02*
X3559539Y-15522150D01*
X3559539Y-15522150D02*
X3540491Y-15493579D01*
X3540491Y-15493579D02*
X3530968Y-15474531D01*
X3530968Y-15474531D02*
X3521444Y-15445960D01*
X3521444Y-15445960D02*
X3511920Y-15398341D01*
X3511920Y-15398341D02*
X3511920Y-15360246D01*
X3511920Y-15360246D02*
X3521444Y-15312627D01*
X3521444Y-15312627D02*
X3530968Y-15284055D01*
X3530968Y-15284055D02*
X3540491Y-15265008D01*
X3540491Y-15265008D02*
X3559539Y-15236436D01*
X3559539Y-15236436D02*
X3569063Y-15226912D01*
X3626206Y-15255484D02*
X3750015Y-15255484D01*
X3750015Y-15255484D02*
X3683348Y-15331674D01*
X3683348Y-15331674D02*
X3711920Y-15331674D01*
X3711920Y-15331674D02*
X3730968Y-15341198D01*
X3730968Y-15341198D02*
X3740491Y-15350722D01*
X3740491Y-15350722D02*
X3750015Y-15369769D01*
X3750015Y-15369769D02*
X3750015Y-15417388D01*
X3750015Y-15417388D02*
X3740491Y-15436436D01*
X3740491Y-15436436D02*
X3730968Y-15445960D01*
X3730968Y-15445960D02*
X3711920Y-15455484D01*
X3711920Y-15455484D02*
X3654777Y-15455484D01*
X3654777Y-15455484D02*
X3635729Y-15445960D01*
X3635729Y-15445960D02*
X3626206Y-15436436D01*
X3988110Y-15455484D02*
X3988110Y-15255484D01*
X4073825Y-15455484D02*
X4073825Y-15350722D01*
X4073825Y-15350722D02*
X4064301Y-15331674D01*
X4064301Y-15331674D02*
X4045253Y-15322150D01*
X4045253Y-15322150D02*
X4016682Y-15322150D01*
X4016682Y-15322150D02*
X3997634Y-15331674D01*
X3997634Y-15331674D02*
X3988110Y-15341198D01*
X4197634Y-15455484D02*
X4178587Y-15445960D01*
X4178587Y-15445960D02*
X4169063Y-15436436D01*
X4169063Y-15436436D02*
X4159539Y-15417388D01*
X4159539Y-15417388D02*
X4159539Y-15360246D01*
X4159539Y-15360246D02*
X4169063Y-15341198D01*
X4169063Y-15341198D02*
X4178587Y-15331674D01*
X4178587Y-15331674D02*
X4197634Y-15322150D01*
X4197634Y-15322150D02*
X4226206Y-15322150D01*
X4226206Y-15322150D02*
X4245253Y-15331674D01*
X4245253Y-15331674D02*
X4254777Y-15341198D01*
X4254777Y-15341198D02*
X4264301Y-15360246D01*
X4264301Y-15360246D02*
X4264301Y-15417388D01*
X4264301Y-15417388D02*
X4254777Y-15436436D01*
X4254777Y-15436436D02*
X4245253Y-15445960D01*
X4245253Y-15445960D02*
X4226206Y-15455484D01*
X4226206Y-15455484D02*
X4197634Y-15455484D01*
X4378587Y-15455484D02*
X4359539Y-15445960D01*
X4359539Y-15445960D02*
X4350015Y-15426912D01*
X4350015Y-15426912D02*
X4350015Y-15255484D01*
X4530968Y-15445960D02*
X4511920Y-15455484D01*
X4511920Y-15455484D02*
X4473825Y-15455484D01*
X4473825Y-15455484D02*
X4454777Y-15445960D01*
X4454777Y-15445960D02*
X4445253Y-15426912D01*
X4445253Y-15426912D02*
X4445253Y-15350722D01*
X4445253Y-15350722D02*
X4454777Y-15331674D01*
X4454777Y-15331674D02*
X4473825Y-15322150D01*
X4473825Y-15322150D02*
X4511920Y-15322150D01*
X4511920Y-15322150D02*
X4530968Y-15331674D01*
X4530968Y-15331674D02*
X4540492Y-15350722D01*
X4540492Y-15350722D02*
X4540492Y-15369769D01*
X4540492Y-15369769D02*
X4445253Y-15388817D01*
X4616682Y-15445960D02*
X4635730Y-15455484D01*
X4635730Y-15455484D02*
X4673825Y-15455484D01*
X4673825Y-15455484D02*
X4692873Y-15445960D01*
X4692873Y-15445960D02*
X4702396Y-15426912D01*
X4702396Y-15426912D02*
X4702396Y-15417388D01*
X4702396Y-15417388D02*
X4692873Y-15398341D01*
X4692873Y-15398341D02*
X4673825Y-15388817D01*
X4673825Y-15388817D02*
X4645253Y-15388817D01*
X4645253Y-15388817D02*
X4626206Y-15379293D01*
X4626206Y-15379293D02*
X4616682Y-15360246D01*
X4616682Y-15360246D02*
X4616682Y-15350722D01*
X4616682Y-15350722D02*
X4626206Y-15331674D01*
X4626206Y-15331674D02*
X4645253Y-15322150D01*
X4645253Y-15322150D02*
X4673825Y-15322150D01*
X4673825Y-15322150D02*
X4692873Y-15331674D01*
X4769063Y-15531674D02*
X4778587Y-15522150D01*
X4778587Y-15522150D02*
X4797634Y-15493579D01*
X4797634Y-15493579D02*
X4807158Y-15474531D01*
X4807158Y-15474531D02*
X4816682Y-15445960D01*
X4816682Y-15445960D02*
X4826206Y-15398341D01*
X4826206Y-15398341D02*
X4826206Y-15360246D01*
X4826206Y-15360246D02*
X4816682Y-15312627D01*
X4816682Y-15312627D02*
X4807158Y-15284055D01*
X4807158Y-15284055D02*
X4797634Y-15265008D01*
X4797634Y-15265008D02*
X4778587Y-15236436D01*
X4778587Y-15236436D02*
X4769063Y-15226912D01*
X5130968Y-15531674D02*
X5121444Y-15522150D01*
X5121444Y-15522150D02*
X5102396Y-15493579D01*
X5102396Y-15493579D02*
X5092873Y-15474531D01*
X5092873Y-15474531D02*
X5083349Y-15445960D01*
X5083349Y-15445960D02*
X5073825Y-15398341D01*
X5073825Y-15398341D02*
X5073825Y-15360246D01*
X5073825Y-15360246D02*
X5083349Y-15312627D01*
X5083349Y-15312627D02*
X5092873Y-15284055D01*
X5092873Y-15284055D02*
X5102396Y-15265008D01*
X5102396Y-15265008D02*
X5121444Y-15236436D01*
X5121444Y-15236436D02*
X5130968Y-15226912D01*
X5207158Y-15322150D02*
X5207158Y-15455484D01*
X5207158Y-15341198D02*
X5216682Y-15331674D01*
X5216682Y-15331674D02*
X5235730Y-15322150D01*
X5235730Y-15322150D02*
X5264301Y-15322150D01*
X5264301Y-15322150D02*
X5283349Y-15331674D01*
X5283349Y-15331674D02*
X5292873Y-15350722D01*
X5292873Y-15350722D02*
X5292873Y-15455484D01*
X5416682Y-15455484D02*
X5397634Y-15445960D01*
X5397634Y-15445960D02*
X5388111Y-15436436D01*
X5388111Y-15436436D02*
X5378587Y-15417388D01*
X5378587Y-15417388D02*
X5378587Y-15360246D01*
X5378587Y-15360246D02*
X5388111Y-15341198D01*
X5388111Y-15341198D02*
X5397634Y-15331674D01*
X5397634Y-15331674D02*
X5416682Y-15322150D01*
X5416682Y-15322150D02*
X5445254Y-15322150D01*
X5445254Y-15322150D02*
X5464301Y-15331674D01*
X5464301Y-15331674D02*
X5473825Y-15341198D01*
X5473825Y-15341198D02*
X5483349Y-15360246D01*
X5483349Y-15360246D02*
X5483349Y-15417388D01*
X5483349Y-15417388D02*
X5473825Y-15436436D01*
X5473825Y-15436436D02*
X5464301Y-15445960D01*
X5464301Y-15445960D02*
X5445254Y-15455484D01*
X5445254Y-15455484D02*
X5416682Y-15455484D01*
X5540492Y-15322150D02*
X5616682Y-15322150D01*
X5569063Y-15255484D02*
X5569063Y-15426912D01*
X5569063Y-15426912D02*
X5578587Y-15445960D01*
X5578587Y-15445960D02*
X5597634Y-15455484D01*
X5597634Y-15455484D02*
X5616682Y-15455484D01*
X5835730Y-15322150D02*
X5835730Y-15522150D01*
X5835730Y-15331674D02*
X5854777Y-15322150D01*
X5854777Y-15322150D02*
X5892873Y-15322150D01*
X5892873Y-15322150D02*
X5911920Y-15331674D01*
X5911920Y-15331674D02*
X5921444Y-15341198D01*
X5921444Y-15341198D02*
X5930968Y-15360246D01*
X5930968Y-15360246D02*
X5930968Y-15417388D01*
X5930968Y-15417388D02*
X5921444Y-15436436D01*
X5921444Y-15436436D02*
X5911920Y-15445960D01*
X5911920Y-15445960D02*
X5892873Y-15455484D01*
X5892873Y-15455484D02*
X5854777Y-15455484D01*
X5854777Y-15455484D02*
X5835730Y-15445960D01*
X6045253Y-15455484D02*
X6026206Y-15445960D01*
X6026206Y-15445960D02*
X6016682Y-15426912D01*
X6016682Y-15426912D02*
X6016682Y-15255484D01*
X6207158Y-15455484D02*
X6207158Y-15350722D01*
X6207158Y-15350722D02*
X6197634Y-15331674D01*
X6197634Y-15331674D02*
X6178587Y-15322150D01*
X6178587Y-15322150D02*
X6140492Y-15322150D01*
X6140492Y-15322150D02*
X6121444Y-15331674D01*
X6207158Y-15445960D02*
X6188111Y-15455484D01*
X6188111Y-15455484D02*
X6140492Y-15455484D01*
X6140492Y-15455484D02*
X6121444Y-15445960D01*
X6121444Y-15445960D02*
X6111920Y-15426912D01*
X6111920Y-15426912D02*
X6111920Y-15407865D01*
X6111920Y-15407865D02*
X6121444Y-15388817D01*
X6121444Y-15388817D02*
X6140492Y-15379293D01*
X6140492Y-15379293D02*
X6188111Y-15379293D01*
X6188111Y-15379293D02*
X6207158Y-15369769D01*
X6273825Y-15322150D02*
X6350015Y-15322150D01*
X6302396Y-15255484D02*
X6302396Y-15426912D01*
X6302396Y-15426912D02*
X6311920Y-15445960D01*
X6311920Y-15445960D02*
X6330968Y-15455484D01*
X6330968Y-15455484D02*
X6350015Y-15455484D01*
X6492873Y-15445960D02*
X6473825Y-15455484D01*
X6473825Y-15455484D02*
X6435730Y-15455484D01*
X6435730Y-15455484D02*
X6416682Y-15445960D01*
X6416682Y-15445960D02*
X6407158Y-15426912D01*
X6407158Y-15426912D02*
X6407158Y-15350722D01*
X6407158Y-15350722D02*
X6416682Y-15331674D01*
X6416682Y-15331674D02*
X6435730Y-15322150D01*
X6435730Y-15322150D02*
X6473825Y-15322150D01*
X6473825Y-15322150D02*
X6492873Y-15331674D01*
X6492873Y-15331674D02*
X6502396Y-15350722D01*
X6502396Y-15350722D02*
X6502396Y-15369769D01*
X6502396Y-15369769D02*
X6407158Y-15388817D01*
X6673825Y-15455484D02*
X6673825Y-15255484D01*
X6673825Y-15445960D02*
X6654777Y-15455484D01*
X6654777Y-15455484D02*
X6616682Y-15455484D01*
X6616682Y-15455484D02*
X6597634Y-15445960D01*
X6597634Y-15445960D02*
X6588111Y-15436436D01*
X6588111Y-15436436D02*
X6578587Y-15417388D01*
X6578587Y-15417388D02*
X6578587Y-15360246D01*
X6578587Y-15360246D02*
X6588111Y-15341198D01*
X6588111Y-15341198D02*
X6597634Y-15331674D01*
X6597634Y-15331674D02*
X6616682Y-15322150D01*
X6616682Y-15322150D02*
X6654777Y-15322150D01*
X6654777Y-15322150D02*
X6673825Y-15331674D01*
X6750015Y-15531674D02*
X6759539Y-15522150D01*
X6759539Y-15522150D02*
X6778587Y-15493579D01*
X6778587Y-15493579D02*
X6788111Y-15474531D01*
X6788111Y-15474531D02*
X6797634Y-15445960D01*
X6797634Y-15445960D02*
X6807158Y-15398341D01*
X6807158Y-15398341D02*
X6807158Y-15360246D01*
X6807158Y-15360246D02*
X6797634Y-15312627D01*
X6797634Y-15312627D02*
X6788111Y-15284055D01*
X6788111Y-15284055D02*
X6778587Y-15265008D01*
X6778587Y-15265008D02*
X6759539Y-15236436D01*
X6759539Y-15236436D02*
X6750015Y-15226912D01*
M02*
