%TF.GenerationSoftware,KiCad,Pcbnew,10.0.5*%
%TF.CreationDate,2026-07-30T06:09:33-06:00*%
%TF.ProjectId,iphone16e_2s_sk6812_main_v0_4,6970686f-6e65-4313-9665-5f32735f736b,rev?*%
%TF.SameCoordinates,Original*%
%TF.FileFunction,Soldermask,Top*%
%TF.FilePolarity,Negative*%
%FSLAX46Y46*%
G04 Gerber Fmt 4.6, Leading zero omitted, Abs format (unit mm)*
G04 Created by KiCad (PCBNEW 10.0.5) date 2026-07-30 06:09:33*
%MOMM*%
%LPD*%
G01*
G04 APERTURE LIST*
G04 APERTURE END LIST*
G36*
X66373513Y-130444208D02*
G01*
X66612293Y-130521793D01*
X66835998Y-130635776D01*
X67039117Y-130783350D01*
X67216650Y-130960883D01*
X67364224Y-131164002D01*
X67478207Y-131387707D01*
X67555792Y-131626487D01*
X67595068Y-131874465D01*
X67595068Y-132125535D01*
X67555792Y-132373513D01*
X67478207Y-132612293D01*
X67364224Y-132835998D01*
X67216650Y-133039117D01*
X67039117Y-133216650D01*
X66835998Y-133364224D01*
X66612293Y-133478207D01*
X66373513Y-133555792D01*
X66125535Y-133595068D01*
X65874465Y-133595068D01*
X65626487Y-133555792D01*
X65387707Y-133478207D01*
X65164002Y-133364224D01*
X64960883Y-133216650D01*
X64783350Y-133039117D01*
X64635776Y-132835998D01*
X64521793Y-132612293D01*
X64444208Y-132373513D01*
X64404932Y-132125535D01*
X64404932Y-131874465D01*
X64444208Y-131626487D01*
X64521793Y-131387707D01*
X64635776Y-131164002D01*
X64783350Y-130960883D01*
X64960883Y-130783350D01*
X65164002Y-130635776D01*
X65387707Y-130521793D01*
X65626487Y-130444208D01*
X65874465Y-130404932D01*
X66125535Y-130404932D01*
X66373513Y-130444208D01*
G37*
G36*
X10000000Y-130000000D02*
G01*
X6000000Y-130000000D01*
X6000000Y-126000000D01*
X10000000Y-126000000D01*
X10000000Y-130000000D01*
G37*
G36*
X23500000Y-129500000D02*
G01*
X20500000Y-129500000D01*
X20500000Y-126500000D01*
X23500000Y-126500000D01*
X23500000Y-129500000D01*
G37*
G36*
X37500000Y-129500000D02*
G01*
X34500000Y-129500000D01*
X34500000Y-126500000D01*
X37500000Y-126500000D01*
X37500000Y-129500000D01*
G37*
G36*
X51500000Y-129500000D02*
G01*
X48500000Y-129500000D01*
X48500000Y-126500000D01*
X51500000Y-126500000D01*
X51500000Y-129500000D01*
G37*
G36*
X10000000Y-121000000D02*
G01*
X6000000Y-121000000D01*
X6000000Y-117000000D01*
X10000000Y-117000000D01*
X10000000Y-121000000D01*
G37*
G36*
X23500000Y-120500000D02*
G01*
X20500000Y-120500000D01*
X20500000Y-117500000D01*
X23500000Y-117500000D01*
X23500000Y-120500000D01*
G37*
G36*
X37500000Y-120500000D02*
G01*
X34500000Y-120500000D01*
X34500000Y-117500000D01*
X37500000Y-117500000D01*
X37500000Y-120500000D01*
G37*
G36*
X51500000Y-120500000D02*
G01*
X48500000Y-120500000D01*
X48500000Y-117500000D01*
X51500000Y-117500000D01*
X51500000Y-120500000D01*
G37*
G36*
X5373513Y-106444208D02*
G01*
X5612293Y-106521793D01*
X5835998Y-106635776D01*
X6039117Y-106783350D01*
X6216650Y-106960883D01*
X6364224Y-107164002D01*
X6478207Y-107387707D01*
X6555792Y-107626487D01*
X6595068Y-107874465D01*
X6595068Y-108125535D01*
X6555792Y-108373513D01*
X6478207Y-108612293D01*
X6364224Y-108835998D01*
X6216650Y-109039117D01*
X6039117Y-109216650D01*
X5835998Y-109364224D01*
X5612293Y-109478207D01*
X5373513Y-109555792D01*
X5125535Y-109595068D01*
X4874465Y-109595068D01*
X4626487Y-109555792D01*
X4387707Y-109478207D01*
X4164002Y-109364224D01*
X3960883Y-109216650D01*
X3783350Y-109039117D01*
X3635776Y-108835998D01*
X3521793Y-108612293D01*
X3444208Y-108373513D01*
X3404932Y-108125535D01*
X3404932Y-107874465D01*
X3444208Y-107626487D01*
X3521793Y-107387707D01*
X3635776Y-107164002D01*
X3783350Y-106960883D01*
X3960883Y-106783350D01*
X4164002Y-106635776D01*
X4387707Y-106521793D01*
X4626487Y-106444208D01*
X4874465Y-106404932D01*
X5125535Y-106404932D01*
X5373513Y-106444208D01*
G37*
G36*
X46700000Y-98440000D02*
G01*
X44700000Y-98440000D01*
X44700000Y-97140000D01*
X46700000Y-97140000D01*
X46700000Y-98440000D01*
G37*
G36*
X65300000Y-98440000D02*
G01*
X63300000Y-98440000D01*
X63300000Y-97140000D01*
X65300000Y-97140000D01*
X65300000Y-98440000D01*
G37*
G36*
X48700000Y-95590000D02*
G01*
X48300000Y-95590000D01*
X48300000Y-94590000D01*
X48700000Y-94590000D01*
X48700000Y-95590000D01*
G37*
G36*
X49700000Y-95590000D02*
G01*
X49300000Y-95590000D01*
X49300000Y-94590000D01*
X49700000Y-94590000D01*
X49700000Y-95590000D01*
G37*
G36*
X50700000Y-95590000D02*
G01*
X50300000Y-95590000D01*
X50300000Y-94590000D01*
X50700000Y-94590000D01*
X50700000Y-95590000D01*
G37*
G36*
X51700000Y-95590000D02*
G01*
X51300000Y-95590000D01*
X51300000Y-94590000D01*
X51700000Y-94590000D01*
X51700000Y-95590000D01*
G37*
G36*
X52700000Y-95590000D02*
G01*
X52300000Y-95590000D01*
X52300000Y-94590000D01*
X52700000Y-94590000D01*
X52700000Y-95590000D01*
G37*
G36*
X53700000Y-95590000D02*
G01*
X53300000Y-95590000D01*
X53300000Y-94590000D01*
X53700000Y-94590000D01*
X53700000Y-95590000D01*
G37*
G36*
X54700000Y-95590000D02*
G01*
X54300000Y-95590000D01*
X54300000Y-94590000D01*
X54700000Y-94590000D01*
X54700000Y-95590000D01*
G37*
G36*
X55700000Y-95590000D02*
G01*
X55300000Y-95590000D01*
X55300000Y-94590000D01*
X55700000Y-94590000D01*
X55700000Y-95590000D01*
G37*
G36*
X56700000Y-95590000D02*
G01*
X56300000Y-95590000D01*
X56300000Y-94590000D01*
X56700000Y-94590000D01*
X56700000Y-95590000D01*
G37*
G36*
X57700000Y-95590000D02*
G01*
X57300000Y-95590000D01*
X57300000Y-94590000D01*
X57700000Y-94590000D01*
X57700000Y-95590000D01*
G37*
G36*
X58700000Y-95590000D02*
G01*
X58300000Y-95590000D01*
X58300000Y-94590000D01*
X58700000Y-94590000D01*
X58700000Y-95590000D01*
G37*
G36*
X59700000Y-95590000D02*
G01*
X59300000Y-95590000D01*
X59300000Y-94590000D01*
X59700000Y-94590000D01*
X59700000Y-95590000D01*
G37*
G36*
X60700000Y-95590000D02*
G01*
X60300000Y-95590000D01*
X60300000Y-94590000D01*
X60700000Y-94590000D01*
X60700000Y-95590000D01*
G37*
G36*
X61700000Y-95590000D02*
G01*
X61300000Y-95590000D01*
X61300000Y-94590000D01*
X61700000Y-94590000D01*
X61700000Y-95590000D01*
G37*
G36*
X45707403Y-91661418D02*
G01*
X45756066Y-91693934D01*
X45788582Y-91742597D01*
X45800000Y-91800000D01*
X45800000Y-92100000D01*
X45788582Y-92157403D01*
X45756066Y-92206066D01*
X45707403Y-92238582D01*
X45650000Y-92250000D01*
X44475000Y-92250000D01*
X44417597Y-92238582D01*
X44368934Y-92206066D01*
X44336418Y-92157403D01*
X44325000Y-92100000D01*
X44325000Y-91800000D01*
X44336418Y-91742597D01*
X44368934Y-91693934D01*
X44417597Y-91661418D01*
X44475000Y-91650000D01*
X45650000Y-91650000D01*
X45707403Y-91661418D01*
G37*
G36*
X64582403Y-91661418D02*
G01*
X64631066Y-91693934D01*
X64663582Y-91742597D01*
X64675000Y-91800000D01*
X64675000Y-92100000D01*
X64663582Y-92157403D01*
X64631066Y-92206066D01*
X64582403Y-92238582D01*
X64525000Y-92250000D01*
X63350000Y-92250000D01*
X63292597Y-92238582D01*
X63243934Y-92206066D01*
X63211418Y-92157403D01*
X63200000Y-92100000D01*
X63200000Y-91800000D01*
X63211418Y-91742597D01*
X63243934Y-91693934D01*
X63292597Y-91661418D01*
X63350000Y-91650000D01*
X64525000Y-91650000D01*
X64582403Y-91661418D01*
G37*
G36*
X47582403Y-90711418D02*
G01*
X47631066Y-90743934D01*
X47663582Y-90792597D01*
X47675000Y-90850000D01*
X47675000Y-91150000D01*
X47663582Y-91207403D01*
X47631066Y-91256066D01*
X47582403Y-91288582D01*
X47525000Y-91300000D01*
X46350000Y-91300000D01*
X46292597Y-91288582D01*
X46243934Y-91256066D01*
X46211418Y-91207403D01*
X46200000Y-91150000D01*
X46200000Y-90850000D01*
X46211418Y-90792597D01*
X46243934Y-90743934D01*
X46292597Y-90711418D01*
X46350000Y-90700000D01*
X47525000Y-90700000D01*
X47582403Y-90711418D01*
G37*
G36*
X62707403Y-90711418D02*
G01*
X62756066Y-90743934D01*
X62788582Y-90792597D01*
X62800000Y-90850000D01*
X62800000Y-91150000D01*
X62788582Y-91207403D01*
X62756066Y-91256066D01*
X62707403Y-91288582D01*
X62650000Y-91300000D01*
X61475000Y-91300000D01*
X61417597Y-91288582D01*
X61368934Y-91256066D01*
X61336418Y-91207403D01*
X61325000Y-91150000D01*
X61325000Y-90850000D01*
X61336418Y-90792597D01*
X61368934Y-90743934D01*
X61417597Y-90711418D01*
X61475000Y-90700000D01*
X62650000Y-90700000D01*
X62707403Y-90711418D01*
G37*
G36*
X45707403Y-89761418D02*
G01*
X45756066Y-89793934D01*
X45788582Y-89842597D01*
X45800000Y-89900000D01*
X45800000Y-90200000D01*
X45788582Y-90257403D01*
X45756066Y-90306066D01*
X45707403Y-90338582D01*
X45650000Y-90350000D01*
X44475000Y-90350000D01*
X44417597Y-90338582D01*
X44368934Y-90306066D01*
X44336418Y-90257403D01*
X44325000Y-90200000D01*
X44325000Y-89900000D01*
X44336418Y-89842597D01*
X44368934Y-89793934D01*
X44417597Y-89761418D01*
X44475000Y-89750000D01*
X45650000Y-89750000D01*
X45707403Y-89761418D01*
G37*
G36*
X64582403Y-89761418D02*
G01*
X64631066Y-89793934D01*
X64663582Y-89842597D01*
X64675000Y-89900000D01*
X64675000Y-90200000D01*
X64663582Y-90257403D01*
X64631066Y-90306066D01*
X64582403Y-90338582D01*
X64525000Y-90350000D01*
X63350000Y-90350000D01*
X63292597Y-90338582D01*
X63243934Y-90306066D01*
X63211418Y-90257403D01*
X63200000Y-90200000D01*
X63200000Y-89900000D01*
X63211418Y-89842597D01*
X63243934Y-89793934D01*
X63292597Y-89761418D01*
X63350000Y-89750000D01*
X64525000Y-89750000D01*
X64582403Y-89761418D01*
G37*
G36*
X50545671Y-86919030D02*
G01*
X50626777Y-86973223D01*
X50680970Y-87054329D01*
X50700000Y-87150000D01*
X50700000Y-87675000D01*
X50680970Y-87770671D01*
X50626777Y-87851777D01*
X50545671Y-87905970D01*
X50450000Y-87925000D01*
X49550000Y-87925000D01*
X49454329Y-87905970D01*
X49373223Y-87851777D01*
X49319030Y-87770671D01*
X49300000Y-87675000D01*
X49300000Y-87150000D01*
X49319030Y-87054329D01*
X49373223Y-86973223D01*
X49454329Y-86919030D01*
X49550000Y-86900000D01*
X50450000Y-86900000D01*
X50545671Y-86919030D01*
G37*
G36*
X58545671Y-86919030D02*
G01*
X58626777Y-86973223D01*
X58680970Y-87054329D01*
X58700000Y-87150000D01*
X58700000Y-87675000D01*
X58680970Y-87770671D01*
X58626777Y-87851777D01*
X58545671Y-87905970D01*
X58450000Y-87925000D01*
X57550000Y-87925000D01*
X57454329Y-87905970D01*
X57373223Y-87851777D01*
X57319030Y-87770671D01*
X57300000Y-87675000D01*
X57300000Y-87150000D01*
X57319030Y-87054329D01*
X57373223Y-86973223D01*
X57454329Y-86919030D01*
X57550000Y-86900000D01*
X58450000Y-86900000D01*
X58545671Y-86919030D01*
G37*
G36*
X50545671Y-85094030D02*
G01*
X50626777Y-85148223D01*
X50680970Y-85229329D01*
X50700000Y-85325000D01*
X50700000Y-85850000D01*
X50680970Y-85945671D01*
X50626777Y-86026777D01*
X50545671Y-86080970D01*
X50450000Y-86100000D01*
X49550000Y-86100000D01*
X49454329Y-86080970D01*
X49373223Y-86026777D01*
X49319030Y-85945671D01*
X49300000Y-85850000D01*
X49300000Y-85325000D01*
X49319030Y-85229329D01*
X49373223Y-85148223D01*
X49454329Y-85094030D01*
X49550000Y-85075000D01*
X50450000Y-85075000D01*
X50545671Y-85094030D01*
G37*
G36*
X58545671Y-85094030D02*
G01*
X58626777Y-85148223D01*
X58680970Y-85229329D01*
X58700000Y-85325000D01*
X58700000Y-85850000D01*
X58680970Y-85945671D01*
X58626777Y-86026777D01*
X58545671Y-86080970D01*
X58450000Y-86100000D01*
X57550000Y-86100000D01*
X57454329Y-86080970D01*
X57373223Y-86026777D01*
X57319030Y-85945671D01*
X57300000Y-85850000D01*
X57300000Y-85325000D01*
X57319030Y-85229329D01*
X57373223Y-85148223D01*
X57454329Y-85094030D01*
X57550000Y-85075000D01*
X58450000Y-85075000D01*
X58545671Y-85094030D01*
G37*
G36*
X37445671Y-84319030D02*
G01*
X37526777Y-84373223D01*
X37580970Y-84454329D01*
X37600000Y-84550000D01*
X37600000Y-85450000D01*
X37580970Y-85545671D01*
X37526777Y-85626777D01*
X37445671Y-85680970D01*
X37350000Y-85700000D01*
X36825000Y-85700000D01*
X36729329Y-85680970D01*
X36648223Y-85626777D01*
X36594030Y-85545671D01*
X36575000Y-85450000D01*
X36575000Y-84550000D01*
X36594030Y-84454329D01*
X36648223Y-84373223D01*
X36729329Y-84319030D01*
X36825000Y-84300000D01*
X37350000Y-84300000D01*
X37445671Y-84319030D01*
G37*
G36*
X39270671Y-84319030D02*
G01*
X39351777Y-84373223D01*
X39405970Y-84454329D01*
X39425000Y-84550000D01*
X39425000Y-85450000D01*
X39405970Y-85545671D01*
X39351777Y-85626777D01*
X39270671Y-85680970D01*
X39175000Y-85700000D01*
X38650000Y-85700000D01*
X38554329Y-85680970D01*
X38473223Y-85626777D01*
X38419030Y-85545671D01*
X38400000Y-85450000D01*
X38400000Y-84550000D01*
X38419030Y-84454329D01*
X38473223Y-84373223D01*
X38554329Y-84319030D01*
X38650000Y-84300000D01*
X39175000Y-84300000D01*
X39270671Y-84319030D01*
G37*
G36*
X61445671Y-84319030D02*
G01*
X61526777Y-84373223D01*
X61580970Y-84454329D01*
X61600000Y-84550000D01*
X61600000Y-85450000D01*
X61580970Y-85545671D01*
X61526777Y-85626777D01*
X61445671Y-85680970D01*
X61350000Y-85700000D01*
X60825000Y-85700000D01*
X60729329Y-85680970D01*
X60648223Y-85626777D01*
X60594030Y-85545671D01*
X60575000Y-85450000D01*
X60575000Y-84550000D01*
X60594030Y-84454329D01*
X60648223Y-84373223D01*
X60729329Y-84319030D01*
X60825000Y-84300000D01*
X61350000Y-84300000D01*
X61445671Y-84319030D01*
G37*
G36*
X63270671Y-84319030D02*
G01*
X63351777Y-84373223D01*
X63405970Y-84454329D01*
X63425000Y-84550000D01*
X63425000Y-85450000D01*
X63405970Y-85545671D01*
X63351777Y-85626777D01*
X63270671Y-85680970D01*
X63175000Y-85700000D01*
X62650000Y-85700000D01*
X62554329Y-85680970D01*
X62473223Y-85626777D01*
X62419030Y-85545671D01*
X62400000Y-85450000D01*
X62400000Y-84550000D01*
X62419030Y-84454329D01*
X62473223Y-84373223D01*
X62554329Y-84319030D01*
X62650000Y-84300000D01*
X63175000Y-84300000D01*
X63270671Y-84319030D01*
G37*
G36*
X37445671Y-81319030D02*
G01*
X37526777Y-81373223D01*
X37580970Y-81454329D01*
X37600000Y-81550000D01*
X37600000Y-82450000D01*
X37580970Y-82545671D01*
X37526777Y-82626777D01*
X37445671Y-82680970D01*
X37350000Y-82700000D01*
X36825000Y-82700000D01*
X36729329Y-82680970D01*
X36648223Y-82626777D01*
X36594030Y-82545671D01*
X36575000Y-82450000D01*
X36575000Y-81550000D01*
X36594030Y-81454329D01*
X36648223Y-81373223D01*
X36729329Y-81319030D01*
X36825000Y-81300000D01*
X37350000Y-81300000D01*
X37445671Y-81319030D01*
G37*
G36*
X39270671Y-81319030D02*
G01*
X39351777Y-81373223D01*
X39405970Y-81454329D01*
X39425000Y-81550000D01*
X39425000Y-82450000D01*
X39405970Y-82545671D01*
X39351777Y-82626777D01*
X39270671Y-82680970D01*
X39175000Y-82700000D01*
X38650000Y-82700000D01*
X38554329Y-82680970D01*
X38473223Y-82626777D01*
X38419030Y-82545671D01*
X38400000Y-82450000D01*
X38400000Y-81550000D01*
X38419030Y-81454329D01*
X38473223Y-81373223D01*
X38554329Y-81319030D01*
X38650000Y-81300000D01*
X39175000Y-81300000D01*
X39270671Y-81319030D01*
G37*
G36*
X61445671Y-81319030D02*
G01*
X61526777Y-81373223D01*
X61580970Y-81454329D01*
X61600000Y-81550000D01*
X61600000Y-82450000D01*
X61580970Y-82545671D01*
X61526777Y-82626777D01*
X61445671Y-82680970D01*
X61350000Y-82700000D01*
X60825000Y-82700000D01*
X60729329Y-82680970D01*
X60648223Y-82626777D01*
X60594030Y-82545671D01*
X60575000Y-82450000D01*
X60575000Y-81550000D01*
X60594030Y-81454329D01*
X60648223Y-81373223D01*
X60729329Y-81319030D01*
X60825000Y-81300000D01*
X61350000Y-81300000D01*
X61445671Y-81319030D01*
G37*
G36*
X63270671Y-81319030D02*
G01*
X63351777Y-81373223D01*
X63405970Y-81454329D01*
X63425000Y-81550000D01*
X63425000Y-82450000D01*
X63405970Y-82545671D01*
X63351777Y-82626777D01*
X63270671Y-82680970D01*
X63175000Y-82700000D01*
X62650000Y-82700000D01*
X62554329Y-82680970D01*
X62473223Y-82626777D01*
X62419030Y-82545671D01*
X62400000Y-82450000D01*
X62400000Y-81550000D01*
X62419030Y-81454329D01*
X62473223Y-81373223D01*
X62554329Y-81319030D01*
X62650000Y-81300000D01*
X63175000Y-81300000D01*
X63270671Y-81319030D01*
G37*
G36*
X49445671Y-79319030D02*
G01*
X49526777Y-79373223D01*
X49580970Y-79454329D01*
X49600000Y-79550000D01*
X49600000Y-80450000D01*
X49580970Y-80545671D01*
X49526777Y-80626777D01*
X49445671Y-80680970D01*
X49350000Y-80700000D01*
X48825000Y-80700000D01*
X48729329Y-80680970D01*
X48648223Y-80626777D01*
X48594030Y-80545671D01*
X48575000Y-80450000D01*
X48575000Y-79550000D01*
X48594030Y-79454329D01*
X48648223Y-79373223D01*
X48729329Y-79319030D01*
X48825000Y-79300000D01*
X49350000Y-79300000D01*
X49445671Y-79319030D01*
G37*
G36*
X51270671Y-79319030D02*
G01*
X51351777Y-79373223D01*
X51405970Y-79454329D01*
X51425000Y-79550000D01*
X51425000Y-80450000D01*
X51405970Y-80545671D01*
X51351777Y-80626777D01*
X51270671Y-80680970D01*
X51175000Y-80700000D01*
X50650000Y-80700000D01*
X50554329Y-80680970D01*
X50473223Y-80626777D01*
X50419030Y-80545671D01*
X50400000Y-80450000D01*
X50400000Y-79550000D01*
X50419030Y-79454329D01*
X50473223Y-79373223D01*
X50554329Y-79319030D01*
X50650000Y-79300000D01*
X51175000Y-79300000D01*
X51270671Y-79319030D01*
G37*
G36*
X7850000Y-76090000D02*
G01*
X6150000Y-76090000D01*
X6150000Y-74390000D01*
X7850000Y-74390000D01*
X7850000Y-76090000D01*
G37*
G36*
X9786742Y-74426601D02*
G01*
X9940687Y-74490367D01*
X10079234Y-74582941D01*
X10197059Y-74700766D01*
X10289633Y-74839313D01*
X10353399Y-74993258D01*
X10385907Y-75156685D01*
X10385907Y-75323315D01*
X10353399Y-75486742D01*
X10289633Y-75640687D01*
X10197059Y-75779234D01*
X10079234Y-75897059D01*
X9940687Y-75989633D01*
X9786742Y-76053399D01*
X9623315Y-76085907D01*
X9456685Y-76085907D01*
X9293258Y-76053399D01*
X9139313Y-75989633D01*
X9000766Y-75897059D01*
X8882941Y-75779234D01*
X8790367Y-75640687D01*
X8726601Y-75486742D01*
X8694093Y-75323315D01*
X8694093Y-75156685D01*
X8726601Y-74993258D01*
X8790367Y-74839313D01*
X8882941Y-74700766D01*
X9000766Y-74582941D01*
X9139313Y-74490367D01*
X9293258Y-74426601D01*
X9456685Y-74394093D01*
X9623315Y-74394093D01*
X9786742Y-74426601D01*
G37*
G36*
X12326742Y-74426601D02*
G01*
X12480687Y-74490367D01*
X12619234Y-74582941D01*
X12737059Y-74700766D01*
X12829633Y-74839313D01*
X12893399Y-74993258D01*
X12925907Y-75156685D01*
X12925907Y-75323315D01*
X12893399Y-75486742D01*
X12829633Y-75640687D01*
X12737059Y-75779234D01*
X12619234Y-75897059D01*
X12480687Y-75989633D01*
X12326742Y-76053399D01*
X12163315Y-76085907D01*
X11996685Y-76085907D01*
X11833258Y-76053399D01*
X11679313Y-75989633D01*
X11540766Y-75897059D01*
X11422941Y-75779234D01*
X11330367Y-75640687D01*
X11266601Y-75486742D01*
X11234093Y-75323315D01*
X11234093Y-75156685D01*
X11266601Y-74993258D01*
X11330367Y-74839313D01*
X11422941Y-74700766D01*
X11540766Y-74582941D01*
X11679313Y-74490367D01*
X11833258Y-74426601D01*
X11996685Y-74394093D01*
X12163315Y-74394093D01*
X12326742Y-74426601D01*
G37*
G36*
X14866742Y-74426601D02*
G01*
X15020687Y-74490367D01*
X15159234Y-74582941D01*
X15277059Y-74700766D01*
X15369633Y-74839313D01*
X15433399Y-74993258D01*
X15465907Y-75156685D01*
X15465907Y-75323315D01*
X15433399Y-75486742D01*
X15369633Y-75640687D01*
X15277059Y-75779234D01*
X15159234Y-75897059D01*
X15020687Y-75989633D01*
X14866742Y-76053399D01*
X14703315Y-76085907D01*
X14536685Y-76085907D01*
X14373258Y-76053399D01*
X14219313Y-75989633D01*
X14080766Y-75897059D01*
X13962941Y-75779234D01*
X13870367Y-75640687D01*
X13806601Y-75486742D01*
X13774093Y-75323315D01*
X13774093Y-75156685D01*
X13806601Y-74993258D01*
X13870367Y-74839313D01*
X13962941Y-74700766D01*
X14080766Y-74582941D01*
X14219313Y-74490367D01*
X14373258Y-74426601D01*
X14536685Y-74394093D01*
X14703315Y-74394093D01*
X14866742Y-74426601D01*
G37*
G36*
X17406742Y-74426601D02*
G01*
X17560687Y-74490367D01*
X17699234Y-74582941D01*
X17817059Y-74700766D01*
X17909633Y-74839313D01*
X17973399Y-74993258D01*
X18005907Y-75156685D01*
X18005907Y-75323315D01*
X17973399Y-75486742D01*
X17909633Y-75640687D01*
X17817059Y-75779234D01*
X17699234Y-75897059D01*
X17560687Y-75989633D01*
X17406742Y-76053399D01*
X17243315Y-76085907D01*
X17076685Y-76085907D01*
X16913258Y-76053399D01*
X16759313Y-75989633D01*
X16620766Y-75897059D01*
X16502941Y-75779234D01*
X16410367Y-75640687D01*
X16346601Y-75486742D01*
X16314093Y-75323315D01*
X16314093Y-75156685D01*
X16346601Y-74993258D01*
X16410367Y-74839313D01*
X16502941Y-74700766D01*
X16620766Y-74582941D01*
X16759313Y-74490367D01*
X16913258Y-74426601D01*
X17076685Y-74394093D01*
X17243315Y-74394093D01*
X17406742Y-74426601D01*
G37*
G36*
X19946742Y-74426601D02*
G01*
X20100687Y-74490367D01*
X20239234Y-74582941D01*
X20357059Y-74700766D01*
X20449633Y-74839313D01*
X20513399Y-74993258D01*
X20545907Y-75156685D01*
X20545907Y-75323315D01*
X20513399Y-75486742D01*
X20449633Y-75640687D01*
X20357059Y-75779234D01*
X20239234Y-75897059D01*
X20100687Y-75989633D01*
X19946742Y-76053399D01*
X19783315Y-76085907D01*
X19616685Y-76085907D01*
X19453258Y-76053399D01*
X19299313Y-75989633D01*
X19160766Y-75897059D01*
X19042941Y-75779234D01*
X18950367Y-75640687D01*
X18886601Y-75486742D01*
X18854093Y-75323315D01*
X18854093Y-75156685D01*
X18886601Y-74993258D01*
X18950367Y-74839313D01*
X19042941Y-74700766D01*
X19160766Y-74582941D01*
X19299313Y-74490367D01*
X19453258Y-74426601D01*
X19616685Y-74394093D01*
X19783315Y-74394093D01*
X19946742Y-74426601D01*
G37*
G36*
X22486742Y-74426601D02*
G01*
X22640687Y-74490367D01*
X22779234Y-74582941D01*
X22897059Y-74700766D01*
X22989633Y-74839313D01*
X23053399Y-74993258D01*
X23085907Y-75156685D01*
X23085907Y-75323315D01*
X23053399Y-75486742D01*
X22989633Y-75640687D01*
X22897059Y-75779234D01*
X22779234Y-75897059D01*
X22640687Y-75989633D01*
X22486742Y-76053399D01*
X22323315Y-76085907D01*
X22156685Y-76085907D01*
X21993258Y-76053399D01*
X21839313Y-75989633D01*
X21700766Y-75897059D01*
X21582941Y-75779234D01*
X21490367Y-75640687D01*
X21426601Y-75486742D01*
X21394093Y-75323315D01*
X21394093Y-75156685D01*
X21426601Y-74993258D01*
X21490367Y-74839313D01*
X21582941Y-74700766D01*
X21700766Y-74582941D01*
X21839313Y-74490367D01*
X21993258Y-74426601D01*
X22156685Y-74394093D01*
X22323315Y-74394093D01*
X22486742Y-74426601D01*
G37*
G36*
X25026742Y-74426601D02*
G01*
X25180687Y-74490367D01*
X25319234Y-74582941D01*
X25437059Y-74700766D01*
X25529633Y-74839313D01*
X25593399Y-74993258D01*
X25625907Y-75156685D01*
X25625907Y-75323315D01*
X25593399Y-75486742D01*
X25529633Y-75640687D01*
X25437059Y-75779234D01*
X25319234Y-75897059D01*
X25180687Y-75989633D01*
X25026742Y-76053399D01*
X24863315Y-76085907D01*
X24696685Y-76085907D01*
X24533258Y-76053399D01*
X24379313Y-75989633D01*
X24240766Y-75897059D01*
X24122941Y-75779234D01*
X24030367Y-75640687D01*
X23966601Y-75486742D01*
X23934093Y-75323315D01*
X23934093Y-75156685D01*
X23966601Y-74993258D01*
X24030367Y-74839313D01*
X24122941Y-74700766D01*
X24240766Y-74582941D01*
X24379313Y-74490367D01*
X24533258Y-74426601D01*
X24696685Y-74394093D01*
X24863315Y-74394093D01*
X25026742Y-74426601D01*
G37*
G36*
X27566742Y-74426601D02*
G01*
X27720687Y-74490367D01*
X27859234Y-74582941D01*
X27977059Y-74700766D01*
X28069633Y-74839313D01*
X28133399Y-74993258D01*
X28165907Y-75156685D01*
X28165907Y-75323315D01*
X28133399Y-75486742D01*
X28069633Y-75640687D01*
X27977059Y-75779234D01*
X27859234Y-75897059D01*
X27720687Y-75989633D01*
X27566742Y-76053399D01*
X27403315Y-76085907D01*
X27236685Y-76085907D01*
X27073258Y-76053399D01*
X26919313Y-75989633D01*
X26780766Y-75897059D01*
X26662941Y-75779234D01*
X26570367Y-75640687D01*
X26506601Y-75486742D01*
X26474093Y-75323315D01*
X26474093Y-75156685D01*
X26506601Y-74993258D01*
X26570367Y-74839313D01*
X26662941Y-74700766D01*
X26780766Y-74582941D01*
X26919313Y-74490367D01*
X27073258Y-74426601D01*
X27236685Y-74394093D01*
X27403315Y-74394093D01*
X27566742Y-74426601D01*
G37*
G36*
X30106742Y-74426601D02*
G01*
X30260687Y-74490367D01*
X30399234Y-74582941D01*
X30517059Y-74700766D01*
X30609633Y-74839313D01*
X30673399Y-74993258D01*
X30705907Y-75156685D01*
X30705907Y-75323315D01*
X30673399Y-75486742D01*
X30609633Y-75640687D01*
X30517059Y-75779234D01*
X30399234Y-75897059D01*
X30260687Y-75989633D01*
X30106742Y-76053399D01*
X29943315Y-76085907D01*
X29776685Y-76085907D01*
X29613258Y-76053399D01*
X29459313Y-75989633D01*
X29320766Y-75897059D01*
X29202941Y-75779234D01*
X29110367Y-75640687D01*
X29046601Y-75486742D01*
X29014093Y-75323315D01*
X29014093Y-75156685D01*
X29046601Y-74993258D01*
X29110367Y-74839313D01*
X29202941Y-74700766D01*
X29320766Y-74582941D01*
X29459313Y-74490367D01*
X29613258Y-74426601D01*
X29776685Y-74394093D01*
X29943315Y-74394093D01*
X30106742Y-74426601D01*
G37*
G36*
X32646742Y-74426601D02*
G01*
X32800687Y-74490367D01*
X32939234Y-74582941D01*
X33057059Y-74700766D01*
X33149633Y-74839313D01*
X33213399Y-74993258D01*
X33245907Y-75156685D01*
X33245907Y-75323315D01*
X33213399Y-75486742D01*
X33149633Y-75640687D01*
X33057059Y-75779234D01*
X32939234Y-75897059D01*
X32800687Y-75989633D01*
X32646742Y-76053399D01*
X32483315Y-76085907D01*
X32316685Y-76085907D01*
X32153258Y-76053399D01*
X31999313Y-75989633D01*
X31860766Y-75897059D01*
X31742941Y-75779234D01*
X31650367Y-75640687D01*
X31586601Y-75486742D01*
X31554093Y-75323315D01*
X31554093Y-75156685D01*
X31586601Y-74993258D01*
X31650367Y-74839313D01*
X31742941Y-74700766D01*
X31860766Y-74582941D01*
X31999313Y-74490367D01*
X32153258Y-74426601D01*
X32316685Y-74394093D01*
X32483315Y-74394093D01*
X32646742Y-74426601D01*
G37*
G36*
X35186742Y-74426601D02*
G01*
X35340687Y-74490367D01*
X35479234Y-74582941D01*
X35597059Y-74700766D01*
X35689633Y-74839313D01*
X35753399Y-74993258D01*
X35785907Y-75156685D01*
X35785907Y-75323315D01*
X35753399Y-75486742D01*
X35689633Y-75640687D01*
X35597059Y-75779234D01*
X35479234Y-75897059D01*
X35340687Y-75989633D01*
X35186742Y-76053399D01*
X35023315Y-76085907D01*
X34856685Y-76085907D01*
X34693258Y-76053399D01*
X34539313Y-75989633D01*
X34400766Y-75897059D01*
X34282941Y-75779234D01*
X34190367Y-75640687D01*
X34126601Y-75486742D01*
X34094093Y-75323315D01*
X34094093Y-75156685D01*
X34126601Y-74993258D01*
X34190367Y-74839313D01*
X34282941Y-74700766D01*
X34400766Y-74582941D01*
X34539313Y-74490367D01*
X34693258Y-74426601D01*
X34856685Y-74394093D01*
X35023315Y-74394093D01*
X35186742Y-74426601D01*
G37*
G36*
X37726742Y-74426601D02*
G01*
X37880687Y-74490367D01*
X38019234Y-74582941D01*
X38137059Y-74700766D01*
X38229633Y-74839313D01*
X38293399Y-74993258D01*
X38325907Y-75156685D01*
X38325907Y-75323315D01*
X38293399Y-75486742D01*
X38229633Y-75640687D01*
X38137059Y-75779234D01*
X38019234Y-75897059D01*
X37880687Y-75989633D01*
X37726742Y-76053399D01*
X37563315Y-76085907D01*
X37396685Y-76085907D01*
X37233258Y-76053399D01*
X37079313Y-75989633D01*
X36940766Y-75897059D01*
X36822941Y-75779234D01*
X36730367Y-75640687D01*
X36666601Y-75486742D01*
X36634093Y-75323315D01*
X36634093Y-75156685D01*
X36666601Y-74993258D01*
X36730367Y-74839313D01*
X36822941Y-74700766D01*
X36940766Y-74582941D01*
X37079313Y-74490367D01*
X37233258Y-74426601D01*
X37396685Y-74394093D01*
X37563315Y-74394093D01*
X37726742Y-74426601D01*
G37*
G36*
X40266742Y-74426601D02*
G01*
X40420687Y-74490367D01*
X40559234Y-74582941D01*
X40677059Y-74700766D01*
X40769633Y-74839313D01*
X40833399Y-74993258D01*
X40865907Y-75156685D01*
X40865907Y-75323315D01*
X40833399Y-75486742D01*
X40769633Y-75640687D01*
X40677059Y-75779234D01*
X40559234Y-75897059D01*
X40420687Y-75989633D01*
X40266742Y-76053399D01*
X40103315Y-76085907D01*
X39936685Y-76085907D01*
X39773258Y-76053399D01*
X39619313Y-75989633D01*
X39480766Y-75897059D01*
X39362941Y-75779234D01*
X39270367Y-75640687D01*
X39206601Y-75486742D01*
X39174093Y-75323315D01*
X39174093Y-75156685D01*
X39206601Y-74993258D01*
X39270367Y-74839313D01*
X39362941Y-74700766D01*
X39480766Y-74582941D01*
X39619313Y-74490367D01*
X39773258Y-74426601D01*
X39936685Y-74394093D01*
X40103315Y-74394093D01*
X40266742Y-74426601D01*
G37*
G36*
X42806742Y-74426601D02*
G01*
X42960687Y-74490367D01*
X43099234Y-74582941D01*
X43217059Y-74700766D01*
X43309633Y-74839313D01*
X43373399Y-74993258D01*
X43405907Y-75156685D01*
X43405907Y-75323315D01*
X43373399Y-75486742D01*
X43309633Y-75640687D01*
X43217059Y-75779234D01*
X43099234Y-75897059D01*
X42960687Y-75989633D01*
X42806742Y-76053399D01*
X42643315Y-76085907D01*
X42476685Y-76085907D01*
X42313258Y-76053399D01*
X42159313Y-75989633D01*
X42020766Y-75897059D01*
X41902941Y-75779234D01*
X41810367Y-75640687D01*
X41746601Y-75486742D01*
X41714093Y-75323315D01*
X41714093Y-75156685D01*
X41746601Y-74993258D01*
X41810367Y-74839313D01*
X41902941Y-74700766D01*
X42020766Y-74582941D01*
X42159313Y-74490367D01*
X42313258Y-74426601D01*
X42476685Y-74394093D01*
X42643315Y-74394093D01*
X42806742Y-74426601D01*
G37*
G36*
X7850000Y-60850000D02*
G01*
X6150000Y-60850000D01*
X6150000Y-59150000D01*
X7850000Y-59150000D01*
X7850000Y-60850000D01*
G37*
G36*
X9786742Y-59186601D02*
G01*
X9940687Y-59250367D01*
X10079234Y-59342941D01*
X10197059Y-59460766D01*
X10289633Y-59599313D01*
X10353399Y-59753258D01*
X10385907Y-59916685D01*
X10385907Y-60083315D01*
X10353399Y-60246742D01*
X10289633Y-60400687D01*
X10197059Y-60539234D01*
X10079234Y-60657059D01*
X9940687Y-60749633D01*
X9786742Y-60813399D01*
X9623315Y-60845907D01*
X9456685Y-60845907D01*
X9293258Y-60813399D01*
X9139313Y-60749633D01*
X9000766Y-60657059D01*
X8882941Y-60539234D01*
X8790367Y-60400687D01*
X8726601Y-60246742D01*
X8694093Y-60083315D01*
X8694093Y-59916685D01*
X8726601Y-59753258D01*
X8790367Y-59599313D01*
X8882941Y-59460766D01*
X9000766Y-59342941D01*
X9139313Y-59250367D01*
X9293258Y-59186601D01*
X9456685Y-59154093D01*
X9623315Y-59154093D01*
X9786742Y-59186601D01*
G37*
G36*
X12326742Y-59186601D02*
G01*
X12480687Y-59250367D01*
X12619234Y-59342941D01*
X12737059Y-59460766D01*
X12829633Y-59599313D01*
X12893399Y-59753258D01*
X12925907Y-59916685D01*
X12925907Y-60083315D01*
X12893399Y-60246742D01*
X12829633Y-60400687D01*
X12737059Y-60539234D01*
X12619234Y-60657059D01*
X12480687Y-60749633D01*
X12326742Y-60813399D01*
X12163315Y-60845907D01*
X11996685Y-60845907D01*
X11833258Y-60813399D01*
X11679313Y-60749633D01*
X11540766Y-60657059D01*
X11422941Y-60539234D01*
X11330367Y-60400687D01*
X11266601Y-60246742D01*
X11234093Y-60083315D01*
X11234093Y-59916685D01*
X11266601Y-59753258D01*
X11330367Y-59599313D01*
X11422941Y-59460766D01*
X11540766Y-59342941D01*
X11679313Y-59250367D01*
X11833258Y-59186601D01*
X11996685Y-59154093D01*
X12163315Y-59154093D01*
X12326742Y-59186601D01*
G37*
G36*
X14866742Y-59186601D02*
G01*
X15020687Y-59250367D01*
X15159234Y-59342941D01*
X15277059Y-59460766D01*
X15369633Y-59599313D01*
X15433399Y-59753258D01*
X15465907Y-59916685D01*
X15465907Y-60083315D01*
X15433399Y-60246742D01*
X15369633Y-60400687D01*
X15277059Y-60539234D01*
X15159234Y-60657059D01*
X15020687Y-60749633D01*
X14866742Y-60813399D01*
X14703315Y-60845907D01*
X14536685Y-60845907D01*
X14373258Y-60813399D01*
X14219313Y-60749633D01*
X14080766Y-60657059D01*
X13962941Y-60539234D01*
X13870367Y-60400687D01*
X13806601Y-60246742D01*
X13774093Y-60083315D01*
X13774093Y-59916685D01*
X13806601Y-59753258D01*
X13870367Y-59599313D01*
X13962941Y-59460766D01*
X14080766Y-59342941D01*
X14219313Y-59250367D01*
X14373258Y-59186601D01*
X14536685Y-59154093D01*
X14703315Y-59154093D01*
X14866742Y-59186601D01*
G37*
G36*
X17406742Y-59186601D02*
G01*
X17560687Y-59250367D01*
X17699234Y-59342941D01*
X17817059Y-59460766D01*
X17909633Y-59599313D01*
X17973399Y-59753258D01*
X18005907Y-59916685D01*
X18005907Y-60083315D01*
X17973399Y-60246742D01*
X17909633Y-60400687D01*
X17817059Y-60539234D01*
X17699234Y-60657059D01*
X17560687Y-60749633D01*
X17406742Y-60813399D01*
X17243315Y-60845907D01*
X17076685Y-60845907D01*
X16913258Y-60813399D01*
X16759313Y-60749633D01*
X16620766Y-60657059D01*
X16502941Y-60539234D01*
X16410367Y-60400687D01*
X16346601Y-60246742D01*
X16314093Y-60083315D01*
X16314093Y-59916685D01*
X16346601Y-59753258D01*
X16410367Y-59599313D01*
X16502941Y-59460766D01*
X16620766Y-59342941D01*
X16759313Y-59250367D01*
X16913258Y-59186601D01*
X17076685Y-59154093D01*
X17243315Y-59154093D01*
X17406742Y-59186601D01*
G37*
G36*
X19946742Y-59186601D02*
G01*
X20100687Y-59250367D01*
X20239234Y-59342941D01*
X20357059Y-59460766D01*
X20449633Y-59599313D01*
X20513399Y-59753258D01*
X20545907Y-59916685D01*
X20545907Y-60083315D01*
X20513399Y-60246742D01*
X20449633Y-60400687D01*
X20357059Y-60539234D01*
X20239234Y-60657059D01*
X20100687Y-60749633D01*
X19946742Y-60813399D01*
X19783315Y-60845907D01*
X19616685Y-60845907D01*
X19453258Y-60813399D01*
X19299313Y-60749633D01*
X19160766Y-60657059D01*
X19042941Y-60539234D01*
X18950367Y-60400687D01*
X18886601Y-60246742D01*
X18854093Y-60083315D01*
X18854093Y-59916685D01*
X18886601Y-59753258D01*
X18950367Y-59599313D01*
X19042941Y-59460766D01*
X19160766Y-59342941D01*
X19299313Y-59250367D01*
X19453258Y-59186601D01*
X19616685Y-59154093D01*
X19783315Y-59154093D01*
X19946742Y-59186601D01*
G37*
G36*
X22486742Y-59186601D02*
G01*
X22640687Y-59250367D01*
X22779234Y-59342941D01*
X22897059Y-59460766D01*
X22989633Y-59599313D01*
X23053399Y-59753258D01*
X23085907Y-59916685D01*
X23085907Y-60083315D01*
X23053399Y-60246742D01*
X22989633Y-60400687D01*
X22897059Y-60539234D01*
X22779234Y-60657059D01*
X22640687Y-60749633D01*
X22486742Y-60813399D01*
X22323315Y-60845907D01*
X22156685Y-60845907D01*
X21993258Y-60813399D01*
X21839313Y-60749633D01*
X21700766Y-60657059D01*
X21582941Y-60539234D01*
X21490367Y-60400687D01*
X21426601Y-60246742D01*
X21394093Y-60083315D01*
X21394093Y-59916685D01*
X21426601Y-59753258D01*
X21490367Y-59599313D01*
X21582941Y-59460766D01*
X21700766Y-59342941D01*
X21839313Y-59250367D01*
X21993258Y-59186601D01*
X22156685Y-59154093D01*
X22323315Y-59154093D01*
X22486742Y-59186601D01*
G37*
G36*
X25026742Y-59186601D02*
G01*
X25180687Y-59250367D01*
X25319234Y-59342941D01*
X25437059Y-59460766D01*
X25529633Y-59599313D01*
X25593399Y-59753258D01*
X25625907Y-59916685D01*
X25625907Y-60083315D01*
X25593399Y-60246742D01*
X25529633Y-60400687D01*
X25437059Y-60539234D01*
X25319234Y-60657059D01*
X25180687Y-60749633D01*
X25026742Y-60813399D01*
X24863315Y-60845907D01*
X24696685Y-60845907D01*
X24533258Y-60813399D01*
X24379313Y-60749633D01*
X24240766Y-60657059D01*
X24122941Y-60539234D01*
X24030367Y-60400687D01*
X23966601Y-60246742D01*
X23934093Y-60083315D01*
X23934093Y-59916685D01*
X23966601Y-59753258D01*
X24030367Y-59599313D01*
X24122941Y-59460766D01*
X24240766Y-59342941D01*
X24379313Y-59250367D01*
X24533258Y-59186601D01*
X24696685Y-59154093D01*
X24863315Y-59154093D01*
X25026742Y-59186601D01*
G37*
G36*
X27566742Y-59186601D02*
G01*
X27720687Y-59250367D01*
X27859234Y-59342941D01*
X27977059Y-59460766D01*
X28069633Y-59599313D01*
X28133399Y-59753258D01*
X28165907Y-59916685D01*
X28165907Y-60083315D01*
X28133399Y-60246742D01*
X28069633Y-60400687D01*
X27977059Y-60539234D01*
X27859234Y-60657059D01*
X27720687Y-60749633D01*
X27566742Y-60813399D01*
X27403315Y-60845907D01*
X27236685Y-60845907D01*
X27073258Y-60813399D01*
X26919313Y-60749633D01*
X26780766Y-60657059D01*
X26662941Y-60539234D01*
X26570367Y-60400687D01*
X26506601Y-60246742D01*
X26474093Y-60083315D01*
X26474093Y-59916685D01*
X26506601Y-59753258D01*
X26570367Y-59599313D01*
X26662941Y-59460766D01*
X26780766Y-59342941D01*
X26919313Y-59250367D01*
X27073258Y-59186601D01*
X27236685Y-59154093D01*
X27403315Y-59154093D01*
X27566742Y-59186601D01*
G37*
G36*
X30106742Y-59186601D02*
G01*
X30260687Y-59250367D01*
X30399234Y-59342941D01*
X30517059Y-59460766D01*
X30609633Y-59599313D01*
X30673399Y-59753258D01*
X30705907Y-59916685D01*
X30705907Y-60083315D01*
X30673399Y-60246742D01*
X30609633Y-60400687D01*
X30517059Y-60539234D01*
X30399234Y-60657059D01*
X30260687Y-60749633D01*
X30106742Y-60813399D01*
X29943315Y-60845907D01*
X29776685Y-60845907D01*
X29613258Y-60813399D01*
X29459313Y-60749633D01*
X29320766Y-60657059D01*
X29202941Y-60539234D01*
X29110367Y-60400687D01*
X29046601Y-60246742D01*
X29014093Y-60083315D01*
X29014093Y-59916685D01*
X29046601Y-59753258D01*
X29110367Y-59599313D01*
X29202941Y-59460766D01*
X29320766Y-59342941D01*
X29459313Y-59250367D01*
X29613258Y-59186601D01*
X29776685Y-59154093D01*
X29943315Y-59154093D01*
X30106742Y-59186601D01*
G37*
G36*
X32646742Y-59186601D02*
G01*
X32800687Y-59250367D01*
X32939234Y-59342941D01*
X33057059Y-59460766D01*
X33149633Y-59599313D01*
X33213399Y-59753258D01*
X33245907Y-59916685D01*
X33245907Y-60083315D01*
X33213399Y-60246742D01*
X33149633Y-60400687D01*
X33057059Y-60539234D01*
X32939234Y-60657059D01*
X32800687Y-60749633D01*
X32646742Y-60813399D01*
X32483315Y-60845907D01*
X32316685Y-60845907D01*
X32153258Y-60813399D01*
X31999313Y-60749633D01*
X31860766Y-60657059D01*
X31742941Y-60539234D01*
X31650367Y-60400687D01*
X31586601Y-60246742D01*
X31554093Y-60083315D01*
X31554093Y-59916685D01*
X31586601Y-59753258D01*
X31650367Y-59599313D01*
X31742941Y-59460766D01*
X31860766Y-59342941D01*
X31999313Y-59250367D01*
X32153258Y-59186601D01*
X32316685Y-59154093D01*
X32483315Y-59154093D01*
X32646742Y-59186601D01*
G37*
G36*
X35186742Y-59186601D02*
G01*
X35340687Y-59250367D01*
X35479234Y-59342941D01*
X35597059Y-59460766D01*
X35689633Y-59599313D01*
X35753399Y-59753258D01*
X35785907Y-59916685D01*
X35785907Y-60083315D01*
X35753399Y-60246742D01*
X35689633Y-60400687D01*
X35597059Y-60539234D01*
X35479234Y-60657059D01*
X35340687Y-60749633D01*
X35186742Y-60813399D01*
X35023315Y-60845907D01*
X34856685Y-60845907D01*
X34693258Y-60813399D01*
X34539313Y-60749633D01*
X34400766Y-60657059D01*
X34282941Y-60539234D01*
X34190367Y-60400687D01*
X34126601Y-60246742D01*
X34094093Y-60083315D01*
X34094093Y-59916685D01*
X34126601Y-59753258D01*
X34190367Y-59599313D01*
X34282941Y-59460766D01*
X34400766Y-59342941D01*
X34539313Y-59250367D01*
X34693258Y-59186601D01*
X34856685Y-59154093D01*
X35023315Y-59154093D01*
X35186742Y-59186601D01*
G37*
G36*
X37726742Y-59186601D02*
G01*
X37880687Y-59250367D01*
X38019234Y-59342941D01*
X38137059Y-59460766D01*
X38229633Y-59599313D01*
X38293399Y-59753258D01*
X38325907Y-59916685D01*
X38325907Y-60083315D01*
X38293399Y-60246742D01*
X38229633Y-60400687D01*
X38137059Y-60539234D01*
X38019234Y-60657059D01*
X37880687Y-60749633D01*
X37726742Y-60813399D01*
X37563315Y-60845907D01*
X37396685Y-60845907D01*
X37233258Y-60813399D01*
X37079313Y-60749633D01*
X36940766Y-60657059D01*
X36822941Y-60539234D01*
X36730367Y-60400687D01*
X36666601Y-60246742D01*
X36634093Y-60083315D01*
X36634093Y-59916685D01*
X36666601Y-59753258D01*
X36730367Y-59599313D01*
X36822941Y-59460766D01*
X36940766Y-59342941D01*
X37079313Y-59250367D01*
X37233258Y-59186601D01*
X37396685Y-59154093D01*
X37563315Y-59154093D01*
X37726742Y-59186601D01*
G37*
G36*
X40266742Y-59186601D02*
G01*
X40420687Y-59250367D01*
X40559234Y-59342941D01*
X40677059Y-59460766D01*
X40769633Y-59599313D01*
X40833399Y-59753258D01*
X40865907Y-59916685D01*
X40865907Y-60083315D01*
X40833399Y-60246742D01*
X40769633Y-60400687D01*
X40677059Y-60539234D01*
X40559234Y-60657059D01*
X40420687Y-60749633D01*
X40266742Y-60813399D01*
X40103315Y-60845907D01*
X39936685Y-60845907D01*
X39773258Y-60813399D01*
X39619313Y-60749633D01*
X39480766Y-60657059D01*
X39362941Y-60539234D01*
X39270367Y-60400687D01*
X39206601Y-60246742D01*
X39174093Y-60083315D01*
X39174093Y-59916685D01*
X39206601Y-59753258D01*
X39270367Y-59599313D01*
X39362941Y-59460766D01*
X39480766Y-59342941D01*
X39619313Y-59250367D01*
X39773258Y-59186601D01*
X39936685Y-59154093D01*
X40103315Y-59154093D01*
X40266742Y-59186601D01*
G37*
G36*
X42806742Y-59186601D02*
G01*
X42960687Y-59250367D01*
X43099234Y-59342941D01*
X43217059Y-59460766D01*
X43309633Y-59599313D01*
X43373399Y-59753258D01*
X43405907Y-59916685D01*
X43405907Y-60083315D01*
X43373399Y-60246742D01*
X43309633Y-60400687D01*
X43217059Y-60539234D01*
X43099234Y-60657059D01*
X42960687Y-60749633D01*
X42806742Y-60813399D01*
X42643315Y-60845907D01*
X42476685Y-60845907D01*
X42313258Y-60813399D01*
X42159313Y-60749633D01*
X42020766Y-60657059D01*
X41902941Y-60539234D01*
X41810367Y-60400687D01*
X41746601Y-60246742D01*
X41714093Y-60083315D01*
X41714093Y-59916685D01*
X41746601Y-59753258D01*
X41810367Y-59599313D01*
X41902941Y-59460766D01*
X42020766Y-59342941D01*
X42159313Y-59250367D01*
X42313258Y-59186601D01*
X42476685Y-59154093D01*
X42643315Y-59154093D01*
X42806742Y-59186601D01*
G37*
G36*
X45445671Y-49319030D02*
G01*
X45526777Y-49373223D01*
X45580970Y-49454329D01*
X45600000Y-49550000D01*
X45600000Y-50450000D01*
X45580970Y-50545671D01*
X45526777Y-50626777D01*
X45445671Y-50680970D01*
X45350000Y-50700000D01*
X44825000Y-50700000D01*
X44729329Y-50680970D01*
X44648223Y-50626777D01*
X44594030Y-50545671D01*
X44575000Y-50450000D01*
X44575000Y-49550000D01*
X44594030Y-49454329D01*
X44648223Y-49373223D01*
X44729329Y-49319030D01*
X44825000Y-49300000D01*
X45350000Y-49300000D01*
X45445671Y-49319030D01*
G37*
G36*
X47270671Y-49319030D02*
G01*
X47351777Y-49373223D01*
X47405970Y-49454329D01*
X47425000Y-49550000D01*
X47425000Y-50450000D01*
X47405970Y-50545671D01*
X47351777Y-50626777D01*
X47270671Y-50680970D01*
X47175000Y-50700000D01*
X46650000Y-50700000D01*
X46554329Y-50680970D01*
X46473223Y-50626777D01*
X46419030Y-50545671D01*
X46400000Y-50450000D01*
X46400000Y-49550000D01*
X46419030Y-49454329D01*
X46473223Y-49373223D01*
X46554329Y-49319030D01*
X46650000Y-49300000D01*
X47175000Y-49300000D01*
X47270671Y-49319030D01*
G37*
G36*
X54445671Y-49319030D02*
G01*
X54526777Y-49373223D01*
X54580970Y-49454329D01*
X54600000Y-49550000D01*
X54600000Y-50450000D01*
X54580970Y-50545671D01*
X54526777Y-50626777D01*
X54445671Y-50680970D01*
X54350000Y-50700000D01*
X53825000Y-50700000D01*
X53729329Y-50680970D01*
X53648223Y-50626777D01*
X53594030Y-50545671D01*
X53575000Y-50450000D01*
X53575000Y-49550000D01*
X53594030Y-49454329D01*
X53648223Y-49373223D01*
X53729329Y-49319030D01*
X53825000Y-49300000D01*
X54350000Y-49300000D01*
X54445671Y-49319030D01*
G37*
G36*
X56270671Y-49319030D02*
G01*
X56351777Y-49373223D01*
X56405970Y-49454329D01*
X56425000Y-49550000D01*
X56425000Y-50450000D01*
X56405970Y-50545671D01*
X56351777Y-50626777D01*
X56270671Y-50680970D01*
X56175000Y-50700000D01*
X55650000Y-50700000D01*
X55554329Y-50680970D01*
X55473223Y-50626777D01*
X55419030Y-50545671D01*
X55400000Y-50450000D01*
X55400000Y-49550000D01*
X55419030Y-49454329D01*
X55473223Y-49373223D01*
X55554329Y-49319030D01*
X55650000Y-49300000D01*
X56175000Y-49300000D01*
X56270671Y-49319030D01*
G37*
G36*
X5373513Y-46444208D02*
G01*
X5612293Y-46521793D01*
X5835998Y-46635776D01*
X6039117Y-46783350D01*
X6216650Y-46960883D01*
X6364224Y-47164002D01*
X6478207Y-47387707D01*
X6555792Y-47626487D01*
X6595068Y-47874465D01*
X6595068Y-48125535D01*
X6555792Y-48373513D01*
X6478207Y-48612293D01*
X6364224Y-48835998D01*
X6216650Y-49039117D01*
X6039117Y-49216650D01*
X5835998Y-49364224D01*
X5612293Y-49478207D01*
X5373513Y-49555792D01*
X5125535Y-49595068D01*
X4874465Y-49595068D01*
X4626487Y-49555792D01*
X4387707Y-49478207D01*
X4164002Y-49364224D01*
X3960883Y-49216650D01*
X3783350Y-49039117D01*
X3635776Y-48835998D01*
X3521793Y-48612293D01*
X3444208Y-48373513D01*
X3404932Y-48125535D01*
X3404932Y-47874465D01*
X3444208Y-47626487D01*
X3521793Y-47387707D01*
X3635776Y-47164002D01*
X3783350Y-46960883D01*
X3960883Y-46783350D01*
X4164002Y-46635776D01*
X4387707Y-46521793D01*
X4626487Y-46444208D01*
X4874465Y-46404932D01*
X5125535Y-46404932D01*
X5373513Y-46444208D01*
G37*
G36*
X45445671Y-44319030D02*
G01*
X45526777Y-44373223D01*
X45580970Y-44454329D01*
X45600000Y-44550000D01*
X45600000Y-45450000D01*
X45580970Y-45545671D01*
X45526777Y-45626777D01*
X45445671Y-45680970D01*
X45350000Y-45700000D01*
X44825000Y-45700000D01*
X44729329Y-45680970D01*
X44648223Y-45626777D01*
X44594030Y-45545671D01*
X44575000Y-45450000D01*
X44575000Y-44550000D01*
X44594030Y-44454329D01*
X44648223Y-44373223D01*
X44729329Y-44319030D01*
X44825000Y-44300000D01*
X45350000Y-44300000D01*
X45445671Y-44319030D01*
G37*
G36*
X47270671Y-44319030D02*
G01*
X47351777Y-44373223D01*
X47405970Y-44454329D01*
X47425000Y-44550000D01*
X47425000Y-45450000D01*
X47405970Y-45545671D01*
X47351777Y-45626777D01*
X47270671Y-45680970D01*
X47175000Y-45700000D01*
X46650000Y-45700000D01*
X46554329Y-45680970D01*
X46473223Y-45626777D01*
X46419030Y-45545671D01*
X46400000Y-45450000D01*
X46400000Y-44550000D01*
X46419030Y-44454329D01*
X46473223Y-44373223D01*
X46554329Y-44319030D01*
X46650000Y-44300000D01*
X47175000Y-44300000D01*
X47270671Y-44319030D01*
G37*
G36*
X61850000Y-39850000D02*
G01*
X60150000Y-39850000D01*
X60150000Y-38150000D01*
X61850000Y-38150000D01*
X61850000Y-39850000D01*
G37*
G36*
X63786742Y-38186601D02*
G01*
X63940687Y-38250367D01*
X64079234Y-38342941D01*
X64197059Y-38460766D01*
X64289633Y-38599313D01*
X64353399Y-38753258D01*
X64385907Y-38916685D01*
X64385907Y-39083315D01*
X64353399Y-39246742D01*
X64289633Y-39400687D01*
X64197059Y-39539234D01*
X64079234Y-39657059D01*
X63940687Y-39749633D01*
X63786742Y-39813399D01*
X63623315Y-39845907D01*
X63456685Y-39845907D01*
X63293258Y-39813399D01*
X63139313Y-39749633D01*
X63000766Y-39657059D01*
X62882941Y-39539234D01*
X62790367Y-39400687D01*
X62726601Y-39246742D01*
X62694093Y-39083315D01*
X62694093Y-38916685D01*
X62726601Y-38753258D01*
X62790367Y-38599313D01*
X62882941Y-38460766D01*
X63000766Y-38342941D01*
X63139313Y-38250367D01*
X63293258Y-38186601D01*
X63456685Y-38154093D01*
X63623315Y-38154093D01*
X63786742Y-38186601D01*
G37*
G36*
X41850000Y-34850000D02*
G01*
X40150000Y-34850000D01*
X40150000Y-33150000D01*
X41850000Y-33150000D01*
X41850000Y-34850000D01*
G37*
G36*
X43786742Y-33186601D02*
G01*
X43940687Y-33250367D01*
X44079234Y-33342941D01*
X44197059Y-33460766D01*
X44289633Y-33599313D01*
X44353399Y-33753258D01*
X44385907Y-33916685D01*
X44385907Y-34083315D01*
X44353399Y-34246742D01*
X44289633Y-34400687D01*
X44197059Y-34539234D01*
X44079234Y-34657059D01*
X43940687Y-34749633D01*
X43786742Y-34813399D01*
X43623315Y-34845907D01*
X43456685Y-34845907D01*
X43293258Y-34813399D01*
X43139313Y-34749633D01*
X43000766Y-34657059D01*
X42882941Y-34539234D01*
X42790367Y-34400687D01*
X42726601Y-34246742D01*
X42694093Y-34083315D01*
X42694093Y-33916685D01*
X42726601Y-33753258D01*
X42790367Y-33599313D01*
X42882941Y-33460766D01*
X43000766Y-33342941D01*
X43139313Y-33250367D01*
X43293258Y-33186601D01*
X43456685Y-33154093D01*
X43623315Y-33154093D01*
X43786742Y-33186601D01*
G37*
G36*
X46326742Y-33186601D02*
G01*
X46480687Y-33250367D01*
X46619234Y-33342941D01*
X46737059Y-33460766D01*
X46829633Y-33599313D01*
X46893399Y-33753258D01*
X46925907Y-33916685D01*
X46925907Y-34083315D01*
X46893399Y-34246742D01*
X46829633Y-34400687D01*
X46737059Y-34539234D01*
X46619234Y-34657059D01*
X46480687Y-34749633D01*
X46326742Y-34813399D01*
X46163315Y-34845907D01*
X45996685Y-34845907D01*
X45833258Y-34813399D01*
X45679313Y-34749633D01*
X45540766Y-34657059D01*
X45422941Y-34539234D01*
X45330367Y-34400687D01*
X45266601Y-34246742D01*
X45234093Y-34083315D01*
X45234093Y-33916685D01*
X45266601Y-33753258D01*
X45330367Y-33599313D01*
X45422941Y-33460766D01*
X45540766Y-33342941D01*
X45679313Y-33250367D01*
X45833258Y-33186601D01*
X45996685Y-33154093D01*
X46163315Y-33154093D01*
X46326742Y-33186601D01*
G37*
G36*
X48866742Y-33186601D02*
G01*
X49020687Y-33250367D01*
X49159234Y-33342941D01*
X49277059Y-33460766D01*
X49369633Y-33599313D01*
X49433399Y-33753258D01*
X49465907Y-33916685D01*
X49465907Y-34083315D01*
X49433399Y-34246742D01*
X49369633Y-34400687D01*
X49277059Y-34539234D01*
X49159234Y-34657059D01*
X49020687Y-34749633D01*
X48866742Y-34813399D01*
X48703315Y-34845907D01*
X48536685Y-34845907D01*
X48373258Y-34813399D01*
X48219313Y-34749633D01*
X48080766Y-34657059D01*
X47962941Y-34539234D01*
X47870367Y-34400687D01*
X47806601Y-34246742D01*
X47774093Y-34083315D01*
X47774093Y-33916685D01*
X47806601Y-33753258D01*
X47870367Y-33599313D01*
X47962941Y-33460766D01*
X48080766Y-33342941D01*
X48219313Y-33250367D01*
X48373258Y-33186601D01*
X48536685Y-33154093D01*
X48703315Y-33154093D01*
X48866742Y-33186601D01*
G37*
G36*
X42246742Y-24966601D02*
G01*
X42400687Y-25030367D01*
X42539234Y-25122941D01*
X42657059Y-25240766D01*
X42749633Y-25379313D01*
X42813399Y-25533258D01*
X42845907Y-25696685D01*
X42845907Y-25863315D01*
X42813399Y-26026742D01*
X42749633Y-26180687D01*
X42657059Y-26319234D01*
X42539234Y-26437059D01*
X42400687Y-26529633D01*
X42246742Y-26593399D01*
X42083315Y-26625907D01*
X41916685Y-26625907D01*
X41753258Y-26593399D01*
X41599313Y-26529633D01*
X41460766Y-26437059D01*
X41342941Y-26319234D01*
X41250367Y-26180687D01*
X41186601Y-26026742D01*
X41154093Y-25863315D01*
X41154093Y-25696685D01*
X41186601Y-25533258D01*
X41250367Y-25379313D01*
X41342941Y-25240766D01*
X41460766Y-25122941D01*
X41599313Y-25030367D01*
X41753258Y-24966601D01*
X41916685Y-24934093D01*
X42083315Y-24934093D01*
X42246742Y-24966601D01*
G37*
G36*
X65106742Y-24966601D02*
G01*
X65260687Y-25030367D01*
X65399234Y-25122941D01*
X65517059Y-25240766D01*
X65609633Y-25379313D01*
X65673399Y-25533258D01*
X65705907Y-25696685D01*
X65705907Y-25863315D01*
X65673399Y-26026742D01*
X65609633Y-26180687D01*
X65517059Y-26319234D01*
X65399234Y-26437059D01*
X65260687Y-26529633D01*
X65106742Y-26593399D01*
X64943315Y-26625907D01*
X64776685Y-26625907D01*
X64613258Y-26593399D01*
X64459313Y-26529633D01*
X64320766Y-26437059D01*
X64202941Y-26319234D01*
X64110367Y-26180687D01*
X64046601Y-26026742D01*
X64014093Y-25863315D01*
X64014093Y-25696685D01*
X64046601Y-25533258D01*
X64110367Y-25379313D01*
X64202941Y-25240766D01*
X64320766Y-25122941D01*
X64459313Y-25030367D01*
X64613258Y-24966601D01*
X64776685Y-24934093D01*
X64943315Y-24934093D01*
X65106742Y-24966601D01*
G37*
G36*
X42246742Y-22426601D02*
G01*
X42400687Y-22490367D01*
X42539234Y-22582941D01*
X42657059Y-22700766D01*
X42749633Y-22839313D01*
X42813399Y-22993258D01*
X42845907Y-23156685D01*
X42845907Y-23323315D01*
X42813399Y-23486742D01*
X42749633Y-23640687D01*
X42657059Y-23779234D01*
X42539234Y-23897059D01*
X42400687Y-23989633D01*
X42246742Y-24053399D01*
X42083315Y-24085907D01*
X41916685Y-24085907D01*
X41753258Y-24053399D01*
X41599313Y-23989633D01*
X41460766Y-23897059D01*
X41342941Y-23779234D01*
X41250367Y-23640687D01*
X41186601Y-23486742D01*
X41154093Y-23323315D01*
X41154093Y-23156685D01*
X41186601Y-22993258D01*
X41250367Y-22839313D01*
X41342941Y-22700766D01*
X41460766Y-22582941D01*
X41599313Y-22490367D01*
X41753258Y-22426601D01*
X41916685Y-22394093D01*
X42083315Y-22394093D01*
X42246742Y-22426601D01*
G37*
G36*
X65106742Y-22426601D02*
G01*
X65260687Y-22490367D01*
X65399234Y-22582941D01*
X65517059Y-22700766D01*
X65609633Y-22839313D01*
X65673399Y-22993258D01*
X65705907Y-23156685D01*
X65705907Y-23323315D01*
X65673399Y-23486742D01*
X65609633Y-23640687D01*
X65517059Y-23779234D01*
X65399234Y-23897059D01*
X65260687Y-23989633D01*
X65106742Y-24053399D01*
X64943315Y-24085907D01*
X64776685Y-24085907D01*
X64613258Y-24053399D01*
X64459313Y-23989633D01*
X64320766Y-23897059D01*
X64202941Y-23779234D01*
X64110367Y-23640687D01*
X64046601Y-23486742D01*
X64014093Y-23323315D01*
X64014093Y-23156685D01*
X64046601Y-22993258D01*
X64110367Y-22839313D01*
X64202941Y-22700766D01*
X64320766Y-22582941D01*
X64459313Y-22490367D01*
X64613258Y-22426601D01*
X64776685Y-22394093D01*
X64943315Y-22394093D01*
X65106742Y-22426601D01*
G37*
G36*
X42246742Y-19886601D02*
G01*
X42400687Y-19950367D01*
X42539234Y-20042941D01*
X42657059Y-20160766D01*
X42749633Y-20299313D01*
X42813399Y-20453258D01*
X42845907Y-20616685D01*
X42845907Y-20783315D01*
X42813399Y-20946742D01*
X42749633Y-21100687D01*
X42657059Y-21239234D01*
X42539234Y-21357059D01*
X42400687Y-21449633D01*
X42246742Y-21513399D01*
X42083315Y-21545907D01*
X41916685Y-21545907D01*
X41753258Y-21513399D01*
X41599313Y-21449633D01*
X41460766Y-21357059D01*
X41342941Y-21239234D01*
X41250367Y-21100687D01*
X41186601Y-20946742D01*
X41154093Y-20783315D01*
X41154093Y-20616685D01*
X41186601Y-20453258D01*
X41250367Y-20299313D01*
X41342941Y-20160766D01*
X41460766Y-20042941D01*
X41599313Y-19950367D01*
X41753258Y-19886601D01*
X41916685Y-19854093D01*
X42083315Y-19854093D01*
X42246742Y-19886601D01*
G37*
G36*
X65106742Y-19886601D02*
G01*
X65260687Y-19950367D01*
X65399234Y-20042941D01*
X65517059Y-20160766D01*
X65609633Y-20299313D01*
X65673399Y-20453258D01*
X65705907Y-20616685D01*
X65705907Y-20783315D01*
X65673399Y-20946742D01*
X65609633Y-21100687D01*
X65517059Y-21239234D01*
X65399234Y-21357059D01*
X65260687Y-21449633D01*
X65106742Y-21513399D01*
X64943315Y-21545907D01*
X64776685Y-21545907D01*
X64613258Y-21513399D01*
X64459313Y-21449633D01*
X64320766Y-21357059D01*
X64202941Y-21239234D01*
X64110367Y-21100687D01*
X64046601Y-20946742D01*
X64014093Y-20783315D01*
X64014093Y-20616685D01*
X64046601Y-20453258D01*
X64110367Y-20299313D01*
X64202941Y-20160766D01*
X64320766Y-20042941D01*
X64459313Y-19950367D01*
X64613258Y-19886601D01*
X64776685Y-19854093D01*
X64943315Y-19854093D01*
X65106742Y-19886601D01*
G37*
G36*
X42246742Y-17346601D02*
G01*
X42400687Y-17410367D01*
X42539234Y-17502941D01*
X42657059Y-17620766D01*
X42749633Y-17759313D01*
X42813399Y-17913258D01*
X42845907Y-18076685D01*
X42845907Y-18243315D01*
X42813399Y-18406742D01*
X42749633Y-18560687D01*
X42657059Y-18699234D01*
X42539234Y-18817059D01*
X42400687Y-18909633D01*
X42246742Y-18973399D01*
X42083315Y-19005907D01*
X41916685Y-19005907D01*
X41753258Y-18973399D01*
X41599313Y-18909633D01*
X41460766Y-18817059D01*
X41342941Y-18699234D01*
X41250367Y-18560687D01*
X41186601Y-18406742D01*
X41154093Y-18243315D01*
X41154093Y-18076685D01*
X41186601Y-17913258D01*
X41250367Y-17759313D01*
X41342941Y-17620766D01*
X41460766Y-17502941D01*
X41599313Y-17410367D01*
X41753258Y-17346601D01*
X41916685Y-17314093D01*
X42083315Y-17314093D01*
X42246742Y-17346601D01*
G37*
G36*
X65106742Y-17346601D02*
G01*
X65260687Y-17410367D01*
X65399234Y-17502941D01*
X65517059Y-17620766D01*
X65609633Y-17759313D01*
X65673399Y-17913258D01*
X65705907Y-18076685D01*
X65705907Y-18243315D01*
X65673399Y-18406742D01*
X65609633Y-18560687D01*
X65517059Y-18699234D01*
X65399234Y-18817059D01*
X65260687Y-18909633D01*
X65106742Y-18973399D01*
X64943315Y-19005907D01*
X64776685Y-19005907D01*
X64613258Y-18973399D01*
X64459313Y-18909633D01*
X64320766Y-18817059D01*
X64202941Y-18699234D01*
X64110367Y-18560687D01*
X64046601Y-18406742D01*
X64014093Y-18243315D01*
X64014093Y-18076685D01*
X64046601Y-17913258D01*
X64110367Y-17759313D01*
X64202941Y-17620766D01*
X64320766Y-17502941D01*
X64459313Y-17410367D01*
X64613258Y-17346601D01*
X64776685Y-17314093D01*
X64943315Y-17314093D01*
X65106742Y-17346601D01*
G37*
G36*
X42246742Y-14806601D02*
G01*
X42400687Y-14870367D01*
X42539234Y-14962941D01*
X42657059Y-15080766D01*
X42749633Y-15219313D01*
X42813399Y-15373258D01*
X42845907Y-15536685D01*
X42845907Y-15703315D01*
X42813399Y-15866742D01*
X42749633Y-16020687D01*
X42657059Y-16159234D01*
X42539234Y-16277059D01*
X42400687Y-16369633D01*
X42246742Y-16433399D01*
X42083315Y-16465907D01*
X41916685Y-16465907D01*
X41753258Y-16433399D01*
X41599313Y-16369633D01*
X41460766Y-16277059D01*
X41342941Y-16159234D01*
X41250367Y-16020687D01*
X41186601Y-15866742D01*
X41154093Y-15703315D01*
X41154093Y-15536685D01*
X41186601Y-15373258D01*
X41250367Y-15219313D01*
X41342941Y-15080766D01*
X41460766Y-14962941D01*
X41599313Y-14870367D01*
X41753258Y-14806601D01*
X41916685Y-14774093D01*
X42083315Y-14774093D01*
X42246742Y-14806601D01*
G37*
G36*
X65106742Y-14806601D02*
G01*
X65260687Y-14870367D01*
X65399234Y-14962941D01*
X65517059Y-15080766D01*
X65609633Y-15219313D01*
X65673399Y-15373258D01*
X65705907Y-15536685D01*
X65705907Y-15703315D01*
X65673399Y-15866742D01*
X65609633Y-16020687D01*
X65517059Y-16159234D01*
X65399234Y-16277059D01*
X65260687Y-16369633D01*
X65106742Y-16433399D01*
X64943315Y-16465907D01*
X64776685Y-16465907D01*
X64613258Y-16433399D01*
X64459313Y-16369633D01*
X64320766Y-16277059D01*
X64202941Y-16159234D01*
X64110367Y-16020687D01*
X64046601Y-15866742D01*
X64014093Y-15703315D01*
X64014093Y-15536685D01*
X64046601Y-15373258D01*
X64110367Y-15219313D01*
X64202941Y-15080766D01*
X64320766Y-14962941D01*
X64459313Y-14870367D01*
X64613258Y-14806601D01*
X64776685Y-14774093D01*
X64943315Y-14774093D01*
X65106742Y-14806601D01*
G37*
G36*
X42246742Y-12266601D02*
G01*
X42400687Y-12330367D01*
X42539234Y-12422941D01*
X42657059Y-12540766D01*
X42749633Y-12679313D01*
X42813399Y-12833258D01*
X42845907Y-12996685D01*
X42845907Y-13163315D01*
X42813399Y-13326742D01*
X42749633Y-13480687D01*
X42657059Y-13619234D01*
X42539234Y-13737059D01*
X42400687Y-13829633D01*
X42246742Y-13893399D01*
X42083315Y-13925907D01*
X41916685Y-13925907D01*
X41753258Y-13893399D01*
X41599313Y-13829633D01*
X41460766Y-13737059D01*
X41342941Y-13619234D01*
X41250367Y-13480687D01*
X41186601Y-13326742D01*
X41154093Y-13163315D01*
X41154093Y-12996685D01*
X41186601Y-12833258D01*
X41250367Y-12679313D01*
X41342941Y-12540766D01*
X41460766Y-12422941D01*
X41599313Y-12330367D01*
X41753258Y-12266601D01*
X41916685Y-12234093D01*
X42083315Y-12234093D01*
X42246742Y-12266601D01*
G37*
G36*
X65106742Y-12266601D02*
G01*
X65260687Y-12330367D01*
X65399234Y-12422941D01*
X65517059Y-12540766D01*
X65609633Y-12679313D01*
X65673399Y-12833258D01*
X65705907Y-12996685D01*
X65705907Y-13163315D01*
X65673399Y-13326742D01*
X65609633Y-13480687D01*
X65517059Y-13619234D01*
X65399234Y-13737059D01*
X65260687Y-13829633D01*
X65106742Y-13893399D01*
X64943315Y-13925907D01*
X64776685Y-13925907D01*
X64613258Y-13893399D01*
X64459313Y-13829633D01*
X64320766Y-13737059D01*
X64202941Y-13619234D01*
X64110367Y-13480687D01*
X64046601Y-13326742D01*
X64014093Y-13163315D01*
X64014093Y-12996685D01*
X64046601Y-12833258D01*
X64110367Y-12679313D01*
X64202941Y-12540766D01*
X64320766Y-12422941D01*
X64459313Y-12330367D01*
X64613258Y-12266601D01*
X64776685Y-12234093D01*
X64943315Y-12234093D01*
X65106742Y-12266601D01*
G37*
G36*
X42246742Y-9726601D02*
G01*
X42400687Y-9790367D01*
X42539234Y-9882941D01*
X42657059Y-10000766D01*
X42749633Y-10139313D01*
X42813399Y-10293258D01*
X42845907Y-10456685D01*
X42845907Y-10623315D01*
X42813399Y-10786742D01*
X42749633Y-10940687D01*
X42657059Y-11079234D01*
X42539234Y-11197059D01*
X42400687Y-11289633D01*
X42246742Y-11353399D01*
X42083315Y-11385907D01*
X41916685Y-11385907D01*
X41753258Y-11353399D01*
X41599313Y-11289633D01*
X41460766Y-11197059D01*
X41342941Y-11079234D01*
X41250367Y-10940687D01*
X41186601Y-10786742D01*
X41154093Y-10623315D01*
X41154093Y-10456685D01*
X41186601Y-10293258D01*
X41250367Y-10139313D01*
X41342941Y-10000766D01*
X41460766Y-9882941D01*
X41599313Y-9790367D01*
X41753258Y-9726601D01*
X41916685Y-9694093D01*
X42083315Y-9694093D01*
X42246742Y-9726601D01*
G37*
G36*
X65106742Y-9726601D02*
G01*
X65260687Y-9790367D01*
X65399234Y-9882941D01*
X65517059Y-10000766D01*
X65609633Y-10139313D01*
X65673399Y-10293258D01*
X65705907Y-10456685D01*
X65705907Y-10623315D01*
X65673399Y-10786742D01*
X65609633Y-10940687D01*
X65517059Y-11079234D01*
X65399234Y-11197059D01*
X65260687Y-11289633D01*
X65106742Y-11353399D01*
X64943315Y-11385907D01*
X64776685Y-11385907D01*
X64613258Y-11353399D01*
X64459313Y-11289633D01*
X64320766Y-11197059D01*
X64202941Y-11079234D01*
X64110367Y-10940687D01*
X64046601Y-10786742D01*
X64014093Y-10623315D01*
X64014093Y-10456685D01*
X64046601Y-10293258D01*
X64110367Y-10139313D01*
X64202941Y-10000766D01*
X64320766Y-9882941D01*
X64459313Y-9790367D01*
X64613258Y-9726601D01*
X64776685Y-9694093D01*
X64943315Y-9694093D01*
X65106742Y-9726601D01*
G37*
G36*
X42850000Y-8850000D02*
G01*
X41150000Y-8850000D01*
X41150000Y-7150000D01*
X42850000Y-7150000D01*
X42850000Y-8850000D01*
G37*
G36*
X65710000Y-8850000D02*
G01*
X64010000Y-8850000D01*
X64010000Y-7150000D01*
X65710000Y-7150000D01*
X65710000Y-8850000D01*
G37*
M02*
