%TF.GenerationSoftware,KiCad,Pcbnew,10.0.5*%
%TF.CreationDate,2026-07-30T06:09:36-06:00*%
%TF.ProjectId,esp32_cam_led_head_v0_4,65737033-325f-4636-916d-5f6c65645f68,rev?*%
%TF.SameCoordinates,Original*%
%TF.FileFunction,Legend,Top*%
%TF.FilePolarity,Positive*%
%FSLAX46Y46*%
G04 Gerber Fmt 4.6, Leading zero omitted, Abs format (unit mm)*
G04 Created by KiCad (PCBNEW 10.0.5) date 2026-07-30 06:09:36*
%MOMM*%
%LPD*%
G01*
G04 APERTURE LIST*
%ADD10C,0.120000*%
G04 APERTURE END LIST*
D10*
X9085715Y-30563855D02*
X9085715Y-31211474D01*
X9085715Y-31211474D02*
X9123810Y-31287664D01*
X9123810Y-31287664D02*
X9161905Y-31325760D01*
X9161905Y-31325760D02*
X9238096Y-31363855D01*
X9238096Y-31363855D02*
X9390477Y-31363855D01*
X9390477Y-31363855D02*
X9466667Y-31325760D01*
X9466667Y-31325760D02*
X9504762Y-31287664D01*
X9504762Y-31287664D02*
X9542858Y-31211474D01*
X9542858Y-31211474D02*
X9542858Y-30563855D01*
X9809524Y-30563855D02*
X10076191Y-31363855D01*
X10076191Y-31363855D02*
X10342857Y-30563855D01*
X10571428Y-31135283D02*
X10952381Y-31135283D01*
X10495238Y-31363855D02*
X10761905Y-30563855D01*
X10761905Y-30563855D02*
X11028571Y-31363855D01*
X8752381Y-42363855D02*
X8752381Y-41563855D01*
X8752381Y-41563855D02*
X9057143Y-41563855D01*
X9057143Y-41563855D02*
X9133333Y-41601950D01*
X9133333Y-41601950D02*
X9171428Y-41640045D01*
X9171428Y-41640045D02*
X9209524Y-41716236D01*
X9209524Y-41716236D02*
X9209524Y-41830521D01*
X9209524Y-41830521D02*
X9171428Y-41906712D01*
X9171428Y-41906712D02*
X9133333Y-41944807D01*
X9133333Y-41944807D02*
X9057143Y-41982902D01*
X9057143Y-41982902D02*
X8752381Y-41982902D01*
X9552381Y-42363855D02*
X9552381Y-41830521D01*
X9552381Y-41563855D02*
X9514285Y-41601950D01*
X9514285Y-41601950D02*
X9552381Y-41640045D01*
X9552381Y-41640045D02*
X9590476Y-41601950D01*
X9590476Y-41601950D02*
X9552381Y-41563855D01*
X9552381Y-41563855D02*
X9552381Y-41640045D01*
X9933333Y-41830521D02*
X9933333Y-42363855D01*
X9933333Y-41906712D02*
X9971428Y-41868617D01*
X9971428Y-41868617D02*
X10047618Y-41830521D01*
X10047618Y-41830521D02*
X10161904Y-41830521D01*
X10161904Y-41830521D02*
X10238095Y-41868617D01*
X10238095Y-41868617D02*
X10276190Y-41944807D01*
X10276190Y-41944807D02*
X10276190Y-42363855D01*
X11685714Y-42363855D02*
X11228571Y-42363855D01*
X11457143Y-42363855D02*
X11457143Y-41563855D01*
X11457143Y-41563855D02*
X11380952Y-41678140D01*
X11380952Y-41678140D02*
X11304762Y-41754331D01*
X11304762Y-41754331D02*
X11228571Y-41792426D01*
X14085714Y-20363855D02*
X13704762Y-20363855D01*
X13704762Y-20363855D02*
X13704762Y-19563855D01*
X14352381Y-19944807D02*
X14619047Y-19944807D01*
X14733333Y-20363855D02*
X14352381Y-20363855D01*
X14352381Y-20363855D02*
X14352381Y-19563855D01*
X14352381Y-19563855D02*
X14733333Y-19563855D01*
X15076191Y-20363855D02*
X15076191Y-19563855D01*
X15076191Y-19563855D02*
X15533334Y-20363855D01*
X15533334Y-20363855D02*
X15533334Y-19563855D01*
X15876190Y-20325760D02*
X15990476Y-20363855D01*
X15990476Y-20363855D02*
X16180952Y-20363855D01*
X16180952Y-20363855D02*
X16257143Y-20325760D01*
X16257143Y-20325760D02*
X16295238Y-20287664D01*
X16295238Y-20287664D02*
X16333333Y-20211474D01*
X16333333Y-20211474D02*
X16333333Y-20135283D01*
X16333333Y-20135283D02*
X16295238Y-20059093D01*
X16295238Y-20059093D02*
X16257143Y-20020998D01*
X16257143Y-20020998D02*
X16180952Y-19982902D01*
X16180952Y-19982902D02*
X16028571Y-19944807D01*
X16028571Y-19944807D02*
X15952381Y-19906712D01*
X15952381Y-19906712D02*
X15914286Y-19868617D01*
X15914286Y-19868617D02*
X15876190Y-19792426D01*
X15876190Y-19792426D02*
X15876190Y-19716236D01*
X15876190Y-19716236D02*
X15914286Y-19640045D01*
X15914286Y-19640045D02*
X15952381Y-19601950D01*
X15952381Y-19601950D02*
X16028571Y-19563855D01*
X16028571Y-19563855D02*
X16219048Y-19563855D01*
X16219048Y-19563855D02*
X16333333Y-19601950D01*
X19900000Y-31363855D02*
X19900000Y-30563855D01*
X20738095Y-31363855D02*
X20471428Y-30982902D01*
X20280952Y-31363855D02*
X20280952Y-30563855D01*
X20280952Y-30563855D02*
X20585714Y-30563855D01*
X20585714Y-30563855D02*
X20661904Y-30601950D01*
X20661904Y-30601950D02*
X20699999Y-30640045D01*
X20699999Y-30640045D02*
X20738095Y-30716236D01*
X20738095Y-30716236D02*
X20738095Y-30830521D01*
X20738095Y-30830521D02*
X20699999Y-30906712D01*
X20699999Y-30906712D02*
X20661904Y-30944807D01*
X20661904Y-30944807D02*
X20585714Y-30982902D01*
X20585714Y-30982902D02*
X20280952Y-30982902D01*
%TO.C,D1*%
X19040000Y-24455000D02*
X19040000Y-27545000D01*
X19040000Y-24455170D02*
G75*
G02*
X24590000Y-26000000I2560000J-1544830D01*
G01*
X24590000Y-26000000D02*
G75*
G02*
X19040000Y-27544830I-2990000J0D01*
G01*
X24100000Y-26000000D02*
G75*
G02*
X19100000Y-26000000I-2500000J0D01*
G01*
X19100000Y-26000000D02*
G75*
G02*
X24100000Y-26000000I2500000J0D01*
G01*
%TO.C,D2*%
X9840000Y-24455000D02*
X9840000Y-27545000D01*
X9840000Y-24455170D02*
G75*
G02*
X15390000Y-26000000I2560000J-1544830D01*
G01*
X15390000Y-26000000D02*
G75*
G02*
X9840000Y-27544830I-2990000J0D01*
G01*
X14900000Y-26000000D02*
G75*
G02*
X9900000Y-26000000I-2500000J0D01*
G01*
X9900000Y-26000000D02*
G75*
G02*
X14900000Y-26000000I2500000J0D01*
G01*
%TO.C,D4*%
X4539999Y-13855000D02*
X4539999Y-14320000D01*
X4539999Y-16480000D02*
X4539999Y-16945000D01*
X4539999Y-13855170D02*
G75*
G02*
X9887814Y-14319173I2560000J-1544830D01*
G01*
X4845315Y-14320000D02*
G75*
G02*
X9354478Y-14319571I2254684J-1080000D01*
G01*
X9354478Y-16480429D02*
G75*
G02*
X4845315Y-16480000I-2254479J1080429D01*
G01*
X9887814Y-16480827D02*
G75*
G02*
X4539999Y-16944830I-2787815J1080827D01*
G01*
%TO.C,C1*%
X16288748Y-35090000D02*
X17711252Y-35090000D01*
X16288748Y-36910000D02*
X17711252Y-36910000D01*
%TO.C,D3*%
X24339999Y-13855000D02*
X24339999Y-14320000D01*
X24339999Y-16480000D02*
X24339999Y-16945000D01*
X24339999Y-13855170D02*
G75*
G02*
X29687814Y-14319173I2560000J-1544830D01*
G01*
X24645315Y-14320000D02*
G75*
G02*
X29154478Y-14319571I2254684J-1080000D01*
G01*
X29154478Y-16480429D02*
G75*
G02*
X24645315Y-16480000I-2254479J1080429D01*
G01*
X29687814Y-16480827D02*
G75*
G02*
X24339999Y-16944830I-2787815J1080827D01*
G01*
%TO.C,J1*%
X7290000Y-45330000D02*
X7290000Y-47380000D01*
X7290000Y-49200000D02*
X7290000Y-49500000D01*
X7290000Y-49500000D02*
X8090000Y-49500000D01*
X8060000Y-45330000D02*
X7290000Y-45330000D01*
X8060000Y-45680000D02*
X8060000Y-45330000D01*
X8090000Y-49500000D02*
X8090000Y-50800000D01*
X8090000Y-50800000D02*
X25910000Y-50800000D01*
X10040000Y-45090000D02*
X10040000Y-45680000D01*
X10040000Y-45680000D02*
X8060000Y-45680000D01*
X25910000Y-49500000D02*
X26710000Y-49500000D01*
X25910000Y-50800000D02*
X25910000Y-49500000D01*
X25940000Y-45330000D02*
X25940000Y-45680000D01*
X25940000Y-45680000D02*
X23960000Y-45680000D01*
X26710000Y-45330000D02*
X25940000Y-45330000D01*
X26710000Y-47380000D02*
X26710000Y-45330000D01*
X26710000Y-49500000D02*
X26710000Y-49200000D01*
%TO.C,C2*%
X16738748Y-39065000D02*
X17261252Y-39065000D01*
X16738748Y-40535000D02*
X17261252Y-40535000D01*
%TD*%
M02*
