%TF.GenerationSoftware,KiCad,Pcbnew,10.0.5*%
%TF.CreationDate,2026-07-30T11:09:06-06:00*%
%TF.ProjectId,esp32_cam_led_head_v0_6,65737033-325f-4636-916d-5f6c65645f68,rev?*%
%TF.SameCoordinates,Original*%
%TF.FileFunction,Copper,L2,Bot*%
%TF.FilePolarity,Positive*%
%FSLAX46Y46*%
G04 Gerber Fmt 4.6, Leading zero omitted, Abs format (unit mm)*
G04 Created by KiCad (PCBNEW 10.0.5) date 2026-07-30 11:09:06*
%MOMM*%
%LPD*%
G01*
G04 APERTURE LIST*
G04 Aperture macros list*
%AMRoundRect*
0 Rectangle with rounded corners*
0 $1 Rounding radius*
0 $2 $3 $4 $5 $6 $7 $8 $9 X,Y pos of 4 corners*
0 Add a 4 corners polygon primitive as box body*
4,1,4,$2,$3,$4,$5,$6,$7,$8,$9,$2,$3,0*
0 Add four circle primitives for the rounded corners*
1,1,$1+$1,$2,$3*
1,1,$1+$1,$4,$5*
1,1,$1+$1,$6,$7*
1,1,$1+$1,$8,$9*
0 Add four rect primitives between the rounded corners*
20,1,$1+$1,$2,$3,$4,$5,0*
20,1,$1+$1,$4,$5,$6,$7,0*
20,1,$1+$1,$6,$7,$8,$9,0*
20,1,$1+$1,$8,$9,$2,$3,0*%
G04 Aperture macros list end*
%TA.AperFunction,ComponentPad*%
%ADD10R,1.800000X1.800000*%
%TD*%
%TA.AperFunction,ComponentPad*%
%ADD11C,1.800000*%
%TD*%
%TA.AperFunction,ComponentPad*%
%ADD12RoundRect,0.250000X0.625000X-0.350000X0.625000X0.350000X-0.625000X0.350000X-0.625000X-0.350000X0*%
%TD*%
%TA.AperFunction,ComponentPad*%
%ADD13O,1.750000X1.200000*%
%TD*%
%TA.AperFunction,ViaPad*%
%ADD14C,0.800000*%
%TD*%
%TA.AperFunction,Conductor*%
%ADD15C,0.300000*%
%TD*%
%TA.AperFunction,Conductor*%
%ADD16C,0.220000*%
%TD*%
%TA.AperFunction,Conductor*%
%ADD17C,0.350000*%
%TD*%
%TA.AperFunction,Conductor*%
%ADD18C,0.200000*%
%TD*%
G04 APERTURE END LIST*
D10*
%TO.P,D2,1*%
%TO.N,UVA_NEG*%
X11130000Y-26000000D03*
D11*
%TO.P,D2,2*%
%TO.N,UVA_ANODE*%
X13670000Y-26000000D03*
%TD*%
D10*
%TO.P,D1,1*%
%TO.N,IR_NEG*%
X20330000Y-26000000D03*
D11*
%TO.P,D1,2*%
%TO.N,IR_ANODE*%
X22870000Y-26000000D03*
%TD*%
D10*
%TO.P,D4,1*%
%TO.N,+5V_LED*%
X3861499Y-15400000D03*
D11*
%TO.P,D4,2*%
%TO.N,SK6812_1_TO_2*%
X6020499Y-15400000D03*
%TO.P,D4,3*%
%TO.N,GND*%
X8179499Y-15400000D03*
%TO.P,D4,4*%
%TO.N,N/C*%
X10338499Y-15400000D03*
%TD*%
D10*
%TO.P,D3,1*%
%TO.N,+5V_LED*%
X23661499Y-15400000D03*
D11*
%TO.P,D3,2*%
%TO.N,SK6812_DIN_1*%
X25820499Y-15400000D03*
%TO.P,D3,3*%
%TO.N,GND*%
X27979499Y-15400000D03*
%TO.P,D3,4*%
%TO.N,SK6812_1_TO_2*%
X30138499Y-15400000D03*
%TD*%
D12*
%TO.P,J2,1*%
%TO.N,GND*%
X17000000Y-66000000D03*
D13*
%TO.P,J2,2*%
%TO.N,+5V_LED*%
X17000000Y-64000000D03*
%TO.P,J2,3*%
%TO.N,GLASS_SDA*%
X17000000Y-62000000D03*
%TO.P,J2,4*%
%TO.N,GLASS_SCL*%
X17000000Y-60000000D03*
%TD*%
D14*
%TO.N,GND*%
X17800000Y-37200000D03*
X15500000Y-50400000D03*
X14500000Y-42600000D03*
X15500000Y-42600000D03*
X17900000Y-38400000D03*
%TO.N,+5V_LED*%
X15500000Y-34200000D03*
%TO.N,IR_ANODE*%
X18500000Y-42200000D03*
%TO.N,SK6812_DIN_1*%
X16500000Y-44000000D03*
%TO.N,GLASS_SDA*%
X17500000Y-50800000D03*
%TD*%
%TO.N,GND*%
D15*
X14500000Y-42600000D02*
X15500000Y-42600000D01*
D16*
X15500000Y-50400000D02*
X11000000Y-50400000D01*
D15*
X15500000Y-42600000D02*
X15500000Y-46500000D01*
X33000000Y-12200000D02*
X27980000Y-12200000D01*
X15500000Y-46500000D02*
X33000000Y-46500000D01*
X14000000Y-42600000D02*
X14000000Y-36000000D01*
X17800000Y-37200000D02*
X17900000Y-36000000D01*
X17800000Y-37200000D02*
X17900000Y-38400000D01*
X14000000Y-36000000D02*
X17900000Y-36000000D01*
X8180000Y-12200000D02*
X8179499Y-15400000D01*
D16*
X11000000Y-66000000D02*
X17000000Y-66000000D01*
D15*
X1200000Y-12200000D02*
X8180000Y-12200000D01*
X27980000Y-12200000D02*
X27979499Y-15400000D01*
X33000000Y-46500000D02*
X33000000Y-12200000D01*
X17900000Y-36000000D02*
X1200000Y-36000000D01*
D16*
X11000000Y-50400000D02*
X11000000Y-66000000D01*
D15*
X17900000Y-36000000D02*
X17800000Y-37200000D01*
X14500000Y-42600000D02*
X14000000Y-42600000D01*
X1200000Y-36000000D02*
X1200000Y-12200000D01*
%TO.N,+5V_LED*%
D17*
X3200000Y-34200000D02*
X3200000Y-18200000D01*
X15500000Y-34200000D02*
X3200000Y-34200000D01*
X3200000Y-18200000D02*
X3861499Y-15400000D01*
%TO.N,IR_ANODE*%
D16*
X26000000Y-26000000D02*
X22870000Y-26000000D01*
X26000000Y-42200000D02*
X26000000Y-26000000D01*
X18500000Y-42200000D02*
X26000000Y-42200000D01*
%TO.N,SK6812_DIN_1*%
D18*
X16500000Y-44000000D02*
X31500000Y-44000000D01*
X25820000Y-18000000D02*
X25820499Y-15400000D01*
X31500000Y-44000000D02*
X31500000Y-18000000D01*
X31500000Y-18000000D02*
X25820000Y-18000000D01*
%TO.N,GLASS_SDA*%
X17500000Y-50800000D02*
X20000000Y-50800000D01*
X20000000Y-50800000D02*
X20000000Y-62000000D01*
X20000000Y-62000000D02*
X17000000Y-62000000D01*
%TD*%
M02*
