%TF.GenerationSoftware,KiCad,Pcbnew,10.0.5*%
%TF.CreationDate,2026-07-30T11:09:08-06:00*%
%TF.ProjectId,esp32_cam_led_head_v0_6,65737033-325f-4636-916d-5f6c65645f68,rev?*%
%TF.SameCoordinates,Original*%
%TF.FileFunction,Drillmap*%
%TF.FilePolarity,Positive*%
%FSLAX45Y45*%
G04 Gerber Fmt 4.5, Leading zero omitted, Abs format (unit mm)*
G04 Created by KiCad (PCBNEW 10.0.5) date 2026-07-30 11:09:08*
%MOMM*%
%LPD*%
G01*
G04 APERTURE LIST*
%ADD10C,0.120000*%
%ADD11C,0.200000*%
%ADD12C,0.100000*%
G04 APERTURE END LIST*
D10*
X0Y-300000D02*
X300000Y0D01*
X0Y-7200000D02*
X0Y-300000D01*
X300000Y0D02*
X3100000Y0D01*
X2180000Y-1400000D02*
G75*
G02*
X1220000Y-1400000I-480000J0D01*
G01*
X1220000Y-1400000D02*
G75*
G02*
X2180000Y-1400000I480000J0D01*
G01*
X3100000Y0D02*
X3400000Y-300000D01*
X3400000Y-300000D02*
X3400000Y-7200000D01*
X3400000Y-7200000D02*
X0Y-7200000D01*
D11*
D12*
X1430000Y-4240000D02*
X1470000Y-4280000D01*
X1470000Y-4240000D02*
X1430000Y-4280000D01*
X1530000Y-3400000D02*
X1570000Y-3440000D01*
X1570000Y-3400000D02*
X1530000Y-3440000D01*
X1530000Y-4240000D02*
X1570000Y-4280000D01*
X1570000Y-4240000D02*
X1530000Y-4280000D01*
X1530000Y-5020000D02*
X1570000Y-5060000D01*
X1570000Y-5020000D02*
X1530000Y-5060000D01*
X1630000Y-4380000D02*
X1670000Y-4420000D01*
X1670000Y-4380000D02*
X1630000Y-4420000D01*
X1730000Y-5060000D02*
X1770000Y-5100000D01*
X1770000Y-5060000D02*
X1730000Y-5100000D01*
X1760000Y-3700000D02*
X1800000Y-3740000D01*
X1800000Y-3700000D02*
X1760000Y-3740000D01*
X1770000Y-3820000D02*
X1810000Y-3860000D01*
X1810000Y-3820000D02*
X1770000Y-3860000D01*
X1830000Y-4200000D02*
X1870000Y-4240000D01*
X1870000Y-4200000D02*
X1830000Y-4240000D01*
X1737500Y-6000000D02*
G75*
G02*
X1662500Y-6000000I-37500J0D01*
G01*
X1662500Y-6000000D02*
G75*
G02*
X1737500Y-6000000I37500J0D01*
G01*
X1737500Y-6200000D02*
G75*
G02*
X1662500Y-6200000I-37500J0D01*
G01*
X1662500Y-6200000D02*
G75*
G02*
X1737500Y-6200000I37500J0D01*
G01*
X1737500Y-6400000D02*
G75*
G02*
X1662500Y-6400000I-37500J0D01*
G01*
X1662500Y-6400000D02*
G75*
G02*
X1737500Y-6400000I37500J0D01*
G01*
X1737500Y-6600000D02*
G75*
G02*
X1662500Y-6600000I-37500J0D01*
G01*
X1662500Y-6600000D02*
G75*
G02*
X1737500Y-6600000I37500J0D01*
G01*
X386150Y-1495000D02*
X386150Y-1585000D01*
X341150Y-1540000D02*
X431150Y-1540000D01*
X602050Y-1495000D02*
X602050Y-1585000D01*
X557050Y-1540000D02*
X647050Y-1540000D01*
X817950Y-1495000D02*
X817950Y-1585000D01*
X772950Y-1540000D02*
X862950Y-1540000D01*
X1033850Y-1495000D02*
X1033850Y-1585000D01*
X988850Y-1540000D02*
X1078850Y-1540000D01*
X1113000Y-2555000D02*
X1113000Y-2645000D01*
X1068000Y-2600000D02*
X1158000Y-2600000D01*
X1367000Y-2555000D02*
X1367000Y-2645000D01*
X1322000Y-2600000D02*
X1412000Y-2600000D01*
X2033000Y-2555000D02*
X2033000Y-2645000D01*
X1988000Y-2600000D02*
X2078000Y-2600000D01*
X2287000Y-2555000D02*
X2287000Y-2645000D01*
X2242000Y-2600000D02*
X2332000Y-2600000D01*
X2366150Y-1495000D02*
X2366150Y-1585000D01*
X2321150Y-1540000D02*
X2411150Y-1540000D01*
X2582050Y-1495000D02*
X2582050Y-1585000D01*
X2537050Y-1540000D02*
X2627050Y-1540000D01*
X2797950Y-1495000D02*
X2797950Y-1585000D01*
X2752950Y-1540000D02*
X2842950Y-1540000D01*
X3013850Y-1495000D02*
X3013850Y-1585000D01*
X2968850Y-1540000D02*
X3058850Y-1540000D01*
D11*
X254777Y-7517484D02*
X254777Y-7317484D01*
X254777Y-7317484D02*
X302396Y-7317484D01*
X302396Y-7317484D02*
X330967Y-7327008D01*
X330967Y-7327008D02*
X350015Y-7346055D01*
X350015Y-7346055D02*
X359539Y-7365103D01*
X359539Y-7365103D02*
X369062Y-7403198D01*
X369062Y-7403198D02*
X369062Y-7431769D01*
X369062Y-7431769D02*
X359539Y-7469865D01*
X359539Y-7469865D02*
X350015Y-7488912D01*
X350015Y-7488912D02*
X330967Y-7507960D01*
X330967Y-7507960D02*
X302396Y-7517484D01*
X302396Y-7517484D02*
X254777Y-7517484D01*
X454777Y-7517484D02*
X454777Y-7384150D01*
X454777Y-7422246D02*
X464301Y-7403198D01*
X464301Y-7403198D02*
X473824Y-7393674D01*
X473824Y-7393674D02*
X492872Y-7384150D01*
X492872Y-7384150D02*
X511920Y-7384150D01*
X578586Y-7517484D02*
X578586Y-7384150D01*
X578586Y-7317484D02*
X569063Y-7327008D01*
X569063Y-7327008D02*
X578586Y-7336531D01*
X578586Y-7336531D02*
X588110Y-7327008D01*
X588110Y-7327008D02*
X578586Y-7317484D01*
X578586Y-7317484D02*
X578586Y-7336531D01*
X702396Y-7517484D02*
X683348Y-7507960D01*
X683348Y-7507960D02*
X673824Y-7488912D01*
X673824Y-7488912D02*
X673824Y-7317484D01*
X807158Y-7517484D02*
X788110Y-7507960D01*
X788110Y-7507960D02*
X778586Y-7488912D01*
X778586Y-7488912D02*
X778586Y-7317484D01*
X1035729Y-7517484D02*
X1035729Y-7317484D01*
X1035729Y-7317484D02*
X1102396Y-7460341D01*
X1102396Y-7460341D02*
X1169063Y-7317484D01*
X1169063Y-7317484D02*
X1169063Y-7517484D01*
X1350015Y-7517484D02*
X1350015Y-7412722D01*
X1350015Y-7412722D02*
X1340491Y-7393674D01*
X1340491Y-7393674D02*
X1321444Y-7384150D01*
X1321444Y-7384150D02*
X1283348Y-7384150D01*
X1283348Y-7384150D02*
X1264301Y-7393674D01*
X1350015Y-7507960D02*
X1330967Y-7517484D01*
X1330967Y-7517484D02*
X1283348Y-7517484D01*
X1283348Y-7517484D02*
X1264301Y-7507960D01*
X1264301Y-7507960D02*
X1254777Y-7488912D01*
X1254777Y-7488912D02*
X1254777Y-7469865D01*
X1254777Y-7469865D02*
X1264301Y-7450817D01*
X1264301Y-7450817D02*
X1283348Y-7441293D01*
X1283348Y-7441293D02*
X1330967Y-7441293D01*
X1330967Y-7441293D02*
X1350015Y-7431769D01*
X1445253Y-7384150D02*
X1445253Y-7584150D01*
X1445253Y-7393674D02*
X1464301Y-7384150D01*
X1464301Y-7384150D02*
X1502396Y-7384150D01*
X1502396Y-7384150D02*
X1521443Y-7393674D01*
X1521443Y-7393674D02*
X1530967Y-7403198D01*
X1530967Y-7403198D02*
X1540491Y-7422246D01*
X1540491Y-7422246D02*
X1540491Y-7479388D01*
X1540491Y-7479388D02*
X1530967Y-7498436D01*
X1530967Y-7498436D02*
X1521443Y-7507960D01*
X1521443Y-7507960D02*
X1502396Y-7517484D01*
X1502396Y-7517484D02*
X1464301Y-7517484D01*
X1464301Y-7517484D02*
X1445253Y-7507960D01*
X1626205Y-7498436D02*
X1635729Y-7507960D01*
X1635729Y-7507960D02*
X1626205Y-7517484D01*
X1626205Y-7517484D02*
X1616682Y-7507960D01*
X1616682Y-7507960D02*
X1626205Y-7498436D01*
X1626205Y-7498436D02*
X1626205Y-7517484D01*
X1626205Y-7393674D02*
X1635729Y-7403198D01*
X1635729Y-7403198D02*
X1626205Y-7412722D01*
X1626205Y-7412722D02*
X1616682Y-7403198D01*
X1616682Y-7403198D02*
X1626205Y-7393674D01*
X1626205Y-7393674D02*
X1626205Y-7412722D01*
D12*
X-46000Y-7826000D02*
X-6000Y-7866000D01*
X-6000Y-7826000D02*
X-46000Y-7866000D01*
D11*
X292872Y-7737484D02*
X311920Y-7737484D01*
X311920Y-7737484D02*
X330967Y-7747008D01*
X330967Y-7747008D02*
X340491Y-7756531D01*
X340491Y-7756531D02*
X350015Y-7775579D01*
X350015Y-7775579D02*
X359539Y-7813674D01*
X359539Y-7813674D02*
X359539Y-7861293D01*
X359539Y-7861293D02*
X350015Y-7899388D01*
X350015Y-7899388D02*
X340491Y-7918436D01*
X340491Y-7918436D02*
X330967Y-7927960D01*
X330967Y-7927960D02*
X311920Y-7937484D01*
X311920Y-7937484D02*
X292872Y-7937484D01*
X292872Y-7937484D02*
X273824Y-7927960D01*
X273824Y-7927960D02*
X264301Y-7918436D01*
X264301Y-7918436D02*
X254777Y-7899388D01*
X254777Y-7899388D02*
X245253Y-7861293D01*
X245253Y-7861293D02*
X245253Y-7813674D01*
X245253Y-7813674D02*
X254777Y-7775579D01*
X254777Y-7775579D02*
X264301Y-7756531D01*
X264301Y-7756531D02*
X273824Y-7747008D01*
X273824Y-7747008D02*
X292872Y-7737484D01*
X445253Y-7918436D02*
X454777Y-7927960D01*
X454777Y-7927960D02*
X445253Y-7937484D01*
X445253Y-7937484D02*
X435729Y-7927960D01*
X435729Y-7927960D02*
X445253Y-7918436D01*
X445253Y-7918436D02*
X445253Y-7937484D01*
X626205Y-7804150D02*
X626205Y-7937484D01*
X578586Y-7727960D02*
X530967Y-7870817D01*
X530967Y-7870817D02*
X654777Y-7870817D01*
X769062Y-7737484D02*
X788110Y-7737484D01*
X788110Y-7737484D02*
X807158Y-7747008D01*
X807158Y-7747008D02*
X816682Y-7756531D01*
X816682Y-7756531D02*
X826205Y-7775579D01*
X826205Y-7775579D02*
X835729Y-7813674D01*
X835729Y-7813674D02*
X835729Y-7861293D01*
X835729Y-7861293D02*
X826205Y-7899388D01*
X826205Y-7899388D02*
X816682Y-7918436D01*
X816682Y-7918436D02*
X807158Y-7927960D01*
X807158Y-7927960D02*
X788110Y-7937484D01*
X788110Y-7937484D02*
X769062Y-7937484D01*
X769062Y-7937484D02*
X750015Y-7927960D01*
X750015Y-7927960D02*
X740491Y-7918436D01*
X740491Y-7918436D02*
X730967Y-7899388D01*
X730967Y-7899388D02*
X721443Y-7861293D01*
X721443Y-7861293D02*
X721443Y-7813674D01*
X721443Y-7813674D02*
X730967Y-7775579D01*
X730967Y-7775579D02*
X740491Y-7756531D01*
X740491Y-7756531D02*
X750015Y-7747008D01*
X750015Y-7747008D02*
X769062Y-7737484D01*
X959539Y-7737484D02*
X978586Y-7737484D01*
X978586Y-7737484D02*
X997634Y-7747008D01*
X997634Y-7747008D02*
X1007158Y-7756531D01*
X1007158Y-7756531D02*
X1016682Y-7775579D01*
X1016682Y-7775579D02*
X1026205Y-7813674D01*
X1026205Y-7813674D02*
X1026205Y-7861293D01*
X1026205Y-7861293D02*
X1016682Y-7899388D01*
X1016682Y-7899388D02*
X1007158Y-7918436D01*
X1007158Y-7918436D02*
X997634Y-7927960D01*
X997634Y-7927960D02*
X978586Y-7937484D01*
X978586Y-7937484D02*
X959539Y-7937484D01*
X959539Y-7937484D02*
X940491Y-7927960D01*
X940491Y-7927960D02*
X930967Y-7918436D01*
X930967Y-7918436D02*
X921443Y-7899388D01*
X921443Y-7899388D02*
X911920Y-7861293D01*
X911920Y-7861293D02*
X911920Y-7813674D01*
X911920Y-7813674D02*
X921443Y-7775579D01*
X921443Y-7775579D02*
X930967Y-7756531D01*
X930967Y-7756531D02*
X940491Y-7747008D01*
X940491Y-7747008D02*
X959539Y-7737484D01*
X1111920Y-7937484D02*
X1111920Y-7804150D01*
X1111920Y-7823198D02*
X1121444Y-7813674D01*
X1121444Y-7813674D02*
X1140491Y-7804150D01*
X1140491Y-7804150D02*
X1169063Y-7804150D01*
X1169063Y-7804150D02*
X1188110Y-7813674D01*
X1188110Y-7813674D02*
X1197634Y-7832722D01*
X1197634Y-7832722D02*
X1197634Y-7937484D01*
X1197634Y-7832722D02*
X1207158Y-7813674D01*
X1207158Y-7813674D02*
X1226205Y-7804150D01*
X1226205Y-7804150D02*
X1254777Y-7804150D01*
X1254777Y-7804150D02*
X1273825Y-7813674D01*
X1273825Y-7813674D02*
X1283348Y-7832722D01*
X1283348Y-7832722D02*
X1283348Y-7937484D01*
X1378586Y-7937484D02*
X1378586Y-7804150D01*
X1378586Y-7823198D02*
X1388110Y-7813674D01*
X1388110Y-7813674D02*
X1407158Y-7804150D01*
X1407158Y-7804150D02*
X1435729Y-7804150D01*
X1435729Y-7804150D02*
X1454777Y-7813674D01*
X1454777Y-7813674D02*
X1464301Y-7832722D01*
X1464301Y-7832722D02*
X1464301Y-7937484D01*
X1464301Y-7832722D02*
X1473824Y-7813674D01*
X1473824Y-7813674D02*
X1492872Y-7804150D01*
X1492872Y-7804150D02*
X1521443Y-7804150D01*
X1521443Y-7804150D02*
X1540491Y-7813674D01*
X1540491Y-7813674D02*
X1550015Y-7832722D01*
X1550015Y-7832722D02*
X1550015Y-7937484D01*
X1940491Y-7727960D02*
X1769063Y-7985103D01*
X2197634Y-7737484D02*
X2216682Y-7737484D01*
X2216682Y-7737484D02*
X2235729Y-7747008D01*
X2235729Y-7747008D02*
X2245253Y-7756531D01*
X2245253Y-7756531D02*
X2254777Y-7775579D01*
X2254777Y-7775579D02*
X2264301Y-7813674D01*
X2264301Y-7813674D02*
X2264301Y-7861293D01*
X2264301Y-7861293D02*
X2254777Y-7899388D01*
X2254777Y-7899388D02*
X2245253Y-7918436D01*
X2245253Y-7918436D02*
X2235729Y-7927960D01*
X2235729Y-7927960D02*
X2216682Y-7937484D01*
X2216682Y-7937484D02*
X2197634Y-7937484D01*
X2197634Y-7937484D02*
X2178587Y-7927960D01*
X2178587Y-7927960D02*
X2169063Y-7918436D01*
X2169063Y-7918436D02*
X2159539Y-7899388D01*
X2159539Y-7899388D02*
X2150015Y-7861293D01*
X2150015Y-7861293D02*
X2150015Y-7813674D01*
X2150015Y-7813674D02*
X2159539Y-7775579D01*
X2159539Y-7775579D02*
X2169063Y-7756531D01*
X2169063Y-7756531D02*
X2178587Y-7747008D01*
X2178587Y-7747008D02*
X2197634Y-7737484D01*
X2350015Y-7918436D02*
X2359539Y-7927960D01*
X2359539Y-7927960D02*
X2350015Y-7937484D01*
X2350015Y-7937484D02*
X2340491Y-7927960D01*
X2340491Y-7927960D02*
X2350015Y-7918436D01*
X2350015Y-7918436D02*
X2350015Y-7937484D01*
X2483348Y-7737484D02*
X2502396Y-7737484D01*
X2502396Y-7737484D02*
X2521444Y-7747008D01*
X2521444Y-7747008D02*
X2530968Y-7756531D01*
X2530968Y-7756531D02*
X2540491Y-7775579D01*
X2540491Y-7775579D02*
X2550015Y-7813674D01*
X2550015Y-7813674D02*
X2550015Y-7861293D01*
X2550015Y-7861293D02*
X2540491Y-7899388D01*
X2540491Y-7899388D02*
X2530968Y-7918436D01*
X2530968Y-7918436D02*
X2521444Y-7927960D01*
X2521444Y-7927960D02*
X2502396Y-7937484D01*
X2502396Y-7937484D02*
X2483348Y-7937484D01*
X2483348Y-7937484D02*
X2464301Y-7927960D01*
X2464301Y-7927960D02*
X2454777Y-7918436D01*
X2454777Y-7918436D02*
X2445253Y-7899388D01*
X2445253Y-7899388D02*
X2435729Y-7861293D01*
X2435729Y-7861293D02*
X2435729Y-7813674D01*
X2435729Y-7813674D02*
X2445253Y-7775579D01*
X2445253Y-7775579D02*
X2454777Y-7756531D01*
X2454777Y-7756531D02*
X2464301Y-7747008D01*
X2464301Y-7747008D02*
X2483348Y-7737484D01*
X2740491Y-7937484D02*
X2626206Y-7937484D01*
X2683348Y-7937484D02*
X2683348Y-7737484D01*
X2683348Y-7737484D02*
X2664301Y-7766055D01*
X2664301Y-7766055D02*
X2645253Y-7785103D01*
X2645253Y-7785103D02*
X2626206Y-7794627D01*
X2921444Y-7737484D02*
X2826206Y-7737484D01*
X2826206Y-7737484D02*
X2816682Y-7832722D01*
X2816682Y-7832722D02*
X2826206Y-7823198D01*
X2826206Y-7823198D02*
X2845253Y-7813674D01*
X2845253Y-7813674D02*
X2892872Y-7813674D01*
X2892872Y-7813674D02*
X2911920Y-7823198D01*
X2911920Y-7823198D02*
X2921444Y-7832722D01*
X2921444Y-7832722D02*
X2930967Y-7851769D01*
X2930967Y-7851769D02*
X2930967Y-7899388D01*
X2930967Y-7899388D02*
X2921444Y-7918436D01*
X2921444Y-7918436D02*
X2911920Y-7927960D01*
X2911920Y-7927960D02*
X2892872Y-7937484D01*
X2892872Y-7937484D02*
X2845253Y-7937484D01*
X2845253Y-7937484D02*
X2826206Y-7927960D01*
X2826206Y-7927960D02*
X2816682Y-7918436D01*
X2997634Y-7737484D02*
X3130967Y-7737484D01*
X3130967Y-7737484D02*
X3045253Y-7937484D01*
X3197634Y-7737484D02*
X3197634Y-7775579D01*
X3273825Y-7737484D02*
X3273825Y-7775579D01*
X3569063Y-8013674D02*
X3559539Y-8004150D01*
X3559539Y-8004150D02*
X3540491Y-7975579D01*
X3540491Y-7975579D02*
X3530968Y-7956531D01*
X3530968Y-7956531D02*
X3521444Y-7927960D01*
X3521444Y-7927960D02*
X3511920Y-7880341D01*
X3511920Y-7880341D02*
X3511920Y-7842246D01*
X3511920Y-7842246D02*
X3521444Y-7794627D01*
X3521444Y-7794627D02*
X3530968Y-7766055D01*
X3530968Y-7766055D02*
X3540491Y-7747008D01*
X3540491Y-7747008D02*
X3559539Y-7718436D01*
X3559539Y-7718436D02*
X3569063Y-7708912D01*
X3654777Y-7937484D02*
X3692872Y-7937484D01*
X3692872Y-7937484D02*
X3711920Y-7927960D01*
X3711920Y-7927960D02*
X3721444Y-7918436D01*
X3721444Y-7918436D02*
X3740491Y-7889865D01*
X3740491Y-7889865D02*
X3750015Y-7851769D01*
X3750015Y-7851769D02*
X3750015Y-7775579D01*
X3750015Y-7775579D02*
X3740491Y-7756531D01*
X3740491Y-7756531D02*
X3730968Y-7747008D01*
X3730968Y-7747008D02*
X3711920Y-7737484D01*
X3711920Y-7737484D02*
X3673825Y-7737484D01*
X3673825Y-7737484D02*
X3654777Y-7747008D01*
X3654777Y-7747008D02*
X3645253Y-7756531D01*
X3645253Y-7756531D02*
X3635729Y-7775579D01*
X3635729Y-7775579D02*
X3635729Y-7823198D01*
X3635729Y-7823198D02*
X3645253Y-7842246D01*
X3645253Y-7842246D02*
X3654777Y-7851769D01*
X3654777Y-7851769D02*
X3673825Y-7861293D01*
X3673825Y-7861293D02*
X3711920Y-7861293D01*
X3711920Y-7861293D02*
X3730968Y-7851769D01*
X3730968Y-7851769D02*
X3740491Y-7842246D01*
X3740491Y-7842246D02*
X3750015Y-7823198D01*
X3988110Y-7937484D02*
X3988110Y-7737484D01*
X4073825Y-7937484D02*
X4073825Y-7832722D01*
X4073825Y-7832722D02*
X4064301Y-7813674D01*
X4064301Y-7813674D02*
X4045253Y-7804150D01*
X4045253Y-7804150D02*
X4016682Y-7804150D01*
X4016682Y-7804150D02*
X3997634Y-7813674D01*
X3997634Y-7813674D02*
X3988110Y-7823198D01*
X4197634Y-7937484D02*
X4178587Y-7927960D01*
X4178587Y-7927960D02*
X4169063Y-7918436D01*
X4169063Y-7918436D02*
X4159539Y-7899388D01*
X4159539Y-7899388D02*
X4159539Y-7842246D01*
X4159539Y-7842246D02*
X4169063Y-7823198D01*
X4169063Y-7823198D02*
X4178587Y-7813674D01*
X4178587Y-7813674D02*
X4197634Y-7804150D01*
X4197634Y-7804150D02*
X4226206Y-7804150D01*
X4226206Y-7804150D02*
X4245253Y-7813674D01*
X4245253Y-7813674D02*
X4254777Y-7823198D01*
X4254777Y-7823198D02*
X4264301Y-7842246D01*
X4264301Y-7842246D02*
X4264301Y-7899388D01*
X4264301Y-7899388D02*
X4254777Y-7918436D01*
X4254777Y-7918436D02*
X4245253Y-7927960D01*
X4245253Y-7927960D02*
X4226206Y-7937484D01*
X4226206Y-7937484D02*
X4197634Y-7937484D01*
X4378587Y-7937484D02*
X4359539Y-7927960D01*
X4359539Y-7927960D02*
X4350015Y-7908912D01*
X4350015Y-7908912D02*
X4350015Y-7737484D01*
X4530968Y-7927960D02*
X4511920Y-7937484D01*
X4511920Y-7937484D02*
X4473825Y-7937484D01*
X4473825Y-7937484D02*
X4454777Y-7927960D01*
X4454777Y-7927960D02*
X4445253Y-7908912D01*
X4445253Y-7908912D02*
X4445253Y-7832722D01*
X4445253Y-7832722D02*
X4454777Y-7813674D01*
X4454777Y-7813674D02*
X4473825Y-7804150D01*
X4473825Y-7804150D02*
X4511920Y-7804150D01*
X4511920Y-7804150D02*
X4530968Y-7813674D01*
X4530968Y-7813674D02*
X4540492Y-7832722D01*
X4540492Y-7832722D02*
X4540492Y-7851769D01*
X4540492Y-7851769D02*
X4445253Y-7870817D01*
X4616682Y-7927960D02*
X4635730Y-7937484D01*
X4635730Y-7937484D02*
X4673825Y-7937484D01*
X4673825Y-7937484D02*
X4692873Y-7927960D01*
X4692873Y-7927960D02*
X4702396Y-7908912D01*
X4702396Y-7908912D02*
X4702396Y-7899388D01*
X4702396Y-7899388D02*
X4692873Y-7880341D01*
X4692873Y-7880341D02*
X4673825Y-7870817D01*
X4673825Y-7870817D02*
X4645253Y-7870817D01*
X4645253Y-7870817D02*
X4626206Y-7861293D01*
X4626206Y-7861293D02*
X4616682Y-7842246D01*
X4616682Y-7842246D02*
X4616682Y-7832722D01*
X4616682Y-7832722D02*
X4626206Y-7813674D01*
X4626206Y-7813674D02*
X4645253Y-7804150D01*
X4645253Y-7804150D02*
X4673825Y-7804150D01*
X4673825Y-7804150D02*
X4692873Y-7813674D01*
X4769063Y-8013674D02*
X4778587Y-8004150D01*
X4778587Y-8004150D02*
X4797634Y-7975579D01*
X4797634Y-7975579D02*
X4807158Y-7956531D01*
X4807158Y-7956531D02*
X4816682Y-7927960D01*
X4816682Y-7927960D02*
X4826206Y-7880341D01*
X4826206Y-7880341D02*
X4826206Y-7842246D01*
X4826206Y-7842246D02*
X4816682Y-7794627D01*
X4816682Y-7794627D02*
X4807158Y-7766055D01*
X4807158Y-7766055D02*
X4797634Y-7747008D01*
X4797634Y-7747008D02*
X4778587Y-7718436D01*
X4778587Y-7718436D02*
X4769063Y-7708912D01*
D12*
X-6000Y-8110000D02*
G75*
G02*
X-81000Y-8110000I-37500J0D01*
G01*
X-81000Y-8110000D02*
G75*
G02*
X-6000Y-8110000I37500J0D01*
G01*
D11*
X292872Y-8001484D02*
X311920Y-8001484D01*
X311920Y-8001484D02*
X330967Y-8011008D01*
X330967Y-8011008D02*
X340491Y-8020531D01*
X340491Y-8020531D02*
X350015Y-8039579D01*
X350015Y-8039579D02*
X359539Y-8077674D01*
X359539Y-8077674D02*
X359539Y-8125293D01*
X359539Y-8125293D02*
X350015Y-8163388D01*
X350015Y-8163388D02*
X340491Y-8182436D01*
X340491Y-8182436D02*
X330967Y-8191960D01*
X330967Y-8191960D02*
X311920Y-8201484D01*
X311920Y-8201484D02*
X292872Y-8201484D01*
X292872Y-8201484D02*
X273824Y-8191960D01*
X273824Y-8191960D02*
X264301Y-8182436D01*
X264301Y-8182436D02*
X254777Y-8163388D01*
X254777Y-8163388D02*
X245253Y-8125293D01*
X245253Y-8125293D02*
X245253Y-8077674D01*
X245253Y-8077674D02*
X254777Y-8039579D01*
X254777Y-8039579D02*
X264301Y-8020531D01*
X264301Y-8020531D02*
X273824Y-8011008D01*
X273824Y-8011008D02*
X292872Y-8001484D01*
X445253Y-8182436D02*
X454777Y-8191960D01*
X454777Y-8191960D02*
X445253Y-8201484D01*
X445253Y-8201484D02*
X435729Y-8191960D01*
X435729Y-8191960D02*
X445253Y-8182436D01*
X445253Y-8182436D02*
X445253Y-8201484D01*
X521443Y-8001484D02*
X654777Y-8001484D01*
X654777Y-8001484D02*
X569063Y-8201484D01*
X826205Y-8001484D02*
X730967Y-8001484D01*
X730967Y-8001484D02*
X721443Y-8096722D01*
X721443Y-8096722D02*
X730967Y-8087198D01*
X730967Y-8087198D02*
X750015Y-8077674D01*
X750015Y-8077674D02*
X797634Y-8077674D01*
X797634Y-8077674D02*
X816682Y-8087198D01*
X816682Y-8087198D02*
X826205Y-8096722D01*
X826205Y-8096722D02*
X835729Y-8115769D01*
X835729Y-8115769D02*
X835729Y-8163388D01*
X835729Y-8163388D02*
X826205Y-8182436D01*
X826205Y-8182436D02*
X816682Y-8191960D01*
X816682Y-8191960D02*
X797634Y-8201484D01*
X797634Y-8201484D02*
X750015Y-8201484D01*
X750015Y-8201484D02*
X730967Y-8191960D01*
X730967Y-8191960D02*
X721443Y-8182436D01*
X959539Y-8001484D02*
X978586Y-8001484D01*
X978586Y-8001484D02*
X997634Y-8011008D01*
X997634Y-8011008D02*
X1007158Y-8020531D01*
X1007158Y-8020531D02*
X1016682Y-8039579D01*
X1016682Y-8039579D02*
X1026205Y-8077674D01*
X1026205Y-8077674D02*
X1026205Y-8125293D01*
X1026205Y-8125293D02*
X1016682Y-8163388D01*
X1016682Y-8163388D02*
X1007158Y-8182436D01*
X1007158Y-8182436D02*
X997634Y-8191960D01*
X997634Y-8191960D02*
X978586Y-8201484D01*
X978586Y-8201484D02*
X959539Y-8201484D01*
X959539Y-8201484D02*
X940491Y-8191960D01*
X940491Y-8191960D02*
X930967Y-8182436D01*
X930967Y-8182436D02*
X921443Y-8163388D01*
X921443Y-8163388D02*
X911920Y-8125293D01*
X911920Y-8125293D02*
X911920Y-8077674D01*
X911920Y-8077674D02*
X921443Y-8039579D01*
X921443Y-8039579D02*
X930967Y-8020531D01*
X930967Y-8020531D02*
X940491Y-8011008D01*
X940491Y-8011008D02*
X959539Y-8001484D01*
X1111920Y-8201484D02*
X1111920Y-8068150D01*
X1111920Y-8087198D02*
X1121444Y-8077674D01*
X1121444Y-8077674D02*
X1140491Y-8068150D01*
X1140491Y-8068150D02*
X1169063Y-8068150D01*
X1169063Y-8068150D02*
X1188110Y-8077674D01*
X1188110Y-8077674D02*
X1197634Y-8096722D01*
X1197634Y-8096722D02*
X1197634Y-8201484D01*
X1197634Y-8096722D02*
X1207158Y-8077674D01*
X1207158Y-8077674D02*
X1226205Y-8068150D01*
X1226205Y-8068150D02*
X1254777Y-8068150D01*
X1254777Y-8068150D02*
X1273825Y-8077674D01*
X1273825Y-8077674D02*
X1283348Y-8096722D01*
X1283348Y-8096722D02*
X1283348Y-8201484D01*
X1378586Y-8201484D02*
X1378586Y-8068150D01*
X1378586Y-8087198D02*
X1388110Y-8077674D01*
X1388110Y-8077674D02*
X1407158Y-8068150D01*
X1407158Y-8068150D02*
X1435729Y-8068150D01*
X1435729Y-8068150D02*
X1454777Y-8077674D01*
X1454777Y-8077674D02*
X1464301Y-8096722D01*
X1464301Y-8096722D02*
X1464301Y-8201484D01*
X1464301Y-8096722D02*
X1473824Y-8077674D01*
X1473824Y-8077674D02*
X1492872Y-8068150D01*
X1492872Y-8068150D02*
X1521443Y-8068150D01*
X1521443Y-8068150D02*
X1540491Y-8077674D01*
X1540491Y-8077674D02*
X1550015Y-8096722D01*
X1550015Y-8096722D02*
X1550015Y-8201484D01*
X1940491Y-7991960D02*
X1769063Y-8249103D01*
X2197634Y-8001484D02*
X2216682Y-8001484D01*
X2216682Y-8001484D02*
X2235729Y-8011008D01*
X2235729Y-8011008D02*
X2245253Y-8020531D01*
X2245253Y-8020531D02*
X2254777Y-8039579D01*
X2254777Y-8039579D02*
X2264301Y-8077674D01*
X2264301Y-8077674D02*
X2264301Y-8125293D01*
X2264301Y-8125293D02*
X2254777Y-8163388D01*
X2254777Y-8163388D02*
X2245253Y-8182436D01*
X2245253Y-8182436D02*
X2235729Y-8191960D01*
X2235729Y-8191960D02*
X2216682Y-8201484D01*
X2216682Y-8201484D02*
X2197634Y-8201484D01*
X2197634Y-8201484D02*
X2178587Y-8191960D01*
X2178587Y-8191960D02*
X2169063Y-8182436D01*
X2169063Y-8182436D02*
X2159539Y-8163388D01*
X2159539Y-8163388D02*
X2150015Y-8125293D01*
X2150015Y-8125293D02*
X2150015Y-8077674D01*
X2150015Y-8077674D02*
X2159539Y-8039579D01*
X2159539Y-8039579D02*
X2169063Y-8020531D01*
X2169063Y-8020531D02*
X2178587Y-8011008D01*
X2178587Y-8011008D02*
X2197634Y-8001484D01*
X2350015Y-8182436D02*
X2359539Y-8191960D01*
X2359539Y-8191960D02*
X2350015Y-8201484D01*
X2350015Y-8201484D02*
X2340491Y-8191960D01*
X2340491Y-8191960D02*
X2350015Y-8182436D01*
X2350015Y-8182436D02*
X2350015Y-8201484D01*
X2483348Y-8001484D02*
X2502396Y-8001484D01*
X2502396Y-8001484D02*
X2521444Y-8011008D01*
X2521444Y-8011008D02*
X2530968Y-8020531D01*
X2530968Y-8020531D02*
X2540491Y-8039579D01*
X2540491Y-8039579D02*
X2550015Y-8077674D01*
X2550015Y-8077674D02*
X2550015Y-8125293D01*
X2550015Y-8125293D02*
X2540491Y-8163388D01*
X2540491Y-8163388D02*
X2530968Y-8182436D01*
X2530968Y-8182436D02*
X2521444Y-8191960D01*
X2521444Y-8191960D02*
X2502396Y-8201484D01*
X2502396Y-8201484D02*
X2483348Y-8201484D01*
X2483348Y-8201484D02*
X2464301Y-8191960D01*
X2464301Y-8191960D02*
X2454777Y-8182436D01*
X2454777Y-8182436D02*
X2445253Y-8163388D01*
X2445253Y-8163388D02*
X2435729Y-8125293D01*
X2435729Y-8125293D02*
X2435729Y-8077674D01*
X2435729Y-8077674D02*
X2445253Y-8039579D01*
X2445253Y-8039579D02*
X2454777Y-8020531D01*
X2454777Y-8020531D02*
X2464301Y-8011008D01*
X2464301Y-8011008D02*
X2483348Y-8001484D01*
X2626206Y-8020531D02*
X2635729Y-8011008D01*
X2635729Y-8011008D02*
X2654777Y-8001484D01*
X2654777Y-8001484D02*
X2702396Y-8001484D01*
X2702396Y-8001484D02*
X2721444Y-8011008D01*
X2721444Y-8011008D02*
X2730968Y-8020531D01*
X2730968Y-8020531D02*
X2740491Y-8039579D01*
X2740491Y-8039579D02*
X2740491Y-8058627D01*
X2740491Y-8058627D02*
X2730968Y-8087198D01*
X2730968Y-8087198D02*
X2616682Y-8201484D01*
X2616682Y-8201484D02*
X2740491Y-8201484D01*
X2835729Y-8201484D02*
X2873825Y-8201484D01*
X2873825Y-8201484D02*
X2892872Y-8191960D01*
X2892872Y-8191960D02*
X2902396Y-8182436D01*
X2902396Y-8182436D02*
X2921444Y-8153865D01*
X2921444Y-8153865D02*
X2930967Y-8115769D01*
X2930967Y-8115769D02*
X2930967Y-8039579D01*
X2930967Y-8039579D02*
X2921444Y-8020531D01*
X2921444Y-8020531D02*
X2911920Y-8011008D01*
X2911920Y-8011008D02*
X2892872Y-8001484D01*
X2892872Y-8001484D02*
X2854777Y-8001484D01*
X2854777Y-8001484D02*
X2835729Y-8011008D01*
X2835729Y-8011008D02*
X2826206Y-8020531D01*
X2826206Y-8020531D02*
X2816682Y-8039579D01*
X2816682Y-8039579D02*
X2816682Y-8087198D01*
X2816682Y-8087198D02*
X2826206Y-8106246D01*
X2826206Y-8106246D02*
X2835729Y-8115769D01*
X2835729Y-8115769D02*
X2854777Y-8125293D01*
X2854777Y-8125293D02*
X2892872Y-8125293D01*
X2892872Y-8125293D02*
X2911920Y-8115769D01*
X2911920Y-8115769D02*
X2921444Y-8106246D01*
X2921444Y-8106246D02*
X2930967Y-8087198D01*
X3111920Y-8001484D02*
X3016682Y-8001484D01*
X3016682Y-8001484D02*
X3007158Y-8096722D01*
X3007158Y-8096722D02*
X3016682Y-8087198D01*
X3016682Y-8087198D02*
X3035729Y-8077674D01*
X3035729Y-8077674D02*
X3083348Y-8077674D01*
X3083348Y-8077674D02*
X3102396Y-8087198D01*
X3102396Y-8087198D02*
X3111920Y-8096722D01*
X3111920Y-8096722D02*
X3121444Y-8115769D01*
X3121444Y-8115769D02*
X3121444Y-8163388D01*
X3121444Y-8163388D02*
X3111920Y-8182436D01*
X3111920Y-8182436D02*
X3102396Y-8191960D01*
X3102396Y-8191960D02*
X3083348Y-8201484D01*
X3083348Y-8201484D02*
X3035729Y-8201484D01*
X3035729Y-8201484D02*
X3016682Y-8191960D01*
X3016682Y-8191960D02*
X3007158Y-8182436D01*
X3197634Y-8001484D02*
X3197634Y-8039579D01*
X3273825Y-8001484D02*
X3273825Y-8039579D01*
X3569063Y-8277674D02*
X3559539Y-8268150D01*
X3559539Y-8268150D02*
X3540491Y-8239579D01*
X3540491Y-8239579D02*
X3530968Y-8220531D01*
X3530968Y-8220531D02*
X3521444Y-8191960D01*
X3521444Y-8191960D02*
X3511920Y-8144341D01*
X3511920Y-8144341D02*
X3511920Y-8106246D01*
X3511920Y-8106246D02*
X3521444Y-8058627D01*
X3521444Y-8058627D02*
X3530968Y-8030055D01*
X3530968Y-8030055D02*
X3540491Y-8011008D01*
X3540491Y-8011008D02*
X3559539Y-7982436D01*
X3559539Y-7982436D02*
X3569063Y-7972912D01*
X3730968Y-8068150D02*
X3730968Y-8201484D01*
X3683348Y-7991960D02*
X3635729Y-8134817D01*
X3635729Y-8134817D02*
X3759539Y-8134817D01*
X3988110Y-8201484D02*
X3988110Y-8001484D01*
X4073825Y-8201484D02*
X4073825Y-8096722D01*
X4073825Y-8096722D02*
X4064301Y-8077674D01*
X4064301Y-8077674D02*
X4045253Y-8068150D01*
X4045253Y-8068150D02*
X4016682Y-8068150D01*
X4016682Y-8068150D02*
X3997634Y-8077674D01*
X3997634Y-8077674D02*
X3988110Y-8087198D01*
X4197634Y-8201484D02*
X4178587Y-8191960D01*
X4178587Y-8191960D02*
X4169063Y-8182436D01*
X4169063Y-8182436D02*
X4159539Y-8163388D01*
X4159539Y-8163388D02*
X4159539Y-8106246D01*
X4159539Y-8106246D02*
X4169063Y-8087198D01*
X4169063Y-8087198D02*
X4178587Y-8077674D01*
X4178587Y-8077674D02*
X4197634Y-8068150D01*
X4197634Y-8068150D02*
X4226206Y-8068150D01*
X4226206Y-8068150D02*
X4245253Y-8077674D01*
X4245253Y-8077674D02*
X4254777Y-8087198D01*
X4254777Y-8087198D02*
X4264301Y-8106246D01*
X4264301Y-8106246D02*
X4264301Y-8163388D01*
X4264301Y-8163388D02*
X4254777Y-8182436D01*
X4254777Y-8182436D02*
X4245253Y-8191960D01*
X4245253Y-8191960D02*
X4226206Y-8201484D01*
X4226206Y-8201484D02*
X4197634Y-8201484D01*
X4378587Y-8201484D02*
X4359539Y-8191960D01*
X4359539Y-8191960D02*
X4350015Y-8172912D01*
X4350015Y-8172912D02*
X4350015Y-8001484D01*
X4530968Y-8191960D02*
X4511920Y-8201484D01*
X4511920Y-8201484D02*
X4473825Y-8201484D01*
X4473825Y-8201484D02*
X4454777Y-8191960D01*
X4454777Y-8191960D02*
X4445253Y-8172912D01*
X4445253Y-8172912D02*
X4445253Y-8096722D01*
X4445253Y-8096722D02*
X4454777Y-8077674D01*
X4454777Y-8077674D02*
X4473825Y-8068150D01*
X4473825Y-8068150D02*
X4511920Y-8068150D01*
X4511920Y-8068150D02*
X4530968Y-8077674D01*
X4530968Y-8077674D02*
X4540492Y-8096722D01*
X4540492Y-8096722D02*
X4540492Y-8115769D01*
X4540492Y-8115769D02*
X4445253Y-8134817D01*
X4616682Y-8191960D02*
X4635730Y-8201484D01*
X4635730Y-8201484D02*
X4673825Y-8201484D01*
X4673825Y-8201484D02*
X4692873Y-8191960D01*
X4692873Y-8191960D02*
X4702396Y-8172912D01*
X4702396Y-8172912D02*
X4702396Y-8163388D01*
X4702396Y-8163388D02*
X4692873Y-8144341D01*
X4692873Y-8144341D02*
X4673825Y-8134817D01*
X4673825Y-8134817D02*
X4645253Y-8134817D01*
X4645253Y-8134817D02*
X4626206Y-8125293D01*
X4626206Y-8125293D02*
X4616682Y-8106246D01*
X4616682Y-8106246D02*
X4616682Y-8096722D01*
X4616682Y-8096722D02*
X4626206Y-8077674D01*
X4626206Y-8077674D02*
X4645253Y-8068150D01*
X4645253Y-8068150D02*
X4673825Y-8068150D01*
X4673825Y-8068150D02*
X4692873Y-8077674D01*
X4769063Y-8277674D02*
X4778587Y-8268150D01*
X4778587Y-8268150D02*
X4797634Y-8239579D01*
X4797634Y-8239579D02*
X4807158Y-8220531D01*
X4807158Y-8220531D02*
X4816682Y-8191960D01*
X4816682Y-8191960D02*
X4826206Y-8144341D01*
X4826206Y-8144341D02*
X4826206Y-8106246D01*
X4826206Y-8106246D02*
X4816682Y-8058627D01*
X4816682Y-8058627D02*
X4807158Y-8030055D01*
X4807158Y-8030055D02*
X4797634Y-8011008D01*
X4797634Y-8011008D02*
X4778587Y-7982436D01*
X4778587Y-7982436D02*
X4769063Y-7972912D01*
D12*
X-51000Y-8329000D02*
X-51000Y-8419000D01*
X-96000Y-8374000D02*
X-6000Y-8374000D01*
D11*
X292872Y-8265484D02*
X311920Y-8265484D01*
X311920Y-8265484D02*
X330967Y-8275008D01*
X330967Y-8275008D02*
X340491Y-8284531D01*
X340491Y-8284531D02*
X350015Y-8303579D01*
X350015Y-8303579D02*
X359539Y-8341674D01*
X359539Y-8341674D02*
X359539Y-8389293D01*
X359539Y-8389293D02*
X350015Y-8427389D01*
X350015Y-8427389D02*
X340491Y-8446436D01*
X340491Y-8446436D02*
X330967Y-8455960D01*
X330967Y-8455960D02*
X311920Y-8465484D01*
X311920Y-8465484D02*
X292872Y-8465484D01*
X292872Y-8465484D02*
X273824Y-8455960D01*
X273824Y-8455960D02*
X264301Y-8446436D01*
X264301Y-8446436D02*
X254777Y-8427389D01*
X254777Y-8427389D02*
X245253Y-8389293D01*
X245253Y-8389293D02*
X245253Y-8341674D01*
X245253Y-8341674D02*
X254777Y-8303579D01*
X254777Y-8303579D02*
X264301Y-8284531D01*
X264301Y-8284531D02*
X273824Y-8275008D01*
X273824Y-8275008D02*
X292872Y-8265484D01*
X445253Y-8446436D02*
X454777Y-8455960D01*
X454777Y-8455960D02*
X445253Y-8465484D01*
X445253Y-8465484D02*
X435729Y-8455960D01*
X435729Y-8455960D02*
X445253Y-8446436D01*
X445253Y-8446436D02*
X445253Y-8465484D01*
X550015Y-8465484D02*
X588110Y-8465484D01*
X588110Y-8465484D02*
X607158Y-8455960D01*
X607158Y-8455960D02*
X616682Y-8446436D01*
X616682Y-8446436D02*
X635729Y-8417865D01*
X635729Y-8417865D02*
X645253Y-8379769D01*
X645253Y-8379769D02*
X645253Y-8303579D01*
X645253Y-8303579D02*
X635729Y-8284531D01*
X635729Y-8284531D02*
X626205Y-8275008D01*
X626205Y-8275008D02*
X607158Y-8265484D01*
X607158Y-8265484D02*
X569063Y-8265484D01*
X569063Y-8265484D02*
X550015Y-8275008D01*
X550015Y-8275008D02*
X540491Y-8284531D01*
X540491Y-8284531D02*
X530967Y-8303579D01*
X530967Y-8303579D02*
X530967Y-8351198D01*
X530967Y-8351198D02*
X540491Y-8370246D01*
X540491Y-8370246D02*
X550015Y-8379769D01*
X550015Y-8379769D02*
X569063Y-8389293D01*
X569063Y-8389293D02*
X607158Y-8389293D01*
X607158Y-8389293D02*
X626205Y-8379769D01*
X626205Y-8379769D02*
X635729Y-8370246D01*
X635729Y-8370246D02*
X645253Y-8351198D01*
X769062Y-8265484D02*
X788110Y-8265484D01*
X788110Y-8265484D02*
X807158Y-8275008D01*
X807158Y-8275008D02*
X816682Y-8284531D01*
X816682Y-8284531D02*
X826205Y-8303579D01*
X826205Y-8303579D02*
X835729Y-8341674D01*
X835729Y-8341674D02*
X835729Y-8389293D01*
X835729Y-8389293D02*
X826205Y-8427389D01*
X826205Y-8427389D02*
X816682Y-8446436D01*
X816682Y-8446436D02*
X807158Y-8455960D01*
X807158Y-8455960D02*
X788110Y-8465484D01*
X788110Y-8465484D02*
X769062Y-8465484D01*
X769062Y-8465484D02*
X750015Y-8455960D01*
X750015Y-8455960D02*
X740491Y-8446436D01*
X740491Y-8446436D02*
X730967Y-8427389D01*
X730967Y-8427389D02*
X721443Y-8389293D01*
X721443Y-8389293D02*
X721443Y-8341674D01*
X721443Y-8341674D02*
X730967Y-8303579D01*
X730967Y-8303579D02*
X740491Y-8284531D01*
X740491Y-8284531D02*
X750015Y-8275008D01*
X750015Y-8275008D02*
X769062Y-8265484D01*
X959539Y-8265484D02*
X978586Y-8265484D01*
X978586Y-8265484D02*
X997634Y-8275008D01*
X997634Y-8275008D02*
X1007158Y-8284531D01*
X1007158Y-8284531D02*
X1016682Y-8303579D01*
X1016682Y-8303579D02*
X1026205Y-8341674D01*
X1026205Y-8341674D02*
X1026205Y-8389293D01*
X1026205Y-8389293D02*
X1016682Y-8427389D01*
X1016682Y-8427389D02*
X1007158Y-8446436D01*
X1007158Y-8446436D02*
X997634Y-8455960D01*
X997634Y-8455960D02*
X978586Y-8465484D01*
X978586Y-8465484D02*
X959539Y-8465484D01*
X959539Y-8465484D02*
X940491Y-8455960D01*
X940491Y-8455960D02*
X930967Y-8446436D01*
X930967Y-8446436D02*
X921443Y-8427389D01*
X921443Y-8427389D02*
X911920Y-8389293D01*
X911920Y-8389293D02*
X911920Y-8341674D01*
X911920Y-8341674D02*
X921443Y-8303579D01*
X921443Y-8303579D02*
X930967Y-8284531D01*
X930967Y-8284531D02*
X940491Y-8275008D01*
X940491Y-8275008D02*
X959539Y-8265484D01*
X1111920Y-8465484D02*
X1111920Y-8332150D01*
X1111920Y-8351198D02*
X1121444Y-8341674D01*
X1121444Y-8341674D02*
X1140491Y-8332150D01*
X1140491Y-8332150D02*
X1169063Y-8332150D01*
X1169063Y-8332150D02*
X1188110Y-8341674D01*
X1188110Y-8341674D02*
X1197634Y-8360722D01*
X1197634Y-8360722D02*
X1197634Y-8465484D01*
X1197634Y-8360722D02*
X1207158Y-8341674D01*
X1207158Y-8341674D02*
X1226205Y-8332150D01*
X1226205Y-8332150D02*
X1254777Y-8332150D01*
X1254777Y-8332150D02*
X1273825Y-8341674D01*
X1273825Y-8341674D02*
X1283348Y-8360722D01*
X1283348Y-8360722D02*
X1283348Y-8465484D01*
X1378586Y-8465484D02*
X1378586Y-8332150D01*
X1378586Y-8351198D02*
X1388110Y-8341674D01*
X1388110Y-8341674D02*
X1407158Y-8332150D01*
X1407158Y-8332150D02*
X1435729Y-8332150D01*
X1435729Y-8332150D02*
X1454777Y-8341674D01*
X1454777Y-8341674D02*
X1464301Y-8360722D01*
X1464301Y-8360722D02*
X1464301Y-8465484D01*
X1464301Y-8360722D02*
X1473824Y-8341674D01*
X1473824Y-8341674D02*
X1492872Y-8332150D01*
X1492872Y-8332150D02*
X1521443Y-8332150D01*
X1521443Y-8332150D02*
X1540491Y-8341674D01*
X1540491Y-8341674D02*
X1550015Y-8360722D01*
X1550015Y-8360722D02*
X1550015Y-8465484D01*
X1940491Y-8255960D02*
X1769063Y-8513103D01*
X2197634Y-8265484D02*
X2216682Y-8265484D01*
X2216682Y-8265484D02*
X2235729Y-8275008D01*
X2235729Y-8275008D02*
X2245253Y-8284531D01*
X2245253Y-8284531D02*
X2254777Y-8303579D01*
X2254777Y-8303579D02*
X2264301Y-8341674D01*
X2264301Y-8341674D02*
X2264301Y-8389293D01*
X2264301Y-8389293D02*
X2254777Y-8427389D01*
X2254777Y-8427389D02*
X2245253Y-8446436D01*
X2245253Y-8446436D02*
X2235729Y-8455960D01*
X2235729Y-8455960D02*
X2216682Y-8465484D01*
X2216682Y-8465484D02*
X2197634Y-8465484D01*
X2197634Y-8465484D02*
X2178587Y-8455960D01*
X2178587Y-8455960D02*
X2169063Y-8446436D01*
X2169063Y-8446436D02*
X2159539Y-8427389D01*
X2159539Y-8427389D02*
X2150015Y-8389293D01*
X2150015Y-8389293D02*
X2150015Y-8341674D01*
X2150015Y-8341674D02*
X2159539Y-8303579D01*
X2159539Y-8303579D02*
X2169063Y-8284531D01*
X2169063Y-8284531D02*
X2178587Y-8275008D01*
X2178587Y-8275008D02*
X2197634Y-8265484D01*
X2350015Y-8446436D02*
X2359539Y-8455960D01*
X2359539Y-8455960D02*
X2350015Y-8465484D01*
X2350015Y-8465484D02*
X2340491Y-8455960D01*
X2340491Y-8455960D02*
X2350015Y-8446436D01*
X2350015Y-8446436D02*
X2350015Y-8465484D01*
X2483348Y-8265484D02*
X2502396Y-8265484D01*
X2502396Y-8265484D02*
X2521444Y-8275008D01*
X2521444Y-8275008D02*
X2530968Y-8284531D01*
X2530968Y-8284531D02*
X2540491Y-8303579D01*
X2540491Y-8303579D02*
X2550015Y-8341674D01*
X2550015Y-8341674D02*
X2550015Y-8389293D01*
X2550015Y-8389293D02*
X2540491Y-8427389D01*
X2540491Y-8427389D02*
X2530968Y-8446436D01*
X2530968Y-8446436D02*
X2521444Y-8455960D01*
X2521444Y-8455960D02*
X2502396Y-8465484D01*
X2502396Y-8465484D02*
X2483348Y-8465484D01*
X2483348Y-8465484D02*
X2464301Y-8455960D01*
X2464301Y-8455960D02*
X2454777Y-8446436D01*
X2454777Y-8446436D02*
X2445253Y-8427389D01*
X2445253Y-8427389D02*
X2435729Y-8389293D01*
X2435729Y-8389293D02*
X2435729Y-8341674D01*
X2435729Y-8341674D02*
X2445253Y-8303579D01*
X2445253Y-8303579D02*
X2454777Y-8284531D01*
X2454777Y-8284531D02*
X2464301Y-8275008D01*
X2464301Y-8275008D02*
X2483348Y-8265484D01*
X2616682Y-8265484D02*
X2740491Y-8265484D01*
X2740491Y-8265484D02*
X2673825Y-8341674D01*
X2673825Y-8341674D02*
X2702396Y-8341674D01*
X2702396Y-8341674D02*
X2721444Y-8351198D01*
X2721444Y-8351198D02*
X2730968Y-8360722D01*
X2730968Y-8360722D02*
X2740491Y-8379769D01*
X2740491Y-8379769D02*
X2740491Y-8427389D01*
X2740491Y-8427389D02*
X2730968Y-8446436D01*
X2730968Y-8446436D02*
X2721444Y-8455960D01*
X2721444Y-8455960D02*
X2702396Y-8465484D01*
X2702396Y-8465484D02*
X2645253Y-8465484D01*
X2645253Y-8465484D02*
X2626206Y-8455960D01*
X2626206Y-8455960D02*
X2616682Y-8446436D01*
X2921444Y-8265484D02*
X2826206Y-8265484D01*
X2826206Y-8265484D02*
X2816682Y-8360722D01*
X2816682Y-8360722D02*
X2826206Y-8351198D01*
X2826206Y-8351198D02*
X2845253Y-8341674D01*
X2845253Y-8341674D02*
X2892872Y-8341674D01*
X2892872Y-8341674D02*
X2911920Y-8351198D01*
X2911920Y-8351198D02*
X2921444Y-8360722D01*
X2921444Y-8360722D02*
X2930967Y-8379769D01*
X2930967Y-8379769D02*
X2930967Y-8427389D01*
X2930967Y-8427389D02*
X2921444Y-8446436D01*
X2921444Y-8446436D02*
X2911920Y-8455960D01*
X2911920Y-8455960D02*
X2892872Y-8465484D01*
X2892872Y-8465484D02*
X2845253Y-8465484D01*
X2845253Y-8465484D02*
X2826206Y-8455960D01*
X2826206Y-8455960D02*
X2816682Y-8446436D01*
X3102396Y-8332150D02*
X3102396Y-8465484D01*
X3054777Y-8255960D02*
X3007158Y-8398817D01*
X3007158Y-8398817D02*
X3130967Y-8398817D01*
X3197634Y-8265484D02*
X3197634Y-8303579D01*
X3273825Y-8265484D02*
X3273825Y-8303579D01*
X3569063Y-8541674D02*
X3559539Y-8532150D01*
X3559539Y-8532150D02*
X3540491Y-8503579D01*
X3540491Y-8503579D02*
X3530968Y-8484531D01*
X3530968Y-8484531D02*
X3521444Y-8455960D01*
X3521444Y-8455960D02*
X3511920Y-8408341D01*
X3511920Y-8408341D02*
X3511920Y-8370246D01*
X3511920Y-8370246D02*
X3521444Y-8322627D01*
X3521444Y-8322627D02*
X3530968Y-8294055D01*
X3530968Y-8294055D02*
X3540491Y-8275008D01*
X3540491Y-8275008D02*
X3559539Y-8246436D01*
X3559539Y-8246436D02*
X3569063Y-8236912D01*
X3750015Y-8465484D02*
X3635729Y-8465484D01*
X3692872Y-8465484D02*
X3692872Y-8265484D01*
X3692872Y-8265484D02*
X3673825Y-8294055D01*
X3673825Y-8294055D02*
X3654777Y-8313103D01*
X3654777Y-8313103D02*
X3635729Y-8322627D01*
X3826206Y-8284531D02*
X3835729Y-8275008D01*
X3835729Y-8275008D02*
X3854777Y-8265484D01*
X3854777Y-8265484D02*
X3902396Y-8265484D01*
X3902396Y-8265484D02*
X3921444Y-8275008D01*
X3921444Y-8275008D02*
X3930968Y-8284531D01*
X3930968Y-8284531D02*
X3940491Y-8303579D01*
X3940491Y-8303579D02*
X3940491Y-8322627D01*
X3940491Y-8322627D02*
X3930968Y-8351198D01*
X3930968Y-8351198D02*
X3816682Y-8465484D01*
X3816682Y-8465484D02*
X3940491Y-8465484D01*
X4178587Y-8465484D02*
X4178587Y-8265484D01*
X4264301Y-8465484D02*
X4264301Y-8360722D01*
X4264301Y-8360722D02*
X4254777Y-8341674D01*
X4254777Y-8341674D02*
X4235730Y-8332150D01*
X4235730Y-8332150D02*
X4207158Y-8332150D01*
X4207158Y-8332150D02*
X4188110Y-8341674D01*
X4188110Y-8341674D02*
X4178587Y-8351198D01*
X4388111Y-8465484D02*
X4369063Y-8455960D01*
X4369063Y-8455960D02*
X4359539Y-8446436D01*
X4359539Y-8446436D02*
X4350015Y-8427389D01*
X4350015Y-8427389D02*
X4350015Y-8370246D01*
X4350015Y-8370246D02*
X4359539Y-8351198D01*
X4359539Y-8351198D02*
X4369063Y-8341674D01*
X4369063Y-8341674D02*
X4388111Y-8332150D01*
X4388111Y-8332150D02*
X4416682Y-8332150D01*
X4416682Y-8332150D02*
X4435730Y-8341674D01*
X4435730Y-8341674D02*
X4445253Y-8351198D01*
X4445253Y-8351198D02*
X4454777Y-8370246D01*
X4454777Y-8370246D02*
X4454777Y-8427389D01*
X4454777Y-8427389D02*
X4445253Y-8446436D01*
X4445253Y-8446436D02*
X4435730Y-8455960D01*
X4435730Y-8455960D02*
X4416682Y-8465484D01*
X4416682Y-8465484D02*
X4388111Y-8465484D01*
X4569063Y-8465484D02*
X4550015Y-8455960D01*
X4550015Y-8455960D02*
X4540492Y-8436912D01*
X4540492Y-8436912D02*
X4540492Y-8265484D01*
X4721444Y-8455960D02*
X4702396Y-8465484D01*
X4702396Y-8465484D02*
X4664301Y-8465484D01*
X4664301Y-8465484D02*
X4645253Y-8455960D01*
X4645253Y-8455960D02*
X4635730Y-8436912D01*
X4635730Y-8436912D02*
X4635730Y-8360722D01*
X4635730Y-8360722D02*
X4645253Y-8341674D01*
X4645253Y-8341674D02*
X4664301Y-8332150D01*
X4664301Y-8332150D02*
X4702396Y-8332150D01*
X4702396Y-8332150D02*
X4721444Y-8341674D01*
X4721444Y-8341674D02*
X4730968Y-8360722D01*
X4730968Y-8360722D02*
X4730968Y-8379769D01*
X4730968Y-8379769D02*
X4635730Y-8398817D01*
X4807158Y-8455960D02*
X4826206Y-8465484D01*
X4826206Y-8465484D02*
X4864301Y-8465484D01*
X4864301Y-8465484D02*
X4883349Y-8455960D01*
X4883349Y-8455960D02*
X4892873Y-8436912D01*
X4892873Y-8436912D02*
X4892873Y-8427389D01*
X4892873Y-8427389D02*
X4883349Y-8408341D01*
X4883349Y-8408341D02*
X4864301Y-8398817D01*
X4864301Y-8398817D02*
X4835730Y-8398817D01*
X4835730Y-8398817D02*
X4816682Y-8389293D01*
X4816682Y-8389293D02*
X4807158Y-8370246D01*
X4807158Y-8370246D02*
X4807158Y-8360722D01*
X4807158Y-8360722D02*
X4816682Y-8341674D01*
X4816682Y-8341674D02*
X4835730Y-8332150D01*
X4835730Y-8332150D02*
X4864301Y-8332150D01*
X4864301Y-8332150D02*
X4883349Y-8341674D01*
X4959539Y-8541674D02*
X4969063Y-8532150D01*
X4969063Y-8532150D02*
X4988111Y-8503579D01*
X4988111Y-8503579D02*
X4997634Y-8484531D01*
X4997634Y-8484531D02*
X5007158Y-8455960D01*
X5007158Y-8455960D02*
X5016682Y-8408341D01*
X5016682Y-8408341D02*
X5016682Y-8370246D01*
X5016682Y-8370246D02*
X5007158Y-8322627D01*
X5007158Y-8322627D02*
X4997634Y-8294055D01*
X4997634Y-8294055D02*
X4988111Y-8275008D01*
X4988111Y-8275008D02*
X4969063Y-8246436D01*
X4969063Y-8246436D02*
X4959539Y-8236912D01*
M02*
