%TF.GenerationSoftware,KiCad,Pcbnew,10.0.5*%
%TF.CreationDate,2026-07-30T11:09:07-06:00*%
%TF.ProjectId,esp32_cam_led_head_v0_6,65737033-325f-4636-916d-5f6c65645f68,rev?*%
%TF.SameCoordinates,Original*%
%TF.FileFunction,AssemblyDrawing,Top*%
%FSLAX46Y46*%
G04 Gerber Fmt 4.6, Leading zero omitted, Abs format (unit mm)*
G04 Created by KiCad (PCBNEW 10.0.5) date 2026-07-30 11:09:07*
%MOMM*%
%LPD*%
G01*
G04 APERTURE LIST*
%ADD10C,0.100000*%
%ADD11C,0.120000*%
%ADD12C,0.150000*%
%ADD13C,0.080000*%
G04 APERTURE END LIST*
D10*
X-4019999Y-400000D02*
X38020000Y-400000D01*
X-4019999Y-27620000D02*
X-4019999Y-400000D01*
X-530000Y-5010000D02*
X34530000Y-5010000D01*
X-530000Y-23010000D02*
X-530000Y-5010000D01*
X34530000Y-5010000D02*
X34530000Y-23010000D01*
X34530000Y-23010000D02*
X-530000Y-23010000D01*
X38020000Y-400000D02*
X38020000Y-27620000D01*
X38020000Y-27620000D02*
X-4019999Y-27620000D01*
D11*
X-1958334Y-2844462D02*
X-1958334Y-3370652D01*
X-1958334Y-3370652D02*
X-1927381Y-3432557D01*
X-1927381Y-3432557D02*
X-1896429Y-3463510D01*
X-1896429Y-3463510D02*
X-1834524Y-3494462D01*
X-1834524Y-3494462D02*
X-1710715Y-3494462D01*
X-1710715Y-3494462D02*
X-1648810Y-3463510D01*
X-1648810Y-3463510D02*
X-1617857Y-3432557D01*
X-1617857Y-3432557D02*
X-1586905Y-3370652D01*
X-1586905Y-3370652D02*
X-1586905Y-2844462D01*
X-1277382Y-3494462D02*
X-1277382Y-2844462D01*
X-1277382Y-2844462D02*
X-905953Y-3494462D01*
X-905953Y-3494462D02*
X-905953Y-2844462D01*
X-596430Y-3494462D02*
X-596430Y-2844462D01*
X-379763Y-2844462D02*
X-8334Y-2844462D01*
X-194048Y-3494462D02*
X-194048Y-2844462D01*
X1044046Y-2875414D02*
X982141Y-2844462D01*
X982141Y-2844462D02*
X889284Y-2844462D01*
X889284Y-2844462D02*
X796427Y-2875414D01*
X796427Y-2875414D02*
X734522Y-2937319D01*
X734522Y-2937319D02*
X703569Y-2999224D01*
X703569Y-2999224D02*
X672617Y-3123033D01*
X672617Y-3123033D02*
X672617Y-3215890D01*
X672617Y-3215890D02*
X703569Y-3339700D01*
X703569Y-3339700D02*
X734522Y-3401605D01*
X734522Y-3401605D02*
X796427Y-3463510D01*
X796427Y-3463510D02*
X889284Y-3494462D01*
X889284Y-3494462D02*
X951188Y-3494462D01*
X951188Y-3494462D02*
X1044046Y-3463510D01*
X1044046Y-3463510D02*
X1074998Y-3432557D01*
X1074998Y-3432557D02*
X1074998Y-3215890D01*
X1074998Y-3215890D02*
X951188Y-3215890D01*
X1663093Y-3494462D02*
X1353569Y-3494462D01*
X1353569Y-3494462D02*
X1353569Y-2844462D01*
X1848807Y-3308748D02*
X2158331Y-3308748D01*
X1786902Y-3494462D02*
X2003569Y-2844462D01*
X2003569Y-2844462D02*
X2220236Y-3494462D01*
X2405950Y-3463510D02*
X2498807Y-3494462D01*
X2498807Y-3494462D02*
X2653569Y-3494462D01*
X2653569Y-3494462D02*
X2715474Y-3463510D01*
X2715474Y-3463510D02*
X2746426Y-3432557D01*
X2746426Y-3432557D02*
X2777379Y-3370652D01*
X2777379Y-3370652D02*
X2777379Y-3308748D01*
X2777379Y-3308748D02*
X2746426Y-3246843D01*
X2746426Y-3246843D02*
X2715474Y-3215890D01*
X2715474Y-3215890D02*
X2653569Y-3184938D01*
X2653569Y-3184938D02*
X2529760Y-3153986D01*
X2529760Y-3153986D02*
X2467855Y-3123033D01*
X2467855Y-3123033D02*
X2436902Y-3092081D01*
X2436902Y-3092081D02*
X2405950Y-3030176D01*
X2405950Y-3030176D02*
X2405950Y-2968271D01*
X2405950Y-2968271D02*
X2436902Y-2906367D01*
X2436902Y-2906367D02*
X2467855Y-2875414D01*
X2467855Y-2875414D02*
X2529760Y-2844462D01*
X2529760Y-2844462D02*
X2684521Y-2844462D01*
X2684521Y-2844462D02*
X2777379Y-2875414D01*
X3024998Y-3463510D02*
X3117855Y-3494462D01*
X3117855Y-3494462D02*
X3272617Y-3494462D01*
X3272617Y-3494462D02*
X3334522Y-3463510D01*
X3334522Y-3463510D02*
X3365474Y-3432557D01*
X3365474Y-3432557D02*
X3396427Y-3370652D01*
X3396427Y-3370652D02*
X3396427Y-3308748D01*
X3396427Y-3308748D02*
X3365474Y-3246843D01*
X3365474Y-3246843D02*
X3334522Y-3215890D01*
X3334522Y-3215890D02*
X3272617Y-3184938D01*
X3272617Y-3184938D02*
X3148808Y-3153986D01*
X3148808Y-3153986D02*
X3086903Y-3123033D01*
X3086903Y-3123033D02*
X3055950Y-3092081D01*
X3055950Y-3092081D02*
X3024998Y-3030176D01*
X3024998Y-3030176D02*
X3024998Y-2968271D01*
X3024998Y-2968271D02*
X3055950Y-2906367D01*
X3055950Y-2906367D02*
X3086903Y-2875414D01*
X3086903Y-2875414D02*
X3148808Y-2844462D01*
X3148808Y-2844462D02*
X3303569Y-2844462D01*
X3303569Y-2844462D02*
X3396427Y-2875414D01*
X4448808Y-3061129D02*
X4448808Y-3494462D01*
X4294046Y-2813510D02*
X4139284Y-3277795D01*
X4139284Y-3277795D02*
X4541665Y-3277795D01*
X4758332Y-2906367D02*
X4789284Y-2875414D01*
X4789284Y-2875414D02*
X4851189Y-2844462D01*
X4851189Y-2844462D02*
X5005951Y-2844462D01*
X5005951Y-2844462D02*
X5067856Y-2875414D01*
X5067856Y-2875414D02*
X5098808Y-2906367D01*
X5098808Y-2906367D02*
X5129761Y-2968271D01*
X5129761Y-2968271D02*
X5129761Y-3030176D01*
X5129761Y-3030176D02*
X5098808Y-3123033D01*
X5098808Y-3123033D02*
X4727380Y-3494462D01*
X4727380Y-3494462D02*
X5129761Y-3494462D01*
X5408332Y-3432557D02*
X5439285Y-3463510D01*
X5439285Y-3463510D02*
X5408332Y-3494462D01*
X5408332Y-3494462D02*
X5377380Y-3463510D01*
X5377380Y-3463510D02*
X5408332Y-3432557D01*
X5408332Y-3432557D02*
X5408332Y-3494462D01*
X5841666Y-2844462D02*
X5903571Y-2844462D01*
X5903571Y-2844462D02*
X5965475Y-2875414D01*
X5965475Y-2875414D02*
X5996428Y-2906367D01*
X5996428Y-2906367D02*
X6027380Y-2968271D01*
X6027380Y-2968271D02*
X6058333Y-3092081D01*
X6058333Y-3092081D02*
X6058333Y-3246843D01*
X6058333Y-3246843D02*
X6027380Y-3370652D01*
X6027380Y-3370652D02*
X5996428Y-3432557D01*
X5996428Y-3432557D02*
X5965475Y-3463510D01*
X5965475Y-3463510D02*
X5903571Y-3494462D01*
X5903571Y-3494462D02*
X5841666Y-3494462D01*
X5841666Y-3494462D02*
X5779761Y-3463510D01*
X5779761Y-3463510D02*
X5748809Y-3432557D01*
X5748809Y-3432557D02*
X5717856Y-3370652D01*
X5717856Y-3370652D02*
X5686904Y-3246843D01*
X5686904Y-3246843D02*
X5686904Y-3092081D01*
X5686904Y-3092081D02*
X5717856Y-2968271D01*
X5717856Y-2968271D02*
X5748809Y-2906367D01*
X5748809Y-2906367D02*
X5779761Y-2875414D01*
X5779761Y-2875414D02*
X5841666Y-2844462D01*
X6615476Y-3061129D02*
X6615476Y-3494462D01*
X6460714Y-2813510D02*
X6305952Y-3277795D01*
X6305952Y-3277795D02*
X6708333Y-3277795D01*
X6894048Y-3494462D02*
X7234524Y-3061129D01*
X6894048Y-3061129D02*
X7234524Y-3494462D01*
X7451190Y-2906367D02*
X7482142Y-2875414D01*
X7482142Y-2875414D02*
X7544047Y-2844462D01*
X7544047Y-2844462D02*
X7698809Y-2844462D01*
X7698809Y-2844462D02*
X7760714Y-2875414D01*
X7760714Y-2875414D02*
X7791666Y-2906367D01*
X7791666Y-2906367D02*
X7822619Y-2968271D01*
X7822619Y-2968271D02*
X7822619Y-3030176D01*
X7822619Y-3030176D02*
X7791666Y-3123033D01*
X7791666Y-3123033D02*
X7420238Y-3494462D01*
X7420238Y-3494462D02*
X7822619Y-3494462D01*
X8039286Y-2844462D02*
X8472619Y-2844462D01*
X8472619Y-2844462D02*
X8194048Y-3494462D01*
X8720238Y-3432557D02*
X8751191Y-3463510D01*
X8751191Y-3463510D02*
X8720238Y-3494462D01*
X8720238Y-3494462D02*
X8689286Y-3463510D01*
X8689286Y-3463510D02*
X8720238Y-3432557D01*
X8720238Y-3432557D02*
X8720238Y-3494462D01*
X8998810Y-2906367D02*
X9029762Y-2875414D01*
X9029762Y-2875414D02*
X9091667Y-2844462D01*
X9091667Y-2844462D02*
X9246429Y-2844462D01*
X9246429Y-2844462D02*
X9308334Y-2875414D01*
X9308334Y-2875414D02*
X9339286Y-2906367D01*
X9339286Y-2906367D02*
X9370239Y-2968271D01*
X9370239Y-2968271D02*
X9370239Y-3030176D01*
X9370239Y-3030176D02*
X9339286Y-3123033D01*
X9339286Y-3123033D02*
X8967858Y-3494462D01*
X8967858Y-3494462D02*
X9370239Y-3494462D01*
X9617858Y-2906367D02*
X9648810Y-2875414D01*
X9648810Y-2875414D02*
X9710715Y-2844462D01*
X9710715Y-2844462D02*
X9865477Y-2844462D01*
X9865477Y-2844462D02*
X9927382Y-2875414D01*
X9927382Y-2875414D02*
X9958334Y-2906367D01*
X9958334Y-2906367D02*
X9989287Y-2968271D01*
X9989287Y-2968271D02*
X9989287Y-3030176D01*
X9989287Y-3030176D02*
X9958334Y-3123033D01*
X9958334Y-3123033D02*
X9586906Y-3494462D01*
X9586906Y-3494462D02*
X9989287Y-3494462D01*
X-954760Y-60175414D02*
X-1016665Y-60144462D01*
X-1016665Y-60144462D02*
X-1109522Y-60144462D01*
X-1109522Y-60144462D02*
X-1202379Y-60175414D01*
X-1202379Y-60175414D02*
X-1264284Y-60237319D01*
X-1264284Y-60237319D02*
X-1295237Y-60299224D01*
X-1295237Y-60299224D02*
X-1326189Y-60423033D01*
X-1326189Y-60423033D02*
X-1326189Y-60515890D01*
X-1326189Y-60515890D02*
X-1295237Y-60639700D01*
X-1295237Y-60639700D02*
X-1264284Y-60701605D01*
X-1264284Y-60701605D02*
X-1202379Y-60763510D01*
X-1202379Y-60763510D02*
X-1109522Y-60794462D01*
X-1109522Y-60794462D02*
X-1047618Y-60794462D01*
X-1047618Y-60794462D02*
X-954760Y-60763510D01*
X-954760Y-60763510D02*
X-923808Y-60732557D01*
X-923808Y-60732557D02*
X-923808Y-60515890D01*
X-923808Y-60515890D02*
X-1047618Y-60515890D01*
X-552379Y-60794462D02*
X-614284Y-60763510D01*
X-614284Y-60763510D02*
X-645237Y-60701605D01*
X-645237Y-60701605D02*
X-645237Y-60144462D01*
X-26189Y-60794462D02*
X-26189Y-60453986D01*
X-26189Y-60453986D02*
X-57142Y-60392081D01*
X-57142Y-60392081D02*
X-119046Y-60361129D01*
X-119046Y-60361129D02*
X-242856Y-60361129D01*
X-242856Y-60361129D02*
X-304761Y-60392081D01*
X-26189Y-60763510D02*
X-88094Y-60794462D01*
X-88094Y-60794462D02*
X-242856Y-60794462D01*
X-242856Y-60794462D02*
X-304761Y-60763510D01*
X-304761Y-60763510D02*
X-335713Y-60701605D01*
X-335713Y-60701605D02*
X-335713Y-60639700D01*
X-335713Y-60639700D02*
X-304761Y-60577795D01*
X-304761Y-60577795D02*
X-242856Y-60546843D01*
X-242856Y-60546843D02*
X-88094Y-60546843D01*
X-88094Y-60546843D02*
X-26189Y-60515890D01*
X252381Y-60763510D02*
X314286Y-60794462D01*
X314286Y-60794462D02*
X438095Y-60794462D01*
X438095Y-60794462D02*
X500000Y-60763510D01*
X500000Y-60763510D02*
X530952Y-60701605D01*
X530952Y-60701605D02*
X530952Y-60670652D01*
X530952Y-60670652D02*
X500000Y-60608748D01*
X500000Y-60608748D02*
X438095Y-60577795D01*
X438095Y-60577795D02*
X345238Y-60577795D01*
X345238Y-60577795D02*
X283333Y-60546843D01*
X283333Y-60546843D02*
X252381Y-60484938D01*
X252381Y-60484938D02*
X252381Y-60453986D01*
X252381Y-60453986D02*
X283333Y-60392081D01*
X283333Y-60392081D02*
X345238Y-60361129D01*
X345238Y-60361129D02*
X438095Y-60361129D01*
X438095Y-60361129D02*
X500000Y-60392081D01*
X778571Y-60763510D02*
X840476Y-60794462D01*
X840476Y-60794462D02*
X964285Y-60794462D01*
X964285Y-60794462D02*
X1026190Y-60763510D01*
X1026190Y-60763510D02*
X1057142Y-60701605D01*
X1057142Y-60701605D02*
X1057142Y-60670652D01*
X1057142Y-60670652D02*
X1026190Y-60608748D01*
X1026190Y-60608748D02*
X964285Y-60577795D01*
X964285Y-60577795D02*
X871428Y-60577795D01*
X871428Y-60577795D02*
X809523Y-60546843D01*
X809523Y-60546843D02*
X778571Y-60484938D01*
X778571Y-60484938D02*
X778571Y-60453986D01*
X778571Y-60453986D02*
X809523Y-60392081D01*
X809523Y-60392081D02*
X871428Y-60361129D01*
X871428Y-60361129D02*
X964285Y-60361129D01*
X964285Y-60361129D02*
X1026190Y-60392081D01*
X1335713Y-60732557D02*
X1366666Y-60763510D01*
X1366666Y-60763510D02*
X1335713Y-60794462D01*
X1335713Y-60794462D02*
X1304761Y-60763510D01*
X1304761Y-60763510D02*
X1335713Y-60732557D01*
X1335713Y-60732557D02*
X1335713Y-60794462D01*
X1335713Y-60392081D02*
X1366666Y-60423033D01*
X1366666Y-60423033D02*
X1335713Y-60453986D01*
X1335713Y-60453986D02*
X1304761Y-60423033D01*
X1304761Y-60423033D02*
X1335713Y-60392081D01*
X1335713Y-60392081D02*
X1335713Y-60453986D01*
X2480952Y-60175414D02*
X2419047Y-60144462D01*
X2419047Y-60144462D02*
X2326190Y-60144462D01*
X2326190Y-60144462D02*
X2233333Y-60175414D01*
X2233333Y-60175414D02*
X2171428Y-60237319D01*
X2171428Y-60237319D02*
X2140475Y-60299224D01*
X2140475Y-60299224D02*
X2109523Y-60423033D01*
X2109523Y-60423033D02*
X2109523Y-60515890D01*
X2109523Y-60515890D02*
X2140475Y-60639700D01*
X2140475Y-60639700D02*
X2171428Y-60701605D01*
X2171428Y-60701605D02*
X2233333Y-60763510D01*
X2233333Y-60763510D02*
X2326190Y-60794462D01*
X2326190Y-60794462D02*
X2388094Y-60794462D01*
X2388094Y-60794462D02*
X2480952Y-60763510D01*
X2480952Y-60763510D02*
X2511904Y-60732557D01*
X2511904Y-60732557D02*
X2511904Y-60515890D01*
X2511904Y-60515890D02*
X2388094Y-60515890D01*
X2790475Y-60794462D02*
X2790475Y-60144462D01*
X2790475Y-60144462D02*
X3161904Y-60794462D01*
X3161904Y-60794462D02*
X3161904Y-60144462D01*
X3471427Y-60794462D02*
X3471427Y-60144462D01*
X3471427Y-60144462D02*
X3626189Y-60144462D01*
X3626189Y-60144462D02*
X3719046Y-60175414D01*
X3719046Y-60175414D02*
X3780951Y-60237319D01*
X3780951Y-60237319D02*
X3811904Y-60299224D01*
X3811904Y-60299224D02*
X3842856Y-60423033D01*
X3842856Y-60423033D02*
X3842856Y-60515890D01*
X3842856Y-60515890D02*
X3811904Y-60639700D01*
X3811904Y-60639700D02*
X3780951Y-60701605D01*
X3780951Y-60701605D02*
X3719046Y-60763510D01*
X3719046Y-60763510D02*
X3626189Y-60794462D01*
X3626189Y-60794462D02*
X3471427Y-60794462D01*
X4926189Y-60144462D02*
X4616665Y-60144462D01*
X4616665Y-60144462D02*
X4585713Y-60453986D01*
X4585713Y-60453986D02*
X4616665Y-60423033D01*
X4616665Y-60423033D02*
X4678570Y-60392081D01*
X4678570Y-60392081D02*
X4833332Y-60392081D01*
X4833332Y-60392081D02*
X4895237Y-60423033D01*
X4895237Y-60423033D02*
X4926189Y-60453986D01*
X4926189Y-60453986D02*
X4957142Y-60515890D01*
X4957142Y-60515890D02*
X4957142Y-60670652D01*
X4957142Y-60670652D02*
X4926189Y-60732557D01*
X4926189Y-60732557D02*
X4895237Y-60763510D01*
X4895237Y-60763510D02*
X4833332Y-60794462D01*
X4833332Y-60794462D02*
X4678570Y-60794462D01*
X4678570Y-60794462D02*
X4616665Y-60763510D01*
X4616665Y-60763510D02*
X4585713Y-60732557D01*
X5142856Y-60144462D02*
X5359523Y-60794462D01*
X5359523Y-60794462D02*
X5576190Y-60144462D01*
X6257142Y-60763510D02*
X6349999Y-60794462D01*
X6349999Y-60794462D02*
X6504761Y-60794462D01*
X6504761Y-60794462D02*
X6566666Y-60763510D01*
X6566666Y-60763510D02*
X6597618Y-60732557D01*
X6597618Y-60732557D02*
X6628571Y-60670652D01*
X6628571Y-60670652D02*
X6628571Y-60608748D01*
X6628571Y-60608748D02*
X6597618Y-60546843D01*
X6597618Y-60546843D02*
X6566666Y-60515890D01*
X6566666Y-60515890D02*
X6504761Y-60484938D01*
X6504761Y-60484938D02*
X6380952Y-60453986D01*
X6380952Y-60453986D02*
X6319047Y-60423033D01*
X6319047Y-60423033D02*
X6288094Y-60392081D01*
X6288094Y-60392081D02*
X6257142Y-60330176D01*
X6257142Y-60330176D02*
X6257142Y-60268271D01*
X6257142Y-60268271D02*
X6288094Y-60206367D01*
X6288094Y-60206367D02*
X6319047Y-60175414D01*
X6319047Y-60175414D02*
X6380952Y-60144462D01*
X6380952Y-60144462D02*
X6535713Y-60144462D01*
X6535713Y-60144462D02*
X6628571Y-60175414D01*
X6907142Y-60794462D02*
X6907142Y-60144462D01*
X6907142Y-60144462D02*
X7061904Y-60144462D01*
X7061904Y-60144462D02*
X7154761Y-60175414D01*
X7154761Y-60175414D02*
X7216666Y-60237319D01*
X7216666Y-60237319D02*
X7247619Y-60299224D01*
X7247619Y-60299224D02*
X7278571Y-60423033D01*
X7278571Y-60423033D02*
X7278571Y-60515890D01*
X7278571Y-60515890D02*
X7247619Y-60639700D01*
X7247619Y-60639700D02*
X7216666Y-60701605D01*
X7216666Y-60701605D02*
X7154761Y-60763510D01*
X7154761Y-60763510D02*
X7061904Y-60794462D01*
X7061904Y-60794462D02*
X6907142Y-60794462D01*
X7526190Y-60608748D02*
X7835714Y-60608748D01*
X7464285Y-60794462D02*
X7680952Y-60144462D01*
X7680952Y-60144462D02*
X7897619Y-60794462D01*
X8578571Y-60763510D02*
X8671428Y-60794462D01*
X8671428Y-60794462D02*
X8826190Y-60794462D01*
X8826190Y-60794462D02*
X8888095Y-60763510D01*
X8888095Y-60763510D02*
X8919047Y-60732557D01*
X8919047Y-60732557D02*
X8950000Y-60670652D01*
X8950000Y-60670652D02*
X8950000Y-60608748D01*
X8950000Y-60608748D02*
X8919047Y-60546843D01*
X8919047Y-60546843D02*
X8888095Y-60515890D01*
X8888095Y-60515890D02*
X8826190Y-60484938D01*
X8826190Y-60484938D02*
X8702381Y-60453986D01*
X8702381Y-60453986D02*
X8640476Y-60423033D01*
X8640476Y-60423033D02*
X8609523Y-60392081D01*
X8609523Y-60392081D02*
X8578571Y-60330176D01*
X8578571Y-60330176D02*
X8578571Y-60268271D01*
X8578571Y-60268271D02*
X8609523Y-60206367D01*
X8609523Y-60206367D02*
X8640476Y-60175414D01*
X8640476Y-60175414D02*
X8702381Y-60144462D01*
X8702381Y-60144462D02*
X8857142Y-60144462D01*
X8857142Y-60144462D02*
X8950000Y-60175414D01*
X9600000Y-60732557D02*
X9569048Y-60763510D01*
X9569048Y-60763510D02*
X9476190Y-60794462D01*
X9476190Y-60794462D02*
X9414286Y-60794462D01*
X9414286Y-60794462D02*
X9321429Y-60763510D01*
X9321429Y-60763510D02*
X9259524Y-60701605D01*
X9259524Y-60701605D02*
X9228571Y-60639700D01*
X9228571Y-60639700D02*
X9197619Y-60515890D01*
X9197619Y-60515890D02*
X9197619Y-60423033D01*
X9197619Y-60423033D02*
X9228571Y-60299224D01*
X9228571Y-60299224D02*
X9259524Y-60237319D01*
X9259524Y-60237319D02*
X9321429Y-60175414D01*
X9321429Y-60175414D02*
X9414286Y-60144462D01*
X9414286Y-60144462D02*
X9476190Y-60144462D01*
X9476190Y-60144462D02*
X9569048Y-60175414D01*
X9569048Y-60175414D02*
X9600000Y-60206367D01*
X10188095Y-60794462D02*
X9878571Y-60794462D01*
X9878571Y-60794462D02*
X9878571Y-60144462D01*
X2697617Y-23994462D02*
X2697617Y-23344462D01*
X2697617Y-23344462D02*
X2852379Y-23344462D01*
X2852379Y-23344462D02*
X2945236Y-23375414D01*
X2945236Y-23375414D02*
X3007141Y-23437319D01*
X3007141Y-23437319D02*
X3038094Y-23499224D01*
X3038094Y-23499224D02*
X3069046Y-23623033D01*
X3069046Y-23623033D02*
X3069046Y-23715890D01*
X3069046Y-23715890D02*
X3038094Y-23839700D01*
X3038094Y-23839700D02*
X3007141Y-23901605D01*
X3007141Y-23901605D02*
X2945236Y-23963510D01*
X2945236Y-23963510D02*
X2852379Y-23994462D01*
X2852379Y-23994462D02*
X2697617Y-23994462D01*
X3347617Y-23994462D02*
X3347617Y-23344462D01*
X3626189Y-23963510D02*
X3719046Y-23994462D01*
X3719046Y-23994462D02*
X3873808Y-23994462D01*
X3873808Y-23994462D02*
X3935713Y-23963510D01*
X3935713Y-23963510D02*
X3966665Y-23932557D01*
X3966665Y-23932557D02*
X3997618Y-23870652D01*
X3997618Y-23870652D02*
X3997618Y-23808748D01*
X3997618Y-23808748D02*
X3966665Y-23746843D01*
X3966665Y-23746843D02*
X3935713Y-23715890D01*
X3935713Y-23715890D02*
X3873808Y-23684938D01*
X3873808Y-23684938D02*
X3749999Y-23653986D01*
X3749999Y-23653986D02*
X3688094Y-23623033D01*
X3688094Y-23623033D02*
X3657141Y-23592081D01*
X3657141Y-23592081D02*
X3626189Y-23530176D01*
X3626189Y-23530176D02*
X3626189Y-23468271D01*
X3626189Y-23468271D02*
X3657141Y-23406367D01*
X3657141Y-23406367D02*
X3688094Y-23375414D01*
X3688094Y-23375414D02*
X3749999Y-23344462D01*
X3749999Y-23344462D02*
X3904760Y-23344462D01*
X3904760Y-23344462D02*
X3997618Y-23375414D01*
X4276189Y-23994462D02*
X4276189Y-23344462D01*
X4276189Y-23344462D02*
X4523808Y-23344462D01*
X4523808Y-23344462D02*
X4585713Y-23375414D01*
X4585713Y-23375414D02*
X4616666Y-23406367D01*
X4616666Y-23406367D02*
X4647618Y-23468271D01*
X4647618Y-23468271D02*
X4647618Y-23561129D01*
X4647618Y-23561129D02*
X4616666Y-23623033D01*
X4616666Y-23623033D02*
X4585713Y-23653986D01*
X4585713Y-23653986D02*
X4523808Y-23684938D01*
X4523808Y-23684938D02*
X4276189Y-23684938D01*
X5235713Y-23994462D02*
X4926189Y-23994462D01*
X4926189Y-23994462D02*
X4926189Y-23344462D01*
X5421427Y-23808748D02*
X5730951Y-23808748D01*
X5359522Y-23994462D02*
X5576189Y-23344462D01*
X5576189Y-23344462D02*
X5792856Y-23994462D01*
X6133332Y-23684938D02*
X6133332Y-23994462D01*
X5916665Y-23344462D02*
X6133332Y-23684938D01*
X6133332Y-23684938D02*
X6349999Y-23344462D01*
X6999999Y-23344462D02*
X7402380Y-23344462D01*
X7402380Y-23344462D02*
X7185713Y-23592081D01*
X7185713Y-23592081D02*
X7278570Y-23592081D01*
X7278570Y-23592081D02*
X7340475Y-23623033D01*
X7340475Y-23623033D02*
X7371427Y-23653986D01*
X7371427Y-23653986D02*
X7402380Y-23715890D01*
X7402380Y-23715890D02*
X7402380Y-23870652D01*
X7402380Y-23870652D02*
X7371427Y-23932557D01*
X7371427Y-23932557D02*
X7340475Y-23963510D01*
X7340475Y-23963510D02*
X7278570Y-23994462D01*
X7278570Y-23994462D02*
X7092856Y-23994462D01*
X7092856Y-23994462D02*
X7030951Y-23963510D01*
X7030951Y-23963510D02*
X6999999Y-23932557D01*
X7990475Y-23344462D02*
X7680951Y-23344462D01*
X7680951Y-23344462D02*
X7649999Y-23653986D01*
X7649999Y-23653986D02*
X7680951Y-23623033D01*
X7680951Y-23623033D02*
X7742856Y-23592081D01*
X7742856Y-23592081D02*
X7897618Y-23592081D01*
X7897618Y-23592081D02*
X7959523Y-23623033D01*
X7959523Y-23623033D02*
X7990475Y-23653986D01*
X7990475Y-23653986D02*
X8021428Y-23715890D01*
X8021428Y-23715890D02*
X8021428Y-23870652D01*
X8021428Y-23870652D02*
X7990475Y-23932557D01*
X7990475Y-23932557D02*
X7959523Y-23963510D01*
X7959523Y-23963510D02*
X7897618Y-23994462D01*
X7897618Y-23994462D02*
X7742856Y-23994462D01*
X7742856Y-23994462D02*
X7680951Y-23963510D01*
X7680951Y-23963510D02*
X7649999Y-23932557D01*
X8299999Y-23932557D02*
X8330952Y-23963510D01*
X8330952Y-23963510D02*
X8299999Y-23994462D01*
X8299999Y-23994462D02*
X8269047Y-23963510D01*
X8269047Y-23963510D02*
X8299999Y-23932557D01*
X8299999Y-23932557D02*
X8299999Y-23994462D01*
X8733333Y-23344462D02*
X8795238Y-23344462D01*
X8795238Y-23344462D02*
X8857142Y-23375414D01*
X8857142Y-23375414D02*
X8888095Y-23406367D01*
X8888095Y-23406367D02*
X8919047Y-23468271D01*
X8919047Y-23468271D02*
X8950000Y-23592081D01*
X8950000Y-23592081D02*
X8950000Y-23746843D01*
X8950000Y-23746843D02*
X8919047Y-23870652D01*
X8919047Y-23870652D02*
X8888095Y-23932557D01*
X8888095Y-23932557D02*
X8857142Y-23963510D01*
X8857142Y-23963510D02*
X8795238Y-23994462D01*
X8795238Y-23994462D02*
X8733333Y-23994462D01*
X8733333Y-23994462D02*
X8671428Y-23963510D01*
X8671428Y-23963510D02*
X8640476Y-23932557D01*
X8640476Y-23932557D02*
X8609523Y-23870652D01*
X8609523Y-23870652D02*
X8578571Y-23746843D01*
X8578571Y-23746843D02*
X8578571Y-23592081D01*
X8578571Y-23592081D02*
X8609523Y-23468271D01*
X8609523Y-23468271D02*
X8640476Y-23406367D01*
X8640476Y-23406367D02*
X8671428Y-23375414D01*
X8671428Y-23375414D02*
X8733333Y-23344462D01*
X9538095Y-23344462D02*
X9228571Y-23344462D01*
X9228571Y-23344462D02*
X9197619Y-23653986D01*
X9197619Y-23653986D02*
X9228571Y-23623033D01*
X9228571Y-23623033D02*
X9290476Y-23592081D01*
X9290476Y-23592081D02*
X9445238Y-23592081D01*
X9445238Y-23592081D02*
X9507143Y-23623033D01*
X9507143Y-23623033D02*
X9538095Y-23653986D01*
X9538095Y-23653986D02*
X9569048Y-23715890D01*
X9569048Y-23715890D02*
X9569048Y-23870652D01*
X9569048Y-23870652D02*
X9538095Y-23932557D01*
X9538095Y-23932557D02*
X9507143Y-23963510D01*
X9507143Y-23963510D02*
X9445238Y-23994462D01*
X9445238Y-23994462D02*
X9290476Y-23994462D01*
X9290476Y-23994462D02*
X9228571Y-23963510D01*
X9228571Y-23963510D02*
X9197619Y-23932557D01*
X9785715Y-23994462D02*
X10126191Y-23561129D01*
X9785715Y-23561129D02*
X10126191Y-23994462D01*
X10714286Y-23994462D02*
X10342857Y-23994462D01*
X10528571Y-23994462D02*
X10528571Y-23344462D01*
X10528571Y-23344462D02*
X10466667Y-23437319D01*
X10466667Y-23437319D02*
X10404762Y-23499224D01*
X10404762Y-23499224D02*
X10342857Y-23530176D01*
X11085715Y-23623033D02*
X11023810Y-23592081D01*
X11023810Y-23592081D02*
X10992857Y-23561129D01*
X10992857Y-23561129D02*
X10961905Y-23499224D01*
X10961905Y-23499224D02*
X10961905Y-23468271D01*
X10961905Y-23468271D02*
X10992857Y-23406367D01*
X10992857Y-23406367D02*
X11023810Y-23375414D01*
X11023810Y-23375414D02*
X11085715Y-23344462D01*
X11085715Y-23344462D02*
X11209524Y-23344462D01*
X11209524Y-23344462D02*
X11271429Y-23375414D01*
X11271429Y-23375414D02*
X11302381Y-23406367D01*
X11302381Y-23406367D02*
X11333334Y-23468271D01*
X11333334Y-23468271D02*
X11333334Y-23499224D01*
X11333334Y-23499224D02*
X11302381Y-23561129D01*
X11302381Y-23561129D02*
X11271429Y-23592081D01*
X11271429Y-23592081D02*
X11209524Y-23623033D01*
X11209524Y-23623033D02*
X11085715Y-23623033D01*
X11085715Y-23623033D02*
X11023810Y-23653986D01*
X11023810Y-23653986D02*
X10992857Y-23684938D01*
X10992857Y-23684938D02*
X10961905Y-23746843D01*
X10961905Y-23746843D02*
X10961905Y-23870652D01*
X10961905Y-23870652D02*
X10992857Y-23932557D01*
X10992857Y-23932557D02*
X11023810Y-23963510D01*
X11023810Y-23963510D02*
X11085715Y-23994462D01*
X11085715Y-23994462D02*
X11209524Y-23994462D01*
X11209524Y-23994462D02*
X11271429Y-23963510D01*
X11271429Y-23963510D02*
X11302381Y-23932557D01*
X11302381Y-23932557D02*
X11333334Y-23870652D01*
X11333334Y-23870652D02*
X11333334Y-23746843D01*
X11333334Y-23746843D02*
X11302381Y-23684938D01*
X11302381Y-23684938D02*
X11271429Y-23653986D01*
X11271429Y-23653986D02*
X11209524Y-23623033D01*
X-2771428Y-6363855D02*
X-3152380Y-6363855D01*
X-3152380Y-6363855D02*
X-3152380Y-5563855D01*
X-2504761Y-5944807D02*
X-2238095Y-5944807D01*
X-2123809Y-6363855D02*
X-2504761Y-6363855D01*
X-2504761Y-6363855D02*
X-2504761Y-5563855D01*
X-2504761Y-5563855D02*
X-2123809Y-5563855D01*
X-1780951Y-6363855D02*
X-1780951Y-5563855D01*
X-1780951Y-5563855D02*
X-1590475Y-5563855D01*
X-1590475Y-5563855D02*
X-1476189Y-5601950D01*
X-1476189Y-5601950D02*
X-1399999Y-5678140D01*
X-1399999Y-5678140D02*
X-1361904Y-5754331D01*
X-1361904Y-5754331D02*
X-1323808Y-5906712D01*
X-1323808Y-5906712D02*
X-1323808Y-6020998D01*
X-1323808Y-6020998D02*
X-1361904Y-6173379D01*
X-1361904Y-6173379D02*
X-1399999Y-6249569D01*
X-1399999Y-6249569D02*
X-1476189Y-6325760D01*
X-1476189Y-6325760D02*
X-1590475Y-6363855D01*
X-1590475Y-6363855D02*
X-1780951Y-6363855D01*
X-409523Y-5525760D02*
X-1095237Y-6554331D01*
X314286Y-6287664D02*
X276190Y-6325760D01*
X276190Y-6325760D02*
X161905Y-6363855D01*
X161905Y-6363855D02*
X85714Y-6363855D01*
X85714Y-6363855D02*
X-28571Y-6325760D01*
X-28571Y-6325760D02*
X-104761Y-6249569D01*
X-104761Y-6249569D02*
X-142856Y-6173379D01*
X-142856Y-6173379D02*
X-180952Y-6020998D01*
X-180952Y-6020998D02*
X-180952Y-5906712D01*
X-180952Y-5906712D02*
X-142856Y-5754331D01*
X-142856Y-5754331D02*
X-104761Y-5678140D01*
X-104761Y-5678140D02*
X-28571Y-5601950D01*
X-28571Y-5601950D02*
X85714Y-5563855D01*
X85714Y-5563855D02*
X161905Y-5563855D01*
X161905Y-5563855D02*
X276190Y-5601950D01*
X276190Y-5601950D02*
X314286Y-5640045D01*
X619047Y-6135283D02*
X1000000Y-6135283D01*
X542857Y-6363855D02*
X809524Y-5563855D01*
X809524Y-5563855D02*
X1076190Y-6363855D01*
X1342857Y-6363855D02*
X1342857Y-5563855D01*
X1342857Y-5563855D02*
X1609523Y-6135283D01*
X1609523Y-6135283D02*
X1876190Y-5563855D01*
X1876190Y-5563855D02*
X1876190Y-6363855D01*
X2828571Y-5525760D02*
X2142857Y-6554331D01*
X3514285Y-5601950D02*
X3438095Y-5563855D01*
X3438095Y-5563855D02*
X3323809Y-5563855D01*
X3323809Y-5563855D02*
X3209523Y-5601950D01*
X3209523Y-5601950D02*
X3133333Y-5678140D01*
X3133333Y-5678140D02*
X3095238Y-5754331D01*
X3095238Y-5754331D02*
X3057142Y-5906712D01*
X3057142Y-5906712D02*
X3057142Y-6020998D01*
X3057142Y-6020998D02*
X3095238Y-6173379D01*
X3095238Y-6173379D02*
X3133333Y-6249569D01*
X3133333Y-6249569D02*
X3209523Y-6325760D01*
X3209523Y-6325760D02*
X3323809Y-6363855D01*
X3323809Y-6363855D02*
X3400000Y-6363855D01*
X3400000Y-6363855D02*
X3514285Y-6325760D01*
X3514285Y-6325760D02*
X3552381Y-6287664D01*
X3552381Y-6287664D02*
X3552381Y-6020998D01*
X3552381Y-6020998D02*
X3400000Y-6020998D01*
X4276190Y-6363855D02*
X3895238Y-6363855D01*
X3895238Y-6363855D02*
X3895238Y-5563855D01*
X4504761Y-6135283D02*
X4885714Y-6135283D01*
X4428571Y-6363855D02*
X4695238Y-5563855D01*
X4695238Y-5563855D02*
X4961904Y-6363855D01*
X5190475Y-6325760D02*
X5304761Y-6363855D01*
X5304761Y-6363855D02*
X5495237Y-6363855D01*
X5495237Y-6363855D02*
X5571428Y-6325760D01*
X5571428Y-6325760D02*
X5609523Y-6287664D01*
X5609523Y-6287664D02*
X5647618Y-6211474D01*
X5647618Y-6211474D02*
X5647618Y-6135283D01*
X5647618Y-6135283D02*
X5609523Y-6059093D01*
X5609523Y-6059093D02*
X5571428Y-6020998D01*
X5571428Y-6020998D02*
X5495237Y-5982902D01*
X5495237Y-5982902D02*
X5342856Y-5944807D01*
X5342856Y-5944807D02*
X5266666Y-5906712D01*
X5266666Y-5906712D02*
X5228571Y-5868617D01*
X5228571Y-5868617D02*
X5190475Y-5792426D01*
X5190475Y-5792426D02*
X5190475Y-5716236D01*
X5190475Y-5716236D02*
X5228571Y-5640045D01*
X5228571Y-5640045D02*
X5266666Y-5601950D01*
X5266666Y-5601950D02*
X5342856Y-5563855D01*
X5342856Y-5563855D02*
X5533333Y-5563855D01*
X5533333Y-5563855D02*
X5647618Y-5601950D01*
X5952380Y-6325760D02*
X6066666Y-6363855D01*
X6066666Y-6363855D02*
X6257142Y-6363855D01*
X6257142Y-6363855D02*
X6333333Y-6325760D01*
X6333333Y-6325760D02*
X6371428Y-6287664D01*
X6371428Y-6287664D02*
X6409523Y-6211474D01*
X6409523Y-6211474D02*
X6409523Y-6135283D01*
X6409523Y-6135283D02*
X6371428Y-6059093D01*
X6371428Y-6059093D02*
X6333333Y-6020998D01*
X6333333Y-6020998D02*
X6257142Y-5982902D01*
X6257142Y-5982902D02*
X6104761Y-5944807D01*
X6104761Y-5944807D02*
X6028571Y-5906712D01*
X6028571Y-5906712D02*
X5990476Y-5868617D01*
X5990476Y-5868617D02*
X5952380Y-5792426D01*
X5952380Y-5792426D02*
X5952380Y-5716236D01*
X5952380Y-5716236D02*
X5990476Y-5640045D01*
X5990476Y-5640045D02*
X6028571Y-5601950D01*
X6028571Y-5601950D02*
X6104761Y-5563855D01*
X6104761Y-5563855D02*
X6295238Y-5563855D01*
X6295238Y-5563855D02*
X6409523Y-5601950D01*
X7361905Y-6363855D02*
X7361905Y-5563855D01*
X7361905Y-5944807D02*
X7819048Y-5944807D01*
X7819048Y-6363855D02*
X7819048Y-5563855D01*
X8200000Y-5944807D02*
X8466666Y-5944807D01*
X8580952Y-6363855D02*
X8200000Y-6363855D01*
X8200000Y-6363855D02*
X8200000Y-5563855D01*
X8200000Y-5563855D02*
X8580952Y-5563855D01*
X8885714Y-6135283D02*
X9266667Y-6135283D01*
X8809524Y-6363855D02*
X9076191Y-5563855D01*
X9076191Y-5563855D02*
X9342857Y-6363855D01*
X9609524Y-6363855D02*
X9609524Y-5563855D01*
X9609524Y-5563855D02*
X9800000Y-5563855D01*
X9800000Y-5563855D02*
X9914286Y-5601950D01*
X9914286Y-5601950D02*
X9990476Y-5678140D01*
X9990476Y-5678140D02*
X10028571Y-5754331D01*
X10028571Y-5754331D02*
X10066667Y-5906712D01*
X10066667Y-5906712D02*
X10066667Y-6020998D01*
X10066667Y-6020998D02*
X10028571Y-6173379D01*
X10028571Y-6173379D02*
X9990476Y-6249569D01*
X9990476Y-6249569D02*
X9914286Y-6325760D01*
X9914286Y-6325760D02*
X9800000Y-6363855D01*
X9800000Y-6363855D02*
X9609524Y-6363855D01*
X10942857Y-5830521D02*
X11133333Y-6363855D01*
X11133333Y-6363855D02*
X11323810Y-5830521D01*
X11780953Y-5563855D02*
X11857143Y-5563855D01*
X11857143Y-5563855D02*
X11933334Y-5601950D01*
X11933334Y-5601950D02*
X11971429Y-5640045D01*
X11971429Y-5640045D02*
X12009524Y-5716236D01*
X12009524Y-5716236D02*
X12047619Y-5868617D01*
X12047619Y-5868617D02*
X12047619Y-6059093D01*
X12047619Y-6059093D02*
X12009524Y-6211474D01*
X12009524Y-6211474D02*
X11971429Y-6287664D01*
X11971429Y-6287664D02*
X11933334Y-6325760D01*
X11933334Y-6325760D02*
X11857143Y-6363855D01*
X11857143Y-6363855D02*
X11780953Y-6363855D01*
X11780953Y-6363855D02*
X11704762Y-6325760D01*
X11704762Y-6325760D02*
X11666667Y-6287664D01*
X11666667Y-6287664D02*
X11628572Y-6211474D01*
X11628572Y-6211474D02*
X11590476Y-6059093D01*
X11590476Y-6059093D02*
X11590476Y-5868617D01*
X11590476Y-5868617D02*
X11628572Y-5716236D01*
X11628572Y-5716236D02*
X11666667Y-5640045D01*
X11666667Y-5640045D02*
X11704762Y-5601950D01*
X11704762Y-5601950D02*
X11780953Y-5563855D01*
X12390477Y-6287664D02*
X12428572Y-6325760D01*
X12428572Y-6325760D02*
X12390477Y-6363855D01*
X12390477Y-6363855D02*
X12352381Y-6325760D01*
X12352381Y-6325760D02*
X12390477Y-6287664D01*
X12390477Y-6287664D02*
X12390477Y-6363855D01*
X13114286Y-5563855D02*
X12961905Y-5563855D01*
X12961905Y-5563855D02*
X12885714Y-5601950D01*
X12885714Y-5601950D02*
X12847619Y-5640045D01*
X12847619Y-5640045D02*
X12771429Y-5754331D01*
X12771429Y-5754331D02*
X12733333Y-5906712D01*
X12733333Y-5906712D02*
X12733333Y-6211474D01*
X12733333Y-6211474D02*
X12771429Y-6287664D01*
X12771429Y-6287664D02*
X12809524Y-6325760D01*
X12809524Y-6325760D02*
X12885714Y-6363855D01*
X12885714Y-6363855D02*
X13038095Y-6363855D01*
X13038095Y-6363855D02*
X13114286Y-6325760D01*
X13114286Y-6325760D02*
X13152381Y-6287664D01*
X13152381Y-6287664D02*
X13190476Y-6211474D01*
X13190476Y-6211474D02*
X13190476Y-6020998D01*
X13190476Y-6020998D02*
X13152381Y-5944807D01*
X13152381Y-5944807D02*
X13114286Y-5906712D01*
X13114286Y-5906712D02*
X13038095Y-5868617D01*
X13038095Y-5868617D02*
X12885714Y-5868617D01*
X12885714Y-5868617D02*
X12809524Y-5906712D01*
X12809524Y-5906712D02*
X12771429Y-5944807D01*
X12771429Y-5944807D02*
X12733333Y-6020998D01*
X11809524Y-26363855D02*
X11809524Y-25563855D01*
X11809524Y-25563855D02*
X12000000Y-25563855D01*
X12000000Y-25563855D02*
X12114286Y-25601950D01*
X12114286Y-25601950D02*
X12190476Y-25678140D01*
X12190476Y-25678140D02*
X12228571Y-25754331D01*
X12228571Y-25754331D02*
X12266667Y-25906712D01*
X12266667Y-25906712D02*
X12266667Y-26020998D01*
X12266667Y-26020998D02*
X12228571Y-26173379D01*
X12228571Y-26173379D02*
X12190476Y-26249569D01*
X12190476Y-26249569D02*
X12114286Y-26325760D01*
X12114286Y-26325760D02*
X12000000Y-26363855D01*
X12000000Y-26363855D02*
X11809524Y-26363855D01*
X12571428Y-25640045D02*
X12609524Y-25601950D01*
X12609524Y-25601950D02*
X12685714Y-25563855D01*
X12685714Y-25563855D02*
X12876190Y-25563855D01*
X12876190Y-25563855D02*
X12952381Y-25601950D01*
X12952381Y-25601950D02*
X12990476Y-25640045D01*
X12990476Y-25640045D02*
X13028571Y-25716236D01*
X13028571Y-25716236D02*
X13028571Y-25792426D01*
X13028571Y-25792426D02*
X12990476Y-25906712D01*
X12990476Y-25906712D02*
X12533333Y-26363855D01*
X12533333Y-26363855D02*
X13028571Y-26363855D01*
X21009524Y-26363855D02*
X21009524Y-25563855D01*
X21009524Y-25563855D02*
X21200000Y-25563855D01*
X21200000Y-25563855D02*
X21314286Y-25601950D01*
X21314286Y-25601950D02*
X21390476Y-25678140D01*
X21390476Y-25678140D02*
X21428571Y-25754331D01*
X21428571Y-25754331D02*
X21466667Y-25906712D01*
X21466667Y-25906712D02*
X21466667Y-26020998D01*
X21466667Y-26020998D02*
X21428571Y-26173379D01*
X21428571Y-26173379D02*
X21390476Y-26249569D01*
X21390476Y-26249569D02*
X21314286Y-26325760D01*
X21314286Y-26325760D02*
X21200000Y-26363855D01*
X21200000Y-26363855D02*
X21009524Y-26363855D01*
X22228571Y-26363855D02*
X21771428Y-26363855D01*
X22000000Y-26363855D02*
X22000000Y-25563855D01*
X22000000Y-25563855D02*
X21923809Y-25678140D01*
X21923809Y-25678140D02*
X21847619Y-25754331D01*
X21847619Y-25754331D02*
X21771428Y-25792426D01*
X16866667Y-36287664D02*
X16828571Y-36325760D01*
X16828571Y-36325760D02*
X16714286Y-36363855D01*
X16714286Y-36363855D02*
X16638095Y-36363855D01*
X16638095Y-36363855D02*
X16523809Y-36325760D01*
X16523809Y-36325760D02*
X16447619Y-36249569D01*
X16447619Y-36249569D02*
X16409524Y-36173379D01*
X16409524Y-36173379D02*
X16371428Y-36020998D01*
X16371428Y-36020998D02*
X16371428Y-35906712D01*
X16371428Y-35906712D02*
X16409524Y-35754331D01*
X16409524Y-35754331D02*
X16447619Y-35678140D01*
X16447619Y-35678140D02*
X16523809Y-35601950D01*
X16523809Y-35601950D02*
X16638095Y-35563855D01*
X16638095Y-35563855D02*
X16714286Y-35563855D01*
X16714286Y-35563855D02*
X16828571Y-35601950D01*
X16828571Y-35601950D02*
X16866667Y-35640045D01*
X17628571Y-36363855D02*
X17171428Y-36363855D01*
X17400000Y-36363855D02*
X17400000Y-35563855D01*
X17400000Y-35563855D02*
X17323809Y-35678140D01*
X17323809Y-35678140D02*
X17247619Y-35754331D01*
X17247619Y-35754331D02*
X17171428Y-35792426D01*
D12*
X6361904Y-11894819D02*
X6361904Y-10894819D01*
X6361904Y-10894819D02*
X6599999Y-10894819D01*
X6599999Y-10894819D02*
X6742856Y-10942438D01*
X6742856Y-10942438D02*
X6838094Y-11037676D01*
X6838094Y-11037676D02*
X6885713Y-11132914D01*
X6885713Y-11132914D02*
X6933332Y-11323390D01*
X6933332Y-11323390D02*
X6933332Y-11466247D01*
X6933332Y-11466247D02*
X6885713Y-11656723D01*
X6885713Y-11656723D02*
X6838094Y-11751961D01*
X6838094Y-11751961D02*
X6742856Y-11847200D01*
X6742856Y-11847200D02*
X6599999Y-11894819D01*
X6599999Y-11894819D02*
X6361904Y-11894819D01*
X7790475Y-11228152D02*
X7790475Y-11894819D01*
X7552380Y-10847200D02*
X7314285Y-11561485D01*
X7314285Y-11561485D02*
X7933332Y-11561485D01*
X26161904Y-11894819D02*
X26161904Y-10894819D01*
X26161904Y-10894819D02*
X26399999Y-10894819D01*
X26399999Y-10894819D02*
X26542856Y-10942438D01*
X26542856Y-10942438D02*
X26638094Y-11037676D01*
X26638094Y-11037676D02*
X26685713Y-11132914D01*
X26685713Y-11132914D02*
X26733332Y-11323390D01*
X26733332Y-11323390D02*
X26733332Y-11466247D01*
X26733332Y-11466247D02*
X26685713Y-11656723D01*
X26685713Y-11656723D02*
X26638094Y-11751961D01*
X26638094Y-11751961D02*
X26542856Y-11847200D01*
X26542856Y-11847200D02*
X26399999Y-11894819D01*
X26399999Y-11894819D02*
X26161904Y-11894819D01*
X27066666Y-10894819D02*
X27685713Y-10894819D01*
X27685713Y-10894819D02*
X27352380Y-11275771D01*
X27352380Y-11275771D02*
X27495237Y-11275771D01*
X27495237Y-11275771D02*
X27590475Y-11323390D01*
X27590475Y-11323390D02*
X27638094Y-11371009D01*
X27638094Y-11371009D02*
X27685713Y-11466247D01*
X27685713Y-11466247D02*
X27685713Y-11704342D01*
X27685713Y-11704342D02*
X27638094Y-11799580D01*
X27638094Y-11799580D02*
X27590475Y-11847200D01*
X27590475Y-11847200D02*
X27495237Y-11894819D01*
X27495237Y-11894819D02*
X27209523Y-11894819D01*
X27209523Y-11894819D02*
X27114285Y-11847200D01*
X27114285Y-11847200D02*
X27066666Y-11799580D01*
X16666666Y-45954819D02*
X16666666Y-46669104D01*
X16666666Y-46669104D02*
X16619047Y-46811961D01*
X16619047Y-46811961D02*
X16523809Y-46907200D01*
X16523809Y-46907200D02*
X16380952Y-46954819D01*
X16380952Y-46954819D02*
X16285714Y-46954819D01*
X17666666Y-46954819D02*
X17095238Y-46954819D01*
X17380952Y-46954819D02*
X17380952Y-45954819D01*
X17380952Y-45954819D02*
X17285714Y-46097676D01*
X17285714Y-46097676D02*
X17190476Y-46192914D01*
X17190476Y-46192914D02*
X17095238Y-46240533D01*
D13*
X16916666Y-39979530D02*
X16892857Y-40003340D01*
X16892857Y-40003340D02*
X16821428Y-40027149D01*
X16821428Y-40027149D02*
X16773809Y-40027149D01*
X16773809Y-40027149D02*
X16702381Y-40003340D01*
X16702381Y-40003340D02*
X16654762Y-39955720D01*
X16654762Y-39955720D02*
X16630952Y-39908101D01*
X16630952Y-39908101D02*
X16607143Y-39812863D01*
X16607143Y-39812863D02*
X16607143Y-39741435D01*
X16607143Y-39741435D02*
X16630952Y-39646197D01*
X16630952Y-39646197D02*
X16654762Y-39598578D01*
X16654762Y-39598578D02*
X16702381Y-39550959D01*
X16702381Y-39550959D02*
X16773809Y-39527149D01*
X16773809Y-39527149D02*
X16821428Y-39527149D01*
X16821428Y-39527149D02*
X16892857Y-39550959D01*
X16892857Y-39550959D02*
X16916666Y-39574768D01*
X17107143Y-39574768D02*
X17130952Y-39550959D01*
X17130952Y-39550959D02*
X17178571Y-39527149D01*
X17178571Y-39527149D02*
X17297619Y-39527149D01*
X17297619Y-39527149D02*
X17345238Y-39550959D01*
X17345238Y-39550959D02*
X17369047Y-39574768D01*
X17369047Y-39574768D02*
X17392857Y-39622387D01*
X17392857Y-39622387D02*
X17392857Y-39670006D01*
X17392857Y-39670006D02*
X17369047Y-39741435D01*
X17369047Y-39741435D02*
X17083333Y-40027149D01*
X17083333Y-40027149D02*
X17392857Y-40027149D01*
D12*
X17954819Y-63333333D02*
X18669104Y-63333333D01*
X18669104Y-63333333D02*
X18811961Y-63380952D01*
X18811961Y-63380952D02*
X18907200Y-63476190D01*
X18907200Y-63476190D02*
X18954819Y-63619047D01*
X18954819Y-63619047D02*
X18954819Y-63714285D01*
X18050057Y-62904761D02*
X18002438Y-62857142D01*
X18002438Y-62857142D02*
X17954819Y-62761904D01*
X17954819Y-62761904D02*
X17954819Y-62523809D01*
X17954819Y-62523809D02*
X18002438Y-62428571D01*
X18002438Y-62428571D02*
X18050057Y-62380952D01*
X18050057Y-62380952D02*
X18145295Y-62333333D01*
X18145295Y-62333333D02*
X18240533Y-62333333D01*
X18240533Y-62333333D02*
X18383390Y-62380952D01*
X18383390Y-62380952D02*
X18954819Y-62952380D01*
X18954819Y-62952380D02*
X18954819Y-62333333D01*
%TO.C,D2*%
D10*
X9900000Y-24530306D02*
X9900000Y-27469694D01*
X9900000Y-24530306D02*
G75*
G02*
X9900000Y-27469694I2500000J-1469694D01*
G01*
X14900000Y-26000000D02*
G75*
G02*
X9900000Y-26000000I-2500000J0D01*
G01*
X9900000Y-26000000D02*
G75*
G02*
X14900000Y-26000000I2500000J0D01*
G01*
%TO.C,D1*%
X19100000Y-24530306D02*
X19100000Y-27469694D01*
X19100000Y-24530306D02*
G75*
G02*
X19100000Y-27469694I2500000J-1469694D01*
G01*
X24100000Y-26000000D02*
G75*
G02*
X19100000Y-26000000I-2500000J0D01*
G01*
X19100000Y-26000000D02*
G75*
G02*
X24100000Y-26000000I2500000J0D01*
G01*
%TO.C,C1*%
X15400000Y-35200000D02*
X18600000Y-35200000D01*
X18600000Y-36800000D01*
X15400000Y-36800000D01*
X15400000Y-35200000D01*
%TO.C,D4*%
X4599999Y-13930306D02*
X4599999Y-16869694D01*
X4599999Y-13930306D02*
G75*
G02*
X4599983Y-16869666I2500000J-1469694D01*
G01*
X9599999Y-15400000D02*
G75*
G02*
X4599999Y-15400000I-2500000J0D01*
G01*
X4599999Y-15400000D02*
G75*
G02*
X9599999Y-15400000I2500000J0D01*
G01*
%TO.C,D3*%
X24399999Y-13930306D02*
X24399999Y-16869694D01*
X24399999Y-13930306D02*
G75*
G02*
X24399983Y-16869666I2500000J-1469694D01*
G01*
X29399999Y-15400000D02*
G75*
G02*
X24399999Y-15400000I-2500000J0D01*
G01*
X24399999Y-15400000D02*
G75*
G02*
X29399999Y-15400000I2500000J0D01*
G01*
%TO.C,J1*%
X6625000Y-44900000D02*
X6625000Y-48950000D01*
X6625000Y-44900000D02*
X27375000Y-44900000D01*
X6625000Y-48950000D02*
X27375000Y-48950000D01*
X8375000Y-44900000D02*
X8875000Y-45607107D01*
X8875000Y-45607107D02*
X9375000Y-44900000D01*
X27375000Y-44900000D02*
X27375000Y-48950000D01*
%TO.C,C2*%
X16000000Y-39175000D02*
X18000000Y-39175000D01*
X18000000Y-40425000D01*
X16000000Y-40425000D01*
X16000000Y-39175000D01*
%TO.C,J2*%
X14890000Y-67110000D02*
X14890000Y-68360000D01*
X14890000Y-68360000D02*
X16140000Y-68360000D01*
X15300000Y-58050000D02*
X19800000Y-58050000D01*
X19800000Y-67950000D01*
X15300000Y-67950000D01*
X15300000Y-58050000D01*
%TD*%
M02*
