%TF.GenerationSoftware,KiCad,Pcbnew,10.0.5*%
%TF.CreationDate,2026-07-31T12:05:14-06:00*%
%TF.ProjectId,esp32_cam_led_head_v0_8,65737033-325f-4636-916d-5f6c65645f68,rev?*%
%TF.SameCoordinates,Original*%
%TF.FileFunction,Other,User*%
%FSLAX46Y46*%
G04 Gerber Fmt 4.6, Leading zero omitted, Abs format (unit mm)*
G04 Created by KiCad (PCBNEW 10.0.5) date 2026-07-31 12:05:14*
%MOMM*%
%LPD*%
G01*
G04 APERTURE LIST*
%ADD10C,0.050000*%
G04 APERTURE END LIST*
%TO.C,D1*%
D10*
X26790000Y-22790000D02*
X33220000Y-22790000D01*
X33220000Y-29210000D01*
X26790000Y-29210000D01*
X26790000Y-22790000D01*
%TO.C,D7*%
X5181500Y-48750000D02*
X5181500Y-55250000D01*
X5181500Y-55250000D02*
X13821500Y-55250000D01*
X13821500Y-48750000D02*
X5181500Y-48750000D01*
X13821500Y-55250000D02*
X13821500Y-48750000D01*
%TO.C,C1*%
X6120000Y-73850000D02*
X10720000Y-73850000D01*
X10720000Y-76150000D01*
X6120000Y-76150000D01*
X6120000Y-73850000D01*
%TO.C,D8*%
X36181500Y-48750000D02*
X36181500Y-55250000D01*
X36181500Y-55250000D02*
X44821500Y-55250000D01*
X44821500Y-48750000D02*
X36181500Y-48750000D01*
X44821500Y-55250000D02*
X44821500Y-48750000D01*
%TO.C,D2*%
X16790000Y-22790000D02*
X23220000Y-22790000D01*
X23220000Y-29210000D01*
X16790000Y-29210000D01*
X16790000Y-22790000D01*
%TO.C,D9*%
X5181500Y-61750000D02*
X5181500Y-68250000D01*
X5181500Y-68250000D02*
X13821500Y-68250000D01*
X13821500Y-61750000D02*
X5181500Y-61750000D01*
X13821500Y-68250000D02*
X13821500Y-61750000D01*
%TO.C,D10*%
X36181500Y-61750000D02*
X36181500Y-68250000D01*
X36181500Y-68250000D02*
X44821500Y-68250000D01*
X44821500Y-61750000D02*
X36181500Y-61750000D01*
X44821500Y-68250000D02*
X44821500Y-61750000D01*
%TO.C,D5*%
X5181500Y-35750000D02*
X5181500Y-42250000D01*
X5181500Y-42250000D02*
X13821500Y-42250000D01*
X13821500Y-35750000D02*
X5181500Y-35750000D01*
X13821500Y-42250000D02*
X13821500Y-35750000D01*
%TO.C,D3*%
X36181500Y-12150000D02*
X36181500Y-18650000D01*
X36181500Y-18650000D02*
X44821500Y-18650000D01*
X44821500Y-12150000D02*
X36181500Y-12150000D01*
X44821500Y-18650000D02*
X44821500Y-12150000D01*
%TO.C,C2*%
X37720000Y-74020000D02*
X41120000Y-74020000D01*
X41120000Y-75980000D01*
X37720000Y-75980000D01*
X37720000Y-74020000D01*
%TO.C,D6*%
X36181500Y-35750000D02*
X36181500Y-42250000D01*
X36181500Y-42250000D02*
X44821500Y-42250000D01*
X44821500Y-35750000D02*
X36181500Y-35750000D01*
X44821500Y-42250000D02*
X44821500Y-35750000D01*
%TO.C,J1*%
X14020000Y-80500000D02*
X14120000Y-80500000D01*
X14020000Y-84200000D02*
X14020000Y-80500000D01*
X14120000Y-78900000D02*
X16070000Y-78900000D01*
X14120000Y-80500000D02*
X14120000Y-78900000D01*
X16030000Y-83950000D02*
X16030000Y-84200000D01*
X16030000Y-84200000D02*
X14020000Y-84200000D01*
X16070000Y-77800000D02*
X33930000Y-77800000D01*
X16070000Y-78900000D02*
X16070000Y-77800000D01*
X33930000Y-77800000D02*
X33930000Y-78900000D01*
X33930000Y-78900000D02*
X35880000Y-78900000D01*
X33970000Y-83950000D02*
X16030000Y-83950000D01*
X33970000Y-84200000D02*
X33970000Y-83950000D01*
X35880000Y-78900000D02*
X35880000Y-80500000D01*
X35880000Y-80500000D02*
X35980000Y-80500000D01*
X35980000Y-80500000D02*
X35980000Y-84200000D01*
X35980000Y-84200000D02*
X33970000Y-84200000D01*
%TO.C,D4*%
X5181500Y-12150000D02*
X5181500Y-18650000D01*
X5181500Y-18650000D02*
X13821500Y-18650000D01*
X13821500Y-12150000D02*
X5181500Y-12150000D01*
X13821500Y-18650000D02*
X13821500Y-12150000D01*
%TD*%
M02*
