M48
; DRILL file KiCad 10.0.5 date 2026-07-31T12:05:15
; FORMAT={-:-/ absolute / metric / decimal}
; #@! TF.CreationDate,2026-07-31T12:05:15-06:00
; #@! TF.GenerationSoftware,Kicad,Pcbnew,10.0.5
; #@! TF.FileFunction,MixedPlating,1,2
FMAT,2
METRIC
; #@! TA.AperFunction,Plated,PTH,ViaDrill
T1C0.400
; #@! TA.AperFunction,Plated,PTH,ComponentDrill
T2C0.900
%
G90
G05
T1
X6.261Y-72.0
X10.579Y-72.0
X19.375Y-76.5
X20.625Y-76.5
X21.875Y-76.5
X23.125Y-76.5
X37.261Y-72.0
X41.579Y-72.0
X48.8Y-86.0
T2
X6.261Y-15.4
X6.261Y-39.0
X6.261Y-52.0
X6.261Y-65.0
X8.42Y-15.4
X8.42Y-39.0
X8.42Y-52.0
X8.42Y-65.0
X10.579Y-15.4
X10.579Y-39.0
X10.579Y-52.0
X10.579Y-65.0
X12.739Y-15.4
X12.739Y-39.0
X12.739Y-52.0
X12.739Y-65.0
X18.73Y-26.0
X21.27Y-26.0
X28.73Y-26.0
X31.27Y-26.0
X37.261Y-15.4
X37.261Y-39.0
X37.261Y-52.0
X37.261Y-65.0
X39.42Y-15.4
X39.42Y-39.0
X39.42Y-52.0
X39.42Y-65.0
X41.579Y-15.4
X41.579Y-39.0
X41.579Y-52.0
X41.579Y-65.0
X43.738Y-15.4
X43.738Y-39.0
X43.738Y-52.0
X43.738Y-65.0
M30
