%TF.GenerationSoftware,KiCad,Pcbnew,10.0.5*%
%TF.CreationDate,2026-07-31T12:05:14-06:00*%
%TF.ProjectId,esp32_cam_led_head_v0_8,65737033-325f-4636-916d-5f6c65645f68,rev?*%
%TF.SameCoordinates,Original*%
%TF.FileFunction,Copper,L2,Bot*%
%TF.FilePolarity,Positive*%
%FSLAX46Y46*%
G04 Gerber Fmt 4.6, Leading zero omitted, Abs format (unit mm)*
G04 Created by KiCad (PCBNEW 10.0.5) date 2026-07-31 12:05:14*
%MOMM*%
%LPD*%
G01*
G04 APERTURE LIST*
%TA.AperFunction,ComponentPad*%
%ADD10R,1.800000X1.800000*%
%TD*%
%TA.AperFunction,ComponentPad*%
%ADD11C,1.800000*%
%TD*%
%TA.AperFunction,ViaPad*%
%ADD12C,0.800000*%
%TD*%
%TA.AperFunction,Conductor*%
%ADD13C,0.300000*%
%TD*%
%TA.AperFunction,Conductor*%
%ADD14C,0.350000*%
%TD*%
%TA.AperFunction,Conductor*%
%ADD15C,0.200000*%
%TD*%
G04 APERTURE END LIST*
D10*
%TO.P,D1,1*%
%TO.N,IR_NEG*%
X28730000Y-26000000D03*
D11*
%TO.P,D1,2*%
%TO.N,IR_ANODE*%
X31270000Y-26000000D03*
%TD*%
D10*
%TO.P,D7,1*%
%TO.N,+5V_LED*%
X6261500Y-52000000D03*
D11*
%TO.P,D7,2*%
%TO.N,SK6812_4_TO_5*%
X8420500Y-52000000D03*
%TO.P,D7,3*%
%TO.N,GND*%
X10579500Y-52000000D03*
%TO.P,D7,4*%
%TO.N,SK6812_5_TO_6*%
X12738500Y-52000000D03*
%TD*%
D10*
%TO.P,D8,1*%
%TO.N,+5V_LED*%
X37261500Y-52000000D03*
D11*
%TO.P,D8,2*%
%TO.N,SK6812_5_TO_6*%
X39420500Y-52000000D03*
%TO.P,D8,3*%
%TO.N,GND*%
X41579500Y-52000000D03*
%TO.P,D8,4*%
%TO.N,SK6812_6_TO_7*%
X43738500Y-52000000D03*
%TD*%
D10*
%TO.P,D2,1*%
%TO.N,UVA_NEG*%
X18730000Y-26000000D03*
D11*
%TO.P,D2,2*%
%TO.N,UVA_ANODE*%
X21270000Y-26000000D03*
%TD*%
D10*
%TO.P,D9,1*%
%TO.N,+5V_LED*%
X6261500Y-65000000D03*
D11*
%TO.P,D9,2*%
%TO.N,SK6812_6_TO_7*%
X8420500Y-65000000D03*
%TO.P,D9,3*%
%TO.N,GND*%
X10579500Y-65000000D03*
%TO.P,D9,4*%
%TO.N,SK6812_7_TO_8*%
X12738500Y-65000000D03*
%TD*%
D10*
%TO.P,D10,1*%
%TO.N,+5V_LED*%
X37261500Y-65000000D03*
D11*
%TO.P,D10,2*%
%TO.N,SK6812_7_TO_8*%
X39420500Y-65000000D03*
%TO.P,D10,3*%
%TO.N,GND*%
X41579500Y-65000000D03*
%TO.P,D10,4*%
%TO.N,N/C*%
X43738500Y-65000000D03*
%TD*%
D10*
%TO.P,D5,1*%
%TO.N,+5V_LED*%
X6261500Y-39000000D03*
D11*
%TO.P,D5,2*%
%TO.N,SK6812_2_TO_3*%
X8420500Y-39000000D03*
%TO.P,D5,3*%
%TO.N,GND*%
X10579500Y-39000000D03*
%TO.P,D5,4*%
%TO.N,SK6812_3_TO_4*%
X12738500Y-39000000D03*
%TD*%
D10*
%TO.P,D3,1*%
%TO.N,+5V_LED*%
X37261500Y-15400000D03*
D11*
%TO.P,D3,2*%
%TO.N,SK6812_DIN_1*%
X39420500Y-15400000D03*
%TO.P,D3,3*%
%TO.N,GND*%
X41579500Y-15400000D03*
%TO.P,D3,4*%
%TO.N,SK6812_1_TO_2*%
X43738500Y-15400000D03*
%TD*%
D10*
%TO.P,D6,1*%
%TO.N,+5V_LED*%
X37261500Y-39000000D03*
D11*
%TO.P,D6,2*%
%TO.N,SK6812_3_TO_4*%
X39420500Y-39000000D03*
%TO.P,D6,3*%
%TO.N,GND*%
X41579500Y-39000000D03*
%TO.P,D6,4*%
%TO.N,SK6812_4_TO_5*%
X43738500Y-39000000D03*
%TD*%
D10*
%TO.P,D4,1*%
%TO.N,+5V_LED*%
X6261500Y-15400000D03*
D11*
%TO.P,D4,2*%
%TO.N,SK6812_1_TO_2*%
X8420500Y-15400000D03*
%TO.P,D4,3*%
%TO.N,GND*%
X10579500Y-15400000D03*
%TO.P,D4,4*%
%TO.N,SK6812_2_TO_3*%
X12738500Y-15400000D03*
%TD*%
D12*
%TO.N,GND*%
X21875000Y-76500000D03*
X41579500Y-72000000D03*
X23125000Y-76500000D03*
X10579500Y-72000000D03*
%TO.N,+5V_LED*%
X20625000Y-76500000D03*
X37261500Y-72000000D03*
X19375000Y-76500000D03*
X6261500Y-72000000D03*
%TO.N,SK6812_DIN_1*%
X48800000Y-86000000D03*
%TD*%
%TO.N,GND*%
D13*
X21875000Y-84000000D02*
X10579500Y-84000000D01*
X21875000Y-76500000D02*
X21875000Y-84000000D01*
X41579500Y-84000000D02*
X41579500Y-72000000D01*
X21875000Y-76500000D02*
X21875000Y-84000000D01*
X10579500Y-84000000D02*
X10579500Y-72000000D01*
X21875000Y-84000000D02*
X23125000Y-84000000D01*
X23125000Y-84000000D02*
X23125000Y-76500000D01*
X23125000Y-84000000D02*
X41579500Y-84000000D01*
X23125000Y-76500000D02*
X23125000Y-84000000D01*
%TO.N,+5V_LED*%
D14*
X19375000Y-68000000D02*
X25000000Y-68000000D01*
X20625000Y-76500000D02*
X20625000Y-68000000D01*
X6261500Y-72000000D02*
X6261500Y-68000000D01*
X25000000Y-68000000D02*
X37261500Y-68000000D01*
X19375000Y-76500000D02*
X19375000Y-68000000D01*
X37261500Y-68000000D02*
X37261500Y-72000000D01*
X6261500Y-68000000D02*
X25000000Y-68000000D01*
X20625000Y-68000000D02*
X25000000Y-68000000D01*
%TO.N,SK6812_DIN_1*%
D15*
X48800000Y-86000000D02*
X48800000Y-8000000D01*
X48800000Y-8000000D02*
X39420500Y-8000000D01*
X39420500Y-8000000D02*
X39420500Y-15400000D01*
%TO.N,SK6812_2_TO_3*%
X4000000Y-34000000D02*
X8420500Y-34000000D01*
X12738500Y-28000000D02*
X4000000Y-28000000D01*
X8420500Y-34000000D02*
X8420500Y-39000000D01*
X12738500Y-15400000D02*
X12738500Y-28000000D01*
X4000000Y-28000000D02*
X4000000Y-34000000D01*
%TO.N,SK6812_3_TO_4*%
X12738500Y-39000000D02*
X12738500Y-35500000D01*
X12738500Y-35500000D02*
X39420500Y-35500000D01*
X39420500Y-35500000D02*
X39420500Y-39000000D01*
%TO.N,SK6812_4_TO_5*%
X8420500Y-47000000D02*
X8420500Y-52000000D01*
X47000000Y-39000000D02*
X47000000Y-47000000D01*
X47000000Y-47000000D02*
X8420500Y-47000000D01*
X43738500Y-39000000D02*
X47000000Y-39000000D01*
%TO.N,SK6812_5_TO_6*%
X39420500Y-47500000D02*
X39420500Y-52000000D01*
X12738500Y-52000000D02*
X12738500Y-47500000D01*
X12738500Y-47500000D02*
X39420500Y-47500000D01*
%TO.N,SK6812_6_TO_7*%
X43738500Y-52000000D02*
X47000000Y-52000000D01*
X47000000Y-60000000D02*
X8420500Y-60000000D01*
X47000000Y-52000000D02*
X47000000Y-60000000D01*
X8420500Y-60000000D02*
X8420500Y-65000000D01*
%TO.N,SK6812_7_TO_8*%
X39420500Y-60500000D02*
X39420500Y-65000000D01*
X12738500Y-60500000D02*
X39420500Y-60500000D01*
X12738500Y-65000000D02*
X12738500Y-60500000D01*
%TD*%
M02*
