%TF.GenerationSoftware,KiCad,Pcbnew,10.0.5*%
%TF.CreationDate,2026-07-31T12:05:14-06:00*%
%TF.ProjectId,esp32_cam_led_head_v0_8,65737033-325f-4636-916d-5f6c65645f68,rev?*%
%TF.SameCoordinates,Original*%
%TF.FileFunction,Soldermask,Bot*%
%TF.FilePolarity,Negative*%
%FSLAX46Y46*%
G04 Gerber Fmt 4.6, Leading zero omitted, Abs format (unit mm)*
G04 Created by KiCad (PCBNEW 10.0.5) date 2026-07-31 12:05:14*
%MOMM*%
%LPD*%
G01*
G04 APERTURE LIST*
G04 APERTURE END LIST*
G36*
X7161500Y-65900000D02*
G01*
X5361500Y-65900000D01*
X5361500Y-64100000D01*
X7161500Y-64100000D01*
X7161500Y-65900000D01*
G37*
G36*
X38161500Y-65900000D02*
G01*
X36361500Y-65900000D01*
X36361500Y-64100000D01*
X38161500Y-64100000D01*
X38161500Y-65900000D01*
G37*
G36*
X8681756Y-64138754D02*
G01*
X8844757Y-64206271D01*
X8991454Y-64304291D01*
X9116209Y-64429046D01*
X9214229Y-64575743D01*
X9281746Y-64738744D01*
X9316166Y-64911785D01*
X9316166Y-65088215D01*
X9281746Y-65261256D01*
X9214229Y-65424257D01*
X9116209Y-65570954D01*
X8991454Y-65695709D01*
X8844757Y-65793729D01*
X8681756Y-65861246D01*
X8508715Y-65895666D01*
X8332285Y-65895666D01*
X8159244Y-65861246D01*
X7996243Y-65793729D01*
X7849546Y-65695709D01*
X7724791Y-65570954D01*
X7626771Y-65424257D01*
X7559254Y-65261256D01*
X7524834Y-65088215D01*
X7524834Y-64911785D01*
X7559254Y-64738744D01*
X7626771Y-64575743D01*
X7724791Y-64429046D01*
X7849546Y-64304291D01*
X7996243Y-64206271D01*
X8159244Y-64138754D01*
X8332285Y-64104334D01*
X8508715Y-64104334D01*
X8681756Y-64138754D01*
G37*
G36*
X10840756Y-64138754D02*
G01*
X11003757Y-64206271D01*
X11150454Y-64304291D01*
X11275209Y-64429046D01*
X11373229Y-64575743D01*
X11440746Y-64738744D01*
X11475166Y-64911785D01*
X11475166Y-65088215D01*
X11440746Y-65261256D01*
X11373229Y-65424257D01*
X11275209Y-65570954D01*
X11150454Y-65695709D01*
X11003757Y-65793729D01*
X10840756Y-65861246D01*
X10667715Y-65895666D01*
X10491285Y-65895666D01*
X10318244Y-65861246D01*
X10155243Y-65793729D01*
X10008546Y-65695709D01*
X9883791Y-65570954D01*
X9785771Y-65424257D01*
X9718254Y-65261256D01*
X9683834Y-65088215D01*
X9683834Y-64911785D01*
X9718254Y-64738744D01*
X9785771Y-64575743D01*
X9883791Y-64429046D01*
X10008546Y-64304291D01*
X10155243Y-64206271D01*
X10318244Y-64138754D01*
X10491285Y-64104334D01*
X10667715Y-64104334D01*
X10840756Y-64138754D01*
G37*
G36*
X12999756Y-64138754D02*
G01*
X13162757Y-64206271D01*
X13309454Y-64304291D01*
X13434209Y-64429046D01*
X13532229Y-64575743D01*
X13599746Y-64738744D01*
X13634166Y-64911785D01*
X13634166Y-65088215D01*
X13599746Y-65261256D01*
X13532229Y-65424257D01*
X13434209Y-65570954D01*
X13309454Y-65695709D01*
X13162757Y-65793729D01*
X12999756Y-65861246D01*
X12826715Y-65895666D01*
X12650285Y-65895666D01*
X12477244Y-65861246D01*
X12314243Y-65793729D01*
X12167546Y-65695709D01*
X12042791Y-65570954D01*
X11944771Y-65424257D01*
X11877254Y-65261256D01*
X11842834Y-65088215D01*
X11842834Y-64911785D01*
X11877254Y-64738744D01*
X11944771Y-64575743D01*
X12042791Y-64429046D01*
X12167546Y-64304291D01*
X12314243Y-64206271D01*
X12477244Y-64138754D01*
X12650285Y-64104334D01*
X12826715Y-64104334D01*
X12999756Y-64138754D01*
G37*
G36*
X39681756Y-64138754D02*
G01*
X39844757Y-64206271D01*
X39991454Y-64304291D01*
X40116209Y-64429046D01*
X40214229Y-64575743D01*
X40281746Y-64738744D01*
X40316166Y-64911785D01*
X40316166Y-65088215D01*
X40281746Y-65261256D01*
X40214229Y-65424257D01*
X40116209Y-65570954D01*
X39991454Y-65695709D01*
X39844757Y-65793729D01*
X39681756Y-65861246D01*
X39508715Y-65895666D01*
X39332285Y-65895666D01*
X39159244Y-65861246D01*
X38996243Y-65793729D01*
X38849546Y-65695709D01*
X38724791Y-65570954D01*
X38626771Y-65424257D01*
X38559254Y-65261256D01*
X38524834Y-65088215D01*
X38524834Y-64911785D01*
X38559254Y-64738744D01*
X38626771Y-64575743D01*
X38724791Y-64429046D01*
X38849546Y-64304291D01*
X38996243Y-64206271D01*
X39159244Y-64138754D01*
X39332285Y-64104334D01*
X39508715Y-64104334D01*
X39681756Y-64138754D01*
G37*
G36*
X41840756Y-64138754D02*
G01*
X42003757Y-64206271D01*
X42150454Y-64304291D01*
X42275209Y-64429046D01*
X42373229Y-64575743D01*
X42440746Y-64738744D01*
X42475166Y-64911785D01*
X42475166Y-65088215D01*
X42440746Y-65261256D01*
X42373229Y-65424257D01*
X42275209Y-65570954D01*
X42150454Y-65695709D01*
X42003757Y-65793729D01*
X41840756Y-65861246D01*
X41667715Y-65895666D01*
X41491285Y-65895666D01*
X41318244Y-65861246D01*
X41155243Y-65793729D01*
X41008546Y-65695709D01*
X40883791Y-65570954D01*
X40785771Y-65424257D01*
X40718254Y-65261256D01*
X40683834Y-65088215D01*
X40683834Y-64911785D01*
X40718254Y-64738744D01*
X40785771Y-64575743D01*
X40883791Y-64429046D01*
X41008546Y-64304291D01*
X41155243Y-64206271D01*
X41318244Y-64138754D01*
X41491285Y-64104334D01*
X41667715Y-64104334D01*
X41840756Y-64138754D01*
G37*
G36*
X43999756Y-64138754D02*
G01*
X44162757Y-64206271D01*
X44309454Y-64304291D01*
X44434209Y-64429046D01*
X44532229Y-64575743D01*
X44599746Y-64738744D01*
X44634166Y-64911785D01*
X44634166Y-65088215D01*
X44599746Y-65261256D01*
X44532229Y-65424257D01*
X44434209Y-65570954D01*
X44309454Y-65695709D01*
X44162757Y-65793729D01*
X43999756Y-65861246D01*
X43826715Y-65895666D01*
X43650285Y-65895666D01*
X43477244Y-65861246D01*
X43314243Y-65793729D01*
X43167546Y-65695709D01*
X43042791Y-65570954D01*
X42944771Y-65424257D01*
X42877254Y-65261256D01*
X42842834Y-65088215D01*
X42842834Y-64911785D01*
X42877254Y-64738744D01*
X42944771Y-64575743D01*
X43042791Y-64429046D01*
X43167546Y-64304291D01*
X43314243Y-64206271D01*
X43477244Y-64138754D01*
X43650285Y-64104334D01*
X43826715Y-64104334D01*
X43999756Y-64138754D01*
G37*
G36*
X7161500Y-52900000D02*
G01*
X5361500Y-52900000D01*
X5361500Y-51100000D01*
X7161500Y-51100000D01*
X7161500Y-52900000D01*
G37*
G36*
X38161500Y-52900000D02*
G01*
X36361500Y-52900000D01*
X36361500Y-51100000D01*
X38161500Y-51100000D01*
X38161500Y-52900000D01*
G37*
G36*
X8681756Y-51138754D02*
G01*
X8844757Y-51206271D01*
X8991454Y-51304291D01*
X9116209Y-51429046D01*
X9214229Y-51575743D01*
X9281746Y-51738744D01*
X9316166Y-51911785D01*
X9316166Y-52088215D01*
X9281746Y-52261256D01*
X9214229Y-52424257D01*
X9116209Y-52570954D01*
X8991454Y-52695709D01*
X8844757Y-52793729D01*
X8681756Y-52861246D01*
X8508715Y-52895666D01*
X8332285Y-52895666D01*
X8159244Y-52861246D01*
X7996243Y-52793729D01*
X7849546Y-52695709D01*
X7724791Y-52570954D01*
X7626771Y-52424257D01*
X7559254Y-52261256D01*
X7524834Y-52088215D01*
X7524834Y-51911785D01*
X7559254Y-51738744D01*
X7626771Y-51575743D01*
X7724791Y-51429046D01*
X7849546Y-51304291D01*
X7996243Y-51206271D01*
X8159244Y-51138754D01*
X8332285Y-51104334D01*
X8508715Y-51104334D01*
X8681756Y-51138754D01*
G37*
G36*
X10840756Y-51138754D02*
G01*
X11003757Y-51206271D01*
X11150454Y-51304291D01*
X11275209Y-51429046D01*
X11373229Y-51575743D01*
X11440746Y-51738744D01*
X11475166Y-51911785D01*
X11475166Y-52088215D01*
X11440746Y-52261256D01*
X11373229Y-52424257D01*
X11275209Y-52570954D01*
X11150454Y-52695709D01*
X11003757Y-52793729D01*
X10840756Y-52861246D01*
X10667715Y-52895666D01*
X10491285Y-52895666D01*
X10318244Y-52861246D01*
X10155243Y-52793729D01*
X10008546Y-52695709D01*
X9883791Y-52570954D01*
X9785771Y-52424257D01*
X9718254Y-52261256D01*
X9683834Y-52088215D01*
X9683834Y-51911785D01*
X9718254Y-51738744D01*
X9785771Y-51575743D01*
X9883791Y-51429046D01*
X10008546Y-51304291D01*
X10155243Y-51206271D01*
X10318244Y-51138754D01*
X10491285Y-51104334D01*
X10667715Y-51104334D01*
X10840756Y-51138754D01*
G37*
G36*
X12999756Y-51138754D02*
G01*
X13162757Y-51206271D01*
X13309454Y-51304291D01*
X13434209Y-51429046D01*
X13532229Y-51575743D01*
X13599746Y-51738744D01*
X13634166Y-51911785D01*
X13634166Y-52088215D01*
X13599746Y-52261256D01*
X13532229Y-52424257D01*
X13434209Y-52570954D01*
X13309454Y-52695709D01*
X13162757Y-52793729D01*
X12999756Y-52861246D01*
X12826715Y-52895666D01*
X12650285Y-52895666D01*
X12477244Y-52861246D01*
X12314243Y-52793729D01*
X12167546Y-52695709D01*
X12042791Y-52570954D01*
X11944771Y-52424257D01*
X11877254Y-52261256D01*
X11842834Y-52088215D01*
X11842834Y-51911785D01*
X11877254Y-51738744D01*
X11944771Y-51575743D01*
X12042791Y-51429046D01*
X12167546Y-51304291D01*
X12314243Y-51206271D01*
X12477244Y-51138754D01*
X12650285Y-51104334D01*
X12826715Y-51104334D01*
X12999756Y-51138754D01*
G37*
G36*
X39681756Y-51138754D02*
G01*
X39844757Y-51206271D01*
X39991454Y-51304291D01*
X40116209Y-51429046D01*
X40214229Y-51575743D01*
X40281746Y-51738744D01*
X40316166Y-51911785D01*
X40316166Y-52088215D01*
X40281746Y-52261256D01*
X40214229Y-52424257D01*
X40116209Y-52570954D01*
X39991454Y-52695709D01*
X39844757Y-52793729D01*
X39681756Y-52861246D01*
X39508715Y-52895666D01*
X39332285Y-52895666D01*
X39159244Y-52861246D01*
X38996243Y-52793729D01*
X38849546Y-52695709D01*
X38724791Y-52570954D01*
X38626771Y-52424257D01*
X38559254Y-52261256D01*
X38524834Y-52088215D01*
X38524834Y-51911785D01*
X38559254Y-51738744D01*
X38626771Y-51575743D01*
X38724791Y-51429046D01*
X38849546Y-51304291D01*
X38996243Y-51206271D01*
X39159244Y-51138754D01*
X39332285Y-51104334D01*
X39508715Y-51104334D01*
X39681756Y-51138754D01*
G37*
G36*
X41840756Y-51138754D02*
G01*
X42003757Y-51206271D01*
X42150454Y-51304291D01*
X42275209Y-51429046D01*
X42373229Y-51575743D01*
X42440746Y-51738744D01*
X42475166Y-51911785D01*
X42475166Y-52088215D01*
X42440746Y-52261256D01*
X42373229Y-52424257D01*
X42275209Y-52570954D01*
X42150454Y-52695709D01*
X42003757Y-52793729D01*
X41840756Y-52861246D01*
X41667715Y-52895666D01*
X41491285Y-52895666D01*
X41318244Y-52861246D01*
X41155243Y-52793729D01*
X41008546Y-52695709D01*
X40883791Y-52570954D01*
X40785771Y-52424257D01*
X40718254Y-52261256D01*
X40683834Y-52088215D01*
X40683834Y-51911785D01*
X40718254Y-51738744D01*
X40785771Y-51575743D01*
X40883791Y-51429046D01*
X41008546Y-51304291D01*
X41155243Y-51206271D01*
X41318244Y-51138754D01*
X41491285Y-51104334D01*
X41667715Y-51104334D01*
X41840756Y-51138754D01*
G37*
G36*
X43999756Y-51138754D02*
G01*
X44162757Y-51206271D01*
X44309454Y-51304291D01*
X44434209Y-51429046D01*
X44532229Y-51575743D01*
X44599746Y-51738744D01*
X44634166Y-51911785D01*
X44634166Y-52088215D01*
X44599746Y-52261256D01*
X44532229Y-52424257D01*
X44434209Y-52570954D01*
X44309454Y-52695709D01*
X44162757Y-52793729D01*
X43999756Y-52861246D01*
X43826715Y-52895666D01*
X43650285Y-52895666D01*
X43477244Y-52861246D01*
X43314243Y-52793729D01*
X43167546Y-52695709D01*
X43042791Y-52570954D01*
X42944771Y-52424257D01*
X42877254Y-52261256D01*
X42842834Y-52088215D01*
X42842834Y-51911785D01*
X42877254Y-51738744D01*
X42944771Y-51575743D01*
X43042791Y-51429046D01*
X43167546Y-51304291D01*
X43314243Y-51206271D01*
X43477244Y-51138754D01*
X43650285Y-51104334D01*
X43826715Y-51104334D01*
X43999756Y-51138754D01*
G37*
G36*
X7161500Y-39900000D02*
G01*
X5361500Y-39900000D01*
X5361500Y-38100000D01*
X7161500Y-38100000D01*
X7161500Y-39900000D01*
G37*
G36*
X38161500Y-39900000D02*
G01*
X36361500Y-39900000D01*
X36361500Y-38100000D01*
X38161500Y-38100000D01*
X38161500Y-39900000D01*
G37*
G36*
X8681756Y-38138754D02*
G01*
X8844757Y-38206271D01*
X8991454Y-38304291D01*
X9116209Y-38429046D01*
X9214229Y-38575743D01*
X9281746Y-38738744D01*
X9316166Y-38911785D01*
X9316166Y-39088215D01*
X9281746Y-39261256D01*
X9214229Y-39424257D01*
X9116209Y-39570954D01*
X8991454Y-39695709D01*
X8844757Y-39793729D01*
X8681756Y-39861246D01*
X8508715Y-39895666D01*
X8332285Y-39895666D01*
X8159244Y-39861246D01*
X7996243Y-39793729D01*
X7849546Y-39695709D01*
X7724791Y-39570954D01*
X7626771Y-39424257D01*
X7559254Y-39261256D01*
X7524834Y-39088215D01*
X7524834Y-38911785D01*
X7559254Y-38738744D01*
X7626771Y-38575743D01*
X7724791Y-38429046D01*
X7849546Y-38304291D01*
X7996243Y-38206271D01*
X8159244Y-38138754D01*
X8332285Y-38104334D01*
X8508715Y-38104334D01*
X8681756Y-38138754D01*
G37*
G36*
X10840756Y-38138754D02*
G01*
X11003757Y-38206271D01*
X11150454Y-38304291D01*
X11275209Y-38429046D01*
X11373229Y-38575743D01*
X11440746Y-38738744D01*
X11475166Y-38911785D01*
X11475166Y-39088215D01*
X11440746Y-39261256D01*
X11373229Y-39424257D01*
X11275209Y-39570954D01*
X11150454Y-39695709D01*
X11003757Y-39793729D01*
X10840756Y-39861246D01*
X10667715Y-39895666D01*
X10491285Y-39895666D01*
X10318244Y-39861246D01*
X10155243Y-39793729D01*
X10008546Y-39695709D01*
X9883791Y-39570954D01*
X9785771Y-39424257D01*
X9718254Y-39261256D01*
X9683834Y-39088215D01*
X9683834Y-38911785D01*
X9718254Y-38738744D01*
X9785771Y-38575743D01*
X9883791Y-38429046D01*
X10008546Y-38304291D01*
X10155243Y-38206271D01*
X10318244Y-38138754D01*
X10491285Y-38104334D01*
X10667715Y-38104334D01*
X10840756Y-38138754D01*
G37*
G36*
X12999756Y-38138754D02*
G01*
X13162757Y-38206271D01*
X13309454Y-38304291D01*
X13434209Y-38429046D01*
X13532229Y-38575743D01*
X13599746Y-38738744D01*
X13634166Y-38911785D01*
X13634166Y-39088215D01*
X13599746Y-39261256D01*
X13532229Y-39424257D01*
X13434209Y-39570954D01*
X13309454Y-39695709D01*
X13162757Y-39793729D01*
X12999756Y-39861246D01*
X12826715Y-39895666D01*
X12650285Y-39895666D01*
X12477244Y-39861246D01*
X12314243Y-39793729D01*
X12167546Y-39695709D01*
X12042791Y-39570954D01*
X11944771Y-39424257D01*
X11877254Y-39261256D01*
X11842834Y-39088215D01*
X11842834Y-38911785D01*
X11877254Y-38738744D01*
X11944771Y-38575743D01*
X12042791Y-38429046D01*
X12167546Y-38304291D01*
X12314243Y-38206271D01*
X12477244Y-38138754D01*
X12650285Y-38104334D01*
X12826715Y-38104334D01*
X12999756Y-38138754D01*
G37*
G36*
X39681756Y-38138754D02*
G01*
X39844757Y-38206271D01*
X39991454Y-38304291D01*
X40116209Y-38429046D01*
X40214229Y-38575743D01*
X40281746Y-38738744D01*
X40316166Y-38911785D01*
X40316166Y-39088215D01*
X40281746Y-39261256D01*
X40214229Y-39424257D01*
X40116209Y-39570954D01*
X39991454Y-39695709D01*
X39844757Y-39793729D01*
X39681756Y-39861246D01*
X39508715Y-39895666D01*
X39332285Y-39895666D01*
X39159244Y-39861246D01*
X38996243Y-39793729D01*
X38849546Y-39695709D01*
X38724791Y-39570954D01*
X38626771Y-39424257D01*
X38559254Y-39261256D01*
X38524834Y-39088215D01*
X38524834Y-38911785D01*
X38559254Y-38738744D01*
X38626771Y-38575743D01*
X38724791Y-38429046D01*
X38849546Y-38304291D01*
X38996243Y-38206271D01*
X39159244Y-38138754D01*
X39332285Y-38104334D01*
X39508715Y-38104334D01*
X39681756Y-38138754D01*
G37*
G36*
X41840756Y-38138754D02*
G01*
X42003757Y-38206271D01*
X42150454Y-38304291D01*
X42275209Y-38429046D01*
X42373229Y-38575743D01*
X42440746Y-38738744D01*
X42475166Y-38911785D01*
X42475166Y-39088215D01*
X42440746Y-39261256D01*
X42373229Y-39424257D01*
X42275209Y-39570954D01*
X42150454Y-39695709D01*
X42003757Y-39793729D01*
X41840756Y-39861246D01*
X41667715Y-39895666D01*
X41491285Y-39895666D01*
X41318244Y-39861246D01*
X41155243Y-39793729D01*
X41008546Y-39695709D01*
X40883791Y-39570954D01*
X40785771Y-39424257D01*
X40718254Y-39261256D01*
X40683834Y-39088215D01*
X40683834Y-38911785D01*
X40718254Y-38738744D01*
X40785771Y-38575743D01*
X40883791Y-38429046D01*
X41008546Y-38304291D01*
X41155243Y-38206271D01*
X41318244Y-38138754D01*
X41491285Y-38104334D01*
X41667715Y-38104334D01*
X41840756Y-38138754D01*
G37*
G36*
X43999756Y-38138754D02*
G01*
X44162757Y-38206271D01*
X44309454Y-38304291D01*
X44434209Y-38429046D01*
X44532229Y-38575743D01*
X44599746Y-38738744D01*
X44634166Y-38911785D01*
X44634166Y-39088215D01*
X44599746Y-39261256D01*
X44532229Y-39424257D01*
X44434209Y-39570954D01*
X44309454Y-39695709D01*
X44162757Y-39793729D01*
X43999756Y-39861246D01*
X43826715Y-39895666D01*
X43650285Y-39895666D01*
X43477244Y-39861246D01*
X43314243Y-39793729D01*
X43167546Y-39695709D01*
X43042791Y-39570954D01*
X42944771Y-39424257D01*
X42877254Y-39261256D01*
X42842834Y-39088215D01*
X42842834Y-38911785D01*
X42877254Y-38738744D01*
X42944771Y-38575743D01*
X43042791Y-38429046D01*
X43167546Y-38304291D01*
X43314243Y-38206271D01*
X43477244Y-38138754D01*
X43650285Y-38104334D01*
X43826715Y-38104334D01*
X43999756Y-38138754D01*
G37*
G36*
X19630000Y-26900000D02*
G01*
X17830000Y-26900000D01*
X17830000Y-25100000D01*
X19630000Y-25100000D01*
X19630000Y-26900000D01*
G37*
G36*
X29630000Y-26900000D02*
G01*
X27830000Y-26900000D01*
X27830000Y-25100000D01*
X29630000Y-25100000D01*
X29630000Y-26900000D01*
G37*
G36*
X21531256Y-25138754D02*
G01*
X21694257Y-25206271D01*
X21840954Y-25304291D01*
X21965709Y-25429046D01*
X22063729Y-25575743D01*
X22131246Y-25738744D01*
X22165666Y-25911785D01*
X22165666Y-26088215D01*
X22131246Y-26261256D01*
X22063729Y-26424257D01*
X21965709Y-26570954D01*
X21840954Y-26695709D01*
X21694257Y-26793729D01*
X21531256Y-26861246D01*
X21358215Y-26895666D01*
X21181785Y-26895666D01*
X21008744Y-26861246D01*
X20845743Y-26793729D01*
X20699046Y-26695709D01*
X20574291Y-26570954D01*
X20476271Y-26424257D01*
X20408754Y-26261256D01*
X20374334Y-26088215D01*
X20374334Y-25911785D01*
X20408754Y-25738744D01*
X20476271Y-25575743D01*
X20574291Y-25429046D01*
X20699046Y-25304291D01*
X20845743Y-25206271D01*
X21008744Y-25138754D01*
X21181785Y-25104334D01*
X21358215Y-25104334D01*
X21531256Y-25138754D01*
G37*
G36*
X31531256Y-25138754D02*
G01*
X31694257Y-25206271D01*
X31840954Y-25304291D01*
X31965709Y-25429046D01*
X32063729Y-25575743D01*
X32131246Y-25738744D01*
X32165666Y-25911785D01*
X32165666Y-26088215D01*
X32131246Y-26261256D01*
X32063729Y-26424257D01*
X31965709Y-26570954D01*
X31840954Y-26695709D01*
X31694257Y-26793729D01*
X31531256Y-26861246D01*
X31358215Y-26895666D01*
X31181785Y-26895666D01*
X31008744Y-26861246D01*
X30845743Y-26793729D01*
X30699046Y-26695709D01*
X30574291Y-26570954D01*
X30476271Y-26424257D01*
X30408754Y-26261256D01*
X30374334Y-26088215D01*
X30374334Y-25911785D01*
X30408754Y-25738744D01*
X30476271Y-25575743D01*
X30574291Y-25429046D01*
X30699046Y-25304291D01*
X30845743Y-25206271D01*
X31008744Y-25138754D01*
X31181785Y-25104334D01*
X31358215Y-25104334D01*
X31531256Y-25138754D01*
G37*
G36*
X7161500Y-16300000D02*
G01*
X5361500Y-16300000D01*
X5361500Y-14500000D01*
X7161500Y-14500000D01*
X7161500Y-16300000D01*
G37*
G36*
X38161500Y-16300000D02*
G01*
X36361500Y-16300000D01*
X36361500Y-14500000D01*
X38161500Y-14500000D01*
X38161500Y-16300000D01*
G37*
G36*
X8681756Y-14538754D02*
G01*
X8844757Y-14606271D01*
X8991454Y-14704291D01*
X9116209Y-14829046D01*
X9214229Y-14975743D01*
X9281746Y-15138744D01*
X9316166Y-15311785D01*
X9316166Y-15488215D01*
X9281746Y-15661256D01*
X9214229Y-15824257D01*
X9116209Y-15970954D01*
X8991454Y-16095709D01*
X8844757Y-16193729D01*
X8681756Y-16261246D01*
X8508715Y-16295666D01*
X8332285Y-16295666D01*
X8159244Y-16261246D01*
X7996243Y-16193729D01*
X7849546Y-16095709D01*
X7724791Y-15970954D01*
X7626771Y-15824257D01*
X7559254Y-15661256D01*
X7524834Y-15488215D01*
X7524834Y-15311785D01*
X7559254Y-15138744D01*
X7626771Y-14975743D01*
X7724791Y-14829046D01*
X7849546Y-14704291D01*
X7996243Y-14606271D01*
X8159244Y-14538754D01*
X8332285Y-14504334D01*
X8508715Y-14504334D01*
X8681756Y-14538754D01*
G37*
G36*
X10840756Y-14538754D02*
G01*
X11003757Y-14606271D01*
X11150454Y-14704291D01*
X11275209Y-14829046D01*
X11373229Y-14975743D01*
X11440746Y-15138744D01*
X11475166Y-15311785D01*
X11475166Y-15488215D01*
X11440746Y-15661256D01*
X11373229Y-15824257D01*
X11275209Y-15970954D01*
X11150454Y-16095709D01*
X11003757Y-16193729D01*
X10840756Y-16261246D01*
X10667715Y-16295666D01*
X10491285Y-16295666D01*
X10318244Y-16261246D01*
X10155243Y-16193729D01*
X10008546Y-16095709D01*
X9883791Y-15970954D01*
X9785771Y-15824257D01*
X9718254Y-15661256D01*
X9683834Y-15488215D01*
X9683834Y-15311785D01*
X9718254Y-15138744D01*
X9785771Y-14975743D01*
X9883791Y-14829046D01*
X10008546Y-14704291D01*
X10155243Y-14606271D01*
X10318244Y-14538754D01*
X10491285Y-14504334D01*
X10667715Y-14504334D01*
X10840756Y-14538754D01*
G37*
G36*
X12999756Y-14538754D02*
G01*
X13162757Y-14606271D01*
X13309454Y-14704291D01*
X13434209Y-14829046D01*
X13532229Y-14975743D01*
X13599746Y-15138744D01*
X13634166Y-15311785D01*
X13634166Y-15488215D01*
X13599746Y-15661256D01*
X13532229Y-15824257D01*
X13434209Y-15970954D01*
X13309454Y-16095709D01*
X13162757Y-16193729D01*
X12999756Y-16261246D01*
X12826715Y-16295666D01*
X12650285Y-16295666D01*
X12477244Y-16261246D01*
X12314243Y-16193729D01*
X12167546Y-16095709D01*
X12042791Y-15970954D01*
X11944771Y-15824257D01*
X11877254Y-15661256D01*
X11842834Y-15488215D01*
X11842834Y-15311785D01*
X11877254Y-15138744D01*
X11944771Y-14975743D01*
X12042791Y-14829046D01*
X12167546Y-14704291D01*
X12314243Y-14606271D01*
X12477244Y-14538754D01*
X12650285Y-14504334D01*
X12826715Y-14504334D01*
X12999756Y-14538754D01*
G37*
G36*
X39681756Y-14538754D02*
G01*
X39844757Y-14606271D01*
X39991454Y-14704291D01*
X40116209Y-14829046D01*
X40214229Y-14975743D01*
X40281746Y-15138744D01*
X40316166Y-15311785D01*
X40316166Y-15488215D01*
X40281746Y-15661256D01*
X40214229Y-15824257D01*
X40116209Y-15970954D01*
X39991454Y-16095709D01*
X39844757Y-16193729D01*
X39681756Y-16261246D01*
X39508715Y-16295666D01*
X39332285Y-16295666D01*
X39159244Y-16261246D01*
X38996243Y-16193729D01*
X38849546Y-16095709D01*
X38724791Y-15970954D01*
X38626771Y-15824257D01*
X38559254Y-15661256D01*
X38524834Y-15488215D01*
X38524834Y-15311785D01*
X38559254Y-15138744D01*
X38626771Y-14975743D01*
X38724791Y-14829046D01*
X38849546Y-14704291D01*
X38996243Y-14606271D01*
X39159244Y-14538754D01*
X39332285Y-14504334D01*
X39508715Y-14504334D01*
X39681756Y-14538754D01*
G37*
G36*
X41840756Y-14538754D02*
G01*
X42003757Y-14606271D01*
X42150454Y-14704291D01*
X42275209Y-14829046D01*
X42373229Y-14975743D01*
X42440746Y-15138744D01*
X42475166Y-15311785D01*
X42475166Y-15488215D01*
X42440746Y-15661256D01*
X42373229Y-15824257D01*
X42275209Y-15970954D01*
X42150454Y-16095709D01*
X42003757Y-16193729D01*
X41840756Y-16261246D01*
X41667715Y-16295666D01*
X41491285Y-16295666D01*
X41318244Y-16261246D01*
X41155243Y-16193729D01*
X41008546Y-16095709D01*
X40883791Y-15970954D01*
X40785771Y-15824257D01*
X40718254Y-15661256D01*
X40683834Y-15488215D01*
X40683834Y-15311785D01*
X40718254Y-15138744D01*
X40785771Y-14975743D01*
X40883791Y-14829046D01*
X41008546Y-14704291D01*
X41155243Y-14606271D01*
X41318244Y-14538754D01*
X41491285Y-14504334D01*
X41667715Y-14504334D01*
X41840756Y-14538754D01*
G37*
G36*
X43999756Y-14538754D02*
G01*
X44162757Y-14606271D01*
X44309454Y-14704291D01*
X44434209Y-14829046D01*
X44532229Y-14975743D01*
X44599746Y-15138744D01*
X44634166Y-15311785D01*
X44634166Y-15488215D01*
X44599746Y-15661256D01*
X44532229Y-15824257D01*
X44434209Y-15970954D01*
X44309454Y-16095709D01*
X44162757Y-16193729D01*
X43999756Y-16261246D01*
X43826715Y-16295666D01*
X43650285Y-16295666D01*
X43477244Y-16261246D01*
X43314243Y-16193729D01*
X43167546Y-16095709D01*
X43042791Y-15970954D01*
X42944771Y-15824257D01*
X42877254Y-15661256D01*
X42842834Y-15488215D01*
X42842834Y-15311785D01*
X42877254Y-15138744D01*
X42944771Y-14975743D01*
X43042791Y-14829046D01*
X43167546Y-14704291D01*
X43314243Y-14606271D01*
X43477244Y-14538754D01*
X43650285Y-14504334D01*
X43826715Y-14504334D01*
X43999756Y-14538754D01*
G37*
M02*
