%TF.GenerationSoftware,KiCad,Pcbnew,10.0.5*%
%TF.CreationDate,2026-07-31T12:05:10-06:00*%
%TF.ProjectId,iphone16e_2s_sk6812_main_v0_8,6970686f-6e65-4313-9665-5f32735f736b,rev?*%
%TF.SameCoordinates,Original*%
%TF.FileFunction,Copper,L1,Top*%
%TF.FilePolarity,Positive*%
%FSLAX46Y46*%
G04 Gerber Fmt 4.6, Leading zero omitted, Abs format (unit mm)*
G04 Created by KiCad (PCBNEW 10.0.5) date 2026-07-31 12:05:10*
%MOMM*%
%LPD*%
G01*
G04 APERTURE LIST*
G04 Aperture macros list*
%AMRoundRect*
0 Rectangle with rounded corners*
0 $1 Rounding radius*
0 $2 $3 $4 $5 $6 $7 $8 $9 X,Y pos of 4 corners*
0 Add a 4 corners polygon primitive as box body*
4,1,4,$2,$3,$4,$5,$6,$7,$8,$9,$2,$3,0*
0 Add four circle primitives for the rounded corners*
1,1,$1+$1,$2,$3*
1,1,$1+$1,$4,$5*
1,1,$1+$1,$6,$7*
1,1,$1+$1,$8,$9*
0 Add four rect primitives between the rounded corners*
20,1,$1+$1,$2,$3,$4,$5,0*
20,1,$1+$1,$4,$5,$6,$7,0*
20,1,$1+$1,$6,$7,$8,$9,0*
20,1,$1+$1,$8,$9,$2,$3,0*%
G04 Aperture macros list end*
%TA.AperFunction,ComponentPad*%
%ADD10R,1.700000X1.700000*%
%TD*%
%TA.AperFunction,ComponentPad*%
%ADD11C,1.700000*%
%TD*%
%TA.AperFunction,SMDPad,CuDef*%
%ADD12RoundRect,0.250000X-0.262500X-0.450000X0.262500X-0.450000X0.262500X0.450000X-0.262500X0.450000X0*%
%TD*%
%TA.AperFunction,SMDPad,CuDef*%
%ADD13RoundRect,0.250000X-0.450000X0.262500X-0.450000X-0.262500X0.450000X-0.262500X0.450000X0.262500X0*%
%TD*%
%TA.AperFunction,ComponentPad*%
%ADD14R,3.000000X3.000000*%
%TD*%
%TA.AperFunction,ComponentPad*%
%ADD15R,4.000000X4.000000*%
%TD*%
%TA.AperFunction,SMDPad,CuDef*%
%ADD16RoundRect,0.150000X0.587500X0.150000X-0.587500X0.150000X-0.587500X-0.150000X0.587500X-0.150000X0*%
%TD*%
%TA.AperFunction,SMDPad,CuDef*%
%ADD17RoundRect,0.150000X-0.587500X-0.150000X0.587500X-0.150000X0.587500X0.150000X-0.587500X0.150000X0*%
%TD*%
%TA.AperFunction,SMDPad,CuDef*%
%ADD18RoundRect,0.150000X-0.150000X-0.700000X0.150000X-0.700000X0.150000X0.700000X-0.150000X0.700000X0*%
%TD*%
%TA.AperFunction,SMDPad,CuDef*%
%ADD19RoundRect,0.250000X-0.250000X-1.100000X0.250000X-1.100000X0.250000X1.100000X-0.250000X1.100000X0*%
%TD*%
%TA.AperFunction,ViaPad*%
%ADD20C,0.800000*%
%TD*%
%TA.AperFunction,Conductor*%
%ADD21C,0.500000*%
%TD*%
%TA.AperFunction,Conductor*%
%ADD22C,1.250000*%
%TD*%
%TA.AperFunction,Conductor*%
%ADD23C,0.240000*%
%TD*%
%TA.AperFunction,Conductor*%
%ADD24C,0.280000*%
%TD*%
%TA.AperFunction,Conductor*%
%ADD25C,0.650000*%
%TD*%
%TA.AperFunction,Conductor*%
%ADD26C,0.350000*%
%TD*%
%TA.AperFunction,Conductor*%
%ADD27C,0.220000*%
%TD*%
%TA.AperFunction,Conductor*%
%ADD28C,0.300000*%
%TD*%
%TA.AperFunction,Conductor*%
%ADD29C,0.200000*%
%TD*%
G04 APERTURE END LIST*
D10*
%TO.P,J1,1*%
%TO.N,N/C*%
X42000000Y-8000000D03*
D11*
%TO.P,J1,2*%
X42000000Y-10540000D03*
%TO.P,J1,3*%
X42000000Y-13080000D03*
%TO.P,J1,4*%
%TO.N,ESP_GPIO13_RX*%
X42000000Y-15620000D03*
%TO.P,J1,5*%
%TO.N,N/C*%
X42000000Y-18160000D03*
%TO.P,J1,6*%
%TO.N,ESP_GPIO14_TX*%
X42000000Y-20700000D03*
%TO.P,J1,7*%
%TO.N,N/C*%
X42000000Y-23240000D03*
%TO.P,J1,8*%
X42000000Y-25780000D03*
%TD*%
D12*
%TO.P,R10,1*%
%TO.N,NANO_D2_RX*%
X45087500Y-45000000D03*
%TO.P,R10,2*%
%TO.N,ESP_GPIO14_TX*%
X46912500Y-45000000D03*
%TD*%
%TO.P,R8,1*%
%TO.N,NANO_D4_TX*%
X45087500Y-50000000D03*
%TO.P,R8,2*%
%TO.N,ESP_GPIO13_RX*%
X46912500Y-50000000D03*
%TD*%
%TO.P,R5,1*%
%TO.N,NANO_D6_UVA_PWM*%
X37087500Y-82000000D03*
%TO.P,R5,2*%
%TO.N,UVA_GATE*%
X38912500Y-82000000D03*
%TD*%
D13*
%TO.P,R4,1*%
%TO.N,+5V_SYS*%
X50000000Y-85587500D03*
%TO.P,R4,2*%
%TO.N,UVA_ANODE*%
X50000000Y-87412500D03*
%TD*%
D14*
%TO.P,P8,1*%
%TO.N,GND*%
X50000000Y-128000000D03*
%TD*%
D10*
%TO.P,JP1,1*%
%TO.N,ESP_IO0_BOOT*%
X61000000Y-39000000D03*
D11*
%TO.P,JP1,2*%
%TO.N,GND*%
X63540000Y-39000000D03*
%TD*%
D15*
%TO.P,P2,1*%
%TO.N,GND*%
X8000000Y-128000000D03*
%TD*%
D14*
%TO.P,P5,1*%
%TO.N,VBAT_2S*%
X36000000Y-119000000D03*
%TD*%
%TO.P,P3,1*%
%TO.N,VBAT_2S*%
X22000000Y-119000000D03*
%TD*%
D16*
%TO.P,Q1,1*%
%TO.N,IR_GATE*%
X63937500Y-91950000D03*
%TO.P,Q1,2*%
%TO.N,GND*%
X63937500Y-90050000D03*
%TO.P,Q1,3*%
%TO.N,IR_NEG*%
X62062500Y-91000000D03*
%TD*%
D12*
%TO.P,R9,1*%
%TO.N,ESP_GPIO13_RX*%
X54087500Y-50000000D03*
%TO.P,R9,2*%
%TO.N,GND*%
X55912500Y-50000000D03*
%TD*%
D14*
%TO.P,P4,1*%
%TO.N,GND*%
X22000000Y-128000000D03*
%TD*%
D12*
%TO.P,R6,1*%
%TO.N,GND*%
X37087500Y-85000000D03*
%TO.P,R6,2*%
%TO.N,UVA_GATE*%
X38912500Y-85000000D03*
%TD*%
D13*
%TO.P,R1,1*%
%TO.N,+5V_SYS*%
X58000000Y-85587500D03*
%TO.P,R1,2*%
%TO.N,IR_ANODE*%
X58000000Y-87412500D03*
%TD*%
D10*
%TO.P,J4,1*%
%TO.N,N/C*%
X7000000Y-60000000D03*
D11*
%TO.P,J4,2*%
X9540000Y-60000000D03*
%TO.P,J4,3*%
X12080000Y-60000000D03*
%TO.P,J4,4*%
X14620000Y-60000000D03*
%TO.P,J4,5*%
X17160000Y-60000000D03*
%TO.P,J4,6*%
X19700000Y-60000000D03*
%TO.P,J4,7*%
X22240000Y-60000000D03*
%TO.P,J4,8*%
X24780000Y-60000000D03*
%TO.P,J4,9*%
X27320000Y-60000000D03*
%TO.P,J4,10*%
X29860000Y-60000000D03*
%TO.P,J4,11*%
X32400000Y-60000000D03*
%TO.P,J4,12*%
%TO.N,+5V_SYS*%
X34940000Y-60000000D03*
%TO.P,J4,13*%
%TO.N,N/C*%
X37480000Y-60000000D03*
%TO.P,J4,14*%
%TO.N,GND*%
X40020000Y-60000000D03*
%TO.P,J4,15*%
%TO.N,N/C*%
X42560000Y-60000000D03*
%TD*%
D10*
%TO.P,J5,1*%
%TO.N,N/C*%
X7000000Y-75240000D03*
D11*
%TO.P,J5,2*%
X9540000Y-75240000D03*
%TO.P,J5,3*%
X12080000Y-75240000D03*
%TO.P,J5,4*%
X14620000Y-75240000D03*
%TO.P,J5,5*%
%TO.N,NANO_D8_LED_EN*%
X17160000Y-75240000D03*
%TO.P,J5,6*%
%TO.N,NANO_D7_SK6812_DATA*%
X19700000Y-75240000D03*
%TO.P,J5,7*%
%TO.N,NANO_D6_UVA_PWM*%
X22240000Y-75240000D03*
%TO.P,J5,8*%
%TO.N,NANO_D5_IR_PWM*%
X24780000Y-75240000D03*
%TO.P,J5,9*%
%TO.N,NANO_D4_TX*%
X27320000Y-75240000D03*
%TO.P,J5,10*%
%TO.N,N/C*%
X29860000Y-75240000D03*
%TO.P,J5,11*%
%TO.N,NANO_D2_RX*%
X32400000Y-75240000D03*
%TO.P,J5,12*%
%TO.N,GND*%
X34940000Y-75240000D03*
%TO.P,J5,13*%
%TO.N,N/C*%
X37480000Y-75240000D03*
%TO.P,J5,14*%
X40020000Y-75240000D03*
%TO.P,J5,15*%
X42560000Y-75240000D03*
%TD*%
D14*
%TO.P,P7,1*%
%TO.N,+5V_SYS*%
X50000000Y-119000000D03*
%TD*%
D17*
%TO.P,Q2,1*%
%TO.N,UVA_GATE*%
X45062500Y-90050000D03*
%TO.P,Q2,2*%
%TO.N,GND*%
X45062500Y-91950000D03*
%TO.P,Q2,3*%
%TO.N,UVA_NEG*%
X46937500Y-91000000D03*
%TD*%
D12*
%TO.P,R7,1*%
%TO.N,NANO_D7_SK6812_DATA*%
X49087500Y-80000000D03*
%TO.P,R7,2*%
%TO.N,SK6812_DIN_1*%
X50912500Y-80000000D03*
%TD*%
%TO.P,R3,1*%
%TO.N,GND*%
X61087500Y-85000000D03*
%TO.P,R3,2*%
%TO.N,IR_GATE*%
X62912500Y-85000000D03*
%TD*%
D10*
%TO.P,J2,1*%
%TO.N,N/C*%
X64860000Y-8000000D03*
D11*
%TO.P,J2,2*%
X64860000Y-10540000D03*
%TO.P,J2,3*%
%TO.N,ESP_IO0_BOOT*%
X64860000Y-13080000D03*
%TO.P,J2,4*%
%TO.N,GND*%
X64860000Y-15620000D03*
%TO.P,J2,5*%
%TO.N,+5V_SYS*%
X64860000Y-18160000D03*
%TO.P,J2,6*%
%TO.N,ESP_U0R_PROG*%
X64860000Y-20700000D03*
%TO.P,J2,7*%
%TO.N,ESP_U0T_PROG*%
X64860000Y-23240000D03*
%TO.P,J2,8*%
%TO.N,GND*%
X64860000Y-25780000D03*
%TD*%
D14*
%TO.P,P6,1*%
%TO.N,GND*%
X36000000Y-128000000D03*
%TD*%
D18*
%TO.P,J8,1*%
%TO.N,UVA_NEG*%
X46875000Y-94150000D03*
%TO.P,J8,2*%
%TO.N,UVA_ANODE*%
X48125000Y-94150000D03*
%TO.P,J8,3*%
%TO.N,+5V_SYS*%
X49375000Y-94150000D03*
%TO.P,J8,4*%
X50625000Y-94150000D03*
%TO.P,J8,5*%
%TO.N,GND*%
X51875000Y-94150000D03*
%TO.P,J8,6*%
X53125000Y-94150000D03*
%TO.P,J8,7*%
%TO.N,SK6812_DIN_1*%
X54375000Y-94150000D03*
%TO.P,J8,8*%
%TO.N,N/C*%
X55625000Y-94150000D03*
%TO.P,J8,9*%
%TO.N,IR_ANODE*%
X56875000Y-94150000D03*
%TO.P,J8,10*%
%TO.N,IR_NEG*%
X58125000Y-94150000D03*
%TO.P,J8,11*%
%TO.N,N/C*%
X59375000Y-94150000D03*
%TO.P,J8,12*%
X60625000Y-94150000D03*
%TO.P,J8,13*%
X61875000Y-94150000D03*
%TO.P,J8,14*%
X63125000Y-94150000D03*
D19*
%TO.P,J8,MP*%
X45025000Y-97350000D03*
X64975000Y-97350000D03*
%TD*%
D10*
%TO.P,J3,1*%
%TO.N,GND*%
X41000000Y-34000000D03*
D11*
%TO.P,J3,2*%
%TO.N,+5V_SYS*%
X43540000Y-34000000D03*
%TO.P,J3,3*%
%TO.N,ESP_U0R_PROG*%
X46080000Y-34000000D03*
%TO.P,J3,4*%
%TO.N,ESP_U0T_PROG*%
X48620000Y-34000000D03*
%TD*%
D15*
%TO.P,P1,1*%
%TO.N,VBAT_2S*%
X8000000Y-119000000D03*
%TD*%
D12*
%TO.P,R2,1*%
%TO.N,NANO_D5_IR_PWM*%
X61087500Y-82000000D03*
%TO.P,R2,2*%
%TO.N,IR_GATE*%
X62912500Y-82000000D03*
%TD*%
D20*
%TO.N,GND*%
X53500000Y-93600000D03*
X67000000Y-78000000D03*
X60000000Y-87000000D03*
X61000000Y-90000000D03*
X67000000Y-50000000D03*
X67000000Y-37000000D03*
X67000000Y-63000000D03*
X52500000Y-93600000D03*
X43000000Y-93600000D03*
%TO.N,+5V_SYS*%
X58000000Y-84500000D03*
X58000000Y-18160000D03*
X58000000Y-57000000D03*
X58000000Y-36000000D03*
%TO.N,ESP_GPIO13_RX*%
X52000000Y-50000000D03*
%TO.N,ESP_GPIO14_TX*%
X50000000Y-43000000D03*
%TO.N,NANO_D2_RX*%
X41300000Y-45000000D03*
X33400000Y-72000000D03*
X41300000Y-72000000D03*
%TO.N,NANO_D4_TX*%
X38750000Y-50000000D03*
%TO.N,NANO_D5_IR_PWM*%
X55000000Y-82000000D03*
%TO.N,NANO_D6_UVA_PWM*%
X36000000Y-84000000D03*
%TO.N,NANO_D7_SK6812_DATA*%
X48000000Y-86000000D03*
%TO.N,SK6812_DIN_1*%
X54500000Y-93600000D03*
X52000000Y-80000000D03*
%TD*%
%TO.N,GND*%
D21*
X37000000Y-34000000D02*
X41000000Y-34000000D01*
D22*
X36000000Y-128000000D02*
X50000000Y-128000000D01*
D23*
X38000000Y-85000000D02*
X37087500Y-85000000D01*
D21*
X67000000Y-37000000D02*
X67000000Y-55000000D01*
D23*
X37087500Y-85000000D02*
X35000000Y-85000000D01*
D24*
X55912500Y-50000000D02*
X67000000Y-50000000D01*
D23*
X35000000Y-85000000D02*
X35000000Y-78000000D01*
D25*
X40020000Y-60000000D02*
X40020000Y-63000000D01*
D23*
X43000000Y-91950000D02*
X45062500Y-91950000D01*
D25*
X40020000Y-63000000D02*
X67000000Y-63000000D01*
D23*
X45062500Y-91950000D02*
X38000000Y-91950000D01*
X38000000Y-91950000D02*
X38000000Y-85000000D01*
D26*
X63540000Y-39000000D02*
X63540000Y-37000000D01*
D25*
X35940000Y-78000000D02*
X67000000Y-78000000D01*
D21*
X67000000Y-55000000D02*
X37000000Y-55000000D01*
D25*
X34940000Y-75240000D02*
X35940000Y-78000000D01*
D27*
X51875000Y-94150000D02*
X52500000Y-93600000D01*
D23*
X60000000Y-85000000D02*
X60000000Y-87000000D01*
X61087500Y-85000000D02*
X60000000Y-85000000D01*
D27*
X53125000Y-94150000D02*
X53500000Y-93600000D01*
D26*
X63540000Y-37000000D02*
X67000000Y-37000000D01*
D28*
X63937500Y-90050000D02*
X61000000Y-90000000D01*
D23*
X35000000Y-78000000D02*
X35940000Y-78000000D01*
D22*
X22000000Y-128000000D02*
X36000000Y-128000000D01*
D23*
X43000000Y-93600000D02*
X43000000Y-91950000D01*
D22*
X8000000Y-128000000D02*
X22000000Y-128000000D01*
D21*
X37000000Y-55000000D02*
X37000000Y-34000000D01*
%TO.N,VBAT_2S*%
D22*
X22000000Y-119000000D02*
X36000000Y-119000000D01*
X8000000Y-119000000D02*
X22000000Y-119000000D01*
%TO.N,+5V_SYS*%
D23*
X51500000Y-84500000D02*
X51500000Y-89000000D01*
X58000000Y-84500000D02*
X51000000Y-84500000D01*
D21*
X58000000Y-36000000D02*
X43540000Y-36000000D01*
D23*
X50500000Y-89000000D02*
X49375000Y-94150000D01*
D26*
X58000000Y-84500000D02*
X58000000Y-85587500D01*
X50000000Y-84500000D02*
X50000000Y-85587500D01*
D25*
X58000000Y-18160000D02*
X64860000Y-18160000D01*
X34940000Y-60000000D02*
X35940000Y-57000000D01*
D21*
X43540000Y-36000000D02*
X43540000Y-34000000D01*
D23*
X51000000Y-89000000D02*
X50500000Y-89000000D01*
D26*
X58000000Y-84500000D02*
X50000000Y-84500000D01*
D23*
X58000000Y-84500000D02*
X51500000Y-84500000D01*
X51500000Y-89000000D02*
X50625000Y-94150000D01*
D25*
X35940000Y-57000000D02*
X58000000Y-57000000D01*
D23*
X51000000Y-84500000D02*
X51000000Y-89000000D01*
%TO.N,ESP_GPIO13_RX*%
D24*
X46912500Y-50000000D02*
X52000000Y-50000000D01*
X52000000Y-50000000D02*
X54087500Y-50000000D01*
%TO.N,ESP_GPIO14_TX*%
X50000000Y-45000000D02*
X46912500Y-45000000D01*
X50000000Y-43000000D02*
X50000000Y-45000000D01*
%TO.N,ESP_U0R_PROG*%
X61000000Y-20700000D02*
X61000000Y-28000000D01*
X61000000Y-28000000D02*
X46080000Y-28000000D01*
X64860000Y-20700000D02*
X61000000Y-20700000D01*
X46080000Y-28000000D02*
X46080000Y-34000000D01*
%TO.N,ESP_U0T_PROG*%
X63500000Y-23240000D02*
X63500000Y-31500000D01*
X48620000Y-31500000D02*
X48620000Y-34000000D01*
X63500000Y-31500000D02*
X48620000Y-31500000D01*
X64860000Y-23240000D02*
X63500000Y-23240000D01*
%TO.N,NANO_D2_RX*%
X33400000Y-72000000D02*
X41300000Y-72000000D01*
X41300000Y-45000000D02*
X45087500Y-45000000D01*
%TO.N,NANO_D4_TX*%
X38750000Y-50000000D02*
X45087500Y-50000000D01*
%TO.N,NANO_D5_IR_PWM*%
D23*
X55000000Y-82000000D02*
X61087500Y-82000000D01*
%TO.N,NANO_D6_UVA_PWM*%
X36000000Y-84000000D02*
X37087500Y-82000000D01*
%TO.N,NANO_D7_SK6812_DATA*%
D24*
X48000000Y-86000000D02*
X49087500Y-80000000D01*
%TO.N,IR_GATE*%
D23*
X66800000Y-91950000D02*
X63937500Y-91950000D01*
X66800000Y-86200000D02*
X66800000Y-91950000D01*
X62912500Y-82000000D02*
X63000000Y-86200000D01*
X63000000Y-86200000D02*
X66800000Y-86200000D01*
X62912500Y-85000000D02*
X63000000Y-86200000D01*
%TO.N,UVA_GATE*%
X45060000Y-86200000D02*
X45062500Y-90050000D01*
X38912500Y-82000000D02*
X40000000Y-86200000D01*
X38912500Y-85000000D02*
X40000000Y-86200000D01*
X40000000Y-86200000D02*
X45060000Y-86200000D01*
%TO.N,IR_NEG*%
X62062500Y-91000000D02*
X57500000Y-91000000D01*
X57500000Y-91000000D02*
X58125000Y-94150000D01*
%TO.N,UVA_NEG*%
X48500000Y-91000000D02*
X46875000Y-94150000D01*
X46937500Y-91000000D02*
X48500000Y-91000000D01*
%TO.N,IR_ANODE*%
X58000000Y-87412500D02*
X56500000Y-88000000D01*
X56500000Y-88000000D02*
X56875000Y-94150000D01*
%TO.N,UVA_ANODE*%
X49500000Y-89500000D02*
X48125000Y-94150000D01*
X50000000Y-87412500D02*
X49500000Y-89500000D01*
%TO.N,SK6812_DIN_1*%
D29*
X50912500Y-80000000D02*
X52000000Y-80000000D01*
X54500000Y-93600000D02*
X54375000Y-94150000D01*
%TD*%
M02*
