%TF.GenerationSoftware,KiCad,Pcbnew,10.0.5*%
%TF.CreationDate,2026-07-31T12:05:10-06:00*%
%TF.ProjectId,iphone16e_2s_sk6812_main_v0_8,6970686f-6e65-4313-9665-5f32735f736b,rev?*%
%TF.SameCoordinates,Original*%
%TF.FileFunction,Legend,Top*%
%TF.FilePolarity,Positive*%
%FSLAX46Y46*%
G04 Gerber Fmt 4.6, Leading zero omitted, Abs format (unit mm)*
G04 Created by KiCad (PCBNEW 10.0.5) date 2026-07-31 12:05:10*
%MOMM*%
%LPD*%
G01*
G04 APERTURE LIST*
%ADD10C,0.120000*%
G04 APERTURE END LIST*
%TO.C,J1*%
D10*
X40620000Y-6620000D02*
X42000000Y-6620000D01*
X40620000Y-8000000D02*
X40620000Y-6620000D01*
X40620000Y-9270000D02*
X40620000Y-27160000D01*
X40620000Y-9270000D02*
X43380000Y-9270000D01*
X40620000Y-27160000D02*
X43380000Y-27160000D01*
X43380000Y-9270000D02*
X43380000Y-27160000D01*
%TO.C,R10*%
X45772936Y-44265000D02*
X46227064Y-44265000D01*
X45772936Y-45735000D02*
X46227064Y-45735000D01*
%TO.C,R8*%
X45772936Y-49265000D02*
X46227064Y-49265000D01*
X45772936Y-50735000D02*
X46227064Y-50735000D01*
%TO.C,R5*%
X37772936Y-81265000D02*
X38227064Y-81265000D01*
X37772936Y-82735000D02*
X38227064Y-82735000D01*
%TO.C,R4*%
X49265000Y-86272936D02*
X49265000Y-86727064D01*
X50735000Y-86272936D02*
X50735000Y-86727064D01*
%TO.C,P8*%
X48300000Y-126300000D02*
X51700000Y-126300000D01*
X48300000Y-129700000D02*
X48300000Y-126300000D01*
X51700000Y-126300000D02*
X51700000Y-129700000D01*
X51700000Y-129700000D02*
X48300000Y-129700000D01*
%TO.C,JP1*%
X59620000Y-40380000D02*
X59620000Y-39000000D01*
X61000000Y-40380000D02*
X59620000Y-40380000D01*
X62270000Y-37620000D02*
X64920000Y-37620000D01*
X62270000Y-40380000D02*
X62270000Y-37620000D01*
X62270000Y-40380000D02*
X64920000Y-40380000D01*
X64920000Y-40380000D02*
X64920000Y-37620000D01*
%TO.C,P2*%
X5800000Y-125800000D02*
X10200000Y-125800000D01*
X5800000Y-130200000D02*
X5800000Y-125800000D01*
X10200000Y-125800000D02*
X10200000Y-130200000D01*
X10200000Y-130200000D02*
X5800000Y-130200000D01*
%TO.C,P5*%
X34300000Y-117300000D02*
X37700000Y-117300000D01*
X34300000Y-120700000D02*
X34300000Y-117300000D01*
X37700000Y-117300000D02*
X37700000Y-120700000D01*
X37700000Y-120700000D02*
X34300000Y-120700000D01*
%TO.C,P3*%
X20300000Y-117300000D02*
X23700000Y-117300000D01*
X20300000Y-120700000D02*
X20300000Y-117300000D01*
X23700000Y-117300000D02*
X23700000Y-120700000D01*
X23700000Y-120700000D02*
X20300000Y-120700000D01*
%TO.C,Q1*%
X62240000Y-89440000D02*
X63760000Y-89440000D01*
X62240000Y-90440000D02*
X62240000Y-89440000D01*
X62240000Y-92560000D02*
X62240000Y-91560000D01*
X63760000Y-89440000D02*
X63760000Y-89490000D01*
X63760000Y-90610000D02*
X63760000Y-91390000D01*
X63760000Y-92510000D02*
X63760000Y-92560000D01*
X63760000Y-92560000D02*
X62240000Y-92560000D01*
X64300000Y-91380000D02*
X64060000Y-91050000D01*
X64540000Y-91050000D01*
X64300000Y-91380000D01*
G36*
X64300000Y-91380000D02*
G01*
X64060000Y-91050000D01*
X64540000Y-91050000D01*
X64300000Y-91380000D01*
G37*
%TO.C,R9*%
X54772936Y-49265000D02*
X55227064Y-49265000D01*
X54772936Y-50735000D02*
X55227064Y-50735000D01*
%TO.C,P4*%
X20300000Y-126300000D02*
X23700000Y-126300000D01*
X20300000Y-129700000D02*
X20300000Y-126300000D01*
X23700000Y-126300000D02*
X23700000Y-129700000D01*
X23700000Y-129700000D02*
X20300000Y-129700000D01*
%TO.C,R6*%
X37772936Y-84265000D02*
X38227064Y-84265000D01*
X37772936Y-85735000D02*
X38227064Y-85735000D01*
%TO.C,R1*%
X57265000Y-86272936D02*
X57265000Y-86727064D01*
X58735000Y-86272936D02*
X58735000Y-86727064D01*
%TO.C,J4*%
X5620000Y-61380000D02*
X5620000Y-60000000D01*
X7000000Y-61380000D02*
X5620000Y-61380000D01*
X8270000Y-58620000D02*
X43940000Y-58620000D01*
X8270000Y-61380000D02*
X8270000Y-58620000D01*
X8270000Y-61380000D02*
X43940000Y-61380000D01*
X43940000Y-61380000D02*
X43940000Y-58620000D01*
%TO.C,J5*%
X5620000Y-76620000D02*
X5620000Y-75240000D01*
X7000000Y-76620000D02*
X5620000Y-76620000D01*
X8270000Y-73860000D02*
X43940000Y-73860000D01*
X8270000Y-76620000D02*
X8270000Y-73860000D01*
X8270000Y-76620000D02*
X43940000Y-76620000D01*
X43940000Y-76620000D02*
X43940000Y-73860000D01*
%TO.C,P7*%
X48300000Y-117300000D02*
X51700000Y-117300000D01*
X48300000Y-120700000D02*
X48300000Y-117300000D01*
X51700000Y-117300000D02*
X51700000Y-120700000D01*
X51700000Y-120700000D02*
X48300000Y-120700000D01*
%TO.C,Q2*%
X45240000Y-89440000D02*
X46760000Y-89440000D01*
X45240000Y-89490000D02*
X45240000Y-89440000D01*
X45240000Y-91390000D02*
X45240000Y-90610000D01*
X45240000Y-92560000D02*
X45240000Y-92510000D01*
X46760000Y-89440000D02*
X46760000Y-90440000D01*
X46760000Y-91560000D02*
X46760000Y-92560000D01*
X46760000Y-92560000D02*
X45240000Y-92560000D01*
X44700000Y-90620000D02*
X44940000Y-90950000D01*
X44460000Y-90950000D01*
X44700000Y-90620000D01*
G36*
X44940000Y-90950000D02*
G01*
X44460000Y-90950000D01*
X44700000Y-90620000D01*
X44940000Y-90950000D01*
G37*
%TO.C,R7*%
X49772936Y-79265000D02*
X50227064Y-79265000D01*
X49772936Y-80735000D02*
X50227064Y-80735000D01*
%TO.C,R3*%
X61772936Y-84265000D02*
X62227064Y-84265000D01*
X61772936Y-85735000D02*
X62227064Y-85735000D01*
%TO.C,J2*%
X63480000Y-6620000D02*
X64860000Y-6620000D01*
X63480000Y-8000000D02*
X63480000Y-6620000D01*
X63480000Y-9270000D02*
X63480000Y-27160000D01*
X63480000Y-9270000D02*
X66240000Y-9270000D01*
X63480000Y-27160000D02*
X66240000Y-27160000D01*
X66240000Y-9270000D02*
X66240000Y-27160000D01*
%TO.C,P6*%
X34300000Y-126300000D02*
X37700000Y-126300000D01*
X34300000Y-129700000D02*
X34300000Y-126300000D01*
X37700000Y-126300000D02*
X37700000Y-129700000D01*
X37700000Y-129700000D02*
X34300000Y-129700000D01*
%TO.C,J8*%
X44515000Y-94290000D02*
X46315000Y-94290000D01*
X44515000Y-95740000D02*
X44515000Y-94290000D01*
X45785000Y-98560000D02*
X64215000Y-98560000D01*
X46315000Y-94290000D02*
X46315000Y-93300000D01*
X65485000Y-94290000D02*
X63685000Y-94290000D01*
X65485000Y-95740000D02*
X65485000Y-94290000D01*
%TO.C,J3*%
X39620000Y-35380000D02*
X39620000Y-34000000D01*
X41000000Y-35380000D02*
X39620000Y-35380000D01*
X42270000Y-32620000D02*
X50000000Y-32620000D01*
X42270000Y-35380000D02*
X42270000Y-32620000D01*
X42270000Y-35380000D02*
X50000000Y-35380000D01*
X50000000Y-35380000D02*
X50000000Y-32620000D01*
%TO.C,P1*%
X5800000Y-116800000D02*
X10200000Y-116800000D01*
X5800000Y-121200000D02*
X5800000Y-116800000D01*
X10200000Y-116800000D02*
X10200000Y-121200000D01*
X10200000Y-121200000D02*
X5800000Y-121200000D01*
%TO.C,R2*%
X61772936Y-81265000D02*
X62227064Y-81265000D01*
X61772936Y-82735000D02*
X62227064Y-82735000D01*
%TD*%
M02*
