M48
; DRILL file KiCad 10.0.5 date 2026-07-31T12:05:11
; FORMAT={-:-/ absolute / metric / decimal}
; #@! TF.CreationDate,2026-07-31T12:05:11-06:00
; #@! TF.GenerationSoftware,Kicad,Pcbnew,10.0.5
; #@! TF.FileFunction,MixedPlating,1,2
FMAT,2
METRIC
; #@! TA.AperFunction,Plated,PTH,ViaDrill
T1C0.400
; #@! TA.AperFunction,Plated,PTH,ComponentDrill
T2C1.000
; #@! TA.AperFunction,Plated,PTH,ComponentDrill
T3C1.500
; #@! TA.AperFunction,Plated,PTH,ComponentDrill
T4C2.000
; #@! TA.AperFunction,NonPlated,NPTH,ComponentDrill
T5C3.200
%
G90
G05
T1
X33.4Y-72.0
X36.0Y-84.0
X38.75Y-50.0
X41.3Y-45.0
X41.3Y-72.0
X43.0Y-93.6
X48.0Y-86.0
X50.0Y-43.0
X52.0Y-50.0
X52.0Y-80.0
X52.5Y-93.6
X53.5Y-93.6
X54.5Y-93.6
X55.0Y-82.0
X58.0Y-18.16
X58.0Y-36.0
X58.0Y-57.0
X58.0Y-84.5
X60.0Y-87.0
X61.0Y-90.0
X67.0Y-37.0
X67.0Y-50.0
X67.0Y-63.0
X67.0Y-78.0
T2
X7.0Y-60.0
X7.0Y-75.24
X9.54Y-60.0
X9.54Y-75.24
X12.08Y-60.0
X12.08Y-75.24
X14.62Y-60.0
X14.62Y-75.24
X17.16Y-60.0
X17.16Y-75.24
X19.7Y-60.0
X19.7Y-75.24
X22.24Y-60.0
X22.24Y-75.24
X24.78Y-60.0
X24.78Y-75.24
X27.32Y-60.0
X27.32Y-75.24
X29.86Y-60.0
X29.86Y-75.24
X32.4Y-60.0
X32.4Y-75.24
X34.94Y-60.0
X34.94Y-75.24
X37.48Y-60.0
X37.48Y-75.24
X40.02Y-60.0
X40.02Y-75.24
X41.0Y-34.0
X42.0Y-8.0
X42.0Y-10.54
X42.0Y-13.08
X42.0Y-15.62
X42.0Y-18.16
X42.0Y-20.7
X42.0Y-23.24
X42.0Y-25.78
X42.56Y-60.0
X42.56Y-75.24
X43.54Y-34.0
X46.08Y-34.0
X48.62Y-34.0
X61.0Y-39.0
X63.54Y-39.0
X64.86Y-8.0
X64.86Y-10.54
X64.86Y-13.08
X64.86Y-15.62
X64.86Y-18.16
X64.86Y-20.7
X64.86Y-23.24
X64.86Y-25.78
T3
X22.0Y-119.0
X22.0Y-128.0
X36.0Y-119.0
X36.0Y-128.0
X50.0Y-119.0
X50.0Y-128.0
T4
X8.0Y-119.0
X8.0Y-128.0
T5
X5.0Y-48.0
X5.0Y-108.0
X66.0Y-132.0
M30
