%TF.GenerationSoftware,KiCad,Pcbnew,8.0.4*%
%TF.CreationDate,2026-07-30T02:28:16-06:00*%
%TF.ProjectId,iphone16e_2s_sk6812_carrier_v0_3,6970686f-6e65-4313-9665-5f32735f736b,rev?*%
%TF.SameCoordinates,Original*%
%TF.FileFunction,Soldermask,Top*%
%TF.FilePolarity,Negative*%
%FSLAX46Y46*%
G04 Gerber Fmt 4.6, Leading zero omitted, Abs format (unit mm)*
G04 Created by KiCad (PCBNEW 8.0.4) date 2026-07-30 02:28:16*
%MOMM*%
%LPD*%
G01*
G04 APERTURE LIST*
G04 Aperture macros list*
%AMRoundRect*
0 Rectangle with rounded corners*
0 $1 Rounding radius*
0 $2 $3 $4 $5 $6 $7 $8 $9 X,Y pos of 4 corners*
0 Add a 4 corners polygon primitive as box body*
4,1,4,$2,$3,$4,$5,$6,$7,$8,$9,$2,$3,0*
0 Add four circle primitives for the rounded corners*
1,1,$1+$1,$2,$3*
1,1,$1+$1,$4,$5*
1,1,$1+$1,$6,$7*
1,1,$1+$1,$8,$9*
0 Add four rect primitives between the rounded corners*
20,1,$1+$1,$2,$3,$4,$5,0*
20,1,$1+$1,$4,$5,$6,$7,0*
20,1,$1+$1,$6,$7,$8,$9,0*
20,1,$1+$1,$8,$9,$2,$3,0*%
G04 Aperture macros list end*
%ADD10RoundRect,0.150000X0.150000X-0.587500X0.150000X0.587500X-0.150000X0.587500X-0.150000X-0.587500X0*%
%ADD11RoundRect,0.250000X0.450000X-0.262500X0.450000X0.262500X-0.450000X0.262500X-0.450000X-0.262500X0*%
%ADD12R,1.800000X1.800000*%
%ADD13C,1.800000*%
%ADD14RoundRect,0.250000X-0.262500X-0.450000X0.262500X-0.450000X0.262500X0.450000X-0.262500X0.450000X0*%
%ADD15R,1.700000X1.700000*%
%ADD16O,1.700000X1.700000*%
%ADD17R,3.000000X3.000000*%
%ADD18R,2.000000X2.000000*%
%ADD19R,4.000000X4.000000*%
%ADD20C,3.200000*%
%ADD21R,1.600000X1.600000*%
%ADD22C,1.600000*%
%ADD23RoundRect,0.250000X-0.250000X-0.475000X0.250000X-0.475000X0.250000X0.475000X-0.250000X0.475000X0*%
G04 APERTURE END LIST*
D10*
%TO.C,Q2*%
X53050000Y-103937500D03*
X54950000Y-103937500D03*
X54000000Y-102062500D03*
%TD*%
D11*
%TO.C,R3*%
X45500000Y-112912500D03*
X45500000Y-111087500D03*
%TD*%
D12*
%TO.C,D2*%
X63500000Y-97000000D03*
D13*
X63500000Y-94460000D03*
%TD*%
D14*
%TO.C,R9*%
X54087500Y-50000000D03*
X55912500Y-50000000D03*
%TD*%
%TO.C,R10*%
X45087500Y-45000000D03*
X46912500Y-45000000D03*
%TD*%
D15*
%TO.C,J2*%
X64860000Y-8000000D03*
D16*
X64860000Y-10540000D03*
X64860000Y-13080000D03*
X64860000Y-15620000D03*
X64860000Y-18160000D03*
X64860000Y-20700000D03*
X64860000Y-23240000D03*
X64860000Y-25780000D03*
%TD*%
D11*
%TO.C,R6*%
X45500000Y-101912500D03*
X45500000Y-100087500D03*
%TD*%
D17*
%TO.C,P4*%
X22000000Y-128000000D03*
%TD*%
D18*
%TO.C,P9*%
X62000000Y-119000000D03*
%TD*%
D14*
%TO.C,R2*%
X37087500Y-108000000D03*
X38912500Y-108000000D03*
%TD*%
%TO.C,R1*%
X48587500Y-108000000D03*
X50412500Y-108000000D03*
%TD*%
%TO.C,R8*%
X45087500Y-50000000D03*
X46912500Y-50000000D03*
%TD*%
D19*
%TO.C,P1*%
X8000000Y-119000000D03*
%TD*%
D14*
%TO.C,R4*%
X48587500Y-97000000D03*
X50412500Y-97000000D03*
%TD*%
D15*
%TO.C,J3*%
X41000000Y-34000000D03*
D16*
X43540000Y-34000000D03*
X46080000Y-34000000D03*
X48620000Y-34000000D03*
%TD*%
D15*
%TO.C,J7*%
X46000000Y-88000000D03*
D16*
X48540000Y-88000000D03*
X51080000Y-88000000D03*
X53620000Y-88000000D03*
%TD*%
D18*
%TO.C,P10*%
X62000000Y-128000000D03*
%TD*%
D10*
%TO.C,Q1*%
X53050000Y-114937500D03*
X54950000Y-114937500D03*
X54000000Y-113062500D03*
%TD*%
D20*
%TO.C,H3*%
X66000000Y-132000000D03*
%TD*%
D21*
%TO.C,C1*%
X60000000Y-74000000D03*
D22*
X62500000Y-74000000D03*
%TD*%
D12*
%TO.C,D1*%
X63500000Y-108000000D03*
D13*
X63500000Y-105460000D03*
%TD*%
D17*
%TO.C,P3*%
X22000000Y-119000000D03*
%TD*%
D15*
%TO.C,J5*%
X7000000Y-75240000D03*
D16*
X9540000Y-75240000D03*
X12080000Y-75240000D03*
X14620000Y-75240000D03*
X17160000Y-75240000D03*
X19700000Y-75240000D03*
X22240000Y-75240000D03*
X24780000Y-75240000D03*
X27320000Y-75240000D03*
X29860000Y-75240000D03*
X32400000Y-75240000D03*
X34940000Y-75240000D03*
X37480000Y-75240000D03*
X40020000Y-75240000D03*
X42560000Y-75240000D03*
%TD*%
D19*
%TO.C,P2*%
X8000000Y-128000000D03*
%TD*%
D20*
%TO.C,H1*%
X5000000Y-108000000D03*
%TD*%
D17*
%TO.C,P7*%
X50000000Y-119000000D03*
%TD*%
%TO.C,P8*%
X50000000Y-128000000D03*
%TD*%
D14*
%TO.C,R7*%
X37087500Y-84000000D03*
X38912500Y-84000000D03*
%TD*%
D17*
%TO.C,P5*%
X36000000Y-119000000D03*
%TD*%
D23*
%TO.C,C2*%
X65050000Y-70000000D03*
X66950000Y-70000000D03*
%TD*%
D15*
%TO.C,J6*%
X46000000Y-81000000D03*
D16*
X48540000Y-81000000D03*
X51080000Y-81000000D03*
X53620000Y-81000000D03*
%TD*%
D17*
%TO.C,P6*%
X36000000Y-128000000D03*
%TD*%
D20*
%TO.C,H2*%
X5000000Y-48000000D03*
%TD*%
D15*
%TO.C,JP1*%
X61000000Y-39000000D03*
D16*
X63540000Y-39000000D03*
%TD*%
D15*
%TO.C,J4*%
X7000000Y-60000000D03*
D16*
X9540000Y-60000000D03*
X12080000Y-60000000D03*
X14620000Y-60000000D03*
X17160000Y-60000000D03*
X19700000Y-60000000D03*
X22240000Y-60000000D03*
X24780000Y-60000000D03*
X27320000Y-60000000D03*
X29860000Y-60000000D03*
X32400000Y-60000000D03*
X34940000Y-60000000D03*
X37480000Y-60000000D03*
X40020000Y-60000000D03*
X42560000Y-60000000D03*
%TD*%
D14*
%TO.C,R5*%
X37087500Y-97000000D03*
X38912500Y-97000000D03*
%TD*%
D15*
%TO.C,J1*%
X42000000Y-8000000D03*
D16*
X42000000Y-10540000D03*
X42000000Y-13080000D03*
X42000000Y-15620000D03*
X42000000Y-18160000D03*
X42000000Y-20700000D03*
X42000000Y-23240000D03*
X42000000Y-25780000D03*
%TD*%
M02*
