%TF.GenerationSoftware,KiCad,Pcbnew,8.0.4*%
%TF.CreationDate,2026-07-30T02:28:15-06:00*%
%TF.ProjectId,iphone16e_2s_sk6812_carrier_v0_3,6970686f-6e65-4313-9665-5f32735f736b,rev?*%
%TF.SameCoordinates,Original*%
%TF.FileFunction,Copper,L2,Bot*%
%TF.FilePolarity,Positive*%
%FSLAX46Y46*%
G04 Gerber Fmt 4.6, Leading zero omitted, Abs format (unit mm)*
G04 Created by KiCad (PCBNEW 8.0.4) date 2026-07-30 02:28:15*
%MOMM*%
%LPD*%
G01*
G04 APERTURE LIST*
%TA.AperFunction,ComponentPad*%
%ADD10R,1.800000X1.800000*%
%TD*%
%TA.AperFunction,ComponentPad*%
%ADD11C,1.800000*%
%TD*%
%TA.AperFunction,ComponentPad*%
%ADD12R,1.700000X1.700000*%
%TD*%
%TA.AperFunction,ComponentPad*%
%ADD13O,1.700000X1.700000*%
%TD*%
%TA.AperFunction,ComponentPad*%
%ADD14R,3.000000X3.000000*%
%TD*%
%TA.AperFunction,ComponentPad*%
%ADD15R,2.000000X2.000000*%
%TD*%
%TA.AperFunction,ComponentPad*%
%ADD16R,4.000000X4.000000*%
%TD*%
%TA.AperFunction,ComponentPad*%
%ADD17R,1.600000X1.600000*%
%TD*%
%TA.AperFunction,ComponentPad*%
%ADD18C,1.600000*%
%TD*%
%TA.AperFunction,ViaPad*%
%ADD19C,0.800000*%
%TD*%
%TA.AperFunction,Conductor*%
%ADD20C,0.550000*%
%TD*%
%TA.AperFunction,Conductor*%
%ADD21C,0.500000*%
%TD*%
%TA.AperFunction,Conductor*%
%ADD22C,0.650000*%
%TD*%
%TA.AperFunction,Conductor*%
%ADD23C,1.000000*%
%TD*%
%TA.AperFunction,Conductor*%
%ADD24C,0.450000*%
%TD*%
%TA.AperFunction,Conductor*%
%ADD25C,0.900000*%
%TD*%
%TA.AperFunction,Conductor*%
%ADD26C,0.280000*%
%TD*%
G04 APERTURE END LIST*
D10*
%TO.P,D2,1*%
%TO.N,UVA_NEG*%
X63500000Y-97000000D03*
D11*
%TO.P,D2,2*%
%TO.N,UVA_ANODE*%
X63500000Y-94460000D03*
%TD*%
D12*
%TO.P,J2,1*%
%TO.N,N/C*%
X64860000Y-8000000D03*
D13*
%TO.P,J2,2*%
X64860000Y-10540000D03*
%TO.P,J2,3*%
%TO.N,ESP_IO0_BOOT*%
X64860000Y-13080000D03*
%TO.P,J2,4*%
%TO.N,GND*%
X64860000Y-15620000D03*
%TO.P,J2,5*%
%TO.N,+5V*%
X64860000Y-18160000D03*
%TO.P,J2,6*%
%TO.N,ESP_U0R_PROG*%
X64860000Y-20700000D03*
%TO.P,J2,7*%
%TO.N,ESP_U0T_PROG*%
X64860000Y-23240000D03*
%TO.P,J2,8*%
%TO.N,GND*%
X64860000Y-25780000D03*
%TD*%
D14*
%TO.P,P4,1*%
%TO.N,GND*%
X22000000Y-128000000D03*
%TD*%
D15*
%TO.P,P9,1*%
%TO.N,NANO_D8_LED_EN*%
X62000000Y-119000000D03*
%TD*%
D16*
%TO.P,P1,1*%
%TO.N,VBAT_2S*%
X8000000Y-119000000D03*
%TD*%
D12*
%TO.P,J3,1*%
%TO.N,GND*%
X41000000Y-34000000D03*
D13*
%TO.P,J3,2*%
%TO.N,+5V*%
X43540000Y-34000000D03*
%TO.P,J3,3*%
%TO.N,ESP_U0R_PROG*%
X46080000Y-34000000D03*
%TO.P,J3,4*%
%TO.N,ESP_U0T_PROG*%
X48620000Y-34000000D03*
%TD*%
D12*
%TO.P,J7,1*%
%TO.N,+5V*%
X46000000Y-88000000D03*
D13*
%TO.P,J7,2*%
%TO.N,SK6812_1_TO_2*%
X48540000Y-88000000D03*
%TO.P,J7,3*%
%TO.N,GND*%
X51080000Y-88000000D03*
%TO.P,J7,4*%
%TO.N,N/C*%
X53620000Y-88000000D03*
%TD*%
D15*
%TO.P,P10,1*%
%TO.N,GND*%
X62000000Y-128000000D03*
%TD*%
D17*
%TO.P,C1,1*%
%TO.N,+5V*%
X60000000Y-74000000D03*
D18*
%TO.P,C1,2*%
%TO.N,GND*%
X62500000Y-74000000D03*
%TD*%
D10*
%TO.P,D1,1*%
%TO.N,IR_NEG*%
X63500000Y-108000000D03*
D11*
%TO.P,D1,2*%
%TO.N,IR_ANODE*%
X63500000Y-105460000D03*
%TD*%
D14*
%TO.P,P3,1*%
%TO.N,VBAT_2S*%
X22000000Y-119000000D03*
%TD*%
D12*
%TO.P,J5,1*%
%TO.N,N/C*%
X7000000Y-75240000D03*
D13*
%TO.P,J5,2*%
X9540000Y-75240000D03*
%TO.P,J5,3*%
X12080000Y-75240000D03*
%TO.P,J5,4*%
X14620000Y-75240000D03*
%TO.P,J5,5*%
%TO.N,NANO_D8_LED_EN*%
X17160000Y-75240000D03*
%TO.P,J5,6*%
%TO.N,NANO_D7_SK6812_DATA*%
X19700000Y-75240000D03*
%TO.P,J5,7*%
%TO.N,NANO_D6_UVA_PWM*%
X22240000Y-75240000D03*
%TO.P,J5,8*%
%TO.N,NANO_D5_IR_PWM*%
X24780000Y-75240000D03*
%TO.P,J5,9*%
%TO.N,NANO_D4_TX*%
X27320000Y-75240000D03*
%TO.P,J5,10*%
%TO.N,N/C*%
X29860000Y-75240000D03*
%TO.P,J5,11*%
%TO.N,NANO_D2_RX*%
X32400000Y-75240000D03*
%TO.P,J5,12*%
%TO.N,GND*%
X34940000Y-75240000D03*
%TO.P,J5,13*%
%TO.N,N/C*%
X37480000Y-75240000D03*
%TO.P,J5,14*%
X40020000Y-75240000D03*
%TO.P,J5,15*%
X42560000Y-75240000D03*
%TD*%
D16*
%TO.P,P2,1*%
%TO.N,GND*%
X8000000Y-128000000D03*
%TD*%
D14*
%TO.P,P7,1*%
%TO.N,+5V*%
X50000000Y-119000000D03*
%TD*%
%TO.P,P8,1*%
%TO.N,GND*%
X50000000Y-128000000D03*
%TD*%
%TO.P,P5,1*%
%TO.N,VBAT_2S*%
X36000000Y-119000000D03*
%TD*%
D12*
%TO.P,J6,1*%
%TO.N,+5V*%
X46000000Y-81000000D03*
D13*
%TO.P,J6,2*%
%TO.N,SK6812_DIN_1*%
X48540000Y-81000000D03*
%TO.P,J6,3*%
%TO.N,GND*%
X51080000Y-81000000D03*
%TO.P,J6,4*%
%TO.N,SK6812_1_TO_2*%
X53620000Y-81000000D03*
%TD*%
D14*
%TO.P,P6,1*%
%TO.N,GND*%
X36000000Y-128000000D03*
%TD*%
D12*
%TO.P,JP1,1*%
%TO.N,ESP_IO0_BOOT*%
X61000000Y-39000000D03*
D13*
%TO.P,JP1,2*%
%TO.N,GND*%
X63540000Y-39000000D03*
%TD*%
D12*
%TO.P,J4,1*%
%TO.N,N/C*%
X7000000Y-60000000D03*
D13*
%TO.P,J4,2*%
X9540000Y-60000000D03*
%TO.P,J4,3*%
X12080000Y-60000000D03*
%TO.P,J4,4*%
X14620000Y-60000000D03*
%TO.P,J4,5*%
X17160000Y-60000000D03*
%TO.P,J4,6*%
X19700000Y-60000000D03*
%TO.P,J4,7*%
X22240000Y-60000000D03*
%TO.P,J4,8*%
X24780000Y-60000000D03*
%TO.P,J4,9*%
X27320000Y-60000000D03*
%TO.P,J4,10*%
X29860000Y-60000000D03*
%TO.P,J4,11*%
X32400000Y-60000000D03*
%TO.P,J4,12*%
%TO.N,+5V*%
X34940000Y-60000000D03*
%TO.P,J4,13*%
%TO.N,N/C*%
X37480000Y-60000000D03*
%TO.P,J4,14*%
%TO.N,GND*%
X40020000Y-60000000D03*
%TO.P,J4,15*%
%TO.N,N/C*%
X42560000Y-60000000D03*
%TD*%
D12*
%TO.P,J1,1*%
%TO.N,N/C*%
X42000000Y-8000000D03*
D13*
%TO.P,J1,2*%
X42000000Y-10540000D03*
%TO.P,J1,3*%
X42000000Y-13080000D03*
%TO.P,J1,4*%
%TO.N,ESP_GPIO13_RX*%
X42000000Y-15620000D03*
%TO.P,J1,5*%
%TO.N,N/C*%
X42000000Y-18160000D03*
%TO.P,J1,6*%
%TO.N,ESP_GPIO14_TX*%
X42000000Y-20700000D03*
%TO.P,J1,7*%
%TO.N,N/C*%
X42000000Y-23240000D03*
%TO.P,J1,8*%
X42000000Y-25780000D03*
%TD*%
D19*
%TO.N,GND*%
X42000000Y-112900000D03*
X67000000Y-50000000D03*
X67000000Y-63000000D03*
X67000000Y-70000000D03*
X67000000Y-103000000D03*
X42000000Y-101900000D03*
X67000000Y-92000000D03*
X67000000Y-83000000D03*
X67000000Y-37000000D03*
X67000000Y-114000000D03*
X67000000Y-78000000D03*
%TO.N,+5V*%
X47000000Y-105500000D03*
X58000000Y-57000000D03*
X58000000Y-36000000D03*
X47000000Y-94500000D03*
X58000000Y-18160000D03*
%TO.N,ESP_GPIO13_RX*%
X52000000Y-50000000D03*
%TO.N,ESP_GPIO14_TX*%
X50000000Y-43000000D03*
%TO.N,NANO_D2_RX*%
X41300000Y-45000000D03*
X33400000Y-80000000D03*
X41300000Y-80000000D03*
%TO.N,NANO_D4_TX*%
X38750000Y-50000000D03*
%TO.N,NANO_D5_IR_PWM*%
X25780000Y-108000000D03*
%TO.N,NANO_D6_UVA_PWM*%
X23240000Y-97000000D03*
%TD*%
D20*
%TO.N,GND*%
X67000000Y-74000000D02*
X62500000Y-74000000D01*
D21*
X67000000Y-128000000D02*
X62000000Y-128000000D01*
D22*
X67000000Y-25780000D02*
X64860000Y-25780000D01*
D23*
X67000000Y-128000000D02*
X67000000Y-15620000D01*
D22*
X67000000Y-15620000D02*
X64860000Y-15620000D01*
D23*
X50000000Y-128000000D02*
X67000000Y-128000000D01*
D20*
X36000000Y-128000000D02*
X42000000Y-128000000D01*
X42000000Y-128000000D02*
X42000000Y-101900000D01*
D24*
%TO.N,+5V*%
X58000000Y-94500000D02*
X47000000Y-94500000D01*
X58000000Y-105500000D02*
X47000000Y-105500000D01*
D25*
X50000000Y-119000000D02*
X58000000Y-119000000D01*
D20*
X58000000Y-74000000D02*
X60000000Y-74000000D01*
X46000000Y-79000000D02*
X46000000Y-81000000D01*
X58000000Y-91000000D02*
X46000000Y-91000000D01*
X58000000Y-79000000D02*
X46000000Y-79000000D01*
D25*
X58000000Y-119000000D02*
X58000000Y-18160000D01*
D20*
X46000000Y-91000000D02*
X46000000Y-88000000D01*
D26*
%TO.N,ESP_GPIO13_RX*%
X52000000Y-15620000D02*
X42000000Y-15620000D01*
X52000000Y-50000000D02*
X52000000Y-15620000D01*
%TO.N,ESP_GPIO14_TX*%
X39500000Y-20700000D02*
X39500000Y-43000000D01*
X42000000Y-20700000D02*
X39500000Y-20700000D01*
X39500000Y-43000000D02*
X50000000Y-43000000D01*
%TO.N,ESP_IO0_BOOT*%
X60500000Y-13080000D02*
X60500000Y-39000000D01*
X60500000Y-39000000D02*
X61000000Y-39000000D01*
X64860000Y-13080000D02*
X60500000Y-13080000D01*
%TO.N,NANO_D2_RX*%
X41300000Y-80000000D02*
X41300000Y-45000000D01*
X32400000Y-75240000D02*
X33400000Y-80000000D01*
%TO.N,NANO_D4_TX*%
X27320000Y-75240000D02*
X28320000Y-82000000D01*
X38750000Y-82000000D02*
X38750000Y-50000000D01*
X28320000Y-82000000D02*
X38750000Y-82000000D01*
%TO.N,NANO_D5_IR_PWM*%
X24780000Y-75240000D02*
X25780000Y-108000000D01*
%TO.N,NANO_D6_UVA_PWM*%
X22240000Y-75240000D02*
X23240000Y-97000000D01*
%TO.N,SK6812_1_TO_2*%
X56000000Y-81000000D02*
X56000000Y-86000000D01*
X53620000Y-81000000D02*
X56000000Y-81000000D01*
X48540000Y-86000000D02*
X48540000Y-88000000D01*
X56000000Y-86000000D02*
X48540000Y-86000000D01*
%TD*%
M02*
